M48
; DRILL file {KiCad 9.0.1} date 2025-04-12T18:16:17+0900
; FORMAT={-:-/ absolute / metric / decimal}
; #@! TF.CreationDate,2025-04-12T18:16:17+09:00
; #@! TF.GenerationSoftware,Kicad,Pcbnew,9.0.1
; #@! TF.FileFunction,Plated,1,2,PTH
FMAT,2
METRIC
; #@! TA.AperFunction,Plated,PTH,ViaDrill
T1C0.250
; #@! TA.AperFunction,Plated,PTH,ViaDrill
T2C0.300
; #@! TA.AperFunction,Plated,PTH,ComponentDrill
T3C0.500
; #@! TA.AperFunction,Plated,PTH,ComponentDrill
T4C0.750
; #@! TA.AperFunction,Plated,PTH,ComponentDrill
T5C0.800
; #@! TA.AperFunction,Plated,PTH,ComponentDrill
T6C0.900
; #@! TA.AperFunction,Plated,PTH,ComponentDrill
T7C1.000
; #@! TA.AperFunction,Plated,PTH,ComponentDrill
T8C1.010
; #@! TA.AperFunction,Plated,PTH,ComponentDrill
T9C1.100
%
G90
G05
T1
X51.573Y-72.459
X52.07Y-61.656
X53.41Y-117.16
X53.5Y-123.0
X54.378Y-129.273
X54.378Y-141.478
X54.404Y-117.158
X56.389Y-117.177
X56.5Y-114.0
X56.839Y-84.994
X56.85Y-126.332
X57.0Y-100.0
X57.5Y-122.0
X57.893Y-56.035
X58.452Y-116.762
X59.0Y-98.5
X59.189Y-117.162
X59.741Y-91.821
X59.768Y-110.668
X59.872Y-122.174
X59.944Y-119.997
X60.0Y-87.0
X60.122Y-111.735
X60.5Y-66.5
X60.503Y-92.685
X60.898Y-116.762
X60.898Y-126.283
X61.004Y-104.33
X61.341Y-114.681
X61.464Y-100.469
X61.559Y-119.997
X61.559Y-122.733
X61.595Y-84.811
X62.106Y-77.632
X62.509Y-71.526
X62.782Y-89.728
X63.207Y-125.171
X63.279Y-76.017
X63.487Y-83.425
X63.5Y-65.0
X63.5Y-70.432
X63.545Y-124.433
X63.589Y-104.943
X64.008Y-71.374
X64.164Y-79.099
X64.539Y-62.66
X64.653Y-142.875
X65.0Y-83.0
X65.376Y-99.252
X65.623Y-92.248
X65.715Y-98.483
X65.894Y-64.49
X65.894Y-69.815
X66.038Y-107.872
X66.038Y-125.171
X66.412Y-95.164
X66.471Y-69.088
X66.614Y-117.146
X66.668Y-103.09
X66.668Y-112.075
X66.675Y-75.811
X67.178Y-125.247
X67.79Y-64.674
X67.823Y-111.846
X68.032Y-104.775
X68.375Y-107.965
X68.428Y-126.187
X68.671Y-102.071
X68.746Y-104.1
X68.92Y-82.439
X69.133Y-112.006
X69.317Y-90.003
X69.317Y-95.914
X69.367Y-98.4
X69.621Y-124.003
X69.645Y-76.057
X69.645Y-85.728
X69.668Y-115.193
X70.0Y-137.0
X70.093Y-111.593
X70.846Y-97.988
X70.909Y-78.105
X70.924Y-131.279
X71.18Y-97.189
X71.443Y-111.873
X71.577Y-77.394
X71.633Y-114.781
X72.22Y-108.545
X72.94Y-82.249
X72.949Y-70.623
X73.096Y-63.683
X73.2Y-116.865
X73.204Y-93.473
X73.232Y-77.479
X73.27Y-84.839
X73.406Y-62.001
X73.614Y-92.403
X73.718Y-102.616
X73.858Y-94.825
X73.895Y-68.226
X73.895Y-80.645
X73.941Y-121.022
X73.99Y-66.827
X74.016Y-86.995
X74.041Y-63.449
X74.5Y-98.0
X74.668Y-69.825
X74.668Y-82.517
X74.699Y-83.817
X74.816Y-89.97
X75.0Y-112.0
X75.368Y-106.392
X75.423Y-126.291
X75.562Y-130.281
X75.916Y-124.327
X76.322Y-78.601
X76.44Y-137.261
X77.073Y-94.717
X77.098Y-100.031
X77.186Y-82.55
X77.358Y-71.755
X77.471Y-119.783
X77.554Y-117.3
X77.637Y-74.84
X77.91Y-131.362
X78.0Y-67.5
X78.0Y-70.0
X78.105Y-145.713
X78.404Y-74.941
X78.404Y-116.997
X78.619Y-134.652
X78.74Y-61.0
X79.023Y-71.755
X79.587Y-64.717
X79.679Y-80.645
X80.0Y-111.0
X80.0Y-121.5
X80.067Y-74.316
X80.23Y-90.135
X80.5Y-135.5
X80.687Y-70.838
X80.783Y-73.025
X81.0Y-132.5
X81.153Y-86.995
X81.262Y-115.613
X81.363Y-69.535
X81.363Y-83.185
X81.869Y-116.235
X82.215Y-137.261
X82.582Y-121.682
X82.76Y-112.837
X82.956Y-113.665
X83.183Y-89.986
X83.337Y-61.697
X83.5Y-125.5
X83.7Y-93.562
X84.248Y-119.043
X84.301Y-67.945
X84.305Y-87.765
X84.353Y-61.265
X84.923Y-73.659
X84.923Y-90.509
X85.166Y-82.55
X85.193Y-112.865
X85.242Y-109.906
X85.471Y-63.703
X85.525Y-93.331
X85.585Y-99.301
X85.725Y-132.08
X85.792Y-70.672
X85.855Y-102.541
X86.0Y-121.0
X86.133Y-118.789
X86.335Y-98.603
X86.616Y-112.875
X86.639Y-88.367
X86.783Y-83.822
X86.87Y-67.945
X87.0Y-139.0
X87.021Y-81.618
X87.026Y-89.545
X87.08Y-85.897
X87.166Y-117.931
X87.918Y-112.876
X88.0Y-121.0
X88.125Y-65.917
X88.246Y-75.837
X88.392Y-84.404
X88.544Y-113.64
X88.646Y-83.388
X88.72Y-99.7
X88.832Y-146.484
X89.204Y-72.758
X89.477Y-90.334
X89.484Y-98.746
X89.535Y-117.911
X89.653Y-85.913
X90.157Y-65.917
X90.185Y-90.718
X90.371Y-118.794
X90.371Y-121.285
X90.543Y-78.57
X90.778Y-62.684
X90.922Y-117.912
X90.985Y-83.845
X91.262Y-94.234
X91.592Y-102.184
X91.722Y-85.83
X92.0Y-138.5
X92.163Y-94.513
X92.188Y-108.852
X92.5Y-70.5
X92.604Y-112.82
X92.604Y-115.096
X92.802Y-89.943
X92.865Y-91.92
X93.0Y-120.5
X93.167Y-110.338
X93.21Y-113.426
X93.312Y-75.868
X93.312Y-88.549
X93.497Y-98.806
X93.959Y-95.22
X93.98Y-72.441
X94.158Y-94.285
X94.209Y-106.96
X94.513Y-73.127
X94.582Y-75.951
X94.582Y-85.91
X94.594Y-92.198
X94.719Y-109.259
X94.947Y-120.75
X95.0Y-70.5
X95.098Y-89.586
X95.301Y-112.878
X95.448Y-93.586
X95.545Y-109.552
X95.616Y-76.085
X95.908Y-97.439
X96.215Y-119.947
X96.571Y-84.495
X96.622Y-119.101
X97.155Y-130.616
X97.19Y-100.051
X97.318Y-123.137
X97.333Y-99.212
X97.37Y-142.618
X97.558Y-63.046
X97.79Y-113.208
X97.902Y-122.644
X98.146Y-97.485
X98.219Y-86.883
X98.628Y-109.96
X98.933Y-97.901
X99.621Y-118.431
X100.0Y-73.0
X100.002Y-119.76
X100.5Y-77.5
X100.5Y-79.5
X100.5Y-90.0
X100.84Y-97.561
X101.5Y-139.5
X101.549Y-102.337
X101.604Y-96.124
X102.073Y-136.846
X102.083Y-65.847
X102.322Y-81.87
X102.819Y-102.616
X102.834Y-134.203
X102.931Y-113.501
X103.0Y-73.0
X103.012Y-81.556
X103.2Y-132.915
X103.31Y-135.085
X103.5Y-109.0
X103.564Y-97.831
X103.988Y-96.012
X104.0Y-129.5
X104.744Y-95.525
X105.149Y-120.336
X105.207Y-107.518
X105.332Y-93.746
X105.5Y-77.0
X105.5Y-79.5
X105.594Y-103.062
X105.905Y-130.683
X105.994Y-108.083
X106.0Y-66.5
X106.0Y-114.5
X106.0Y-140.0
X106.662Y-120.337
X107.95Y-89.593
X108.0Y-72.0
X108.086Y-104.693
X108.129Y-112.338
X108.814Y-73.889
X109.0Y-62.5
X109.5Y-95.5
X109.568Y-82.107
X110.49Y-90.189
X110.5Y-74.5
X110.989Y-98.187
X111.071Y-136.553
X111.604Y-106.731
X111.651Y-129.83
X111.651Y-135.596
X112.076Y-82.629
X112.471Y-113.563
X112.5Y-74.5
X112.562Y-59.123
X113.027Y-103.034
X113.891Y-141.893
X113.903Y-112.868
X113.903Y-129.681
X114.357Y-99.958
X114.588Y-108.083
X114.59Y-132.662
X114.63Y-87.655
X114.631Y-129.887
X114.631Y-130.595
X114.666Y-128.958
X114.668Y-118.004
X114.938Y-103.031
X114.94Y-94.429
X115.268Y-113.072
X115.277Y-125.635
X115.277Y-132.11
X115.349Y-137.953
X115.5Y-75.0
X115.888Y-124.936
X115.888Y-131.216
X115.888Y-136.335
X116.126Y-93.987
X116.126Y-102.463
X116.157Y-118.466
X116.22Y-86.883
X116.247Y-122.166
X116.873Y-105.818
X117.246Y-97.79
X117.44Y-102.796
X118.11Y-82.563
X118.613Y-136.196
X118.618Y-129.845
X118.748Y-64.909
X118.77Y-102.006
X119.263Y-81.586
X119.358Y-133.95
X120.374Y-115.068
X120.5Y-87.5
X120.525Y-131.291
X120.65Y-109.626
X121.677Y-64.19
X121.871Y-82.709
X122.053Y-123.19
X122.255Y-63.599
X122.631Y-133.096
X122.882Y-104.882
X123.0Y-74.5
X123.249Y-63.915
X123.255Y-130.568
X124.792Y-120.965
X125.0Y-134.199
X125.476Y-70.946
X125.5Y-74.5
X125.501Y-81.229
X126.189Y-93.98
X126.365Y-95.18
X126.938Y-93.419
X127.0Y-98.0
X127.495Y-92.45
X127.497Y-125.518
X127.54Y-129.96
X128.5Y-74.5
X128.905Y-62.865
X129.0Y-81.5
X129.0Y-138.0
X129.5Y-147.0
X129.857Y-107.752
X129.857Y-112.87
X129.857Y-118.11
X129.921Y-66.624
X130.0Y-86.5
X130.054Y-102.129
X130.987Y-109.504
X131.0Y-74.5
X131.0Y-82.0
X131.783Y-105.396
X131.793Y-116.055
X131.826Y-66.142
X132.08Y-122.837
X134.0Y-74.5
X134.0Y-82.0
X134.218Y-131.77
X134.309Y-110.548
X134.309Y-123.224
X134.383Y-97.45
X134.417Y-100.568
X134.518Y-124.405
X134.772Y-101.397
X134.899Y-132.451
X134.951Y-93.027
X135.0Y-87.0
X135.178Y-94.15
X135.464Y-137.019
X136.324Y-104.844
X136.324Y-115.57
X136.47Y-120.63
X137.16Y-76.886
X137.16Y-91.206
X137.173Y-129.851
X137.5Y-138.0
X137.86Y-127.139
X139.259Y-119.076
X139.364Y-112.045
X139.986Y-127.107
X140.0Y-147.5
X140.937Y-136.827
X140.937Y-145.306
X140.981Y-94.088
X140.981Y-109.22
X141.0Y-67.5
X141.18Y-124.725
X141.18Y-127.177
X143.04Y-78.943
X143.459Y-129.846
X143.5Y-63.0
X143.658Y-137.379
X144.5Y-74.5
X145.0Y-86.0
X146.729Y-80.533
X146.729Y-126.902
X148.0Y-140.5
T2
X65.158Y-109.576
X65.253Y-120.374
X68.467Y-78.848
X68.468Y-66.126
X70.432Y-65.287
X70.432Y-81.821
X70.433Y-73.129
X78.185Y-65.095
X80.45Y-94.035
X80.843Y-103.289
X82.378Y-78.51
X86.971Y-69.007
X87.428Y-77.15
X106.588Y-112.79
X107.307Y-129.563
X109.459Y-104.448
X109.773Y-109.113
X109.778Y-96.813
X111.53Y-115.925
X111.533Y-109.113
X112.204Y-125.03
X112.528Y-118.506
X116.486Y-109.577
X117.824Y-128.618
X120.013Y-97.0
X121.43Y-107.33
X122.52Y-98.011
X126.552Y-124.46
X126.552Y-131.886
T3
X62.865Y-91.44
X66.675Y-91.44
X70.307Y-91.44
X74.295Y-91.44
X76.835Y-104.775
X78.74Y-132.715
X85.725Y-77.47
X109.855Y-92.075
X109.855Y-113.665
X130.175Y-90.805
X130.175Y-93.98
X130.175Y-97.155
X130.175Y-100.33
X144.78Y-104.14
X144.78Y-106.68
X144.78Y-109.22
X144.78Y-111.76
X144.78Y-114.3
X144.78Y-116.84
X144.78Y-119.38
X144.78Y-121.92
X144.78Y-124.46
X144.78Y-127.0
T4
X59.7Y-144.145
X67.32Y-144.145
T5
X53.34Y-52.07
X55.88Y-52.07
X58.42Y-52.07
X58.42Y-64.77
X58.42Y-67.31
X58.42Y-69.85
X58.42Y-72.39
X58.42Y-74.93
X58.42Y-77.47
X58.42Y-80.01
X58.42Y-82.55
X58.42Y-85.09
X60.96Y-52.07
X63.5Y-52.07
X66.04Y-52.07
X67.32Y-139.065
X67.32Y-141.565
X68.58Y-52.07
X70.485Y-147.955
X71.12Y-52.07
X73.025Y-147.955
X73.66Y-52.07
X75.565Y-147.955
X78.105Y-147.955
X78.74Y-52.07
X80.645Y-147.955
X81.28Y-52.07
X83.185Y-147.955
X83.82Y-52.07
X83.82Y-130.175
X83.82Y-132.715
X83.82Y-135.255
X85.725Y-147.955
X86.36Y-52.07
X87.65Y-129.54
X88.265Y-147.955
X88.9Y-52.07
X90.15Y-129.54
X90.805Y-147.955
X91.44Y-52.07
X93.98Y-52.07
X93.98Y-127.0
X93.98Y-137.16
X96.52Y-52.07
X97.155Y-128.905
X97.155Y-136.525
X99.06Y-52.07
X99.655Y-128.905
X99.655Y-136.525
X103.505Y-52.07
X106.045Y-52.07
X108.585Y-52.07
X111.125Y-52.07
X112.395Y-141.605
X112.395Y-144.145
X112.395Y-146.685
X113.665Y-52.07
X116.205Y-52.07
X116.205Y-147.955
X118.745Y-52.07
X118.745Y-147.955
X121.285Y-52.07
X121.285Y-147.955
X123.825Y-52.07
X123.825Y-147.955
X126.365Y-147.955
X127.635Y-52.07
X130.175Y-52.07
X132.715Y-52.07
X135.255Y-52.07
X137.795Y-52.07
X140.335Y-52.07
X142.875Y-52.07
X145.415Y-52.07
X147.955Y-52.07
T6
X59.055Y-57.785
X59.055Y-60.325
X61.595Y-57.785
X61.595Y-60.325
X64.135Y-57.785
X64.135Y-60.325
X66.675Y-57.785
X66.675Y-60.325
X69.215Y-57.785
X69.215Y-60.325
X71.755Y-57.785
X71.755Y-60.325
X71.755Y-141.605
X71.755Y-144.145
X74.295Y-57.785
X74.295Y-60.325
X74.295Y-141.605
X74.295Y-144.145
X76.835Y-57.785
X76.835Y-60.325
X76.835Y-141.605
X76.835Y-144.145
X79.375Y-141.605
X79.375Y-144.145
X80.645Y-57.785
X80.645Y-60.325
X82.55Y-141.605
X82.55Y-144.145
X83.185Y-57.785
X83.185Y-60.325
X85.09Y-141.605
X85.09Y-144.145
X85.725Y-57.785
X85.725Y-60.325
X87.63Y-141.605
X87.63Y-144.145
X88.265Y-57.785
X88.265Y-60.325
X90.17Y-141.605
X90.17Y-144.145
X91.44Y-57.785
X91.44Y-60.325
X93.98Y-57.785
X93.98Y-60.325
X96.52Y-57.785
X96.52Y-60.325
X99.06Y-57.785
X99.06Y-60.325
X102.235Y-57.785
X102.235Y-60.325
X104.775Y-57.785
X104.775Y-60.325
X107.315Y-57.785
X107.315Y-60.325
X109.855Y-57.785
X109.855Y-60.325
X113.665Y-57.785
X113.665Y-60.325
X116.0Y-140.96
X116.0Y-143.5
X116.205Y-57.785
X116.205Y-60.325
X118.745Y-57.785
X118.745Y-60.325
X119.5Y-140.96
X119.5Y-143.5
X121.285Y-57.785
X121.285Y-60.325
X122.0Y-140.96
X122.0Y-143.5
X123.825Y-57.785
X123.825Y-60.325
X125.0Y-140.96
X125.0Y-143.5
X126.365Y-57.785
X126.365Y-60.325
X127.54Y-140.96
X127.54Y-143.5
X128.905Y-57.785
X128.905Y-60.325
X131.445Y-57.785
X131.445Y-60.325
X133.985Y-57.785
X133.985Y-60.325
X136.525Y-57.785
X136.525Y-60.325
X139.065Y-57.785
X139.065Y-60.325
X141.605Y-57.785
X141.605Y-60.325
T7
X52.07Y-63.5
X52.07Y-66.04
X52.07Y-68.58
X52.07Y-71.12
X52.07Y-73.66
X52.07Y-76.2
X52.07Y-78.74
X52.07Y-81.28
X52.07Y-83.82
X52.07Y-86.36
X52.07Y-88.9
X52.07Y-91.44
X52.07Y-93.98
X52.07Y-96.52
X52.07Y-99.06
X52.07Y-101.6
X52.07Y-104.14
X52.07Y-106.68
X52.07Y-109.22
X52.07Y-111.76
X54.61Y-63.5
X54.61Y-66.04
X54.61Y-68.58
X54.61Y-71.12
X54.61Y-73.66
X54.61Y-76.2
X54.61Y-78.74
X54.61Y-81.28
X54.61Y-83.82
X54.61Y-86.36
X54.61Y-88.9
X54.61Y-91.44
X54.61Y-93.98
X54.61Y-96.52
X54.61Y-99.06
X54.61Y-101.6
X54.61Y-104.14
X54.61Y-106.68
X54.61Y-109.22
X54.61Y-111.76
X66.655Y-133.985
X69.195Y-133.985
X105.41Y-69.215
X105.41Y-84.455
X107.95Y-69.215
X107.95Y-84.455
X110.49Y-69.215
X110.49Y-84.455
X113.03Y-69.215
X113.03Y-84.455
X115.57Y-69.215
X115.57Y-84.455
X118.11Y-69.215
X118.11Y-84.455
X120.65Y-69.215
X120.65Y-84.455
X123.19Y-69.215
X123.19Y-84.455
X125.73Y-69.215
X125.73Y-84.455
X128.27Y-69.215
X128.27Y-84.455
X130.81Y-69.215
X130.81Y-84.455
X133.35Y-69.215
X133.35Y-84.455
X135.89Y-69.215
X135.89Y-84.455
X138.43Y-69.215
X138.43Y-84.455
T8
X60.325Y-146.685
X65.425Y-147.885
T9
X94.905Y-140.895
X94.905Y-147.395
X99.405Y-140.895
X99.405Y-147.395
X103.795Y-140.895
X103.795Y-147.395
X108.295Y-140.895
X108.295Y-147.395
T7
X56.525Y-135.425G85X56.525Y-137.625
G05
X61.025Y-141.325G85X58.825Y-141.325
G05
X62.825Y-135.225G85X62.825Y-137.825
G05
M30
