G04 #@! TF.GenerationSoftware,KiCad,Pcbnew,9.0.1*
G04 #@! TF.CreationDate,2025-04-19T17:16:31+09:00*
G04 #@! TF.ProjectId,HC4_KiCad,4843345f-4b69-4436-9164-2e6b69636164,1.2*
G04 #@! TF.SameCoordinates,Original*
G04 #@! TF.FileFunction,Paste,Top*
G04 #@! TF.FilePolarity,Positive*
%FSLAX46Y46*%
G04 Gerber Fmt 4.6, Leading zero omitted, Abs format (unit mm)*
G04 Created by KiCad (PCBNEW 9.0.1) date 2025-04-19 17:16:31*
%MOMM*%
%LPD*%
G01*
G04 APERTURE LIST*
G04 Aperture macros list*
%AMRoundRect*
0 Rectangle with rounded corners*
0 $1 Rounding radius*
0 $2 $3 $4 $5 $6 $7 $8 $9 X,Y pos of 4 corners*
0 Add a 4 corners polygon primitive as box body*
4,1,4,$2,$3,$4,$5,$6,$7,$8,$9,$2,$3,0*
0 Add four circle primitives for the rounded corners*
1,1,$1+$1,$2,$3*
1,1,$1+$1,$4,$5*
1,1,$1+$1,$6,$7*
1,1,$1+$1,$8,$9*
0 Add four rect primitives between the rounded corners*
20,1,$1+$1,$2,$3,$4,$5,0*
20,1,$1+$1,$4,$5,$6,$7,0*
20,1,$1+$1,$6,$7,$8,$9,0*
20,1,$1+$1,$8,$9,$2,$3,0*%
G04 Aperture macros list end*
%ADD10RoundRect,0.250000X-0.250000X-0.250000X0.250000X-0.250000X0.250000X0.250000X-0.250000X0.250000X0*%
%ADD11RoundRect,0.225000X-0.250000X0.225000X-0.250000X-0.225000X0.250000X-0.225000X0.250000X0.225000X0*%
%ADD12RoundRect,0.200000X0.200000X0.275000X-0.200000X0.275000X-0.200000X-0.275000X0.200000X-0.275000X0*%
%ADD13RoundRect,0.225000X0.225000X0.250000X-0.225000X0.250000X-0.225000X-0.250000X0.225000X-0.250000X0*%
%ADD14RoundRect,0.150000X0.150000X-0.837500X0.150000X0.837500X-0.150000X0.837500X-0.150000X-0.837500X0*%
%ADD15RoundRect,0.150000X0.150000X-0.800000X0.150000X0.800000X-0.150000X0.800000X-0.150000X-0.800000X0*%
%ADD16RoundRect,0.150000X-0.837500X-0.150000X0.837500X-0.150000X0.837500X0.150000X-0.837500X0.150000X0*%
%ADD17RoundRect,0.200000X-0.200000X-0.275000X0.200000X-0.275000X0.200000X0.275000X-0.200000X0.275000X0*%
%ADD18RoundRect,0.200000X0.275000X-0.200000X0.275000X0.200000X-0.275000X0.200000X-0.275000X-0.200000X0*%
%ADD19RoundRect,0.225000X-0.225000X-0.250000X0.225000X-0.250000X0.225000X0.250000X-0.225000X0.250000X0*%
%ADD20RoundRect,0.225000X0.250000X-0.225000X0.250000X0.225000X-0.250000X0.225000X-0.250000X-0.225000X0*%
G04 APERTURE END LIST*
D10*
X130830000Y-123190000D03*
X133330000Y-123190000D03*
D11*
X85725000Y-79870000D03*
X85725000Y-81420000D03*
D10*
X139720000Y-115570000D03*
X142220000Y-115570000D03*
X130830000Y-120650000D03*
X133330000Y-120650000D03*
D12*
X148590000Y-120650000D03*
X146940000Y-120650000D03*
D13*
X83325000Y-77470000D03*
X81775000Y-77470000D03*
D10*
X130830000Y-113030000D03*
X133330000Y-113030000D03*
D11*
X110490000Y-104000000D03*
X110490000Y-105550000D03*
D10*
X130830000Y-115570000D03*
X133330000Y-115570000D03*
X135275000Y-123190000D03*
X137775000Y-123190000D03*
D12*
X148590000Y-118110000D03*
X146940000Y-118110000D03*
D10*
X139720000Y-125730000D03*
X142220000Y-125730000D03*
D14*
X104775000Y-134272500D03*
X106045000Y-134272500D03*
X107315000Y-134272500D03*
X108585000Y-134272500D03*
X109855000Y-134272500D03*
X111125000Y-134272500D03*
X112395000Y-134272500D03*
X113665000Y-134272500D03*
X113665000Y-127347500D03*
X112395000Y-127347500D03*
X111125000Y-127347500D03*
X109855000Y-127347500D03*
X108585000Y-127347500D03*
X107315000Y-127347500D03*
X106045000Y-127347500D03*
X104775000Y-127347500D03*
D15*
X79375000Y-101120000D03*
X80645000Y-101120000D03*
X81915000Y-101120000D03*
X83185000Y-101120000D03*
X84455000Y-101120000D03*
X85725000Y-101120000D03*
X86995000Y-101120000D03*
X88265000Y-101120000D03*
X89535000Y-101120000D03*
X90805000Y-101120000D03*
X90805000Y-91920000D03*
X89535000Y-91920000D03*
X88265000Y-91920000D03*
X86995000Y-91920000D03*
X85725000Y-91920000D03*
X84455000Y-91920000D03*
X83185000Y-91920000D03*
X81915000Y-91920000D03*
X80645000Y-91920000D03*
X79375000Y-91920000D03*
D11*
X102870000Y-126860000D03*
X102870000Y-128410000D03*
D14*
X99060000Y-123477500D03*
X100330000Y-123477500D03*
X101600000Y-123477500D03*
X102870000Y-123477500D03*
X104140000Y-123477500D03*
X105410000Y-123477500D03*
X106680000Y-123477500D03*
X106680000Y-116552500D03*
X105410000Y-116552500D03*
X104140000Y-116552500D03*
X102870000Y-116552500D03*
X101600000Y-116552500D03*
X100330000Y-116552500D03*
X99060000Y-116552500D03*
X63500000Y-87282500D03*
X64770000Y-87282500D03*
X66040000Y-87282500D03*
X67310000Y-87282500D03*
X68580000Y-87282500D03*
X69850000Y-87282500D03*
X71120000Y-87282500D03*
X72390000Y-87282500D03*
X72390000Y-80357500D03*
X71120000Y-80357500D03*
X69850000Y-80357500D03*
X68580000Y-80357500D03*
X67310000Y-80357500D03*
X66040000Y-80357500D03*
X64770000Y-80357500D03*
X63500000Y-80357500D03*
D11*
X96520000Y-91935000D03*
X96520000Y-93485000D03*
D16*
X75912500Y-79375000D03*
X75912500Y-80645000D03*
X75912500Y-81915000D03*
X75912500Y-83185000D03*
X75912500Y-84455000D03*
X75912500Y-85725000D03*
X75912500Y-86995000D03*
X75912500Y-88265000D03*
X82837500Y-88265000D03*
X82837500Y-86995000D03*
X82837500Y-85725000D03*
X82837500Y-84455000D03*
X82837500Y-83185000D03*
X82837500Y-81915000D03*
X82837500Y-80645000D03*
X82837500Y-79375000D03*
D10*
X135275000Y-120650000D03*
X137775000Y-120650000D03*
D17*
X146500000Y-132825000D03*
X148150000Y-132825000D03*
D10*
X139720000Y-118110000D03*
X142220000Y-118110000D03*
D14*
X115570000Y-99347500D03*
X116840000Y-99347500D03*
X118110000Y-99347500D03*
X119380000Y-99347500D03*
X120650000Y-99347500D03*
X121920000Y-99347500D03*
X123190000Y-99347500D03*
X124460000Y-99347500D03*
X124460000Y-92422500D03*
X123190000Y-92422500D03*
X121920000Y-92422500D03*
X120650000Y-92422500D03*
X119380000Y-92422500D03*
X118110000Y-92422500D03*
X116840000Y-92422500D03*
X115570000Y-92422500D03*
D17*
X146500000Y-129650000D03*
X148150000Y-129650000D03*
D11*
X110490000Y-115925000D03*
X110490000Y-117475000D03*
D14*
X62230000Y-113317500D03*
X63500000Y-113317500D03*
X64770000Y-113317500D03*
X66040000Y-113317500D03*
X67310000Y-113317500D03*
X68580000Y-113317500D03*
X69850000Y-113317500D03*
X71120000Y-113317500D03*
X71120000Y-106392500D03*
X69850000Y-106392500D03*
X68580000Y-106392500D03*
X67310000Y-106392500D03*
X66040000Y-106392500D03*
X64770000Y-106392500D03*
X63500000Y-106392500D03*
X62230000Y-106392500D03*
D11*
X147320000Y-90919000D03*
X147320000Y-92469000D03*
D14*
X87630000Y-87282500D03*
X88900000Y-87282500D03*
X90170000Y-87282500D03*
X91440000Y-87282500D03*
X92710000Y-87282500D03*
X93980000Y-87282500D03*
X95250000Y-87282500D03*
X96520000Y-87282500D03*
X96520000Y-80357500D03*
X95250000Y-80357500D03*
X93980000Y-80357500D03*
X92710000Y-80357500D03*
X91440000Y-80357500D03*
X90170000Y-80357500D03*
X88900000Y-80357500D03*
X87630000Y-80357500D03*
D11*
X77470000Y-91935000D03*
X77470000Y-93485000D03*
D10*
X139720000Y-107950000D03*
X142220000Y-107950000D03*
X130830000Y-110490000D03*
X133330000Y-110490000D03*
D15*
X69215000Y-127790000D03*
X70485000Y-127790000D03*
X71755000Y-127790000D03*
X73025000Y-127790000D03*
X74295000Y-127790000D03*
X75565000Y-127790000D03*
X76835000Y-127790000D03*
X78105000Y-127790000D03*
X79375000Y-127790000D03*
X80645000Y-127790000D03*
X80645000Y-118590000D03*
X79375000Y-118590000D03*
X78105000Y-118590000D03*
X76835000Y-118590000D03*
X75565000Y-118590000D03*
X74295000Y-118590000D03*
X73025000Y-118590000D03*
X71755000Y-118590000D03*
X70485000Y-118590000D03*
X69215000Y-118590000D03*
D18*
X59055000Y-104330000D03*
X59055000Y-102680000D03*
D19*
X52565000Y-116205000D03*
X54115000Y-116205000D03*
D11*
X67310000Y-118605000D03*
X67310000Y-120155000D03*
X80010000Y-104140000D03*
X80010000Y-105690000D03*
D10*
X139720000Y-120650000D03*
X142220000Y-120650000D03*
D11*
X60325000Y-93840000D03*
X60325000Y-95390000D03*
D10*
X126385000Y-118110000D03*
X128885000Y-118110000D03*
D14*
X98425000Y-111412500D03*
X99695000Y-111412500D03*
X100965000Y-111412500D03*
X102235000Y-111412500D03*
X103505000Y-111412500D03*
X104775000Y-111412500D03*
X106045000Y-111412500D03*
X107315000Y-111412500D03*
X107315000Y-104487500D03*
X106045000Y-104487500D03*
X104775000Y-104487500D03*
X103505000Y-104487500D03*
X102235000Y-104487500D03*
X100965000Y-104487500D03*
X99695000Y-104487500D03*
X98425000Y-104487500D03*
D10*
X126385000Y-107950000D03*
X128885000Y-107950000D03*
D14*
X112395000Y-111412500D03*
X113665000Y-111412500D03*
X114935000Y-111412500D03*
X116205000Y-111412500D03*
X117475000Y-111412500D03*
X118745000Y-111412500D03*
X120015000Y-111412500D03*
X121285000Y-111412500D03*
X121285000Y-104487500D03*
X120015000Y-104487500D03*
X118745000Y-104487500D03*
X117475000Y-104487500D03*
X116205000Y-104487500D03*
X114935000Y-104487500D03*
X113665000Y-104487500D03*
X112395000Y-104487500D03*
D18*
X113665000Y-137985000D03*
X113665000Y-136335000D03*
D20*
X61595000Y-68720000D03*
X61595000Y-67170000D03*
D11*
X116840000Y-128130000D03*
X116840000Y-129680000D03*
X96520000Y-116065000D03*
X96520000Y-117615000D03*
D10*
X135275000Y-105410000D03*
X137775000Y-105410000D03*
D14*
X81915000Y-111412500D03*
X83185000Y-111412500D03*
X84455000Y-111412500D03*
X85725000Y-111412500D03*
X86995000Y-111412500D03*
X88265000Y-111412500D03*
X89535000Y-111412500D03*
X90805000Y-111412500D03*
X90805000Y-104487500D03*
X89535000Y-104487500D03*
X88265000Y-104487500D03*
X86995000Y-104487500D03*
X85725000Y-104487500D03*
X84455000Y-104487500D03*
X83185000Y-104487500D03*
X81915000Y-104487500D03*
D10*
X139720000Y-123190000D03*
X142220000Y-123190000D03*
D12*
X148590000Y-113030000D03*
X146940000Y-113030000D03*
D10*
X126385000Y-110490000D03*
X128885000Y-110490000D03*
X135275000Y-113030000D03*
X137775000Y-113030000D03*
X130830000Y-125730000D03*
X133330000Y-125730000D03*
X135275000Y-115570000D03*
X137775000Y-115570000D03*
D12*
X148590000Y-115570000D03*
X146940000Y-115570000D03*
D10*
X126385000Y-102870000D03*
X128885000Y-102870000D03*
X126385000Y-125730000D03*
X128885000Y-125730000D03*
X126385000Y-120650000D03*
X128885000Y-120650000D03*
X139720000Y-113030000D03*
X142220000Y-113030000D03*
D11*
X133985000Y-91935000D03*
X133985000Y-93485000D03*
D14*
X136525000Y-99347500D03*
X137795000Y-99347500D03*
X139065000Y-99347500D03*
X140335000Y-99347500D03*
X141605000Y-99347500D03*
X142875000Y-99347500D03*
X144145000Y-99347500D03*
X144145000Y-92422500D03*
X142875000Y-92422500D03*
X141605000Y-92422500D03*
X140335000Y-92422500D03*
X139065000Y-92422500D03*
X137795000Y-92422500D03*
X136525000Y-92422500D03*
D10*
X130830000Y-118110000D03*
X133330000Y-118110000D03*
D18*
X107950000Y-138620000D03*
X107950000Y-136970000D03*
D10*
X139720000Y-102870000D03*
X142220000Y-102870000D03*
D18*
X104775000Y-138620000D03*
X104775000Y-136970000D03*
D14*
X63500000Y-74582500D03*
X64770000Y-74582500D03*
X66040000Y-74582500D03*
X67310000Y-74582500D03*
X68580000Y-74582500D03*
X69850000Y-74582500D03*
X71120000Y-74582500D03*
X72390000Y-74582500D03*
X72390000Y-67657500D03*
X71120000Y-67657500D03*
X69850000Y-67657500D03*
X68580000Y-67657500D03*
X67310000Y-67657500D03*
X66040000Y-67657500D03*
X64770000Y-67657500D03*
X63500000Y-67657500D03*
D11*
X96520000Y-104000000D03*
X96520000Y-105550000D03*
D18*
X116840000Y-137985000D03*
X116840000Y-136335000D03*
D10*
X139720000Y-105410000D03*
X142220000Y-105410000D03*
D12*
X148590000Y-125730000D03*
X146940000Y-125730000D03*
D17*
X146500000Y-136000000D03*
X148150000Y-136000000D03*
D12*
X148590000Y-123190000D03*
X146940000Y-123190000D03*
D11*
X131445000Y-128130000D03*
X131445000Y-129680000D03*
D10*
X126385000Y-115570000D03*
X128885000Y-115570000D03*
D11*
X60325000Y-106540000D03*
X60325000Y-108090000D03*
D12*
X148590000Y-110490000D03*
X146940000Y-110490000D03*
D10*
X139720000Y-110490000D03*
X142220000Y-110490000D03*
X135275000Y-102870000D03*
X137775000Y-102870000D03*
D14*
X113030000Y-123477500D03*
X114300000Y-123477500D03*
X115570000Y-123477500D03*
X116840000Y-123477500D03*
X118110000Y-123477500D03*
X119380000Y-123477500D03*
X120650000Y-123477500D03*
X120650000Y-116552500D03*
X119380000Y-116552500D03*
X118110000Y-116552500D03*
X116840000Y-116552500D03*
X115570000Y-116552500D03*
X114300000Y-116552500D03*
X113030000Y-116552500D03*
D15*
X52705000Y-127790000D03*
X53975000Y-127790000D03*
X55245000Y-127790000D03*
X56515000Y-127790000D03*
X57785000Y-127790000D03*
X59055000Y-127790000D03*
X60325000Y-127790000D03*
X61595000Y-127790000D03*
X62865000Y-127790000D03*
X64135000Y-127790000D03*
X64135000Y-118590000D03*
X62865000Y-118590000D03*
X61595000Y-118590000D03*
X60325000Y-118590000D03*
X59055000Y-118590000D03*
X57785000Y-118590000D03*
X56515000Y-118590000D03*
X55245000Y-118590000D03*
X53975000Y-118590000D03*
X52705000Y-118590000D03*
D14*
X119380000Y-135542500D03*
X120650000Y-135542500D03*
X121920000Y-135542500D03*
X123190000Y-135542500D03*
X124460000Y-135542500D03*
X125730000Y-135542500D03*
X127000000Y-135542500D03*
X127000000Y-128617500D03*
X125730000Y-128617500D03*
X124460000Y-128617500D03*
X123190000Y-128617500D03*
X121920000Y-128617500D03*
X120650000Y-128617500D03*
X119380000Y-128617500D03*
X87630000Y-74582500D03*
X88900000Y-74582500D03*
X90170000Y-74582500D03*
X91440000Y-74582500D03*
X92710000Y-74582500D03*
X93980000Y-74582500D03*
X95250000Y-74582500D03*
X96520000Y-74582500D03*
X96520000Y-67657500D03*
X95250000Y-67657500D03*
X93980000Y-67657500D03*
X92710000Y-67657500D03*
X91440000Y-67657500D03*
X90170000Y-67657500D03*
X88900000Y-67657500D03*
X87630000Y-67657500D03*
D10*
X130830000Y-107950000D03*
X133330000Y-107950000D03*
D11*
X83820000Y-116065000D03*
X83820000Y-117615000D03*
D12*
X148590000Y-105410000D03*
X146940000Y-105410000D03*
D16*
X75912500Y-66675000D03*
X75912500Y-67945000D03*
X75912500Y-69215000D03*
X75912500Y-70485000D03*
X75912500Y-71755000D03*
X75912500Y-73025000D03*
X75912500Y-74295000D03*
X75912500Y-75565000D03*
X82837500Y-75565000D03*
X82837500Y-74295000D03*
X82837500Y-73025000D03*
X82837500Y-71755000D03*
X82837500Y-70485000D03*
X82837500Y-69215000D03*
X82837500Y-67945000D03*
X82837500Y-66675000D03*
D14*
X86360000Y-123477500D03*
X87630000Y-123477500D03*
X88900000Y-123477500D03*
X90170000Y-123477500D03*
X91440000Y-123477500D03*
X92710000Y-123477500D03*
X93980000Y-123477500D03*
X93980000Y-116552500D03*
X92710000Y-116552500D03*
X91440000Y-116552500D03*
X90170000Y-116552500D03*
X88900000Y-116552500D03*
X87630000Y-116552500D03*
X86360000Y-116552500D03*
D11*
X85725000Y-67170000D03*
X85725000Y-68720000D03*
D10*
X126385000Y-113030000D03*
X128885000Y-113030000D03*
X135275000Y-118110000D03*
X137775000Y-118110000D03*
D12*
X148590000Y-107950000D03*
X146940000Y-107950000D03*
D14*
X98425000Y-99347500D03*
X99695000Y-99347500D03*
X100965000Y-99347500D03*
X102235000Y-99347500D03*
X103505000Y-99347500D03*
X104775000Y-99347500D03*
X106045000Y-99347500D03*
X107315000Y-99347500D03*
X107315000Y-92422500D03*
X106045000Y-92422500D03*
X104775000Y-92422500D03*
X103505000Y-92422500D03*
X102235000Y-92422500D03*
X100965000Y-92422500D03*
X99695000Y-92422500D03*
X98425000Y-92422500D03*
D12*
X148590000Y-102870000D03*
X146940000Y-102870000D03*
D10*
X126385000Y-123190000D03*
X128885000Y-123190000D03*
X126385000Y-105410000D03*
X128885000Y-105410000D03*
D13*
X83325000Y-64770000D03*
X81775000Y-64770000D03*
D10*
X130830000Y-102870000D03*
X133330000Y-102870000D03*
X130830000Y-105410000D03*
X133330000Y-105410000D03*
X135275000Y-107950000D03*
X137775000Y-107950000D03*
D14*
X133985000Y-135542500D03*
X135255000Y-135542500D03*
X136525000Y-135542500D03*
X137795000Y-135542500D03*
X139065000Y-135542500D03*
X140335000Y-135542500D03*
X141605000Y-135542500D03*
X141605000Y-128617500D03*
X140335000Y-128617500D03*
X139065000Y-128617500D03*
X137795000Y-128617500D03*
X136525000Y-128617500D03*
X135255000Y-128617500D03*
X133985000Y-128617500D03*
D11*
X61595000Y-79870000D03*
X61595000Y-81420000D03*
D10*
X135275000Y-125730000D03*
X137775000Y-125730000D03*
D11*
X113665000Y-91935000D03*
X113665000Y-93485000D03*
D14*
X62230000Y-100617500D03*
X63500000Y-100617500D03*
X64770000Y-100617500D03*
X66040000Y-100617500D03*
X67310000Y-100617500D03*
X68580000Y-100617500D03*
X69850000Y-100617500D03*
X71120000Y-100617500D03*
X71120000Y-93692500D03*
X69850000Y-93692500D03*
X68580000Y-93692500D03*
X67310000Y-93692500D03*
X66040000Y-93692500D03*
X64770000Y-93692500D03*
X63500000Y-93692500D03*
X62230000Y-93692500D03*
D10*
X135275000Y-110490000D03*
X137775000Y-110490000D03*
M02*
