%TF.GenerationSoftware,KiCad,Pcbnew,8.0.8*%
%TF.CreationDate,2025-02-23T11:14:07+09:00*%
%TF.ProjectId,HC4_KiCad,4843345f-4b69-4436-9164-2e6b69636164,1.0*%
%TF.SameCoordinates,Original*%
%TF.FileFunction,Drillmap*%
%TF.FilePolarity,Positive*%
%FSLAX45Y45*%
G04 Gerber Fmt 4.5, Leading zero omitted, Abs format (unit mm)*
G04 Created by KiCad (PCBNEW 8.0.8) date 2025-02-23 11:14:07*
%MOMM*%
%LPD*%
G01*
G04 APERTURE LIST*
%ADD10C,0.050000*%
%ADD11C,0.200000*%
G04 APERTURE END LIST*
D10*
X2500000Y-2286000D02*
X17544000Y-2286000D01*
X17544000Y-19786000D01*
X2500000Y-19786000D01*
X2500000Y-2286000D01*
D11*
X2758277Y-20099984D02*
X2758277Y-19899984D01*
X2758277Y-19899984D02*
X2805896Y-19899984D01*
X2805896Y-19899984D02*
X2834467Y-19909508D01*
X2834467Y-19909508D02*
X2853515Y-19928555D01*
X2853515Y-19928555D02*
X2863039Y-19947603D01*
X2863039Y-19947603D02*
X2872562Y-19985698D01*
X2872562Y-19985698D02*
X2872562Y-20014270D01*
X2872562Y-20014270D02*
X2863039Y-20052365D01*
X2863039Y-20052365D02*
X2853515Y-20071412D01*
X2853515Y-20071412D02*
X2834467Y-20090460D01*
X2834467Y-20090460D02*
X2805896Y-20099984D01*
X2805896Y-20099984D02*
X2758277Y-20099984D01*
X2958277Y-20099984D02*
X2958277Y-19966650D01*
X2958277Y-20004746D02*
X2967801Y-19985698D01*
X2967801Y-19985698D02*
X2977324Y-19976174D01*
X2977324Y-19976174D02*
X2996372Y-19966650D01*
X2996372Y-19966650D02*
X3015420Y-19966650D01*
X3082086Y-20099984D02*
X3082086Y-19966650D01*
X3082086Y-19899984D02*
X3072562Y-19909508D01*
X3072562Y-19909508D02*
X3082086Y-19919031D01*
X3082086Y-19919031D02*
X3091610Y-19909508D01*
X3091610Y-19909508D02*
X3082086Y-19899984D01*
X3082086Y-19899984D02*
X3082086Y-19919031D01*
X3205896Y-20099984D02*
X3186848Y-20090460D01*
X3186848Y-20090460D02*
X3177324Y-20071412D01*
X3177324Y-20071412D02*
X3177324Y-19899984D01*
X3310658Y-20099984D02*
X3291610Y-20090460D01*
X3291610Y-20090460D02*
X3282086Y-20071412D01*
X3282086Y-20071412D02*
X3282086Y-19899984D01*
X3539229Y-20099984D02*
X3539229Y-19899984D01*
X3539229Y-19899984D02*
X3605896Y-20042841D01*
X3605896Y-20042841D02*
X3672562Y-19899984D01*
X3672562Y-19899984D02*
X3672562Y-20099984D01*
X3853515Y-20099984D02*
X3853515Y-19995222D01*
X3853515Y-19995222D02*
X3843991Y-19976174D01*
X3843991Y-19976174D02*
X3824943Y-19966650D01*
X3824943Y-19966650D02*
X3786848Y-19966650D01*
X3786848Y-19966650D02*
X3767801Y-19976174D01*
X3853515Y-20090460D02*
X3834467Y-20099984D01*
X3834467Y-20099984D02*
X3786848Y-20099984D01*
X3786848Y-20099984D02*
X3767801Y-20090460D01*
X3767801Y-20090460D02*
X3758277Y-20071412D01*
X3758277Y-20071412D02*
X3758277Y-20052365D01*
X3758277Y-20052365D02*
X3767801Y-20033317D01*
X3767801Y-20033317D02*
X3786848Y-20023793D01*
X3786848Y-20023793D02*
X3834467Y-20023793D01*
X3834467Y-20023793D02*
X3853515Y-20014270D01*
X3948753Y-19966650D02*
X3948753Y-20166650D01*
X3948753Y-19976174D02*
X3967801Y-19966650D01*
X3967801Y-19966650D02*
X4005896Y-19966650D01*
X4005896Y-19966650D02*
X4024943Y-19976174D01*
X4024943Y-19976174D02*
X4034467Y-19985698D01*
X4034467Y-19985698D02*
X4043991Y-20004746D01*
X4043991Y-20004746D02*
X4043991Y-20061889D01*
X4043991Y-20061889D02*
X4034467Y-20080936D01*
X4034467Y-20080936D02*
X4024943Y-20090460D01*
X4024943Y-20090460D02*
X4005896Y-20099984D01*
X4005896Y-20099984D02*
X3967801Y-20099984D01*
X3967801Y-20099984D02*
X3948753Y-20090460D01*
X4129705Y-20080936D02*
X4139229Y-20090460D01*
X4139229Y-20090460D02*
X4129705Y-20099984D01*
X4129705Y-20099984D02*
X4120182Y-20090460D01*
X4120182Y-20090460D02*
X4129705Y-20080936D01*
X4129705Y-20080936D02*
X4129705Y-20099984D01*
X4129705Y-19976174D02*
X4139229Y-19985698D01*
X4139229Y-19985698D02*
X4129705Y-19995222D01*
X4129705Y-19995222D02*
X4120182Y-19985698D01*
X4120182Y-19985698D02*
X4129705Y-19976174D01*
X4129705Y-19976174D02*
X4129705Y-19995222D01*
M02*
