M48
; DRILL file {KiCad 8.0.8} date 2025-02-23T11:14:06+0900
; FORMAT={-:-/ absolute / metric / decimal}
; #@! TF.CreationDate,2025-02-23T11:14:06+09:00
; #@! TF.GenerationSoftware,Kicad,Pcbnew,8.0.8
; #@! TF.FileFunction,Plated,1,2,PTH
FMAT,2
METRIC
; #@! TA.AperFunction,Plated,PTH,ViaDrill
T1C0.300
; #@! TA.AperFunction,Plated,PTH,ComponentDrill
T2C0.600
; #@! TA.AperFunction,Plated,PTH,ComponentDrill
T3C0.750
; #@! TA.AperFunction,Plated,PTH,ComponentDrill
T4C0.800
; #@! TA.AperFunction,Plated,PTH,ComponentDrill
T5C0.900
; #@! TA.AperFunction,Plated,PTH,ComponentDrill
T6C1.000
; #@! TA.AperFunction,Plated,PTH,ComponentDrill
T7C1.010
; #@! TA.AperFunction,Plated,PTH,ComponentDrill
T8C1.100
%
G90
G05
T1
X27.345Y-48.26
X27.98Y-85.09
X27.98Y-93.98
X27.98Y-134.62
X27.98Y-144.78
X27.98Y-177.8
X28.615Y-77.47
X28.615Y-83.82
X28.615Y-87.63
X28.615Y-90.17
X28.81Y-107.95
X29.25Y-41.275
X29.25Y-67.31
X29.25Y-78.74
X29.885Y-43.18
X29.885Y-72.39
X29.885Y-81.28
X30.52Y-41.91
X30.52Y-74.93
X30.52Y-82.55
X31.79Y-113.665
X31.79Y-167.64
X33.02Y-109.22
X33.06Y-43.815
X33.06Y-99.06
X34.33Y-62.23
X35.6Y-44.45
X37.505Y-80.01
X37.505Y-83.82
X38.14Y-41.275
X38.14Y-46.355
X38.14Y-49.53
X38.14Y-69.85
X38.14Y-78.74
X38.14Y-82.55
X38.14Y-93.98
X38.14Y-95.885
X38.74Y-76.2
X38.775Y-64.77
X40.24Y-107.82
X40.68Y-46.355
X40.68Y-113.665
X40.68Y-162.56
X41.95Y-44.415
X41.96Y-63.5
X43.22Y-40.64
X43.22Y-43.18
X45.76Y-40.005
X45.76Y-41.91
X45.76Y-57.15
X45.76Y-59.69
X45.76Y-62.23
X45.76Y-74.93
X47.03Y-27.305
X47.03Y-43.815
X47.03Y-58.42
X47.03Y-60.96
X47.03Y-72.39
X47.03Y-96.52
X47.03Y-150.495
X48.3Y-77.47
X48.3Y-175.26
X48.935Y-109.22
X49.1Y-77.47
X50.205Y-28.575
X50.84Y-80.01
X50.84Y-162.56
X52.11Y-80.01
X52.11Y-111.76
X52.745Y-26.035
X52.745Y-110.49
X53.38Y-87.63
X53.38Y-123.19
X55.285Y-24.765
X55.285Y-33.02
X55.285Y-48.26
X55.92Y-92.71
X55.92Y-175.895
X56.555Y-26.67
X56.555Y-53.975
X58.46Y-50.8
X59.73Y-99.06
X59.73Y-151.765
X60.365Y-59.69
X60.365Y-63.5
X60.365Y-69.85
X60.4Y-101.6
X61.0Y-53.975
X61.0Y-114.3
X62.27Y-162.56
X62.905Y-87.63
X62.905Y-119.38
X63.54Y-48.3
X63.54Y-85.09
X63.54Y-116.84
X63.54Y-152.4
X63.54Y-167.64
X64.175Y-82.55
X64.175Y-113.665
X66.08Y-43.18
X66.08Y-50.8
X67.35Y-60.96
X68.589Y-131.202
X68.62Y-26.67
X68.62Y-41.91
X68.62Y-50.8
X68.62Y-57.15
X69.89Y-43.18
X69.89Y-114.935
X71.16Y-27.94
X71.16Y-40.64
X71.16Y-52.04
X71.16Y-57.785
X71.755Y-175.895
X72.43Y-153.035
X73.7Y-27.305
X73.7Y-41.275
X73.7Y-50.8
X73.7Y-95.885
X74.335Y-170.815
X74.97Y-116.205
X76.24Y-26.035
X76.24Y-41.275
X76.24Y-56.515
X76.875Y-95.25
X77.51Y-57.15
X77.51Y-92.71
X78.145Y-118.745
X78.78Y-24.765
X78.78Y-40.005
X78.78Y-43.18
X78.78Y-59.055
X78.78Y-60.325
X78.78Y-102.235
X78.78Y-123.19
X79.415Y-87.63
X80.05Y-57.785
X80.05Y-131.902
X80.645Y-165.1
X80.685Y-93.345
X81.32Y-28.575
X81.32Y-49.53
X81.32Y-50.8
X81.32Y-71.12
X81.32Y-120.65
X81.955Y-73.66
X82.59Y-131.202
X83.225Y-72.39
X83.225Y-121.92
X83.703Y-126.529
X83.86Y-86.36
X84.33Y-41.275
X84.495Y-26.67
X84.495Y-73.025
X84.495Y-125.73
X85.13Y-41.275
X85.13Y-56.515
X85.565Y-71.69
X85.73Y-43.18
X86.4Y-25.4
X86.4Y-41.91
X86.43Y-50.8
X87.67Y-27.94
X87.67Y-43.815
X87.67Y-121.92
X87.67Y-154.305
X88.94Y-48.3
X88.94Y-91.44
X88.94Y-106.72
X88.94Y-108.32
X89.575Y-125.73
X90.21Y-155.575
X90.845Y-117.475
X90.845Y-128.905
X91.48Y-109.22
X91.48Y-110.49
X91.48Y-115.57
X91.48Y-177.165
X92.75Y-117.475
X92.75Y-120.65
X92.75Y-151.13
X93.385Y-118.745
X93.385Y-134.62
X94.02Y-48.3
X94.02Y-50.8
X94.02Y-113.665
X94.02Y-168.275
X94.02Y-179.07
X94.655Y-59.055
X95.29Y-127.0
X95.29Y-189.23
X96.56Y-40.64
X96.56Y-43.18
X96.56Y-59.055
X96.56Y-66.94
X96.56Y-71.755
X96.56Y-86.995
X96.56Y-95.885
X96.56Y-114.3
X96.56Y-117.475
X96.56Y-128.27
X96.56Y-158.75
X96.56Y-175.895
X96.56Y-177.0
X96.56Y-177.8
X96.56Y-183.515
X97.83Y-113.665
X99.1Y-26.67
X99.1Y-43.815
X99.1Y-49.53
X99.1Y-57.785
X99.1Y-72.39
X99.1Y-86.36
X99.1Y-135.89
X99.1Y-150.495
X99.1Y-177.8
X100.37Y-136.525
X100.37Y-151.13
X100.37Y-186.69
X101.005Y-49.53
X101.005Y-56.515
X101.005Y-117.475
X101.64Y-48.3
X101.64Y-73.025
X101.64Y-86.995
X101.64Y-95.25
X101.64Y-116.205
X101.64Y-134.62
X101.64Y-143.51
X101.64Y-151.13
X101.64Y-162.56
X102.275Y-118.11
X104.18Y-50.8
X104.18Y-66.04
X104.18Y-73.66
X104.18Y-178.435
X105.45Y-35.56
X106.72Y-48.3
X106.72Y-90.62
X106.72Y-114.935
X106.72Y-151.765
X106.72Y-170.815
X106.72Y-177.165
X106.72Y-178.435
X107.355Y-116.205
X109.26Y-41.91
X109.26Y-50.8
X109.26Y-57.15
X109.26Y-66.04
X109.26Y-71.755
X109.26Y-165.1
X109.26Y-175.26
X110.53Y-116.205
X111.8Y-49.53
X111.8Y-50.8
X111.8Y-58.42
X111.8Y-66.04
X111.8Y-93.345
X111.8Y-99.695
X111.8Y-109.22
X111.8Y-177.165
X112.435Y-101.6
X113.07Y-147.32
X113.07Y-152.4
X114.34Y-30.48
X114.34Y-43.18
X114.34Y-100.33
X114.34Y-125.095
X114.975Y-49.53
X114.975Y-55.88
X114.975Y-57.785
X114.975Y-71.755
X115.98Y-99.06
X116.245Y-43.815
X116.245Y-49.53
X116.88Y-175.26
X118.15Y-114.935
X118.15Y-134.62
X119.42Y-119.38
X121.09Y-173.355
X121.96Y-91.44
X121.96Y-109.22
X121.96Y-132.802
X121.96Y-142.28
X121.96Y-158.115
X121.96Y-172.72
X123.23Y-64.77
X123.23Y-71.12
X124.5Y-27.34
X124.5Y-43.18
X124.5Y-55.88
X124.5Y-93.98
X124.5Y-106.68
X124.5Y-117.475
X124.5Y-123.825
X124.5Y-137.16
X124.5Y-140.97
X124.5Y-145.64
X124.5Y-151.765
X125.77Y-26.035
X125.77Y-55.245
X125.77Y-73.025
X125.77Y-99.695
X125.77Y-137.795
X125.77Y-186.055
X126.405Y-74.295
X126.405Y-86.995
X127.04Y-25.4
X127.04Y-41.275
X127.04Y-42.075
X127.04Y-57.15
X127.04Y-71.12
X127.04Y-84.455
X127.04Y-100.965
X127.04Y-114.3
X127.04Y-131.902
X127.04Y-179.07
X127.675Y-73.66
X127.675Y-117.475
X127.87Y-165.1
X128.31Y-90.58
X128.31Y-101.6
X128.31Y-125.73
X128.31Y-184.15
X128.945Y-71.755
X128.945Y-81.28
X129.58Y-40.64
X129.58Y-55.245
X129.58Y-56.515
X129.58Y-65.14
X129.58Y-72.39
X129.58Y-83.82
X129.58Y-100.33
X129.58Y-115.57
X129.58Y-137.795
X129.58Y-142.28
X130.215Y-99.695
X130.215Y-114.935
X130.85Y-80.01
X130.85Y-94.88
X130.85Y-131.902
X130.85Y-185.42
X132.12Y-35.56
X132.12Y-40.005
X132.12Y-42.545
X132.12Y-57.785
X132.12Y-63.5
X132.12Y-64.54
X132.12Y-80.01
X132.12Y-85.725
X132.12Y-98.895
X132.12Y-99.695
X132.12Y-117.475
X132.12Y-128.905
X132.12Y-136.525
X132.12Y-142.28
X132.12Y-179.07
X132.92Y-117.475
X133.39Y-63.5
X133.39Y-73.66
X133.39Y-81.915
X133.39Y-99.06
X133.39Y-128.905
X134.66Y-58.42
X134.66Y-62.865
X134.66Y-72.39
X134.66Y-85.09
X134.66Y-101.6
X134.66Y-114.935
X134.66Y-127.0
X134.66Y-136.525
X134.66Y-150.495
X134.66Y-180.34
X135.422Y-43.307
X135.46Y-114.935
X135.93Y-71.755
X135.93Y-105.82
X135.93Y-121.92
X136.565Y-128.905
X137.2Y-42.545
X137.2Y-57.785
X137.2Y-64.135
X137.2Y-74.295
X137.2Y-85.09
X137.2Y-117.475
X137.2Y-131.445
X137.2Y-144.74
X137.2Y-174.625
X137.835Y-179.07
X138.47Y-26.67
X138.47Y-73.025
X138.47Y-105.82
X138.47Y-128.905
X139.74Y-66.04
X139.74Y-85.725
X139.74Y-86.995
X139.74Y-93.98
X139.74Y-106.72
X139.74Y-114.935
X139.74Y-126.365
X141.01Y-72.39
X141.01Y-115.57
X141.01Y-123.19
X141.645Y-41.91
X141.645Y-60.96
X141.645Y-144.74
X141.645Y-167.64
X142.28Y-30.48
X142.28Y-43.18
X142.28Y-83.82
X142.28Y-85.725
X142.28Y-100.965
X142.28Y-102.235
X142.28Y-128.27
X142.28Y-129.07
X142.28Y-187.96
X142.28Y-193.04
X142.915Y-40.64
X142.915Y-65.405
X142.915Y-159.385
X142.915Y-178.435
X143.55Y-42.545
X143.55Y-56.515
X143.55Y-86.16
X143.55Y-99.695
X144.185Y-41.275
X144.185Y-63.5
X144.796Y-44.004
X144.82Y-43.18
X144.82Y-64.135
X144.82Y-68.58
X144.82Y-73.66
X144.82Y-84.455
X144.82Y-99.06
X144.82Y-115.57
X144.82Y-118.11
X144.82Y-125.095
X144.82Y-142.28
X144.82Y-165.1
X144.82Y-172.085
X144.82Y-183.515
X144.82Y-190.5
X145.455Y-53.975
X145.455Y-83.82
X145.455Y-101.6
X146.09Y-60.325
X146.09Y-84.96
X146.09Y-100.33
X146.09Y-105.41
X146.09Y-150.495
X147.36Y-84.455
X147.36Y-116.84
X147.36Y-125.73
X147.995Y-62.23
X147.995Y-67.31
X148.6Y-139.7
X148.63Y-57.15
X148.63Y-110.49
X149.9Y-34.66
X149.9Y-67.31
X149.9Y-83.185
X149.9Y-91.48
X149.9Y-106.72
X149.9Y-116.205
X149.9Y-142.28
X149.9Y-149.86
X149.9Y-175.195
X149.9Y-195.58
X150.535Y-84.455
X151.17Y-60.96
X151.17Y-92.075
X151.17Y-99.695
X151.17Y-151.765
X151.17Y-175.895
X151.17Y-185.42
X151.17Y-189.23
X151.805Y-193.04
X152.44Y-27.305
X152.44Y-48.895
X152.44Y-62.23
X152.44Y-84.455
X152.44Y-93.98
X152.44Y-101.6
X152.44Y-115.57
X152.44Y-153.035
X152.44Y-187.96
X152.44Y-189.23
X153.71Y-57.785
X153.71Y-62.23
X153.71Y-121.92
X154.98Y-24.765
X154.98Y-40.64
X154.98Y-48.895
X154.98Y-57.785
X154.98Y-59.69
X154.98Y-71.12
X154.98Y-102.235
X154.98Y-105.41
X154.98Y-109.22
X154.98Y-130.302
X154.98Y-159.385
X154.98Y-165.1
X156.25Y-71.12
X156.25Y-118.11
X156.25Y-137.16
X156.885Y-83.82
X157.52Y-43.815
X157.52Y-47.625
X157.52Y-55.245
X157.52Y-71.755
X157.52Y-84.455
X157.52Y-106.72
X157.52Y-133.995
X157.52Y-136.525
X158.79Y-62.23
X158.79Y-107.95
X158.79Y-195.58
X160.06Y-41.275
X160.06Y-42.545
X160.06Y-47.625
X160.06Y-58.42
X160.06Y-60.96
X160.06Y-86.16
X160.06Y-109.22
X160.06Y-135.89
X160.06Y-154.305
X160.06Y-181.61
X160.695Y-83.185
X160.695Y-115.57
X160.695Y-133.985
X161.33Y-48.895
X161.33Y-62.865
X161.33Y-71.755
X161.33Y-116.84
X161.33Y-165.1
X161.33Y-189.23
X162.6Y-25.4
X162.6Y-41.91
X162.6Y-57.15
X162.6Y-84.96
X162.6Y-92.075
X162.6Y-99.06
X162.6Y-110.49
X162.6Y-143.51
X162.6Y-158.115
X163.235Y-99.695
X163.87Y-48.26
X163.87Y-49.53
X163.87Y-57.785
X163.87Y-114.3
X163.87Y-175.26
X163.87Y-195.58
X165.14Y-35.56
X165.14Y-48.895
X165.14Y-62.23
X165.14Y-85.56
X165.14Y-86.36
X165.14Y-123.19
X165.14Y-165.1
X165.14Y-173.99
X166.41Y-26.035
X166.41Y-191.77
X167.68Y-48.26
X167.68Y-71.12
X167.68Y-86.995
X167.68Y-109.22
X167.68Y-155.575
X167.68Y-179.07
X168.315Y-49.53
X168.95Y-43.18
X168.95Y-59.69
X168.95Y-123.825
X170.22Y-49.53
X170.22Y-60.325
X170.22Y-101.6
X170.22Y-149.86
X170.22Y-179.07
X170.855Y-72.39
X170.855Y-135.89
X171.49Y-34.925
X171.49Y-88.9
X171.49Y-140.97
X172.125Y-67.31
X172.125Y-173.99
X172.76Y-27.305
X173.395Y-86.36
X173.395Y-137.16
X174.64Y-26.67
X174.64Y-115.57
X174.64Y-181.61
T2
X55.48Y-185.42
X57.48Y-185.42
T3
X43.22Y-193.04
X50.84Y-193.04
T4
X30.48Y-128.27
X30.48Y-139.7
X30.48Y-147.32
X30.52Y-30.48
X33.02Y-128.27
X33.06Y-30.48
X35.56Y-128.27
X35.6Y-30.48
X38.1Y-139.7
X38.1Y-147.32
X38.14Y-30.48
X40.68Y-30.48
X40.68Y-57.16
X40.68Y-59.7
X40.68Y-62.24
X40.68Y-64.78
X40.68Y-67.32
X40.68Y-69.86
X40.68Y-72.4
X40.68Y-74.94
X40.68Y-77.48
X40.68Y-80.02
X40.68Y-82.56
X40.68Y-85.1
X40.68Y-87.64
X40.68Y-90.18
X42.78Y-182.88
X43.22Y-30.48
X43.26Y-53.34
X45.76Y-30.48
X45.76Y-53.34
X45.76Y-175.3
X45.76Y-177.8
X48.3Y-30.48
X48.3Y-172.72
X48.3Y-180.34
X50.4Y-182.88
X50.84Y-30.48
X50.84Y-172.72
X50.84Y-180.34
X53.38Y-172.72
X53.38Y-180.34
X55.92Y-57.16
X55.92Y-59.7
X55.92Y-62.24
X55.92Y-64.78
X55.92Y-67.32
X55.92Y-69.86
X55.92Y-72.4
X55.92Y-74.94
X55.92Y-77.48
X55.92Y-80.02
X55.92Y-82.56
X55.92Y-85.1
X55.92Y-87.64
X55.92Y-90.18
X55.92Y-172.72
X55.92Y-180.34
X55.92Y-190.54
X55.92Y-193.04
X57.15Y-139.7
X57.15Y-147.32
X57.19Y-109.22
X57.19Y-111.76
X57.19Y-114.3
X57.19Y-116.84
X57.19Y-119.38
X58.46Y-172.72
X58.46Y-180.34
X61.0Y-33.02
X61.0Y-35.52
X61.0Y-48.3
X61.0Y-50.8
X61.0Y-172.72
X61.0Y-180.34
X63.54Y-30.48
X63.54Y-38.1
X63.54Y-45.72
X63.54Y-53.34
X63.54Y-60.96
X63.54Y-172.72
X63.54Y-180.34
X64.135Y-183.515
X66.08Y-30.48
X66.08Y-38.1
X66.08Y-45.72
X66.08Y-53.34
X66.334Y-130.302
X66.334Y-132.802
X66.91Y-172.72
X66.91Y-180.34
X68.58Y-63.5
X68.62Y-30.48
X68.62Y-38.1
X68.62Y-45.72
X68.62Y-53.34
X68.874Y-127.762
X68.874Y-135.382
X71.12Y-63.5
X71.16Y-30.48
X71.16Y-38.1
X71.16Y-45.72
X71.16Y-53.34
X71.16Y-60.96
X71.414Y-127.762
X71.414Y-135.382
X71.755Y-183.515
X71.99Y-171.49
X71.99Y-173.99
X71.99Y-177.8
X71.99Y-180.3
X73.66Y-63.5
X73.7Y-30.48
X73.7Y-38.1
X73.7Y-45.72
X73.7Y-53.34
X73.954Y-127.762
X73.954Y-135.382
X76.24Y-30.48
X76.24Y-38.1
X76.24Y-45.72
X76.24Y-53.34
X76.494Y-127.762
X76.494Y-135.382
X76.835Y-168.91
X77.47Y-175.895
X77.47Y-183.515
X78.78Y-30.48
X78.78Y-38.1
X78.78Y-45.72
X78.78Y-53.34
X79.034Y-127.762
X79.034Y-135.382
X79.375Y-158.75
X79.375Y-166.37
X79.375Y-168.91
X80.01Y-175.895
X80.01Y-183.515
X81.32Y-30.48
X81.32Y-38.1
X81.32Y-45.72
X81.32Y-53.34
X81.32Y-195.58
X81.574Y-127.762
X81.574Y-135.382
X81.915Y-168.91
X84.114Y-127.762
X84.114Y-135.382
X86.4Y-106.72
X86.4Y-109.22
X88.94Y-76.2
X88.94Y-104.14
X88.94Y-111.76
X88.94Y-195.58
X91.48Y-48.3
X91.48Y-50.8
X91.48Y-63.54
X91.48Y-66.04
X91.48Y-76.2
X91.48Y-104.14
X91.48Y-111.76
X91.48Y-142.28
X91.48Y-144.78
X91.48Y-172.72
X91.48Y-187.96
X91.48Y-190.5
X91.48Y-193.04
X91.48Y-195.58
X91.49Y-33.02
X91.49Y-35.52
X94.02Y-30.52
X94.02Y-38.14
X94.02Y-45.76
X94.02Y-53.38
X94.02Y-61.0
X94.02Y-68.62
X94.02Y-76.2
X94.02Y-104.14
X94.02Y-111.76
X94.02Y-139.7
X94.02Y-147.32
X94.02Y-172.72
X94.02Y-187.96
X94.02Y-190.5
X94.02Y-193.04
X94.02Y-195.58
X96.56Y-30.52
X96.56Y-38.14
X96.56Y-45.76
X96.56Y-53.38
X96.56Y-61.0
X96.56Y-68.62
X96.56Y-76.2
X96.56Y-104.14
X96.56Y-111.76
X96.56Y-139.7
X96.56Y-147.32
X96.56Y-172.72
X96.56Y-187.96
X96.56Y-190.5
X96.56Y-193.04
X96.56Y-195.58
X99.1Y-30.52
X99.1Y-38.14
X99.1Y-45.76
X99.1Y-53.38
X99.1Y-61.0
X99.1Y-68.62
X99.1Y-76.2
X99.1Y-104.14
X99.1Y-111.76
X99.1Y-119.42
X99.1Y-139.7
X99.1Y-147.32
X99.1Y-172.72
X99.1Y-187.96
X99.1Y-190.5
X99.1Y-193.04
X99.1Y-195.58
X101.64Y-30.52
X101.64Y-38.14
X101.64Y-45.76
X101.64Y-53.38
X101.64Y-61.0
X101.64Y-68.62
X101.64Y-76.2
X101.64Y-104.14
X101.64Y-111.76
X101.64Y-119.42
X101.64Y-139.7
X101.64Y-147.32
X101.64Y-172.72
X101.64Y-187.96
X101.64Y-190.5
X101.64Y-193.04
X101.64Y-195.58
X104.18Y-30.52
X104.18Y-38.14
X104.18Y-45.76
X104.18Y-53.38
X104.18Y-61.0
X104.18Y-68.62
X104.18Y-76.2
X104.18Y-104.14
X104.18Y-111.76
X104.18Y-119.42
X104.18Y-139.7
X104.18Y-147.32
X104.18Y-172.72
X104.18Y-187.96
X104.18Y-190.5
X104.18Y-193.04
X104.18Y-195.58
X106.72Y-30.52
X106.72Y-38.14
X106.72Y-45.76
X106.72Y-53.38
X106.72Y-61.0
X106.72Y-68.62
X106.72Y-76.2
X106.72Y-104.14
X106.72Y-111.76
X106.72Y-119.42
X106.72Y-139.7
X106.72Y-147.32
X106.72Y-172.72
X106.72Y-187.96
X106.72Y-190.5
X106.72Y-193.04
X106.72Y-195.58
X109.26Y-30.52
X109.26Y-38.14
X109.26Y-45.76
X109.26Y-53.38
X109.26Y-61.0
X109.26Y-68.62
X109.26Y-76.2
X109.26Y-104.14
X109.26Y-111.76
X109.26Y-119.42
X109.26Y-139.7
X109.26Y-147.32
X109.26Y-172.72
X109.26Y-187.96
X109.26Y-190.5
X109.26Y-193.04
X109.26Y-195.58
X111.8Y-30.52
X111.8Y-38.14
X111.8Y-45.76
X111.8Y-53.38
X111.8Y-61.0
X111.8Y-68.62
X111.8Y-104.14
X111.8Y-111.76
X111.8Y-172.72
X111.8Y-187.96
X111.8Y-190.5
X111.8Y-193.04
X111.8Y-195.58
X113.07Y-76.2
X114.34Y-187.96
X114.34Y-190.5
X114.34Y-193.04
X114.34Y-195.58
X115.61Y-76.2
X116.88Y-187.96
X116.88Y-190.5
X116.88Y-193.04
X116.88Y-195.58
X118.15Y-76.2
X119.42Y-33.02
X119.42Y-35.52
X119.42Y-48.3
X119.42Y-50.8
X119.42Y-63.5
X119.42Y-66.0
X119.42Y-91.52
X119.42Y-94.02
X119.42Y-106.68
X119.42Y-109.18
X119.42Y-142.28
X119.42Y-144.78
X119.42Y-187.96
X119.42Y-190.5
X119.42Y-193.04
X119.42Y-195.58
X120.69Y-76.2
X121.96Y-30.48
X121.96Y-38.1
X121.96Y-45.76
X121.96Y-53.38
X121.96Y-61.0
X121.96Y-68.62
X121.96Y-88.94
X121.96Y-96.56
X121.96Y-104.18
X121.96Y-111.8
X121.96Y-119.38
X121.96Y-134.62
X121.96Y-139.7
X121.96Y-147.32
X121.96Y-187.96
X121.96Y-190.5
X121.96Y-193.04
X121.96Y-195.58
X123.23Y-76.2
X124.5Y-30.48
X124.5Y-38.1
X124.5Y-45.76
X124.5Y-53.38
X124.5Y-61.0
X124.5Y-68.62
X124.5Y-88.94
X124.5Y-96.56
X124.5Y-104.18
X124.5Y-111.8
X124.5Y-119.38
X124.5Y-134.62
X124.5Y-139.7
X124.5Y-147.32
X124.5Y-187.96
X124.5Y-190.5
X124.5Y-193.04
X124.5Y-195.58
X127.04Y-30.48
X127.04Y-38.1
X127.04Y-45.76
X127.04Y-53.38
X127.04Y-61.0
X127.04Y-68.62
X127.04Y-88.94
X127.04Y-96.56
X127.04Y-104.18
X127.04Y-111.8
X127.04Y-119.38
X127.04Y-134.62
X127.04Y-139.7
X127.04Y-147.32
X127.04Y-187.96
X127.04Y-190.5
X127.04Y-193.04
X127.04Y-195.58
X127.87Y-170.18
X127.87Y-173.99
X129.58Y-30.48
X129.58Y-38.1
X129.58Y-45.76
X129.58Y-53.38
X129.58Y-61.0
X129.58Y-68.62
X129.58Y-88.94
X129.58Y-96.56
X129.58Y-104.18
X129.58Y-111.8
X129.58Y-119.38
X129.58Y-134.62
X129.58Y-139.7
X129.58Y-147.32
X129.58Y-187.96
X129.58Y-190.5
X129.58Y-193.04
X129.58Y-195.58
X132.12Y-30.48
X132.12Y-38.1
X132.12Y-45.76
X132.12Y-53.38
X132.12Y-61.0
X132.12Y-68.62
X132.12Y-88.94
X132.12Y-96.56
X132.12Y-104.18
X132.12Y-111.8
X132.12Y-119.38
X132.12Y-134.62
X132.12Y-139.7
X132.12Y-147.32
X132.12Y-187.96
X132.12Y-190.5
X132.12Y-193.04
X132.12Y-195.58
X133.39Y-76.2
X134.66Y-30.48
X134.66Y-38.1
X134.66Y-45.76
X134.66Y-53.38
X134.66Y-61.0
X134.66Y-68.62
X134.66Y-88.94
X134.66Y-96.56
X134.66Y-104.18
X134.66Y-111.8
X134.66Y-119.38
X134.66Y-134.62
X134.66Y-139.7
X134.66Y-147.32
X134.66Y-187.96
X134.66Y-190.5
X134.66Y-193.04
X134.66Y-195.58
X135.49Y-170.18
X135.49Y-173.99
X135.93Y-76.2
X137.2Y-30.48
X137.2Y-38.1
X137.2Y-45.76
X137.2Y-53.38
X137.2Y-61.0
X137.2Y-68.62
X137.2Y-88.94
X137.2Y-96.56
X137.2Y-104.18
X137.2Y-111.8
X137.2Y-119.38
X137.2Y-134.62
X137.2Y-139.7
X137.2Y-147.32
X137.2Y-187.96
X137.2Y-190.5
X137.2Y-193.04
X137.2Y-195.58
X138.47Y-76.2
X139.74Y-30.48
X139.74Y-38.1
X139.74Y-45.76
X139.74Y-53.38
X139.74Y-61.0
X139.74Y-68.62
X139.74Y-88.94
X139.74Y-96.56
X139.74Y-104.18
X139.74Y-111.8
X139.74Y-119.38
X139.74Y-134.62
X139.74Y-187.96
X139.74Y-190.5
X139.74Y-193.04
X139.74Y-195.58
X141.01Y-76.2
X142.28Y-119.38
X142.28Y-134.62
X143.55Y-76.2
X144.82Y-119.38
X144.82Y-134.62
X147.36Y-33.06
X147.36Y-35.56
X147.36Y-48.3
X147.36Y-50.8
X147.36Y-76.2
X147.36Y-91.44
X147.36Y-93.94
X147.36Y-106.68
X147.36Y-109.18
X147.36Y-119.38
X147.36Y-134.62
X147.36Y-142.24
X147.36Y-144.74
X147.36Y-180.34
X147.36Y-182.88
X147.36Y-185.42
X147.36Y-187.96
X147.36Y-190.5
X147.36Y-193.04
X147.36Y-195.58
X149.9Y-30.51
X149.9Y-38.13
X149.9Y-45.76
X149.9Y-53.38
X149.9Y-76.2
X149.9Y-88.9
X149.9Y-96.52
X149.9Y-104.14
X149.9Y-111.76
X149.9Y-119.38
X149.9Y-134.62
X149.9Y-139.7
X149.9Y-147.32
X149.9Y-165.1
X149.9Y-167.6
X149.9Y-177.8
X152.4Y-177.8
X152.44Y-30.51
X152.44Y-38.13
X152.44Y-45.76
X152.44Y-53.38
X152.44Y-76.2
X152.44Y-88.9
X152.44Y-96.52
X152.44Y-104.14
X152.44Y-111.76
X152.44Y-119.38
X152.44Y-134.62
X152.44Y-139.7
X152.44Y-147.32
X152.44Y-162.56
X152.44Y-170.18
X154.98Y-30.51
X154.98Y-38.13
X154.98Y-45.76
X154.98Y-53.38
X154.98Y-76.2
X154.98Y-88.9
X154.98Y-96.52
X154.98Y-104.14
X154.98Y-111.76
X154.98Y-119.38
X154.98Y-134.62
X154.98Y-139.7
X154.98Y-147.32
X154.98Y-162.56
X154.98Y-170.18
X154.98Y-180.34
X154.98Y-182.88
X154.98Y-185.42
X154.98Y-187.96
X154.98Y-190.5
X154.98Y-193.04
X154.98Y-195.58
X157.52Y-30.51
X157.52Y-38.13
X157.52Y-45.76
X157.52Y-53.38
X157.52Y-76.2
X157.52Y-88.9
X157.52Y-96.52
X157.52Y-104.14
X157.52Y-111.76
X157.52Y-130.195
X157.52Y-132.695
X157.52Y-139.7
X157.52Y-147.32
X157.52Y-162.56
X157.52Y-170.18
X160.06Y-30.51
X160.06Y-38.13
X160.06Y-45.76
X160.06Y-53.38
X160.06Y-76.2
X160.06Y-88.9
X160.06Y-96.52
X160.06Y-104.14
X160.06Y-111.76
X160.06Y-139.7
X160.06Y-147.32
X160.06Y-162.56
X160.06Y-170.18
X162.6Y-30.51
X162.6Y-38.13
X162.6Y-45.76
X162.6Y-53.38
X162.6Y-76.2
X162.6Y-88.9
X162.6Y-96.52
X162.6Y-104.14
X162.6Y-111.76
X162.6Y-139.7
X162.6Y-147.32
X162.6Y-162.56
X162.6Y-170.18
X165.14Y-30.51
X165.14Y-38.13
X165.14Y-45.76
X165.14Y-53.38
X165.14Y-76.2
X165.14Y-88.9
X165.14Y-96.52
X165.14Y-104.14
X165.14Y-111.76
X165.14Y-139.7
X165.14Y-147.32
X165.14Y-162.56
X165.14Y-170.18
X167.68Y-30.51
X167.68Y-38.13
X167.68Y-45.76
X167.68Y-53.38
X167.68Y-76.2
X167.68Y-88.9
X167.68Y-96.52
X167.68Y-104.14
X167.68Y-111.76
X167.68Y-139.7
X167.68Y-147.32
X167.68Y-162.56
X167.68Y-170.18
X167.68Y-187.96
X167.68Y-195.58
X170.22Y-45.76
X170.22Y-53.38
X170.22Y-187.96
X170.22Y-195.58
X172.76Y-45.76
X172.76Y-53.38
T5
X33.06Y-33.065
X33.06Y-35.605
X35.6Y-33.02
X35.6Y-35.56
X38.14Y-33.02
X38.14Y-35.56
X40.68Y-33.02
X40.68Y-35.56
X43.18Y-139.7
X43.18Y-147.32
X43.22Y-33.02
X43.22Y-35.56
X45.72Y-139.7
X45.72Y-147.32
X45.76Y-33.02
X45.76Y-35.56
X48.3Y-33.02
X48.3Y-35.56
X50.84Y-33.06
X50.84Y-35.6
X86.4Y-186.69
X86.4Y-189.23
X91.48Y-78.74
X91.48Y-81.28
X94.02Y-78.74
X94.02Y-81.28
X96.56Y-78.74
X96.56Y-81.28
X99.1Y-78.74
X99.1Y-81.28
X99.1Y-121.96
X99.1Y-124.5
X101.64Y-78.74
X101.64Y-81.28
X101.64Y-121.92
X101.64Y-124.46
X104.18Y-78.74
X104.18Y-81.28
X104.18Y-121.92
X104.18Y-124.46
X106.72Y-78.74
X106.72Y-81.28
X106.72Y-121.92
X106.72Y-124.46
X109.26Y-78.74
X109.26Y-81.28
X111.8Y-78.74
X111.8Y-81.28
X114.34Y-78.74
X114.34Y-81.28
X116.88Y-78.74
X116.88Y-81.28
X119.42Y-78.74
X119.42Y-81.28
X137.2Y-78.74
X137.2Y-81.28
X139.74Y-78.74
X139.74Y-81.28
X142.28Y-78.74
X142.28Y-81.28
X144.82Y-78.74
X144.82Y-81.28
X147.36Y-78.74
X147.36Y-81.28
X149.9Y-78.74
X149.9Y-81.28
X152.44Y-78.74
X152.44Y-81.28
X154.98Y-78.74
X154.98Y-81.28
X157.52Y-78.74
X157.52Y-81.28
X160.06Y-78.74
X160.06Y-81.28
X162.6Y-78.74
X162.6Y-81.28
X165.14Y-78.74
X165.14Y-81.28
X167.68Y-181.615
X167.68Y-184.155
X170.22Y-181.61
X170.22Y-184.15
T6
X33.06Y-48.26
X33.06Y-50.8
X33.06Y-53.34
X33.06Y-55.88
X33.06Y-58.42
X33.06Y-60.96
X33.06Y-63.5
X33.06Y-66.04
X33.06Y-68.58
X33.06Y-71.12
X33.06Y-73.66
X33.06Y-76.2
X33.06Y-78.74
X33.06Y-81.28
X33.06Y-83.82
X33.06Y-86.36
X33.06Y-88.9
X33.06Y-91.44
X33.06Y-93.98
X33.06Y-96.52
X35.56Y-132.08
X35.6Y-48.26
X35.6Y-50.8
X35.6Y-53.34
X35.6Y-55.88
X35.6Y-58.42
X35.6Y-60.96
X35.6Y-63.5
X35.6Y-66.04
X35.6Y-68.58
X35.6Y-71.12
X35.6Y-73.66
X35.6Y-76.2
X35.6Y-78.74
X35.6Y-81.28
X35.6Y-83.82
X35.6Y-86.36
X35.6Y-88.9
X35.6Y-91.44
X35.6Y-93.98
X35.6Y-96.52
X57.19Y-99.06
X57.19Y-101.6
X57.19Y-104.14
T7
X45.76Y-187.96
X50.86Y-189.16
T8
X64.12Y-189.08
X64.12Y-195.58
X68.62Y-189.08
X68.62Y-195.58
X74.28Y-189.08
X74.28Y-195.58
X78.78Y-189.08
X78.78Y-195.58
T6
X34.38Y-189.68G85X34.38Y-191.88
G05
X38.88Y-195.58G85X36.68Y-195.58
G05
X40.68Y-189.48G85X40.68Y-192.08
G05
M30
