G04 #@! TF.GenerationSoftware,KiCad,Pcbnew,8.0.8*
G04 #@! TF.CreationDate,2025-02-23T11:14:02+09:00*
G04 #@! TF.ProjectId,HC4_KiCad,4843345f-4b69-4436-9164-2e6b69636164,1.0*
G04 #@! TF.SameCoordinates,Original*
G04 #@! TF.FileFunction,Soldermask,Bot*
G04 #@! TF.FilePolarity,Negative*
%FSLAX46Y46*%
G04 Gerber Fmt 4.6, Leading zero omitted, Abs format (unit mm)*
G04 Created by KiCad (PCBNEW 8.0.8) date 2025-02-23 11:14:02*
%MOMM*%
%LPD*%
G01*
G04 APERTURE LIST*
%ADD10C,1.600000*%
%ADD11O,1.600000X1.600000*%
%ADD12R,1.800000X1.800000*%
%ADD13C,1.800000*%
%ADD14R,1.600000X1.600000*%
%ADD15O,1.600000X1.400000*%
%ADD16R,1.600000X1.400000*%
%ADD17R,1.700000X1.700000*%
%ADD18O,1.700000X1.700000*%
%ADD19O,4.200000X2.000000*%
%ADD20O,2.000000X4.200000*%
%ADD21R,2.000000X4.600000*%
%ADD22R,1.500000X1.500000*%
%ADD23C,2.000000*%
%ADD24C,2.010000*%
%ADD25O,1.500000X1.500000*%
%ADD26C,1.200000*%
G04 APERTURE END LIST*
D10*
X30480000Y-147320000D03*
D11*
X38100000Y-147320000D03*
D10*
X30480000Y-139700000D03*
D11*
X38100000Y-139700000D03*
D12*
X45720000Y-147320000D03*
D13*
X43180000Y-147320000D03*
D12*
X45720000Y-139700000D03*
D13*
X43180000Y-139700000D03*
D12*
X86400000Y-189230000D03*
D13*
X86400000Y-186690000D03*
D12*
X114340000Y-78740000D03*
D13*
X114340000Y-81280000D03*
D12*
X116880000Y-78740000D03*
D13*
X116880000Y-81280000D03*
D12*
X167680000Y-184155000D03*
D13*
X167680000Y-181615000D03*
D12*
X109260000Y-78740000D03*
D13*
X109260000Y-81280000D03*
D12*
X101640000Y-121920000D03*
D13*
X101640000Y-124460000D03*
D12*
X111800000Y-78740000D03*
D13*
X111800000Y-81280000D03*
D12*
X40680000Y-33020000D03*
D13*
X40680000Y-35560000D03*
D12*
X165140000Y-78740000D03*
D13*
X165140000Y-81280000D03*
D12*
X99100000Y-121960000D03*
D13*
X99100000Y-124500000D03*
D12*
X99100000Y-78740000D03*
D13*
X99100000Y-81280000D03*
D12*
X144820000Y-78740000D03*
D13*
X144820000Y-81280000D03*
D12*
X170220000Y-184150000D03*
D13*
X170220000Y-181610000D03*
D12*
X160060000Y-78740000D03*
D13*
X160060000Y-81280000D03*
D12*
X50840000Y-33060000D03*
D13*
X50840000Y-35600000D03*
D12*
X157520000Y-78740000D03*
D13*
X157520000Y-81280000D03*
D12*
X48300000Y-33020000D03*
D13*
X48300000Y-35560000D03*
D12*
X33060000Y-33065000D03*
D13*
X33060000Y-35605000D03*
D12*
X43220000Y-33020000D03*
D13*
X43220000Y-35560000D03*
D12*
X106720000Y-78740000D03*
D13*
X106720000Y-81280000D03*
D12*
X142280000Y-78740000D03*
D13*
X142280000Y-81280000D03*
D12*
X139740000Y-78740000D03*
D13*
X139740000Y-81280000D03*
D12*
X162600000Y-78740000D03*
D13*
X162600000Y-81280000D03*
D12*
X35600000Y-33020000D03*
D13*
X35600000Y-35560000D03*
D12*
X96560000Y-78740000D03*
D13*
X96560000Y-81280000D03*
D12*
X154980000Y-78740000D03*
D13*
X154980000Y-81280000D03*
D12*
X94020000Y-78740000D03*
D13*
X94020000Y-81280000D03*
D12*
X104180000Y-78740000D03*
D13*
X104180000Y-81280000D03*
D12*
X104180000Y-121920000D03*
D13*
X104180000Y-124460000D03*
D12*
X101640000Y-78740000D03*
D13*
X101640000Y-81280000D03*
D12*
X106720000Y-121920000D03*
D13*
X106720000Y-124460000D03*
D12*
X119420000Y-78740000D03*
D13*
X119420000Y-81280000D03*
D12*
X45760000Y-33020000D03*
D13*
X45760000Y-35560000D03*
D12*
X147360000Y-78740000D03*
D13*
X147360000Y-81280000D03*
D12*
X91480000Y-78740000D03*
D13*
X91480000Y-81280000D03*
D12*
X149900000Y-78740000D03*
D13*
X149900000Y-81280000D03*
D12*
X38140000Y-33020000D03*
D13*
X38140000Y-35560000D03*
D12*
X137200000Y-78740000D03*
D13*
X137200000Y-81280000D03*
D12*
X152440000Y-78740000D03*
D13*
X152440000Y-81280000D03*
D11*
X77470000Y-175895000D03*
D10*
X77470000Y-183515000D03*
D11*
X66910000Y-172720000D03*
D10*
X66910000Y-180340000D03*
D11*
X57150000Y-139700000D03*
D10*
X57150000Y-147320000D03*
D11*
X154980000Y-134620000D03*
X152440000Y-134620000D03*
X149900000Y-134620000D03*
X147360000Y-134620000D03*
X144820000Y-134620000D03*
X142280000Y-134620000D03*
X139740000Y-134620000D03*
X137200000Y-134620000D03*
X134660000Y-134620000D03*
X132120000Y-134620000D03*
X129580000Y-134620000D03*
X127040000Y-134620000D03*
X124500000Y-134620000D03*
X121960000Y-134620000D03*
X121960000Y-119380000D03*
X124500000Y-119380000D03*
X127040000Y-119380000D03*
X129580000Y-119380000D03*
X132120000Y-119380000D03*
X134660000Y-119380000D03*
X137200000Y-119380000D03*
X139740000Y-119380000D03*
X142280000Y-119380000D03*
X144820000Y-119380000D03*
X147360000Y-119380000D03*
X149900000Y-119380000D03*
X152440000Y-119380000D03*
D14*
X154980000Y-119380000D03*
D15*
X139740000Y-187960000D03*
D16*
X137200000Y-187960000D03*
D15*
X139740000Y-193040000D03*
D16*
X137200000Y-193040000D03*
D15*
X134660000Y-193040000D03*
D16*
X132120000Y-193040000D03*
D11*
X149900000Y-104140000D03*
X152440000Y-104140000D03*
X154980000Y-104140000D03*
X157520000Y-104140000D03*
X160060000Y-104140000D03*
X162600000Y-104140000D03*
X165140000Y-104140000D03*
X167680000Y-104140000D03*
X167680000Y-111760000D03*
X165140000Y-111760000D03*
X162600000Y-111760000D03*
X160060000Y-111760000D03*
X157520000Y-111760000D03*
X154980000Y-111760000D03*
X152440000Y-111760000D03*
D14*
X149900000Y-111760000D03*
D15*
X114340000Y-187960000D03*
D16*
X111800000Y-187960000D03*
D15*
X114340000Y-193040000D03*
D16*
X111800000Y-193040000D03*
D17*
X35560000Y-132080000D03*
D15*
X124500000Y-190500000D03*
D16*
X121960000Y-190500000D03*
D10*
X119420000Y-50800000D03*
X119420000Y-48300000D03*
X119420000Y-66000000D03*
X119420000Y-63500000D03*
D11*
X94020000Y-45760000D03*
X96560000Y-45760000D03*
X99100000Y-45760000D03*
X101640000Y-45760000D03*
X104180000Y-45760000D03*
X106720000Y-45760000D03*
X109260000Y-45760000D03*
X111800000Y-45760000D03*
X111800000Y-53380000D03*
X109260000Y-53380000D03*
X106720000Y-53380000D03*
X104180000Y-53380000D03*
X101640000Y-53380000D03*
X99100000Y-53380000D03*
X96560000Y-53380000D03*
D14*
X94020000Y-53380000D03*
D10*
X55920000Y-193040000D03*
D14*
X55920000Y-190540000D03*
D15*
X99100000Y-193040000D03*
D16*
X96560000Y-193040000D03*
D15*
X94020000Y-187960000D03*
D16*
X91480000Y-187960000D03*
D18*
X57190000Y-99060000D03*
X57190000Y-101600000D03*
D17*
X57190000Y-104140000D03*
D19*
X37780000Y-195580000D03*
D20*
X34380000Y-190780000D03*
D21*
X40680000Y-190780000D03*
D11*
X149900000Y-139700000D03*
X152440000Y-139700000D03*
X154980000Y-139700000D03*
X157520000Y-139700000D03*
X160060000Y-139700000D03*
X162600000Y-139700000D03*
X165140000Y-139700000D03*
X167680000Y-139700000D03*
X167680000Y-147320000D03*
X165140000Y-147320000D03*
X162600000Y-147320000D03*
X160060000Y-147320000D03*
X157520000Y-147320000D03*
X154980000Y-147320000D03*
X152440000Y-147320000D03*
D14*
X149900000Y-147320000D03*
D11*
X152440000Y-162560000D03*
X154980000Y-162560000D03*
X157520000Y-162560000D03*
X160060000Y-162560000D03*
X162600000Y-162560000D03*
X165140000Y-162560000D03*
X167680000Y-162560000D03*
X167680000Y-170180000D03*
X165140000Y-170180000D03*
X162600000Y-170180000D03*
X160060000Y-170180000D03*
X157520000Y-170180000D03*
X154980000Y-170180000D03*
D14*
X152440000Y-170180000D03*
D15*
X129580000Y-193040000D03*
D16*
X127040000Y-193040000D03*
D11*
X147360000Y-76200000D03*
X149900000Y-76200000D03*
X152440000Y-76200000D03*
X154980000Y-76200000D03*
X157520000Y-76200000D03*
X160060000Y-76200000D03*
X162600000Y-76200000D03*
X165140000Y-76200000D03*
D14*
X167680000Y-76200000D03*
D15*
X139740000Y-195580000D03*
D16*
X137200000Y-195580000D03*
D10*
X81915000Y-168910000D03*
X76835000Y-168910000D03*
D22*
X79375000Y-168910000D03*
D15*
X99100000Y-195580000D03*
D16*
X96560000Y-195580000D03*
D10*
X71990000Y-171490000D03*
D14*
X71990000Y-173990000D03*
D18*
X33060000Y-48260000D03*
X35600000Y-48260000D03*
X33060000Y-50800000D03*
X35600000Y-50800000D03*
X33060000Y-53340000D03*
X35600000Y-53340000D03*
X33060000Y-55880000D03*
X35600000Y-55880000D03*
X33060000Y-58420000D03*
X35600000Y-58420000D03*
X33060000Y-60960000D03*
X35600000Y-60960000D03*
X33060000Y-63500000D03*
X35600000Y-63500000D03*
X33060000Y-66040000D03*
X35600000Y-66040000D03*
X33060000Y-68580000D03*
X35600000Y-68580000D03*
X33060000Y-71120000D03*
X35600000Y-71120000D03*
X33060000Y-73660000D03*
X35600000Y-73660000D03*
X33060000Y-76200000D03*
X35600000Y-76200000D03*
X33060000Y-78740000D03*
X35600000Y-78740000D03*
X33060000Y-81280000D03*
X35600000Y-81280000D03*
X33060000Y-83820000D03*
X35600000Y-83820000D03*
X33060000Y-86360000D03*
X35600000Y-86360000D03*
X33060000Y-88900000D03*
X35600000Y-88900000D03*
X33060000Y-91440000D03*
X35600000Y-91440000D03*
X33060000Y-93980000D03*
X35600000Y-93980000D03*
X33060000Y-96520000D03*
D17*
X35600000Y-96520000D03*
D10*
X147360000Y-35560000D03*
X147360000Y-33060000D03*
D11*
X109260000Y-76200000D03*
X106720000Y-76200000D03*
X104180000Y-76200000D03*
X101640000Y-76200000D03*
X99100000Y-76200000D03*
X96560000Y-76200000D03*
X94020000Y-76200000D03*
X91480000Y-76200000D03*
D14*
X88940000Y-76200000D03*
D15*
X134660000Y-190500000D03*
D16*
X132120000Y-190500000D03*
D10*
X68580000Y-63500000D03*
X73660000Y-63500000D03*
D22*
X71120000Y-63500000D03*
D11*
X139740000Y-96560000D03*
X137200000Y-96560000D03*
X134660000Y-96560000D03*
X132120000Y-96560000D03*
X129580000Y-96560000D03*
X127040000Y-96560000D03*
X124500000Y-96560000D03*
X121960000Y-96560000D03*
X121960000Y-88940000D03*
X124500000Y-88940000D03*
X127040000Y-88940000D03*
X129580000Y-88940000D03*
X132120000Y-88940000D03*
X134660000Y-88940000D03*
X137200000Y-88940000D03*
D14*
X139740000Y-88940000D03*
D10*
X43260000Y-53340000D03*
X45760000Y-53340000D03*
X91480000Y-144780000D03*
X91480000Y-142280000D03*
D11*
X94020000Y-61000000D03*
X96560000Y-61000000D03*
X99100000Y-61000000D03*
X101640000Y-61000000D03*
X104180000Y-61000000D03*
X106720000Y-61000000D03*
X109260000Y-61000000D03*
X111800000Y-61000000D03*
X111800000Y-68620000D03*
X109260000Y-68620000D03*
X106720000Y-68620000D03*
X104180000Y-68620000D03*
X101640000Y-68620000D03*
X99100000Y-68620000D03*
X96560000Y-68620000D03*
D14*
X94020000Y-68620000D03*
D11*
X68874000Y-127762000D03*
X71414000Y-127762000D03*
X73954000Y-127762000D03*
X76494000Y-127762000D03*
X79034000Y-127762000D03*
X81574000Y-127762000D03*
X84114000Y-127762000D03*
X84114000Y-135382000D03*
X81574000Y-135382000D03*
X79034000Y-135382000D03*
X76494000Y-135382000D03*
X73954000Y-135382000D03*
X71414000Y-135382000D03*
D14*
X68874000Y-135382000D03*
D10*
X149900000Y-177800000D03*
X152400000Y-177800000D03*
D23*
X64120000Y-195580000D03*
X64120000Y-189080000D03*
X68620000Y-195580000D03*
X68620000Y-189080000D03*
D10*
X61000000Y-35520000D03*
X61000000Y-33020000D03*
D15*
X139740000Y-190500000D03*
D16*
X137200000Y-190500000D03*
D15*
X134660000Y-195580000D03*
D16*
X132120000Y-195580000D03*
D10*
X119420000Y-144780000D03*
X119420000Y-142280000D03*
D15*
X119420000Y-193040000D03*
D16*
X116880000Y-193040000D03*
D11*
X170220000Y-195580000D03*
D10*
X170220000Y-187960000D03*
D15*
X104180000Y-195580000D03*
D16*
X101640000Y-195580000D03*
D11*
X79375000Y-158750000D03*
D10*
X79375000Y-166370000D03*
D11*
X81320000Y-195580000D03*
D10*
X88940000Y-195580000D03*
D11*
X57190000Y-119380000D03*
X57190000Y-116840000D03*
X57190000Y-114300000D03*
X57190000Y-111760000D03*
D14*
X57190000Y-109220000D03*
D11*
X135490000Y-170180000D03*
D10*
X127870000Y-170180000D03*
D15*
X109260000Y-190500000D03*
D16*
X106720000Y-190500000D03*
D10*
X157520000Y-132695000D03*
X157520000Y-130195000D03*
D15*
X104180000Y-190500000D03*
D16*
X101640000Y-190500000D03*
D15*
X99100000Y-187960000D03*
D16*
X96560000Y-187960000D03*
D10*
X147360000Y-144740000D03*
X147360000Y-142240000D03*
D11*
X63540000Y-45720000D03*
X66080000Y-45720000D03*
X68620000Y-45720000D03*
X71160000Y-45720000D03*
X73700000Y-45720000D03*
X76240000Y-45720000D03*
X78780000Y-45720000D03*
X81320000Y-45720000D03*
X81320000Y-53340000D03*
X78780000Y-53340000D03*
X76240000Y-53340000D03*
X73700000Y-53340000D03*
X71160000Y-53340000D03*
X68620000Y-53340000D03*
X66080000Y-53340000D03*
D14*
X63540000Y-53340000D03*
D15*
X119420000Y-190500000D03*
D16*
X116880000Y-190500000D03*
D11*
X94020000Y-30520000D03*
X96560000Y-30520000D03*
X99100000Y-30520000D03*
X101640000Y-30520000D03*
X104180000Y-30520000D03*
X106720000Y-30520000D03*
X109260000Y-30520000D03*
X111800000Y-30520000D03*
X111800000Y-38140000D03*
X109260000Y-38140000D03*
X106720000Y-38140000D03*
X104180000Y-38140000D03*
X101640000Y-38140000D03*
X99100000Y-38140000D03*
X96560000Y-38140000D03*
D14*
X94020000Y-38140000D03*
D11*
X139740000Y-111800000D03*
X137200000Y-111800000D03*
X134660000Y-111800000D03*
X132120000Y-111800000D03*
X129580000Y-111800000D03*
X127040000Y-111800000D03*
X124500000Y-111800000D03*
X121960000Y-111800000D03*
X121960000Y-104180000D03*
X124500000Y-104180000D03*
X127040000Y-104180000D03*
X129580000Y-104180000D03*
X132120000Y-104180000D03*
X134660000Y-104180000D03*
X137200000Y-104180000D03*
D14*
X139740000Y-104180000D03*
D15*
X129580000Y-187960000D03*
D16*
X127040000Y-187960000D03*
D11*
X154980000Y-180340000D03*
X154980000Y-182880000D03*
X154980000Y-185420000D03*
X154980000Y-187960000D03*
X154980000Y-190500000D03*
X154980000Y-193040000D03*
X154980000Y-195580000D03*
X147360000Y-195580000D03*
X147360000Y-193040000D03*
X147360000Y-190500000D03*
X147360000Y-187960000D03*
X147360000Y-185420000D03*
X147360000Y-182880000D03*
D14*
X147360000Y-180340000D03*
D15*
X109260000Y-187960000D03*
D16*
X106720000Y-187960000D03*
D10*
X149900000Y-167600000D03*
X149900000Y-165100000D03*
X30480000Y-128270000D03*
X35560000Y-128270000D03*
D22*
X33020000Y-128270000D03*
D11*
X167680000Y-96520000D03*
X165140000Y-96520000D03*
X162600000Y-96520000D03*
X160060000Y-96520000D03*
X157520000Y-96520000D03*
X154980000Y-96520000D03*
X152440000Y-96520000D03*
X149900000Y-96520000D03*
X149900000Y-88900000D03*
X152440000Y-88900000D03*
X154980000Y-88900000D03*
X157520000Y-88900000D03*
X160060000Y-88900000D03*
X162600000Y-88900000D03*
X165140000Y-88900000D03*
D14*
X167680000Y-88900000D03*
D11*
X167680000Y-195580000D03*
D10*
X167680000Y-187960000D03*
D15*
X124500000Y-187960000D03*
D16*
X121960000Y-187960000D03*
D11*
X149900000Y-45760000D03*
X152440000Y-45760000D03*
X154980000Y-45760000D03*
X157520000Y-45760000D03*
X160060000Y-45760000D03*
X162600000Y-45760000D03*
X165140000Y-45760000D03*
X167680000Y-45760000D03*
X170220000Y-45760000D03*
X172760000Y-45760000D03*
X172760000Y-53380000D03*
X170220000Y-53380000D03*
X167680000Y-53380000D03*
X165140000Y-53380000D03*
X162600000Y-53380000D03*
X160060000Y-53380000D03*
X157520000Y-53380000D03*
X154980000Y-53380000D03*
X152440000Y-53380000D03*
D14*
X149900000Y-53380000D03*
D11*
X121960000Y-45760000D03*
X124500000Y-45760000D03*
X127040000Y-45760000D03*
X129580000Y-45760000D03*
X132120000Y-45760000D03*
X134660000Y-45760000D03*
X137200000Y-45760000D03*
X139740000Y-45760000D03*
X139740000Y-53380000D03*
X137200000Y-53380000D03*
X134660000Y-53380000D03*
X132120000Y-53380000D03*
X129580000Y-53380000D03*
X127040000Y-53380000D03*
X124500000Y-53380000D03*
D14*
X121960000Y-53380000D03*
D15*
X124500000Y-193040000D03*
D16*
X121960000Y-193040000D03*
D10*
X61000000Y-50800000D03*
X61000000Y-48300000D03*
X91480000Y-66040000D03*
X91480000Y-63540000D03*
D15*
X104180000Y-193040000D03*
D16*
X101640000Y-193040000D03*
D15*
X109260000Y-195580000D03*
D16*
X106720000Y-195580000D03*
D11*
X113070000Y-76200000D03*
X115610000Y-76200000D03*
X118150000Y-76200000D03*
X120690000Y-76200000D03*
D14*
X123230000Y-76200000D03*
D11*
X80010000Y-175895000D03*
D10*
X80010000Y-183515000D03*
D11*
X48300000Y-172720000D03*
X50840000Y-172720000D03*
X53380000Y-172720000D03*
X55920000Y-172720000D03*
X58460000Y-172720000D03*
X61000000Y-172720000D03*
X63540000Y-172720000D03*
X63540000Y-180340000D03*
X61000000Y-180340000D03*
X58460000Y-180340000D03*
X55920000Y-180340000D03*
X53380000Y-180340000D03*
X50840000Y-180340000D03*
D14*
X48300000Y-180340000D03*
D10*
X147360000Y-50800000D03*
X147360000Y-48300000D03*
D11*
X94020000Y-139700000D03*
X96560000Y-139700000D03*
X99100000Y-139700000D03*
X101640000Y-139700000D03*
X104180000Y-139700000D03*
X106720000Y-139700000D03*
X109260000Y-139700000D03*
X109260000Y-147320000D03*
X106720000Y-147320000D03*
X104180000Y-147320000D03*
X101640000Y-147320000D03*
X99100000Y-147320000D03*
X96560000Y-147320000D03*
D14*
X94020000Y-147320000D03*
D11*
X50840000Y-30480000D03*
X48300000Y-30480000D03*
X45760000Y-30480000D03*
X43220000Y-30480000D03*
X40680000Y-30480000D03*
X38140000Y-30480000D03*
X35600000Y-30480000D03*
X33060000Y-30480000D03*
D14*
X30520000Y-30480000D03*
D15*
X104180000Y-187960000D03*
D16*
X101640000Y-187960000D03*
D11*
X55920000Y-57160000D03*
X55920000Y-59700000D03*
X55920000Y-62240000D03*
X55920000Y-64780000D03*
X55920000Y-67320000D03*
X55920000Y-69860000D03*
X55920000Y-72400000D03*
X55920000Y-74940000D03*
X55920000Y-77480000D03*
X55920000Y-80020000D03*
X55920000Y-82560000D03*
X55920000Y-85100000D03*
X55920000Y-87640000D03*
X55920000Y-90180000D03*
X40680000Y-90180000D03*
X40680000Y-87640000D03*
X40680000Y-85100000D03*
X40680000Y-82560000D03*
X40680000Y-80020000D03*
X40680000Y-77480000D03*
X40680000Y-74940000D03*
X40680000Y-72400000D03*
X40680000Y-69860000D03*
X40680000Y-67320000D03*
X40680000Y-64780000D03*
X40680000Y-62240000D03*
X40680000Y-59700000D03*
D14*
X40680000Y-57160000D03*
D15*
X119420000Y-195580000D03*
D16*
X116880000Y-195580000D03*
D15*
X124500000Y-195580000D03*
D16*
X121960000Y-195580000D03*
D11*
X64135000Y-183515000D03*
D10*
X71755000Y-183515000D03*
X119420000Y-35520000D03*
X119420000Y-33020000D03*
D15*
X114340000Y-190500000D03*
D16*
X111800000Y-190500000D03*
D11*
X121960000Y-30480000D03*
X124500000Y-30480000D03*
X127040000Y-30480000D03*
X129580000Y-30480000D03*
X132120000Y-30480000D03*
X134660000Y-30480000D03*
X137200000Y-30480000D03*
X139740000Y-30480000D03*
X139740000Y-38100000D03*
X137200000Y-38100000D03*
X134660000Y-38100000D03*
X132120000Y-38100000D03*
X129580000Y-38100000D03*
X127040000Y-38100000D03*
X124500000Y-38100000D03*
D14*
X121960000Y-38100000D03*
D10*
X86400000Y-109220000D03*
X86400000Y-106720000D03*
D15*
X99100000Y-190500000D03*
D16*
X96560000Y-190500000D03*
D10*
X119420000Y-91520000D03*
X119420000Y-94020000D03*
X147360000Y-109180000D03*
X147360000Y-106680000D03*
D11*
X88940000Y-104140000D03*
X91480000Y-104140000D03*
X94020000Y-104140000D03*
X96560000Y-104140000D03*
X99100000Y-104140000D03*
X101640000Y-104140000D03*
X104180000Y-104140000D03*
X106720000Y-104140000D03*
X109260000Y-104140000D03*
X111800000Y-104140000D03*
X111800000Y-111760000D03*
X109260000Y-111760000D03*
X106720000Y-111760000D03*
X104180000Y-111760000D03*
X101640000Y-111760000D03*
X99100000Y-111760000D03*
X96560000Y-111760000D03*
X94020000Y-111760000D03*
X91480000Y-111760000D03*
D14*
X88940000Y-111760000D03*
D11*
X111800000Y-172720000D03*
X109260000Y-172720000D03*
X106720000Y-172720000D03*
X104180000Y-172720000D03*
X101640000Y-172720000D03*
X99100000Y-172720000D03*
X96560000Y-172720000D03*
X94020000Y-172720000D03*
D14*
X91480000Y-172720000D03*
D11*
X63540000Y-60960000D03*
D10*
X71160000Y-60960000D03*
D15*
X109260000Y-193040000D03*
D16*
X106720000Y-193040000D03*
D11*
X121960000Y-139700000D03*
X124500000Y-139700000D03*
X127040000Y-139700000D03*
X129580000Y-139700000D03*
X132120000Y-139700000D03*
X134660000Y-139700000D03*
X137200000Y-139700000D03*
X137200000Y-147320000D03*
X134660000Y-147320000D03*
X132120000Y-147320000D03*
X129580000Y-147320000D03*
X127040000Y-147320000D03*
X124500000Y-147320000D03*
D14*
X121960000Y-147320000D03*
D15*
X94020000Y-193040000D03*
D16*
X91480000Y-193040000D03*
D24*
X50860000Y-189160000D03*
X45760000Y-187960000D03*
D15*
X119420000Y-187960000D03*
D16*
X116880000Y-187960000D03*
D10*
X119420000Y-109180000D03*
X119420000Y-106680000D03*
D15*
X94020000Y-190500000D03*
D16*
X91480000Y-190500000D03*
D11*
X99100000Y-119420000D03*
X101640000Y-119420000D03*
X104180000Y-119420000D03*
X106720000Y-119420000D03*
D14*
X109260000Y-119420000D03*
D10*
X91480000Y-50800000D03*
X91480000Y-48300000D03*
D23*
X74280000Y-195580000D03*
X74280000Y-189080000D03*
X78780000Y-195580000D03*
X78780000Y-189080000D03*
D15*
X129580000Y-195580000D03*
D16*
X127040000Y-195580000D03*
D10*
X147360000Y-91440000D03*
X147360000Y-93940000D03*
D15*
X94020000Y-195580000D03*
D16*
X91480000Y-195580000D03*
D15*
X114340000Y-195580000D03*
D16*
X111800000Y-195580000D03*
D11*
X133390000Y-76200000D03*
X135930000Y-76200000D03*
X138470000Y-76200000D03*
X141010000Y-76200000D03*
D14*
X143550000Y-76200000D03*
D10*
X66334000Y-132802000D03*
X66334000Y-130302000D03*
X45760000Y-177800000D03*
X45760000Y-175300000D03*
D11*
X149900000Y-30510000D03*
X152440000Y-30510000D03*
X154980000Y-30510000D03*
X157520000Y-30510000D03*
X160060000Y-30510000D03*
X162600000Y-30510000D03*
X165140000Y-30510000D03*
X167680000Y-30510000D03*
X167680000Y-38130000D03*
X165140000Y-38130000D03*
X162600000Y-38130000D03*
X160060000Y-38130000D03*
X157520000Y-38130000D03*
X154980000Y-38130000D03*
X152440000Y-38130000D03*
D14*
X149900000Y-38130000D03*
D25*
X43220000Y-193040000D03*
D22*
X50840000Y-193040000D03*
D10*
X71990000Y-177800000D03*
D14*
X71990000Y-180300000D03*
D11*
X50400000Y-182880000D03*
D10*
X42780000Y-182880000D03*
X91490000Y-35520000D03*
X91490000Y-33020000D03*
D15*
X129580000Y-190500000D03*
D16*
X127040000Y-190500000D03*
D11*
X63540000Y-30480000D03*
X66080000Y-30480000D03*
X68620000Y-30480000D03*
X71160000Y-30480000D03*
X73700000Y-30480000D03*
X76240000Y-30480000D03*
X78780000Y-30480000D03*
X81320000Y-30480000D03*
X81320000Y-38100000D03*
X78780000Y-38100000D03*
X76240000Y-38100000D03*
X73700000Y-38100000D03*
X71160000Y-38100000D03*
X68620000Y-38100000D03*
X66080000Y-38100000D03*
D14*
X63540000Y-38100000D03*
D11*
X121960000Y-61000000D03*
X124500000Y-61000000D03*
X127040000Y-61000000D03*
X129580000Y-61000000D03*
X132120000Y-61000000D03*
X134660000Y-61000000D03*
X137200000Y-61000000D03*
X139740000Y-61000000D03*
X139740000Y-68620000D03*
X137200000Y-68620000D03*
X134660000Y-68620000D03*
X132120000Y-68620000D03*
X129580000Y-68620000D03*
X127040000Y-68620000D03*
X124500000Y-68620000D03*
D14*
X121960000Y-68620000D03*
D11*
X135490000Y-173990000D03*
D10*
X127870000Y-173990000D03*
D15*
X134660000Y-187960000D03*
D16*
X132120000Y-187960000D03*
D26*
X57480000Y-185420000D03*
X55480000Y-185420000D03*
M02*
