%TF.GenerationSoftware,KiCad,Pcbnew,8.0.6*%
%TF.CreationDate,2025-02-22T13:50:16+09:00*%
%TF.ProjectId,HC4_KiCad,4843345f-4b69-4436-9164-2e6b69636164,rev?*%
%TF.SameCoordinates,Original*%
%TF.FileFunction,Soldermask,Bot*%
%TF.FilePolarity,Negative*%
%FSLAX46Y46*%
G04 Gerber Fmt 4.6, Leading zero omitted, Abs format (unit mm)*
G04 Created by KiCad (PCBNEW 8.0.6) date 2025-02-22 13:50:16*
%MOMM*%
%LPD*%
G01*
G04 APERTURE LIST*
%ADD10R,1.800000X1.800000*%
%ADD11C,1.800000*%
%ADD12R,1.600000X1.600000*%
%ADD13O,1.600000X1.600000*%
%ADD14R,1.600000X1.400000*%
%ADD15O,1.600000X1.400000*%
%ADD16R,1.700000X1.700000*%
%ADD17C,1.600000*%
%ADD18O,1.700000X1.700000*%
%ADD19R,2.000000X4.600000*%
%ADD20O,2.000000X4.200000*%
%ADD21O,4.200000X2.000000*%
%ADD22R,1.500000X1.500000*%
%ADD23C,2.000000*%
%ADD24C,2.010000*%
%ADD25O,1.500000X1.500000*%
%ADD26C,1.200000*%
G04 APERTURE END LIST*
D10*
%TO.C,LD14*%
X180340000Y-78740000D03*
D11*
X180340000Y-81280000D03*
%TD*%
D12*
%TO.C,IC2*%
X220980000Y-119380000D03*
D13*
X218440000Y-119380000D03*
X215900000Y-119380000D03*
X213360000Y-119380000D03*
X210820000Y-119380000D03*
X208280000Y-119380000D03*
X205740000Y-119380000D03*
X203200000Y-119380000D03*
X200660000Y-119380000D03*
X198120000Y-119380000D03*
X195580000Y-119380000D03*
X193040000Y-119380000D03*
X190500000Y-119380000D03*
X187960000Y-119380000D03*
X187960000Y-134620000D03*
X190500000Y-134620000D03*
X193040000Y-134620000D03*
X195580000Y-134620000D03*
X198120000Y-134620000D03*
X200660000Y-134620000D03*
X203200000Y-134620000D03*
X205740000Y-134620000D03*
X208280000Y-134620000D03*
X210820000Y-134620000D03*
X213360000Y-134620000D03*
X215900000Y-134620000D03*
X218440000Y-134620000D03*
X220980000Y-134620000D03*
%TD*%
D14*
%TO.C,D38*%
X203200000Y-187960000D03*
D15*
X205740000Y-187960000D03*
%TD*%
D14*
%TO.C,D40*%
X203200000Y-193040000D03*
D15*
X205740000Y-193040000D03*
%TD*%
D14*
%TO.C,D36*%
X198120000Y-193040000D03*
D15*
X200660000Y-193040000D03*
%TD*%
D12*
%TO.C,IC23*%
X215900000Y-111760000D03*
D13*
X218440000Y-111760000D03*
X220980000Y-111760000D03*
X223520000Y-111760000D03*
X226060000Y-111760000D03*
X228600000Y-111760000D03*
X231140000Y-111760000D03*
X233680000Y-111760000D03*
X233680000Y-104140000D03*
X231140000Y-104140000D03*
X228600000Y-104140000D03*
X226060000Y-104140000D03*
X223520000Y-104140000D03*
X220980000Y-104140000D03*
X218440000Y-104140000D03*
X215900000Y-104140000D03*
%TD*%
D10*
%TO.C,LD11*%
X182880000Y-78740000D03*
D11*
X182880000Y-81280000D03*
%TD*%
D14*
%TO.C,D18*%
X177800000Y-187960000D03*
D15*
X180340000Y-187960000D03*
%TD*%
D14*
%TO.C,D20*%
X177800000Y-193040000D03*
D15*
X180340000Y-193040000D03*
%TD*%
D10*
%TO.C,LD2*%
X233680000Y-184155000D03*
D11*
X233680000Y-181615000D03*
%TD*%
D16*
%TO.C,J2*%
X96520000Y-133985000D03*
%TD*%
D14*
%TO.C,D27*%
X187960000Y-190500000D03*
D15*
X190500000Y-190500000D03*
%TD*%
D17*
%TO.C,CP7*%
X185420000Y-48300000D03*
X185420000Y-50800000D03*
%TD*%
D10*
%TO.C,LD9*%
X175260000Y-78740000D03*
D11*
X175260000Y-81280000D03*
%TD*%
D17*
%TO.C,CP8*%
X185420000Y-63500000D03*
X185420000Y-66000000D03*
%TD*%
D10*
%TO.C,LD6*%
X167640000Y-121920000D03*
D11*
X167640000Y-124460000D03*
%TD*%
D12*
%TO.C,IC5*%
X160020000Y-53380000D03*
D13*
X162560000Y-53380000D03*
X165100000Y-53380000D03*
X167640000Y-53380000D03*
X170180000Y-53380000D03*
X172720000Y-53380000D03*
X175260000Y-53380000D03*
X177800000Y-53380000D03*
X177800000Y-45760000D03*
X175260000Y-45760000D03*
X172720000Y-45760000D03*
X170180000Y-45760000D03*
X167640000Y-45760000D03*
X165100000Y-45760000D03*
X162560000Y-45760000D03*
X160020000Y-45760000D03*
%TD*%
D12*
%TO.C,C1*%
X121920000Y-190540000D03*
D17*
X121920000Y-193040000D03*
%TD*%
D14*
%TO.C,D8*%
X162560000Y-193040000D03*
D15*
X165100000Y-193040000D03*
%TD*%
D14*
%TO.C,D2*%
X157480000Y-187960000D03*
D15*
X160020000Y-187960000D03*
%TD*%
D16*
%TO.C,JP1*%
X123190000Y-104140000D03*
D18*
X123190000Y-101600000D03*
X123190000Y-99060000D03*
%TD*%
D19*
%TO.C,J1*%
X106680000Y-190780000D03*
D20*
X100380000Y-190780000D03*
D21*
X103780000Y-195580000D03*
%TD*%
D12*
%TO.C,IC21*%
X215900000Y-147320000D03*
D13*
X218440000Y-147320000D03*
X220980000Y-147320000D03*
X223520000Y-147320000D03*
X226060000Y-147320000D03*
X228600000Y-147320000D03*
X231140000Y-147320000D03*
X233680000Y-147320000D03*
X233680000Y-139700000D03*
X231140000Y-139700000D03*
X228600000Y-139700000D03*
X226060000Y-139700000D03*
X223520000Y-139700000D03*
X220980000Y-139700000D03*
X218440000Y-139700000D03*
X215900000Y-139700000D03*
%TD*%
D12*
%TO.C,IC18*%
X218440000Y-170180000D03*
D13*
X220980000Y-170180000D03*
X223520000Y-170180000D03*
X226060000Y-170180000D03*
X228600000Y-170180000D03*
X231140000Y-170180000D03*
X233680000Y-170180000D03*
X233680000Y-162560000D03*
X231140000Y-162560000D03*
X228600000Y-162560000D03*
X226060000Y-162560000D03*
X223520000Y-162560000D03*
X220980000Y-162560000D03*
X218440000Y-162560000D03*
%TD*%
D14*
%TO.C,D32*%
X193040000Y-193040000D03*
D15*
X195580000Y-193040000D03*
%TD*%
D12*
%TO.C,RN7*%
X233680000Y-76200000D03*
D13*
X231140000Y-76200000D03*
X228600000Y-76200000D03*
X226060000Y-76200000D03*
X223520000Y-76200000D03*
X220980000Y-76200000D03*
X218440000Y-76200000D03*
X215900000Y-76200000D03*
X213360000Y-76200000D03*
%TD*%
D14*
%TO.C,D41*%
X203200000Y-195580000D03*
D15*
X205740000Y-195580000D03*
%TD*%
D10*
%TO.C,LD17*%
X177800000Y-78740000D03*
D11*
X177800000Y-81280000D03*
%TD*%
D10*
%TO.C,LD23*%
X106680000Y-33020000D03*
D11*
X106680000Y-35560000D03*
%TD*%
D22*
%TO.C,SW5*%
X144780000Y-168910000D03*
D17*
X147320000Y-168910000D03*
X142240000Y-168910000D03*
%TD*%
D14*
%TO.C,D9*%
X162560000Y-195580000D03*
D15*
X165100000Y-195580000D03*
%TD*%
D10*
%TO.C,LD28*%
X231140000Y-78740000D03*
D11*
X231140000Y-81280000D03*
%TD*%
D12*
%TO.C,C2*%
X124460000Y-137160000D03*
D17*
X124460000Y-134660000D03*
%TD*%
D16*
%TO.C,J3*%
X101600000Y-96520000D03*
D18*
X99060000Y-96520000D03*
X101600000Y-93980000D03*
X99060000Y-93980000D03*
X101600000Y-91440000D03*
X99060000Y-91440000D03*
X101600000Y-88900000D03*
X99060000Y-88900000D03*
X101600000Y-86360000D03*
X99060000Y-86360000D03*
X101600000Y-83820000D03*
X99060000Y-83820000D03*
X101600000Y-81280000D03*
X99060000Y-81280000D03*
X101600000Y-78740000D03*
X99060000Y-78740000D03*
X101600000Y-76200000D03*
X99060000Y-76200000D03*
X101600000Y-73660000D03*
X99060000Y-73660000D03*
X101600000Y-71120000D03*
X99060000Y-71120000D03*
X101600000Y-68580000D03*
X99060000Y-68580000D03*
X101600000Y-66040000D03*
X99060000Y-66040000D03*
X101600000Y-63500000D03*
X99060000Y-63500000D03*
X101600000Y-60960000D03*
X99060000Y-60960000D03*
X101600000Y-58420000D03*
X99060000Y-58420000D03*
X101600000Y-55880000D03*
X99060000Y-55880000D03*
X101600000Y-53340000D03*
X99060000Y-53340000D03*
X101600000Y-50800000D03*
X99060000Y-50800000D03*
X101600000Y-48260000D03*
X99060000Y-48260000D03*
%TD*%
D17*
%TO.C,CP11*%
X213360000Y-33060000D03*
X213360000Y-35560000D03*
%TD*%
D12*
%TO.C,RN4*%
X154940000Y-76200000D03*
D13*
X157480000Y-76200000D03*
X160020000Y-76200000D03*
X162560000Y-76200000D03*
X165100000Y-76200000D03*
X167640000Y-76200000D03*
X170180000Y-76200000D03*
X172720000Y-76200000D03*
X175260000Y-76200000D03*
%TD*%
D14*
%TO.C,D35*%
X198120000Y-190500000D03*
D15*
X200660000Y-190500000D03*
%TD*%
D22*
%TO.C,SW2*%
X134620000Y-63500000D03*
D17*
X137160000Y-63500000D03*
X132080000Y-63500000D03*
%TD*%
D10*
%TO.C,LD7*%
X165100000Y-121960000D03*
D11*
X165100000Y-124500000D03*
%TD*%
D10*
%TO.C,LD10*%
X165100000Y-78740000D03*
D11*
X165100000Y-81280000D03*
%TD*%
D12*
%TO.C,IC13*%
X205740000Y-88940000D03*
D13*
X203200000Y-88940000D03*
X200660000Y-88940000D03*
X198120000Y-88940000D03*
X195580000Y-88940000D03*
X193040000Y-88940000D03*
X190500000Y-88940000D03*
X187960000Y-88940000D03*
X187960000Y-96560000D03*
X190500000Y-96560000D03*
X193040000Y-96560000D03*
X195580000Y-96560000D03*
X198120000Y-96560000D03*
X200660000Y-96560000D03*
X203200000Y-96560000D03*
X205740000Y-96560000D03*
%TD*%
D17*
%TO.C,CP1*%
X111760000Y-53340000D03*
X109260000Y-53340000D03*
%TD*%
%TO.C,CP20*%
X157480000Y-142280000D03*
X157480000Y-144780000D03*
%TD*%
D12*
%TO.C,IC6*%
X160020000Y-68620000D03*
D13*
X162560000Y-68620000D03*
X165100000Y-68620000D03*
X167640000Y-68620000D03*
X170180000Y-68620000D03*
X172720000Y-68620000D03*
X175260000Y-68620000D03*
X177800000Y-68620000D03*
X177800000Y-61000000D03*
X175260000Y-61000000D03*
X172720000Y-61000000D03*
X170180000Y-61000000D03*
X167640000Y-61000000D03*
X165100000Y-61000000D03*
X162560000Y-61000000D03*
X160020000Y-61000000D03*
%TD*%
D10*
%TO.C,LD36*%
X210820000Y-78740000D03*
D11*
X210820000Y-81280000D03*
%TD*%
D12*
%TO.C,IC10*%
X134874000Y-135382000D03*
D13*
X137414000Y-135382000D03*
X139954000Y-135382000D03*
X142494000Y-135382000D03*
X145034000Y-135382000D03*
X147574000Y-135382000D03*
X150114000Y-135382000D03*
X150114000Y-127762000D03*
X147574000Y-127762000D03*
X145034000Y-127762000D03*
X142494000Y-127762000D03*
X139954000Y-127762000D03*
X137414000Y-127762000D03*
X134874000Y-127762000D03*
%TD*%
D17*
%TO.C,CP22*%
X218400000Y-177800000D03*
X215900000Y-177800000D03*
%TD*%
D23*
%TO.C,SW3*%
X134620000Y-189080000D03*
X134620000Y-195580000D03*
X130120000Y-189080000D03*
X130120000Y-195580000D03*
%TD*%
D10*
%TO.C,LD3*%
X236220000Y-184150000D03*
D11*
X236220000Y-181610000D03*
%TD*%
D17*
%TO.C,CP17*%
X127000000Y-33020000D03*
X127000000Y-35520000D03*
%TD*%
D14*
%TO.C,D39*%
X203200000Y-190500000D03*
D15*
X205740000Y-190500000D03*
%TD*%
D14*
%TO.C,D37*%
X198120000Y-195580000D03*
D15*
X200660000Y-195580000D03*
%TD*%
D10*
%TO.C,LD30*%
X226060000Y-78740000D03*
D11*
X226060000Y-81280000D03*
%TD*%
D17*
%TO.C,CP19*%
X185420000Y-142280000D03*
X185420000Y-144780000D03*
%TD*%
D14*
%TO.C,D24*%
X182880000Y-193040000D03*
D15*
X185420000Y-193040000D03*
%TD*%
D10*
%TO.C,LD27*%
X116840000Y-33060000D03*
D11*
X116840000Y-35600000D03*
%TD*%
D10*
%TO.C,LD31*%
X223520000Y-78740000D03*
D11*
X223520000Y-81280000D03*
%TD*%
D10*
%TO.C,LD26*%
X114300000Y-33020000D03*
D11*
X114300000Y-35560000D03*
%TD*%
D17*
%TO.C,R3*%
X236220000Y-187960000D03*
D13*
X236220000Y-195580000D03*
%TD*%
D10*
%TO.C,LD20*%
X99060000Y-33065000D03*
D11*
X99060000Y-35605000D03*
%TD*%
D14*
%TO.C,D13*%
X167640000Y-195580000D03*
D15*
X170180000Y-195580000D03*
%TD*%
D17*
%TO.C,R12*%
X147320000Y-166370000D03*
D13*
X147320000Y-158750000D03*
%TD*%
D10*
%TO.C,LD1*%
X152400000Y-189230000D03*
D11*
X152400000Y-186690000D03*
%TD*%
D17*
%TO.C,R1*%
X154940000Y-195580000D03*
D13*
X147320000Y-195580000D03*
%TD*%
D12*
%TO.C,RN1*%
X123190000Y-109220000D03*
D13*
X123190000Y-111760000D03*
X123190000Y-114300000D03*
X123190000Y-116840000D03*
X123190000Y-119380000D03*
%TD*%
D17*
%TO.C,R5*%
X193610000Y-170460000D03*
D13*
X201230000Y-170460000D03*
%TD*%
D14*
%TO.C,D15*%
X172720000Y-190500000D03*
D15*
X175260000Y-190500000D03*
%TD*%
D10*
%TO.C,LD24*%
X109220000Y-33020000D03*
D11*
X109220000Y-35560000D03*
%TD*%
D17*
%TO.C,CP2*%
X223520000Y-130195000D03*
X223520000Y-132695000D03*
%TD*%
D10*
%TO.C,LD12*%
X172720000Y-78740000D03*
D11*
X172720000Y-81280000D03*
%TD*%
D10*
%TO.C,LD37*%
X208280000Y-78740000D03*
D11*
X208280000Y-81280000D03*
%TD*%
D14*
%TO.C,D11*%
X167640000Y-190500000D03*
D15*
X170180000Y-190500000D03*
%TD*%
D14*
%TO.C,D6*%
X162560000Y-187960000D03*
D15*
X165100000Y-187960000D03*
%TD*%
D17*
%TO.C,CP21*%
X213360000Y-142240000D03*
X213360000Y-144740000D03*
%TD*%
D12*
%TO.C,IC16*%
X129540000Y-53340000D03*
D13*
X132080000Y-53340000D03*
X134620000Y-53340000D03*
X137160000Y-53340000D03*
X139700000Y-53340000D03*
X142240000Y-53340000D03*
X144780000Y-53340000D03*
X147320000Y-53340000D03*
X147320000Y-45720000D03*
X144780000Y-45720000D03*
X142240000Y-45720000D03*
X139700000Y-45720000D03*
X137160000Y-45720000D03*
X134620000Y-45720000D03*
X132080000Y-45720000D03*
X129540000Y-45720000D03*
%TD*%
D10*
%TO.C,LD38*%
X205740000Y-78740000D03*
D11*
X205740000Y-81280000D03*
%TD*%
D14*
%TO.C,D23*%
X182880000Y-190500000D03*
D15*
X185420000Y-190500000D03*
%TD*%
D12*
%TO.C,IC4*%
X160020000Y-38140000D03*
D13*
X162560000Y-38140000D03*
X165100000Y-38140000D03*
X167640000Y-38140000D03*
X170180000Y-38140000D03*
X172720000Y-38140000D03*
X175260000Y-38140000D03*
X177800000Y-38140000D03*
X177800000Y-30520000D03*
X175260000Y-30520000D03*
X172720000Y-30520000D03*
X170180000Y-30520000D03*
X167640000Y-30520000D03*
X165100000Y-30520000D03*
X162560000Y-30520000D03*
X160020000Y-30520000D03*
%TD*%
D12*
%TO.C,IC15*%
X205740000Y-104180000D03*
D13*
X203200000Y-104180000D03*
X200660000Y-104180000D03*
X198120000Y-104180000D03*
X195580000Y-104180000D03*
X193040000Y-104180000D03*
X190500000Y-104180000D03*
X187960000Y-104180000D03*
X187960000Y-111800000D03*
X190500000Y-111800000D03*
X193040000Y-111800000D03*
X195580000Y-111800000D03*
X198120000Y-111800000D03*
X200660000Y-111800000D03*
X203200000Y-111800000D03*
X205740000Y-111800000D03*
%TD*%
D14*
%TO.C,D30*%
X193040000Y-187960000D03*
D15*
X195580000Y-187960000D03*
%TD*%
D10*
%TO.C,LD29*%
X228600000Y-78740000D03*
D11*
X228600000Y-81280000D03*
%TD*%
D12*
%TO.C,IC22*%
X213360000Y-180340000D03*
D13*
X213360000Y-182880000D03*
X213360000Y-185420000D03*
X213360000Y-187960000D03*
X213360000Y-190500000D03*
X213360000Y-193040000D03*
X213360000Y-195580000D03*
X220980000Y-195580000D03*
X220980000Y-193040000D03*
X220980000Y-190500000D03*
X220980000Y-187960000D03*
X220980000Y-185420000D03*
X220980000Y-182880000D03*
X220980000Y-180340000D03*
%TD*%
D14*
%TO.C,D14*%
X172720000Y-187960000D03*
D15*
X175260000Y-187960000D03*
%TD*%
D17*
%TO.C,CP18*%
X215900000Y-165100000D03*
X215900000Y-167600000D03*
%TD*%
D22*
%TO.C,SW1*%
X99060000Y-128270000D03*
D17*
X101600000Y-128270000D03*
X96520000Y-128270000D03*
%TD*%
D12*
%TO.C,IC14*%
X233680000Y-88900000D03*
D13*
X231140000Y-88900000D03*
X228600000Y-88900000D03*
X226060000Y-88900000D03*
X223520000Y-88900000D03*
X220980000Y-88900000D03*
X218440000Y-88900000D03*
X215900000Y-88900000D03*
X215900000Y-96520000D03*
X218440000Y-96520000D03*
X220980000Y-96520000D03*
X223520000Y-96520000D03*
X226060000Y-96520000D03*
X228600000Y-96520000D03*
X231140000Y-96520000D03*
X233680000Y-96520000D03*
%TD*%
D17*
%TO.C,R2*%
X233680000Y-187960000D03*
D13*
X233680000Y-195580000D03*
%TD*%
D14*
%TO.C,D26*%
X187960000Y-187960000D03*
D15*
X190500000Y-187960000D03*
%TD*%
D10*
%TO.C,LD21*%
X101600000Y-33020000D03*
D11*
X101600000Y-35560000D03*
%TD*%
D17*
%TO.C,R10*%
X143510000Y-177800000D03*
D13*
X135890000Y-177800000D03*
%TD*%
D12*
%TO.C,IC12*%
X215900000Y-53380000D03*
D13*
X218440000Y-53380000D03*
X220980000Y-53380000D03*
X223520000Y-53380000D03*
X226060000Y-53380000D03*
X228600000Y-53380000D03*
X231140000Y-53380000D03*
X233680000Y-53380000D03*
X236220000Y-53380000D03*
X238760000Y-53380000D03*
X238760000Y-45760000D03*
X236220000Y-45760000D03*
X233680000Y-45760000D03*
X231140000Y-45760000D03*
X228600000Y-45760000D03*
X226060000Y-45760000D03*
X223520000Y-45760000D03*
X220980000Y-45760000D03*
X218440000Y-45760000D03*
X215900000Y-45760000D03*
%TD*%
D10*
%TO.C,LD13*%
X162560000Y-78740000D03*
D11*
X162560000Y-81280000D03*
%TD*%
D12*
%TO.C,IC7*%
X187960000Y-53380000D03*
D13*
X190500000Y-53380000D03*
X193040000Y-53380000D03*
X195580000Y-53380000D03*
X198120000Y-53380000D03*
X200660000Y-53380000D03*
X203200000Y-53380000D03*
X205740000Y-53380000D03*
X205740000Y-45760000D03*
X203200000Y-45760000D03*
X200660000Y-45760000D03*
X198120000Y-45760000D03*
X195580000Y-45760000D03*
X193040000Y-45760000D03*
X190500000Y-45760000D03*
X187960000Y-45760000D03*
%TD*%
D10*
%TO.C,LD32*%
X220980000Y-78740000D03*
D11*
X220980000Y-81280000D03*
%TD*%
D14*
%TO.C,D28*%
X187960000Y-193040000D03*
D15*
X190500000Y-193040000D03*
%TD*%
D17*
%TO.C,CP16*%
X127000000Y-48300000D03*
X127000000Y-50800000D03*
%TD*%
D10*
%TO.C,LD16*%
X160020000Y-78740000D03*
D11*
X160020000Y-81280000D03*
%TD*%
D17*
%TO.C,CP6*%
X185420000Y-33020000D03*
X185420000Y-35520000D03*
%TD*%
D14*
%TO.C,D12*%
X167640000Y-193040000D03*
D15*
X170180000Y-193040000D03*
%TD*%
D14*
%TO.C,D17*%
X172720000Y-195580000D03*
D15*
X175260000Y-195580000D03*
%TD*%
D12*
%TO.C,RN3*%
X189230000Y-76200000D03*
D13*
X186690000Y-76200000D03*
X184150000Y-76200000D03*
X181610000Y-76200000D03*
X179070000Y-76200000D03*
%TD*%
D17*
%TO.C,R8*%
X147900000Y-186540000D03*
D13*
X140280000Y-186540000D03*
%TD*%
D12*
%TO.C,IC24*%
X114300000Y-180340000D03*
D13*
X116840000Y-180340000D03*
X119380000Y-180340000D03*
X121920000Y-180340000D03*
X124460000Y-180340000D03*
X127000000Y-180340000D03*
X129540000Y-180340000D03*
X129540000Y-172720000D03*
X127000000Y-172720000D03*
X124460000Y-172720000D03*
X121920000Y-172720000D03*
X119380000Y-172720000D03*
X116840000Y-172720000D03*
X114300000Y-172720000D03*
%TD*%
D17*
%TO.C,CP12*%
X213360000Y-48300000D03*
X213360000Y-50800000D03*
%TD*%
D12*
%TO.C,IC20*%
X160020000Y-147320000D03*
D13*
X162560000Y-147320000D03*
X165100000Y-147320000D03*
X167640000Y-147320000D03*
X170180000Y-147320000D03*
X172720000Y-147320000D03*
X175260000Y-147320000D03*
X175260000Y-139700000D03*
X172720000Y-139700000D03*
X170180000Y-139700000D03*
X167640000Y-139700000D03*
X165100000Y-139700000D03*
X162560000Y-139700000D03*
X160020000Y-139700000D03*
%TD*%
D17*
%TO.C,R11*%
X101600000Y-143510000D03*
D13*
X101600000Y-151130000D03*
%TD*%
D10*
%TO.C,LD15*%
X170180000Y-78740000D03*
D11*
X170180000Y-81280000D03*
%TD*%
D10*
%TO.C,LD5*%
X170180000Y-121920000D03*
D11*
X170180000Y-124460000D03*
%TD*%
D12*
%TO.C,RN5*%
X96520000Y-30480000D03*
D13*
X99060000Y-30480000D03*
X101600000Y-30480000D03*
X104140000Y-30480000D03*
X106680000Y-30480000D03*
X109220000Y-30480000D03*
X111760000Y-30480000D03*
X114300000Y-30480000D03*
X116840000Y-30480000D03*
%TD*%
D14*
%TO.C,D10*%
X167640000Y-187960000D03*
D15*
X170180000Y-187960000D03*
%TD*%
D17*
%TO.C,R3*%
X193610000Y-166650000D03*
D13*
X201230000Y-166650000D03*
%TD*%
D12*
%TO.C,IC1*%
X106680000Y-57160000D03*
D13*
X106680000Y-59700000D03*
X106680000Y-62240000D03*
X106680000Y-64780000D03*
X106680000Y-67320000D03*
X106680000Y-69860000D03*
X106680000Y-72400000D03*
X106680000Y-74940000D03*
X106680000Y-77480000D03*
X106680000Y-80020000D03*
X106680000Y-82560000D03*
X106680000Y-85100000D03*
X106680000Y-87640000D03*
X106680000Y-90180000D03*
X121920000Y-90180000D03*
X121920000Y-87640000D03*
X121920000Y-85100000D03*
X121920000Y-82560000D03*
X121920000Y-80020000D03*
X121920000Y-77480000D03*
X121920000Y-74940000D03*
X121920000Y-72400000D03*
X121920000Y-69860000D03*
X121920000Y-67320000D03*
X121920000Y-64780000D03*
X121920000Y-62240000D03*
X121920000Y-59700000D03*
X121920000Y-57160000D03*
%TD*%
D14*
%TO.C,D25*%
X182880000Y-195580000D03*
D15*
X185420000Y-195580000D03*
%TD*%
D10*
%TO.C,LD18*%
X167640000Y-78740000D03*
D11*
X167640000Y-81280000D03*
%TD*%
D14*
%TO.C,D29*%
X187960000Y-195580000D03*
D15*
X190500000Y-195580000D03*
%TD*%
D17*
%TO.C,R7*%
X137740000Y-186540000D03*
D13*
X130120000Y-186540000D03*
%TD*%
D17*
%TO.C,CP3*%
X157480000Y-63540000D03*
X157480000Y-66040000D03*
%TD*%
D10*
%TO.C,LD4*%
X172720000Y-121920000D03*
D11*
X172720000Y-124460000D03*
%TD*%
D17*
%TO.C,R13*%
X123190000Y-128270000D03*
D13*
X115570000Y-128270000D03*
%TD*%
D14*
%TO.C,D19*%
X177800000Y-190500000D03*
D15*
X180340000Y-190500000D03*
%TD*%
D12*
%TO.C,IC3*%
X187960000Y-38100000D03*
D13*
X190500000Y-38100000D03*
X193040000Y-38100000D03*
X195580000Y-38100000D03*
X198120000Y-38100000D03*
X200660000Y-38100000D03*
X203200000Y-38100000D03*
X205740000Y-38100000D03*
X205740000Y-30480000D03*
X203200000Y-30480000D03*
X200660000Y-30480000D03*
X198120000Y-30480000D03*
X195580000Y-30480000D03*
X193040000Y-30480000D03*
X190500000Y-30480000D03*
X187960000Y-30480000D03*
%TD*%
D17*
%TO.C,CP9*%
X152400000Y-106720000D03*
X152400000Y-109220000D03*
%TD*%
D14*
%TO.C,D7*%
X162560000Y-190500000D03*
D15*
X165100000Y-190500000D03*
%TD*%
D10*
%TO.C,LD8*%
X185420000Y-78740000D03*
D11*
X185420000Y-81280000D03*
%TD*%
D17*
%TO.C,CP13*%
X185420000Y-94020000D03*
X185420000Y-91520000D03*
%TD*%
%TO.C,CP23*%
X213360000Y-106680000D03*
X213360000Y-109180000D03*
%TD*%
D12*
%TO.C,IC9*%
X154940000Y-111760000D03*
D13*
X157480000Y-111760000D03*
X160020000Y-111760000D03*
X162560000Y-111760000D03*
X165100000Y-111760000D03*
X167640000Y-111760000D03*
X170180000Y-111760000D03*
X172720000Y-111760000D03*
X175260000Y-111760000D03*
X177800000Y-111760000D03*
X177800000Y-104140000D03*
X175260000Y-104140000D03*
X172720000Y-104140000D03*
X170180000Y-104140000D03*
X167640000Y-104140000D03*
X165100000Y-104140000D03*
X162560000Y-104140000D03*
X160020000Y-104140000D03*
X157480000Y-104140000D03*
X154940000Y-104140000D03*
%TD*%
D12*
%TO.C,RN6*%
X157480000Y-172720000D03*
D13*
X160020000Y-172720000D03*
X162560000Y-172720000D03*
X165100000Y-172720000D03*
X167640000Y-172720000D03*
X170180000Y-172720000D03*
X172720000Y-172720000D03*
X175260000Y-172720000D03*
X177800000Y-172720000D03*
%TD*%
D17*
%TO.C,R9*%
X177800000Y-162560000D03*
D13*
X185420000Y-162560000D03*
%TD*%
D17*
%TO.C,R4*%
X137160000Y-60960000D03*
D13*
X129540000Y-60960000D03*
%TD*%
D14*
%TO.C,D16*%
X172720000Y-193040000D03*
D15*
X175260000Y-193040000D03*
%TD*%
D12*
%TO.C,IC19*%
X187960000Y-147320000D03*
D13*
X190500000Y-147320000D03*
X193040000Y-147320000D03*
X195580000Y-147320000D03*
X198120000Y-147320000D03*
X200660000Y-147320000D03*
X203200000Y-147320000D03*
X203200000Y-139700000D03*
X200660000Y-139700000D03*
X198120000Y-139700000D03*
X195580000Y-139700000D03*
X193040000Y-139700000D03*
X190500000Y-139700000D03*
X187960000Y-139700000D03*
%TD*%
D14*
%TO.C,D4*%
X157480000Y-193040000D03*
D15*
X160020000Y-193040000D03*
%TD*%
D10*
%TO.C,LD25*%
X111760000Y-33020000D03*
D11*
X111760000Y-35560000D03*
%TD*%
D24*
%TO.C,F1*%
X111760000Y-187960000D03*
X116860000Y-189160000D03*
%TD*%
D14*
%TO.C,D22*%
X182880000Y-187960000D03*
D15*
X185420000Y-187960000D03*
%TD*%
D17*
%TO.C,CP15*%
X185420000Y-106680000D03*
X185420000Y-109180000D03*
%TD*%
D14*
%TO.C,D3*%
X157480000Y-190500000D03*
D15*
X160020000Y-190500000D03*
%TD*%
D12*
%TO.C,RN2*%
X175260000Y-119420000D03*
D13*
X172720000Y-119420000D03*
X170180000Y-119420000D03*
X167640000Y-119420000D03*
X165100000Y-119420000D03*
%TD*%
D17*
%TO.C,CP5*%
X157490000Y-33020000D03*
X157490000Y-35520000D03*
%TD*%
D23*
%TO.C,SW4*%
X144780000Y-189080000D03*
X144780000Y-195580000D03*
X140280000Y-189080000D03*
X140280000Y-195580000D03*
%TD*%
D14*
%TO.C,D33*%
X193040000Y-195580000D03*
D15*
X195580000Y-195580000D03*
%TD*%
D17*
%TO.C,CP14*%
X213360000Y-93940000D03*
X213360000Y-91440000D03*
%TD*%
D14*
%TO.C,D5*%
X157480000Y-195580000D03*
D15*
X160020000Y-195580000D03*
%TD*%
D14*
%TO.C,D21*%
X177800000Y-195580000D03*
D15*
X180340000Y-195580000D03*
%TD*%
D10*
%TO.C,LD35*%
X213360000Y-78740000D03*
D11*
X213360000Y-81280000D03*
%TD*%
D10*
%TO.C,LD19*%
X157480000Y-78740000D03*
D11*
X157480000Y-81280000D03*
%TD*%
D10*
%TO.C,LD34*%
X215900000Y-78740000D03*
D11*
X215900000Y-81280000D03*
%TD*%
D10*
%TO.C,LD22*%
X104140000Y-33020000D03*
D11*
X104140000Y-35560000D03*
%TD*%
D12*
%TO.C,RN8*%
X209550000Y-76200000D03*
D13*
X207010000Y-76200000D03*
X204470000Y-76200000D03*
X201930000Y-76200000D03*
X199390000Y-76200000D03*
%TD*%
D17*
%TO.C,CP10*%
X132334000Y-130302000D03*
X132334000Y-132802000D03*
%TD*%
%TO.C,CP24*%
X111760000Y-175300000D03*
X111760000Y-177800000D03*
%TD*%
D10*
%TO.C,LD39*%
X203200000Y-78740000D03*
D11*
X203200000Y-81280000D03*
%TD*%
D12*
%TO.C,IC11*%
X215900000Y-38130000D03*
D13*
X218440000Y-38130000D03*
X220980000Y-38130000D03*
X223520000Y-38130000D03*
X226060000Y-38130000D03*
X228600000Y-38130000D03*
X231140000Y-38130000D03*
X233680000Y-38130000D03*
X233680000Y-30510000D03*
X231140000Y-30510000D03*
X228600000Y-30510000D03*
X226060000Y-30510000D03*
X223520000Y-30510000D03*
X220980000Y-30510000D03*
X218440000Y-30510000D03*
X215900000Y-30510000D03*
%TD*%
D22*
%TO.C,D1*%
X116840000Y-193040000D03*
D25*
X109220000Y-193040000D03*
%TD*%
D12*
%TO.C,C3*%
X114300000Y-137160000D03*
D17*
X114300000Y-134660000D03*
%TD*%
%TO.C,CP4*%
X157480000Y-48300000D03*
X157480000Y-50800000D03*
%TD*%
D14*
%TO.C,D31*%
X193040000Y-190500000D03*
D15*
X195580000Y-190500000D03*
%TD*%
D12*
%TO.C,IC17*%
X129540000Y-38100000D03*
D13*
X132080000Y-38100000D03*
X134620000Y-38100000D03*
X137160000Y-38100000D03*
X139700000Y-38100000D03*
X142240000Y-38100000D03*
X144780000Y-38100000D03*
X147320000Y-38100000D03*
X147320000Y-30480000D03*
X144780000Y-30480000D03*
X142240000Y-30480000D03*
X139700000Y-30480000D03*
X137160000Y-30480000D03*
X134620000Y-30480000D03*
X132080000Y-30480000D03*
X129540000Y-30480000D03*
%TD*%
D12*
%TO.C,IC8*%
X187960000Y-68620000D03*
D13*
X190500000Y-68620000D03*
X193040000Y-68620000D03*
X195580000Y-68620000D03*
X198120000Y-68620000D03*
X200660000Y-68620000D03*
X203200000Y-68620000D03*
X205740000Y-68620000D03*
X205740000Y-61000000D03*
X203200000Y-61000000D03*
X200660000Y-61000000D03*
X198120000Y-61000000D03*
X195580000Y-61000000D03*
X193040000Y-61000000D03*
X190500000Y-61000000D03*
X187960000Y-61000000D03*
%TD*%
D10*
%TO.C,LD33*%
X218440000Y-78740000D03*
D11*
X218440000Y-81280000D03*
%TD*%
D17*
%TO.C,R6*%
X193610000Y-174270000D03*
D13*
X201230000Y-174270000D03*
%TD*%
D14*
%TO.C,D34*%
X198120000Y-187960000D03*
D15*
X200660000Y-187960000D03*
%TD*%
D26*
%TO.C,C4*%
X134620000Y-142240000D03*
X136620000Y-142240000D03*
%TD*%
M02*
