M48
; DRILL file {KiCad 8.0.6} date 2025-02-22T13:51:51+0900
; FORMAT={-:-/ absolute / inch / decimal}
; #@! TF.CreationDate,2025-02-22T13:51:51+09:00
; #@! TF.GenerationSoftware,Kicad,Pcbnew,8.0.6
; #@! TF.FileFunction,Plated,1,2,PTH
FMAT,2
INCH
; #@! TA.AperFunction,Plated,PTH,ViaDrill
T1C0.0118
; #@! TA.AperFunction,Plated,PTH,ComponentDrill
T2C0.0236
; #@! TA.AperFunction,Plated,PTH,ComponentDrill
T3C0.0295
; #@! TA.AperFunction,Plated,PTH,ComponentDrill
T4C0.0315
; #@! TA.AperFunction,Plated,PTH,ComponentDrill
T5C0.0354
; #@! TA.AperFunction,Plated,PTH,ComponentDrill
T6C0.0394
; #@! TA.AperFunction,Plated,PTH,ComponentDrill
T7C0.0398
; #@! TA.AperFunction,Plated,PTH,ComponentDrill
T8C0.0433
%
G90
G05
T1
X3.675Y-1.9
X3.7Y-3.35
X3.7Y-3.7
X3.7Y-4.0
X3.7Y-7.0
X3.725Y-3.05
X3.725Y-3.3
X3.725Y-3.45
X3.725Y-3.55
X3.75Y-1.625
X3.75Y-2.65
X3.75Y-3.1
X3.775Y-1.7
X3.775Y-2.85
X3.775Y-3.2
X3.8Y-1.65
X3.8Y-2.95
X3.8Y-3.25
X3.85Y-4.475
X3.85Y-6.6
X3.9Y-1.725
X3.9Y-3.9
X3.9Y-5.3
X3.95Y-2.45
X4.0Y-1.75
X4.0Y-4.3
X4.075Y-3.15
X4.075Y-3.3
X4.1Y-1.625
X4.1Y-1.825
X4.1Y-1.95
X4.1Y-2.75
X4.1Y-3.1
X4.1Y-3.25
X4.1Y-3.7
X4.1Y-3.775
X4.1Y-5.65
X4.1Y-7.1
X4.1236Y-3.0
X4.125Y-2.55
X4.2Y-1.825
X4.2Y-4.0
X4.2Y-4.475
X4.2Y-6.575
X4.25Y-1.7486
X4.2504Y-2.5
X4.3Y-1.6
X4.3Y-1.7
X4.3Y-3.55
X4.4Y-1.575
X4.4Y-1.65
X4.4Y-2.25
X4.4Y-2.35
X4.4Y-2.45
X4.4Y-2.95
X4.45Y-1.075
X4.45Y-1.725
X4.45Y-2.3
X4.45Y-2.4
X4.45Y-2.85
X4.45Y-3.8
X4.45Y-5.925
X4.5Y-3.05
X4.5Y-6.9
X4.525Y-4.3
X4.5315Y-3.05
X4.55Y-5.475
X4.55Y-5.95
X4.575Y-1.125
X4.6Y-3.15
X4.6Y-6.575
X4.65Y-3.15
X4.65Y-4.4
X4.675Y-1.025
X4.675Y-4.35
X4.7Y-3.45
X4.7Y-4.85
X4.7Y-5.05
X4.775Y-0.975
X4.775Y-1.3
X4.775Y-1.9
X4.8Y-3.65
X4.8Y-5.4
X4.8Y-6.5
X4.8Y-6.925
X4.825Y-1.05
X4.825Y-2.125
X4.9Y-2.0
X4.9Y-6.35
X4.9Y-6.5
X4.9Y-6.65
X4.9Y-7.2
X4.9435Y-2.35
X4.95Y-3.9
X4.95Y-5.975
X4.975Y-2.35
X4.975Y-2.5
X4.975Y-2.75
X4.9764Y-4.0
X5.0Y-2.125
X5.0Y-4.5
X5.05Y-6.45
X5.075Y-3.45
X5.075Y-4.7
X5.1Y-1.9016
X5.1Y-3.35
X5.1Y-4.6
X5.1Y-6.0
X5.1Y-6.6
X5.125Y-3.25
X5.125Y-4.475
X5.177Y-7.2271
X5.2Y-1.7
X5.2Y-2.0
X5.25Y-2.4
X5.2988Y-5.1654
X5.3Y-1.05
X5.3Y-1.65
X5.3Y-2.0
X5.3Y-2.25
X5.3Y-2.6
X5.3Y-7.2
X5.35Y-1.7
X5.35Y-4.525
X5.4Y-1.1
X5.4Y-1.6
X5.4Y-2.0488
X5.4Y-2.275
X5.4Y-7.5
X5.45Y-6.025
X5.5Y-1.075
X5.5Y-1.625
X5.5Y-2.0
X5.5Y-3.775
X5.525Y-6.725
X5.55Y-4.575
X5.6Y-1.025
X5.6Y-1.625
X5.6Y-2.225
X5.6Y-7.1
X5.6Y-7.2354
X5.625Y-3.75
X5.625Y-6.25
X5.625Y-6.575
X5.65Y-2.25
X5.65Y-3.65
X5.675Y-4.675
X5.6864Y-5.6
X5.7Y-0.975
X5.7Y-1.575
X5.7Y-1.7
X5.7Y-2.325
X5.7Y-2.375
X5.7Y-4.025
X5.7Y-4.85
X5.7Y-6.925
X5.7Y-7.1
X5.725Y-3.45
X5.725Y-6.5
X5.75Y-2.275
X5.75Y-5.193
X5.775Y-3.675
X5.8Y-1.125
X5.8Y-1.95
X5.8Y-2.0
X5.8Y-2.8
X5.8Y-4.75
X5.825Y-2.9
X5.85Y-5.1654
X5.875Y-2.85
X5.875Y-4.8
X5.8938Y-4.9814
X5.9Y-3.4
X5.9Y-6.7
X5.9Y-7.1
X5.9185Y-1.625
X5.925Y-1.05
X5.925Y-2.875
X5.925Y-4.95
X5.95Y-1.625
X5.95Y-2.225
X5.9671Y-2.8224
X5.9736Y-1.7
X6.0Y-1.0
X6.0Y-1.65
X6.0Y-5.2284
X6.0Y-5.7
X6.0Y-6.8
X6.0012Y-2.0
X6.05Y-1.1
X6.05Y-1.725
X6.05Y-4.8
X6.05Y-6.075
X6.1Y-1.9016
X6.1Y-3.6
X6.1Y-4.2016
X6.1Y-4.2646
X6.1Y-5.13
X6.1Y-5.6
X6.125Y-4.95
X6.15Y-6.125
X6.175Y-4.625
X6.175Y-5.075
X6.2Y-4.3
X6.2Y-4.35
X6.2Y-4.55
X6.2Y-6.975
X6.25Y-4.625
X6.25Y-4.75
X6.25Y-5.95
X6.275Y-4.675
X6.275Y-5.3
X6.3Y-1.9016
X6.3Y-2.0
X6.3Y-4.475
X6.3Y-6.625
X6.3Y-7.05
X6.325Y-2.325
X6.35Y-5.0
X6.35Y-7.45
X6.4Y-1.6
X6.4Y-1.7
X6.4Y-2.325
X6.4Y-2.6354
X6.4Y-2.825
X6.4Y-3.425
X6.4Y-3.775
X6.4Y-4.5
X6.4Y-4.625
X6.4Y-5.05
X6.4Y-6.25
X6.4Y-6.925
X6.4Y-6.9685
X6.4Y-7.0
X6.4Y-7.225
X6.45Y-4.475
X6.5Y-1.05
X6.5Y-1.725
X6.5Y-1.95
X6.5Y-2.275
X6.5Y-2.85
X6.5Y-3.4
X6.5Y-5.35
X6.5Y-5.925
X6.5Y-7.0
X6.55Y-5.375
X6.55Y-5.95
X6.55Y-7.35
X6.575Y-1.95
X6.575Y-2.225
X6.575Y-4.625
X6.6Y-1.9016
X6.6Y-2.875
X6.6Y-3.425
X6.6Y-3.75
X6.6Y-4.575
X6.6Y-5.3
X6.6Y-5.65
X6.6Y-5.95
X6.6Y-6.45
X6.625Y-4.65
X6.7Y-2.0
X6.7Y-2.6
X6.7Y-2.9
X6.7Y-7.025
X6.75Y-1.4
X6.8Y-1.9016
X6.8Y-3.5677
X6.8Y-4.525
X6.8Y-5.975
X6.8Y-6.725
X6.8Y-6.975
X6.8Y-7.025
X6.825Y-4.575
X6.9Y-1.65
X6.9Y-2.0
X6.9Y-2.25
X6.9Y-2.6
X6.9Y-2.825
X6.9Y-6.5
X6.9Y-6.9
X6.95Y-4.575
X7.0Y-1.95
X7.0Y-2.0
X7.0Y-2.3
X7.0Y-2.6
X7.0Y-3.675
X7.0Y-3.925
X7.0Y-4.3
X7.0Y-6.6
X7.0Y-6.975
X7.025Y-4.0
X7.05Y-5.8
X7.05Y-6.0
X7.1Y-1.2
X7.1Y-1.7
X7.1Y-3.95
X7.1Y-4.925
X7.125Y-1.95
X7.125Y-2.2
X7.125Y-2.275
X7.125Y-2.825
X7.1646Y-3.9
X7.175Y-1.725
X7.175Y-1.95
X7.2Y-6.9
X7.25Y-4.525
X7.25Y-5.3
X7.25Y-7.2
X7.3Y-4.7
X7.35Y-6.825
X7.4Y-3.6
X7.4Y-4.3
X7.4Y-5.2284
X7.4Y-5.6016
X7.4Y-6.225
X7.4Y-6.8
X7.45Y-2.55
X7.45Y-2.8
X7.5Y-1.0764
X7.5Y-1.7
X7.5Y-2.2
X7.5Y-3.7
X7.5Y-4.2
X7.5Y-4.625
X7.5Y-4.875
X7.5Y-5.4
X7.5Y-5.55
X7.5Y-5.7339
X7.5Y-5.975
X7.55Y-1.025
X7.55Y-2.175
X7.55Y-2.875
X7.55Y-3.925
X7.55Y-5.425
X7.55Y-7.325
X7.575Y-2.925
X7.575Y-3.425
X7.6Y-1.0
X7.6Y-1.625
X7.6Y-1.6565
X7.6Y-2.25
X7.6Y-2.8
X7.6Y-3.325
X7.6Y-3.975
X7.6Y-4.5
X7.6Y-5.193
X7.6Y-7.05
X7.625Y-2.9
X7.625Y-4.625
X7.65Y-3.5661
X7.65Y-4.0
X7.65Y-4.95
X7.65Y-7.25
X7.675Y-2.825
X7.675Y-3.2
X7.7Y-1.6
X7.7Y-2.175
X7.7Y-2.225
X7.7Y-2.5646
X7.7Y-2.85
X7.7Y-3.3
X7.7Y-3.95
X7.7Y-4.55
X7.7Y-5.425
X7.7Y-5.6016
X7.725Y-3.925
X7.725Y-4.525
X7.75Y-3.15
X7.75Y-3.7354
X7.75Y-5.193
X7.75Y-7.3
X7.8Y-1.4
X7.8Y-1.575
X7.8Y-1.675
X7.8Y-2.275
X7.8Y-2.5
X7.8Y-2.5409
X7.8Y-3.15
X7.8Y-3.375
X7.8Y-3.8935
X7.8Y-3.925
X7.8Y-4.625
X7.8Y-5.075
X7.8Y-5.375
X7.8Y-5.6016
X7.8Y-7.05
X7.8315Y-4.625
X7.85Y-2.5
X7.85Y-2.9
X7.85Y-3.225
X7.85Y-3.9
X7.85Y-5.075
X7.9Y-2.3
X7.9Y-2.475
X7.9Y-2.85
X7.9Y-3.35
X7.9Y-4.0
X7.9Y-4.525
X7.9Y-5.0
X7.9Y-5.375
X7.9Y-5.925
X7.9Y-7.1
X7.925Y-6.625
X7.93Y-1.705
X7.9315Y-4.525
X7.95Y-2.825
X7.95Y-4.1661
X7.95Y-4.8
X7.975Y-5.075
X8.0Y-1.675
X8.0Y-2.275
X8.0Y-2.525
X8.0Y-2.925
X8.0Y-3.35
X8.0Y-4.625
X8.0Y-5.175
X8.0Y-5.6984
X8.0Y-6.875
X8.025Y-6.7
X8.025Y-7.05
X8.05Y-1.05
X8.05Y-2.875
X8.05Y-4.1661
X8.05Y-5.075
X8.1Y-2.6
X8.1Y-3.375
X8.1Y-3.425
X8.1Y-3.7
X8.1Y-4.2016
X8.1Y-4.525
X8.1Y-4.975
X8.15Y-2.85
X8.15Y-4.55
X8.15Y-4.85
X8.175Y-1.65
X8.175Y-2.4
X8.175Y-5.6984
X8.175Y-6.6
X8.2Y-1.2
X8.2Y-1.7
X8.2Y-3.3
X8.2Y-3.375
X8.2Y-3.975
X8.2Y-4.025
X8.2Y-5.05
X8.2Y-5.0815
X8.2Y-7.4
X8.2Y-7.6
X8.225Y-1.6
X8.225Y-2.575
X8.225Y-6.275
X8.225Y-7.025
X8.25Y-1.675
X8.25Y-2.225
X8.25Y-3.3921
X8.25Y-3.925
X8.25Y-7.2
X8.25Y-7.55
X8.275Y-1.625
X8.275Y-2.5
X8.299Y-1.7325
X8.3Y-1.7
X8.3Y-2.525
X8.3Y-2.7
X8.3Y-2.9
X8.3Y-3.325
X8.3Y-3.9
X8.3Y-4.55
X8.3Y-4.65
X8.3Y-4.925
X8.3Y-5.6016
X8.3Y-6.5
X8.3Y-6.775
X8.3Y-7.225
X8.3Y-7.5
X8.325Y-2.125
X8.325Y-3.3
X8.325Y-4.0
X8.35Y-2.375
X8.35Y-3.3449
X8.35Y-3.95
X8.35Y-4.15
X8.35Y-5.925
X8.4Y-3.325
X8.4Y-4.6
X8.4Y-4.95
X8.425Y-2.45
X8.425Y-2.65
X8.4488Y-5.5
X8.45Y-2.25
X8.45Y-4.35
X8.5Y-1.3646
X8.5Y-2.65
X8.5Y-3.275
X8.5Y-3.6016
X8.5Y-4.2016
X8.5Y-4.575
X8.5Y-5.6016
X8.5Y-5.9
X8.5Y-6.8974
X8.5Y-7.7
X8.525Y-3.325
X8.55Y-2.4
X8.55Y-3.625
X8.55Y-3.925
X8.55Y-5.975
X8.55Y-6.925
X8.55Y-7.3
X8.55Y-7.45
X8.575Y-7.6
X8.6Y-1.075
X8.6Y-1.925
X8.6Y-2.45
X8.6Y-3.325
X8.6Y-3.7
X8.6Y-4.0
X8.6Y-4.55
X8.6Y-6.025
X8.6Y-7.4
X8.6Y-7.45
X8.65Y-2.275
X8.65Y-2.45
X8.65Y-4.8
X8.7Y-0.975
X8.7Y-1.6
X8.7Y-1.925
X8.7Y-2.275
X8.7Y-2.35
X8.7Y-2.8
X8.7Y-4.025
X8.7Y-4.15
X8.7Y-4.3
X8.7Y-5.13
X8.7Y-6.275
X8.7Y-6.5
X8.75Y-2.8
X8.75Y-4.65
X8.75Y-5.4
X8.775Y-3.3
X8.8Y-1.725
X8.8Y-1.875
X8.8Y-2.175
X8.8Y-2.825
X8.8Y-3.325
X8.8Y-4.2016
X8.8Y-4.7
X8.8Y-5.2754
X8.8Y-5.375
X8.85Y-2.45
X8.85Y-4.25
X8.85Y-7.7
X8.9Y-1.625
X8.9Y-1.675
X8.9Y-1.875
X8.9Y-2.3
X8.9Y-2.4
X8.9Y-3.3921
X8.9Y-4.3
X8.9Y-5.35
X8.9Y-6.075
X8.9Y-7.15
X8.925Y-3.275
X8.925Y-4.55
X8.925Y-5.275
X8.95Y-1.925
X8.95Y-2.475
X8.95Y-2.825
X8.95Y-4.6
X8.95Y-6.5
X8.95Y-7.45
X9.0Y-1.0
X9.0Y-1.65
X9.0Y-2.25
X9.0Y-3.3449
X9.0Y-3.625
X9.0Y-3.9
X9.0Y-4.35
X9.0Y-5.65
X9.0Y-6.225
X9.025Y-3.925
X9.05Y-1.9
X9.05Y-1.95
X9.05Y-2.275
X9.05Y-4.5
X9.05Y-6.9
X9.05Y-7.7
X9.1Y-1.4
X9.1Y-1.925
X9.1Y-2.45
X9.1Y-3.3685
X9.1Y-3.4
X9.1Y-4.85
X9.1Y-6.5
X9.1Y-6.85
X9.15Y-1.025
X9.15Y-7.55
X9.2Y-1.9
X9.2Y-2.8
X9.2Y-3.425
X9.2Y-4.3
X9.2Y-6.125
X9.2Y-7.05
X9.225Y-1.95
X9.25Y-1.7
X9.25Y-2.35
X9.25Y-4.875
X9.3Y-1.95
X9.3Y-2.375
X9.3Y-4.0
X9.3Y-5.9
X9.3Y-7.05
X9.325Y-2.85
X9.325Y-5.35
X9.35Y-1.375
X9.35Y-3.5
X9.35Y-5.55
X9.375Y-2.65
X9.375Y-6.85
X9.4Y-1.075
X9.425Y-3.4
X9.425Y-5.4
X9.474Y-1.05
X9.474Y-4.55
X9.474Y-7.15
T2
X5.3Y-5.6
X5.3787Y-5.6
T3
X4.3Y-7.6
X4.6Y-7.6
T4
X3.8Y-1.2
X3.8Y-5.05
X3.9Y-1.2
X3.9Y-5.05
X4.0Y-1.2
X4.0Y-5.05
X4.0Y-5.65
X4.0Y-5.95
X4.1Y-1.2
X4.2Y-1.2
X4.2Y-2.2504
X4.2Y-2.3504
X4.2Y-2.4504
X4.2Y-2.5504
X4.2Y-2.6504
X4.2Y-2.7504
X4.2Y-2.8504
X4.2Y-2.9504
X4.2Y-3.0504
X4.2Y-3.1504
X4.2Y-3.2504
X4.2Y-3.3504
X4.2Y-3.4504
X4.2Y-3.5504
X4.3Y-1.2
X4.3016Y-2.1
X4.4Y-1.2
X4.4Y-2.1
X4.4Y-6.9016
X4.4Y-7.0
X4.5Y-1.2
X4.5Y-5.3016
X4.5Y-5.4
X4.5Y-6.8
X4.5Y-7.1
X4.55Y-5.05
X4.6Y-1.2
X4.6Y-6.8
X4.6Y-7.1
X4.7Y-6.8
X4.7Y-7.1
X4.8Y-2.2504
X4.8Y-2.3504
X4.8Y-2.4504
X4.8Y-2.5504
X4.8Y-2.6504
X4.8Y-2.7504
X4.8Y-2.8504
X4.8Y-2.9504
X4.8Y-3.0504
X4.8Y-3.1504
X4.8Y-3.2504
X4.8Y-3.3504
X4.8Y-3.4504
X4.8Y-3.5504
X4.8Y-6.8
X4.8Y-7.1
X4.8Y-7.5016
X4.8Y-7.6
X4.85Y-4.3
X4.85Y-4.4
X4.85Y-4.5
X4.85Y-4.6
X4.85Y-4.7
X4.85Y-5.05
X4.9Y-5.3016
X4.9Y-5.4
X4.9Y-6.8
X4.9Y-7.1
X5.0Y-1.3
X5.0Y-1.3984
X5.0Y-1.9016
X5.0Y-2.0
X5.0Y-6.8
X5.0Y-7.1
X5.1Y-1.2
X5.1Y-1.5
X5.1Y-1.8
X5.1Y-2.1
X5.1Y-2.4
X5.1Y-6.8
X5.1Y-7.1
X5.1228Y-7.3441
X5.2Y-1.2
X5.2Y-1.5
X5.2Y-1.8
X5.2Y-2.1
X5.2Y-2.5
X5.21Y-5.13
X5.21Y-5.2284
X5.3Y-1.2
X5.3Y-1.5
X5.3Y-1.8
X5.3Y-2.1
X5.3Y-2.5
X5.31Y-5.03
X5.31Y-5.33
X5.35Y-7.0
X5.4Y-1.2
X5.4Y-1.5
X5.4Y-1.8
X5.4Y-2.1
X5.4Y-2.4
X5.4Y-2.5
X5.41Y-5.03
X5.41Y-5.33
X5.4228Y-7.3441
X5.5Y-1.2
X5.5Y-1.5
X5.5Y-1.8
X5.5Y-2.1
X5.51Y-5.03
X5.51Y-5.33
X5.5228Y-7.3441
X5.6Y-1.2
X5.6Y-1.5
X5.6Y-1.8
X5.6Y-2.1
X5.6Y-6.65
X5.61Y-5.03
X5.61Y-5.33
X5.65Y-7.0
X5.7Y-1.2
X5.7Y-1.5
X5.7Y-1.8
X5.7Y-2.1
X5.7Y-6.65
X5.71Y-5.03
X5.71Y-5.33
X5.8Y-1.2
X5.8Y-1.5
X5.8Y-1.8
X5.8Y-2.1
X5.8Y-6.25
X5.8Y-6.55
X5.8Y-6.65
X5.8Y-7.7
X5.81Y-5.03
X5.81Y-5.33
X5.8228Y-7.3441
X5.91Y-5.03
X5.91Y-5.33
X6.0Y-4.2016
X6.0Y-4.3
X6.1Y-3.0
X6.1Y-4.1
X6.1Y-4.4
X6.1Y-7.7
X6.2Y-1.9016
X6.2Y-2.0
X6.2Y-2.5016
X6.2Y-2.6
X6.2Y-3.0
X6.2Y-4.1
X6.2Y-4.4
X6.2Y-5.6016
X6.2Y-5.7
X6.2Y-6.8
X6.2Y-7.4
X6.2Y-7.5
X6.2Y-7.6
X6.2Y-7.7
X6.2004Y-1.3
X6.2004Y-1.3984
X6.3Y-1.2016
X6.3Y-1.5016
X6.3Y-1.8016
X6.3Y-2.1016
X6.3Y-2.4016
X6.3Y-2.7016
X6.3Y-3.0
X6.3Y-4.1
X6.3Y-4.4
X6.3Y-5.5
X6.3Y-5.8
X6.3Y-6.8
X6.3Y-7.4
X6.3Y-7.5
X6.3Y-7.6
X6.3Y-7.7
X6.4Y-1.2016
X6.4Y-1.5016
X6.4Y-1.8016
X6.4Y-2.1016
X6.4Y-2.4016
X6.4Y-2.7016
X6.4Y-3.0
X6.4Y-4.1
X6.4Y-4.4
X6.4Y-5.5
X6.4Y-5.8
X6.4Y-6.8
X6.4Y-7.4
X6.4Y-7.5
X6.4Y-7.6
X6.4Y-7.7
X6.5Y-1.2016
X6.5Y-1.5016
X6.5Y-1.8016
X6.5Y-2.1016
X6.5Y-2.4016
X6.5Y-2.7016
X6.5Y-3.0
X6.5Y-4.1
X6.5Y-4.4
X6.5Y-4.7016
X6.5Y-5.5
X6.5Y-5.8
X6.5Y-6.8
X6.5Y-7.4
X6.5Y-7.5
X6.5Y-7.6
X6.5Y-7.7
X6.6Y-1.2016
X6.6Y-1.5016
X6.6Y-1.8016
X6.6Y-2.1016
X6.6Y-2.4016
X6.6Y-2.7016
X6.6Y-3.0
X6.6Y-4.1
X6.6Y-4.4
X6.6Y-4.7016
X6.6Y-5.5
X6.6Y-5.8
X6.6Y-6.8
X6.6Y-7.4
X6.6Y-7.5
X6.6Y-7.6
X6.6Y-7.7
X6.7Y-1.2016
X6.7Y-1.5016
X6.7Y-1.8016
X6.7Y-2.1016
X6.7Y-2.4016
X6.7Y-2.7016
X6.7Y-3.0
X6.7Y-4.1
X6.7Y-4.4
X6.7Y-4.7016
X6.7Y-5.5
X6.7Y-5.8
X6.7Y-6.8
X6.7Y-7.4
X6.7Y-7.5
X6.7Y-7.6
X6.7Y-7.7
X6.8Y-1.2016
X6.8Y-1.5016
X6.8Y-1.8016
X6.8Y-2.1016
X6.8Y-2.4016
X6.8Y-2.7016
X6.8Y-3.0
X6.8Y-4.1
X6.8Y-4.4
X6.8Y-4.7016
X6.8Y-5.5
X6.8Y-5.8
X6.8Y-6.8
X6.8Y-7.4
X6.8Y-7.5
X6.8Y-7.6
X6.8Y-7.7
X6.9Y-1.2016
X6.9Y-1.5016
X6.9Y-1.8016
X6.9Y-2.1016
X6.9Y-2.4016
X6.9Y-2.7016
X6.9Y-3.0
X6.9Y-4.1
X6.9Y-4.4
X6.9Y-4.7016
X6.9Y-5.5
X6.9Y-5.8
X6.9Y-6.8
X6.9Y-7.4
X6.9Y-7.5
X6.9Y-7.6
X6.9Y-7.7
X7.0Y-1.2016
X7.0Y-1.5016
X7.0Y-1.8016
X7.0Y-2.1016
X7.0Y-2.4016
X7.0Y-2.7016
X7.0Y-4.1
X7.0Y-4.4
X7.0Y-6.4
X7.0Y-6.8
X7.0Y-7.4
X7.0Y-7.5
X7.0Y-7.6
X7.0Y-7.7
X7.05Y-3.0
X7.1Y-7.4
X7.1Y-7.5
X7.1Y-7.6
X7.1Y-7.7
X7.15Y-3.0
X7.2Y-7.4
X7.2Y-7.5
X7.2Y-7.6
X7.2Y-7.7
X7.25Y-3.0
X7.3Y-1.3
X7.3Y-1.3984
X7.3Y-1.9016
X7.3Y-2.0
X7.3Y-2.5
X7.3Y-2.5984
X7.3Y-3.6031
X7.3Y-3.7016
X7.3Y-4.2
X7.3Y-4.2984
X7.3Y-5.6016
X7.3Y-5.7
X7.3Y-6.4
X7.3Y-7.4
X7.3Y-7.5
X7.3Y-7.6
X7.3Y-7.7
X7.35Y-3.0
X7.4Y-1.2
X7.4Y-1.5
X7.4Y-1.8016
X7.4Y-2.1016
X7.4Y-2.4016
X7.4Y-2.7016
X7.4Y-3.5016
X7.4Y-3.8016
X7.4Y-4.1016
X7.4Y-4.4016
X7.4Y-4.7
X7.4Y-5.3
X7.4Y-5.5
X7.4Y-5.8
X7.4Y-7.4
X7.4Y-7.5
X7.4Y-7.6
X7.4Y-7.7
X7.45Y-3.0
X7.5Y-1.2
X7.5Y-1.5
X7.5Y-1.8016
X7.5Y-2.1016
X7.5Y-2.4016
X7.5Y-2.7016
X7.5Y-3.5016
X7.5Y-3.8016
X7.5Y-4.1016
X7.5Y-4.4016
X7.5Y-4.7
X7.5Y-5.3
X7.5Y-5.5
X7.5Y-5.8
X7.5Y-7.4
X7.5Y-7.5
X7.5Y-7.6
X7.5Y-7.7
X7.6Y-1.2
X7.6Y-1.5
X7.6Y-1.8016
X7.6Y-2.1016
X7.6Y-2.4016
X7.6Y-2.7016
X7.6Y-3.5016
X7.6Y-3.8016
X7.6Y-4.1016
X7.6Y-4.4016
X7.6Y-4.7
X7.6Y-5.3
X7.6Y-5.5
X7.6Y-5.8
X7.6Y-7.4
X7.6Y-7.5
X7.6Y-7.6
X7.6Y-7.7
X7.6224Y-6.561
X7.6224Y-6.711
X7.6224Y-6.861
X7.7Y-1.2
X7.7Y-1.5
X7.7Y-1.8016
X7.7Y-2.1016
X7.7Y-2.4016
X7.7Y-2.7016
X7.7Y-3.5016
X7.7Y-3.8016
X7.7Y-4.1016
X7.7Y-4.4016
X7.7Y-4.7
X7.7Y-5.3
X7.7Y-5.5
X7.7Y-5.8
X7.7Y-7.4
X7.7Y-7.5
X7.7Y-7.6
X7.7Y-7.7
X7.8Y-1.2
X7.8Y-1.5
X7.8Y-1.8016
X7.8Y-2.1016
X7.8Y-2.4016
X7.8Y-2.7016
X7.8Y-3.5016
X7.8Y-3.8016
X7.8Y-4.1016
X7.8Y-4.4016
X7.8Y-4.7
X7.8Y-5.3
X7.8Y-5.5
X7.8Y-5.8
X7.8Y-7.4
X7.8Y-7.5
X7.8Y-7.6
X7.8Y-7.7
X7.85Y-3.0
X7.9Y-1.2
X7.9Y-1.5
X7.9Y-1.8016
X7.9Y-2.1016
X7.9Y-2.4016
X7.9Y-2.7016
X7.9Y-3.5016
X7.9Y-3.8016
X7.9Y-4.1016
X7.9Y-4.4016
X7.9Y-4.7
X7.9Y-5.3
X7.9Y-5.5
X7.9Y-5.8
X7.9Y-7.4
X7.9Y-7.5
X7.9Y-7.6
X7.9Y-7.7
X7.9224Y-6.561
X7.9224Y-6.711
X7.9224Y-6.861
X7.95Y-3.0
X8.0Y-1.2
X8.0Y-1.5
X8.0Y-1.8016
X8.0Y-2.1016
X8.0Y-2.4016
X8.0Y-2.7016
X8.0Y-3.5016
X8.0Y-3.8016
X8.0Y-4.1016
X8.0Y-4.4016
X8.0Y-4.7
X8.0Y-5.3
X8.0Y-5.5
X8.0Y-5.8
X8.0Y-7.4
X8.0Y-7.5
X8.0Y-7.6
X8.0Y-7.7
X8.05Y-3.0
X8.1Y-1.2
X8.1Y-1.5
X8.1Y-1.8016
X8.1Y-2.1016
X8.1Y-2.4016
X8.1Y-2.7016
X8.1Y-3.5016
X8.1Y-3.8016
X8.1Y-4.1016
X8.1Y-4.4016
X8.1Y-4.7
X8.1Y-5.3
X8.1Y-7.4
X8.1Y-7.5
X8.1Y-7.6
X8.1Y-7.7
X8.15Y-3.0
X8.2Y-4.7
X8.2Y-5.3
X8.25Y-3.0
X8.3Y-4.7
X8.3Y-5.3
X8.4Y-1.3016
X8.4Y-1.4
X8.4Y-1.9016
X8.4Y-2.0
X8.4Y-3.0
X8.4Y-3.6
X8.4Y-3.6984
X8.4Y-4.2
X8.4Y-4.2984
X8.4Y-4.7
X8.4Y-5.3
X8.4Y-5.6
X8.4Y-5.6984
X8.4Y-7.1
X8.4Y-7.2
X8.4Y-7.3
X8.4Y-7.4
X8.4Y-7.5
X8.4Y-7.6
X8.4Y-7.7
X8.5Y-1.2012
X8.5Y-1.5012
X8.5Y-1.8016
X8.5Y-2.1016
X8.5Y-3.0
X8.5Y-3.5
X8.5Y-3.8
X8.5Y-4.1
X8.5Y-4.4
X8.5Y-4.7
X8.5Y-5.3
X8.5Y-5.5
X8.5Y-5.8
X8.5Y-6.5
X8.5Y-6.5984
X8.5Y-7.0
X8.5984Y-7.0
X8.6Y-1.2012
X8.6Y-1.5012
X8.6Y-1.8016
X8.6Y-2.1016
X8.6Y-3.0
X8.6Y-3.5
X8.6Y-3.8
X8.6Y-4.1
X8.6Y-4.4
X8.6Y-4.7
X8.6Y-5.3
X8.6Y-5.5
X8.6Y-5.8
X8.6Y-6.4
X8.6Y-6.7
X8.7Y-1.2012
X8.7Y-1.5012
X8.7Y-1.8016
X8.7Y-2.1016
X8.7Y-3.0
X8.7Y-3.5
X8.7Y-3.8
X8.7Y-4.1
X8.7Y-4.4
X8.7Y-4.7
X8.7Y-5.3
X8.7Y-5.5
X8.7Y-5.8
X8.7Y-6.4
X8.7Y-6.7
X8.7Y-7.1
X8.7Y-7.2
X8.7Y-7.3
X8.7Y-7.4
X8.7Y-7.5
X8.7Y-7.6
X8.7Y-7.7
X8.8Y-1.2012
X8.8Y-1.5012
X8.8Y-1.8016
X8.8Y-2.1016
X8.8Y-3.0
X8.8Y-3.5
X8.8Y-3.8
X8.8Y-4.1
X8.8Y-4.4
X8.8Y-5.1258
X8.8Y-5.2242
X8.8Y-5.5
X8.8Y-5.8
X8.8Y-6.4
X8.8Y-6.7
X8.9Y-1.2012
X8.9Y-1.5012
X8.9Y-1.8016
X8.9Y-2.1016
X8.9Y-3.0
X8.9Y-3.5
X8.9Y-3.8
X8.9Y-4.1
X8.9Y-4.4
X8.9Y-5.5
X8.9Y-5.8
X8.9Y-6.4
X8.9Y-6.7
X9.0Y-1.2012
X9.0Y-1.5012
X9.0Y-1.8016
X9.0Y-2.1016
X9.0Y-3.0
X9.0Y-3.5
X9.0Y-3.8
X9.0Y-4.1
X9.0Y-4.4
X9.0Y-5.5
X9.0Y-5.8
X9.0Y-6.4
X9.0Y-6.7
X9.1Y-1.2012
X9.1Y-1.5012
X9.1Y-1.8016
X9.1Y-2.1016
X9.1Y-3.0
X9.1Y-3.5
X9.1Y-3.8
X9.1Y-4.1
X9.1Y-4.4
X9.1Y-5.5
X9.1Y-5.8
X9.1Y-6.4
X9.1Y-6.7
X9.2Y-1.2012
X9.2Y-1.5012
X9.2Y-1.8016
X9.2Y-2.1016
X9.2Y-3.0
X9.2Y-3.5
X9.2Y-3.8
X9.2Y-4.1
X9.2Y-4.4
X9.2Y-5.5
X9.2Y-5.8
X9.2Y-6.4
X9.2Y-6.7
X9.2Y-7.4
X9.2Y-7.7
X9.3Y-1.8016
X9.3Y-2.1016
X9.3Y-7.4
X9.3Y-7.7
X9.4Y-1.8016
X9.4Y-2.1016
T5
X3.9Y-1.3018
X3.9Y-1.4018
X4.0Y-1.3
X4.0Y-1.4
X4.1Y-1.3
X4.1Y-1.4
X4.2Y-1.3
X4.2Y-1.4
X4.3Y-1.3
X4.3Y-1.4
X4.4Y-1.3
X4.4Y-1.4
X4.5Y-1.3
X4.5Y-1.4
X4.6Y-1.3016
X4.6Y-1.4016
X6.0Y-7.35
X6.0Y-7.45
X6.2Y-3.1
X6.2Y-3.2
X6.3Y-3.1
X6.3Y-3.2
X6.4Y-3.1
X6.4Y-3.2
X6.5Y-3.1
X6.5Y-3.2
X6.5Y-4.8016
X6.5Y-4.9016
X6.6Y-3.1
X6.6Y-3.2
X6.6Y-4.8
X6.6Y-4.9
X6.7Y-3.1
X6.7Y-3.2
X6.7Y-4.8
X6.7Y-4.9
X6.8Y-3.1
X6.8Y-3.2
X6.8Y-4.8
X6.8Y-4.9
X6.9Y-3.1
X6.9Y-3.2
X7.0Y-3.1
X7.0Y-3.2
X7.1Y-3.1
X7.1Y-3.2
X7.2Y-3.1
X7.2Y-3.2
X7.3Y-3.1
X7.3Y-3.2
X8.0Y-3.1
X8.0Y-3.2
X8.1Y-3.1
X8.1Y-3.2
X8.2Y-3.1
X8.2Y-3.2
X8.3Y-3.1
X8.3Y-3.2
X8.4Y-3.1
X8.4Y-3.2
X8.5Y-3.1
X8.5Y-3.2
X8.6Y-3.1
X8.6Y-3.2
X8.7Y-3.1
X8.7Y-3.2
X8.8Y-3.1
X8.8Y-3.2
X8.9Y-3.1
X8.9Y-3.2
X9.0Y-3.1
X9.0Y-3.2
X9.1Y-3.1
X9.1Y-3.2
X9.2Y-7.1502
X9.2Y-7.2502
X9.3Y-7.15
X9.3Y-7.25
T6
X3.8Y-5.275
X3.9Y-1.9
X3.9Y-2.0
X3.9Y-2.1
X3.9Y-2.2
X3.9Y-2.3
X3.9Y-2.4
X3.9Y-2.5
X3.9Y-2.6
X3.9Y-2.7
X3.9Y-2.8
X3.9Y-2.9
X3.9Y-3.0
X3.9Y-3.1
X3.9Y-3.2
X3.9Y-3.3
X3.9Y-3.4
X3.9Y-3.5
X3.9Y-3.6
X3.9Y-3.7
X3.9Y-3.8
X4.0Y-1.9
X4.0Y-2.0
X4.0Y-2.1
X4.0Y-2.2
X4.0Y-2.3
X4.0Y-2.4
X4.0Y-2.5
X4.0Y-2.6
X4.0Y-2.7
X4.0Y-2.8
X4.0Y-2.9
X4.0Y-3.0
X4.0Y-3.1
X4.0Y-3.2
X4.0Y-3.3
X4.0Y-3.4
X4.0Y-3.5
X4.0Y-3.6
X4.0Y-3.7
X4.0Y-3.8
X4.85Y-3.9
X4.85Y-4.0
X4.85Y-4.1
T7
X4.4Y-7.4
X4.6008Y-7.4472
T8
X5.1228Y-7.4441
X5.1228Y-7.7
X5.3Y-7.4441
X5.3Y-7.7
X5.5228Y-7.4441
X5.5228Y-7.7
X5.7Y-7.4441
X5.7Y-7.7
T6
G00X3.952Y-7.4677
M15
G01X3.952Y-7.5543
M16
G05
G00X4.1291Y-7.7
M15
G01X4.0425Y-7.7
M16
G05
G00X4.2Y-7.4598
M15
G01X4.2Y-7.5622
M16
G05
M30
