M48
; DRILL file {KiCad 8.0.6} date 2025-02-23T11:38:18+0900
; FORMAT={-:-/ absolute / inch / decimal}
; #@! TF.CreationDate,2025-02-23T11:38:18+09:00
; #@! TF.GenerationSoftware,Kicad,Pcbnew,8.0.6
; #@! TF.FileFunction,Plated,1,2,PTH
FMAT,2
INCH
; #@! TA.AperFunction,Plated,PTH,ViaDrill
T1C0.0118
; #@! TA.AperFunction,Plated,PTH,ComponentDrill
T2C0.0236
; #@! TA.AperFunction,Plated,PTH,ComponentDrill
T3C0.0295
; #@! TA.AperFunction,Plated,PTH,ComponentDrill
T4C0.0315
; #@! TA.AperFunction,Plated,PTH,ComponentDrill
T5C0.0354
; #@! TA.AperFunction,Plated,PTH,ComponentDrill
T6C0.0394
; #@! TA.AperFunction,Plated,PTH,ComponentDrill
T7C0.0398
; #@! TA.AperFunction,Plated,PTH,ComponentDrill
T8C0.0433
%
G90
G05
T1
X1.0766Y-1.9
X1.1016Y-3.35
X1.1016Y-3.7
X1.1016Y-5.3
X1.1016Y-5.7
X1.1016Y-7.0
X1.1266Y-3.05
X1.1266Y-3.3
X1.1266Y-3.45
X1.1266Y-3.55
X1.1343Y-4.25
X1.1516Y-1.625
X1.1516Y-2.65
X1.1516Y-3.1
X1.1766Y-1.7
X1.1766Y-2.85
X1.1766Y-3.2
X1.2016Y-1.65
X1.2016Y-2.95
X1.2016Y-3.25
X1.2516Y-4.475
X1.2516Y-6.6
X1.3Y-4.3
X1.3016Y-1.725
X1.3016Y-3.9
X1.3516Y-2.45
X1.4016Y-1.75
X1.4766Y-3.15
X1.4766Y-3.3
X1.5016Y-1.625
X1.5016Y-1.825
X1.5016Y-1.95
X1.5016Y-2.75
X1.5016Y-3.1
X1.5016Y-3.25
X1.5016Y-3.7
X1.5016Y-3.775
X1.5252Y-3.0
X1.5266Y-2.55
X1.5843Y-4.2449
X1.6016Y-1.825
X1.6016Y-4.475
X1.6016Y-6.4
X1.6516Y-1.7486
X1.652Y-2.5
X1.7016Y-1.6
X1.7016Y-1.7
X1.8016Y-1.575
X1.8016Y-1.65
X1.8016Y-2.25
X1.8016Y-2.35
X1.8016Y-2.45
X1.8016Y-2.95
X1.8516Y-1.075
X1.8516Y-1.725
X1.8516Y-2.3
X1.8516Y-2.4
X1.8516Y-2.85
X1.8516Y-3.8
X1.8516Y-5.925
X1.9016Y-3.05
X1.9016Y-6.9
X1.9266Y-4.3
X1.9331Y-3.05
X1.9766Y-1.125
X2.0016Y-3.15
X2.0016Y-6.4
X2.0516Y-3.15
X2.0516Y-4.4
X2.0766Y-1.025
X2.0766Y-4.35
X2.1016Y-3.45
X2.1016Y-4.85
X2.1766Y-0.975
X2.1766Y-1.3
X2.1766Y-1.9
X2.2016Y-3.65
X2.2016Y-6.925
X2.2266Y-1.05
X2.2266Y-2.125
X2.3016Y-2.0
X2.3516Y-3.9
X2.3516Y-5.975
X2.3766Y-2.35
X2.3766Y-2.5
X2.3766Y-2.75
X2.378Y-4.0
X2.4016Y-2.125
X2.4016Y-4.5
X2.4516Y-6.4
X2.4766Y-3.45
X2.4766Y-4.7
X2.5016Y-1.9016
X2.5016Y-3.35
X2.5016Y-4.6
X2.5016Y-6.0
X2.5016Y-6.6
X2.5266Y-3.25
X2.5266Y-4.475
X2.6016Y-1.7
X2.6016Y-2.0
X2.6516Y-2.4
X2.7004Y-5.1654
X2.7016Y-1.05
X2.7016Y-1.65
X2.7016Y-2.0
X2.7016Y-2.25
X2.7516Y-1.7
X2.7516Y-4.525
X2.8016Y-1.1
X2.8016Y-1.6
X2.8016Y-2.0488
X2.8016Y-2.275
X2.825Y-6.925
X2.8516Y-6.025
X2.9016Y-1.075
X2.9016Y-1.625
X2.9016Y-2.0
X2.9016Y-3.775
X2.9266Y-6.725
X2.9516Y-4.575
X3.0016Y-1.025
X3.0016Y-1.625
X3.0016Y-2.225
X3.0266Y-3.75
X3.0516Y-2.25
X3.0516Y-3.65
X3.0766Y-4.675
X3.1016Y-0.975
X3.1016Y-1.575
X3.1016Y-1.7
X3.1016Y-2.325
X3.1016Y-2.375
X3.1016Y-4.025
X3.1016Y-4.85
X3.1266Y-3.45
X3.1516Y-2.275
X3.1516Y-5.193
X3.175Y-6.5
X3.1766Y-3.675
X3.2016Y-1.125
X3.2016Y-1.95
X3.2016Y-2.0
X3.2016Y-2.8
X3.2016Y-4.75
X3.2266Y-2.9
X3.2516Y-5.1654
X3.2766Y-2.85
X3.2766Y-4.8
X3.2954Y-4.9814
X3.3016Y-3.4
X3.3201Y-1.625
X3.3266Y-1.05
X3.3266Y-2.875
X3.3266Y-4.95
X3.3516Y-1.625
X3.3516Y-2.225
X3.3687Y-2.8224
X3.3752Y-1.7
X3.4016Y-1.0
X3.4016Y-1.65
X3.4028Y-2.0
X3.4516Y-1.1
X3.4516Y-1.725
X3.4516Y-4.8
X3.4516Y-6.075
X3.5016Y-1.9016
X3.5016Y-3.6
X3.5016Y-4.2016
X3.5016Y-4.2646
X3.5266Y-4.95
X3.5516Y-6.125
X3.5766Y-4.625
X3.5766Y-5.075
X3.6016Y-4.3
X3.6016Y-4.35
X3.6016Y-4.55
X3.6016Y-6.975
X3.6516Y-4.625
X3.6516Y-4.75
X3.6516Y-5.95
X3.6766Y-4.675
X3.6766Y-5.3
X3.7016Y-1.9016
X3.7016Y-2.0
X3.7016Y-4.475
X3.7016Y-6.625
X3.7016Y-7.05
X3.7266Y-2.325
X3.7516Y-5.0
X3.7516Y-7.45
X3.8016Y-1.6
X3.8016Y-1.7
X3.8016Y-2.325
X3.8016Y-2.6354
X3.8016Y-2.825
X3.8016Y-3.425
X3.8016Y-3.775
X3.8016Y-4.5
X3.8016Y-4.625
X3.8016Y-5.05
X3.8016Y-6.25
X3.8016Y-6.925
X3.8016Y-6.9685
X3.8016Y-7.0
X3.8016Y-7.225
X3.8516Y-4.475
X3.9016Y-1.05
X3.9016Y-1.725
X3.9016Y-1.95
X3.9016Y-2.275
X3.9016Y-2.85
X3.9016Y-3.4
X3.9016Y-5.35
X3.9016Y-5.925
X3.9016Y-7.0
X3.9516Y-5.375
X3.9516Y-5.95
X3.9516Y-7.35
X3.9766Y-1.95
X3.9766Y-2.225
X3.9766Y-4.625
X4.0016Y-1.9016
X4.0016Y-2.875
X4.0016Y-3.425
X4.0016Y-3.75
X4.0016Y-4.575
X4.0016Y-5.3
X4.0016Y-5.65
X4.0016Y-5.95
X4.0016Y-6.4
X4.0266Y-4.65
X4.1016Y-2.0
X4.1016Y-2.6
X4.1016Y-2.9
X4.1016Y-7.025
X4.1516Y-1.4
X4.2016Y-1.9016
X4.2016Y-3.5677
X4.2016Y-4.525
X4.2016Y-5.975
X4.2016Y-6.725
X4.2016Y-6.975
X4.2016Y-7.025
X4.2266Y-4.575
X4.3016Y-1.65
X4.3016Y-2.0
X4.3016Y-2.25
X4.3016Y-2.6
X4.3016Y-2.825
X4.3016Y-6.5
X4.3016Y-6.9
X4.3516Y-4.575
X4.4016Y-1.95
X4.4016Y-2.0
X4.4016Y-2.3
X4.4016Y-2.6
X4.4016Y-3.675
X4.4016Y-3.925
X4.4016Y-4.3
X4.4016Y-6.975
X4.4266Y-4.0
X4.4516Y-5.8
X4.4516Y-6.0
X4.5016Y-1.2
X4.5016Y-1.7
X4.5016Y-3.95
X4.5016Y-4.925
X4.5266Y-1.95
X4.5266Y-2.2
X4.5266Y-2.275
X4.5266Y-2.825
X4.5661Y-3.9
X4.5766Y-1.725
X4.5766Y-1.95
X4.6016Y-6.9
X4.6516Y-4.525
X4.6516Y-5.3
X4.7016Y-4.7
X4.7673Y-6.825
X4.8016Y-3.6
X4.8016Y-4.3
X4.8016Y-5.2284
X4.8016Y-5.6016
X4.8016Y-6.225
X4.8016Y-6.8
X4.8516Y-2.55
X4.8516Y-2.8
X4.9016Y-1.0764
X4.9016Y-1.7
X4.9016Y-2.2
X4.9016Y-3.7
X4.9016Y-4.2
X4.9016Y-4.625
X4.9016Y-4.875
X4.9016Y-5.4
X4.9016Y-5.55
X4.9016Y-5.7339
X4.9016Y-5.975
X4.9516Y-1.025
X4.9516Y-2.175
X4.9516Y-2.875
X4.9516Y-3.925
X4.9516Y-5.425
X4.9516Y-7.325
X4.9766Y-2.925
X4.9766Y-3.425
X5.0016Y-1.0
X5.0016Y-1.625
X5.0016Y-1.6565
X5.0016Y-2.25
X5.0016Y-2.8
X5.0016Y-3.325
X5.0016Y-3.975
X5.0016Y-4.5
X5.0016Y-5.193
X5.0016Y-7.05
X5.0266Y-2.9
X5.0266Y-4.625
X5.0343Y-6.5
X5.0516Y-3.5661
X5.0516Y-4.0
X5.0516Y-4.95
X5.0516Y-7.25
X5.0766Y-2.825
X5.0766Y-3.2
X5.1016Y-1.6
X5.1016Y-2.175
X5.1016Y-2.225
X5.1016Y-2.5646
X5.1016Y-2.85
X5.1016Y-3.3
X5.1016Y-3.95
X5.1016Y-4.55
X5.1016Y-5.425
X5.1016Y-5.6016
X5.1266Y-3.925
X5.1266Y-4.525
X5.1516Y-3.15
X5.1516Y-3.7354
X5.1516Y-5.193
X5.1516Y-7.3
X5.2016Y-1.4
X5.2016Y-1.575
X5.2016Y-1.675
X5.2016Y-2.275
X5.2016Y-2.5
X5.2016Y-2.5409
X5.2016Y-3.15
X5.2016Y-3.375
X5.2016Y-3.8935
X5.2016Y-3.925
X5.2016Y-4.625
X5.2016Y-5.075
X5.2016Y-5.375
X5.2016Y-5.6016
X5.2016Y-7.05
X5.2331Y-4.625
X5.2516Y-2.5
X5.2516Y-2.9
X5.2516Y-3.225
X5.2516Y-3.9
X5.2516Y-5.075
X5.3016Y-2.3
X5.3016Y-2.475
X5.3016Y-2.85
X5.3016Y-3.35
X5.3016Y-4.0
X5.3016Y-4.525
X5.3016Y-5.0
X5.3016Y-5.375
X5.3016Y-5.925
X5.3016Y-7.1
X5.3316Y-1.705
X5.3331Y-4.525
X5.3516Y-2.825
X5.3516Y-4.1661
X5.3516Y-4.8
X5.3766Y-5.075
X5.4016Y-1.675
X5.4016Y-2.275
X5.4016Y-2.525
X5.4016Y-2.925
X5.4016Y-3.35
X5.4016Y-4.625
X5.4016Y-5.175
X5.4016Y-5.6984
X5.4016Y-6.875
X5.4266Y-7.05
X5.4516Y-1.05
X5.4516Y-2.875
X5.4516Y-4.1661
X5.4516Y-5.075
X5.5016Y-2.6
X5.5016Y-3.375
X5.5016Y-3.425
X5.5016Y-3.7
X5.5016Y-4.2016
X5.5016Y-4.525
X5.5016Y-4.975
X5.5516Y-2.85
X5.5516Y-4.55
X5.5516Y-4.85
X5.5766Y-1.65
X5.5766Y-2.4
X5.5766Y-5.6984
X5.5766Y-6.6
X5.6016Y-1.2
X5.6016Y-1.7
X5.6016Y-3.3
X5.6016Y-3.375
X5.6016Y-3.975
X5.6016Y-4.025
X5.6016Y-5.05
X5.6016Y-5.0815
X5.6016Y-7.4
X5.6016Y-7.6
X5.6266Y-1.6
X5.6266Y-2.575
X5.6266Y-6.275
X5.6266Y-7.025
X5.6516Y-1.675
X5.6516Y-2.225
X5.6516Y-3.3921
X5.6516Y-3.925
X5.6766Y-1.625
X5.6766Y-2.5
X5.7006Y-1.7325
X5.7016Y-1.7
X5.7016Y-2.525
X5.7016Y-2.7
X5.7016Y-2.9
X5.7016Y-3.325
X5.7016Y-3.9
X5.7016Y-4.55
X5.7016Y-4.65
X5.7016Y-4.925
X5.7016Y-5.6016
X5.7016Y-6.5
X5.7016Y-6.775
X5.7016Y-7.225
X5.7016Y-7.5
X5.7266Y-2.125
X5.7266Y-3.3
X5.7266Y-4.0
X5.7516Y-2.375
X5.7516Y-3.3449
X5.7516Y-3.95
X5.7516Y-4.15
X5.7516Y-5.925
X5.8016Y-3.325
X5.8016Y-4.6
X5.8016Y-4.95
X5.8266Y-2.45
X5.8266Y-2.65
X5.8504Y-5.5
X5.8516Y-2.25
X5.8516Y-4.35
X5.9016Y-1.3646
X5.9016Y-2.65
X5.9016Y-3.275
X5.9016Y-3.6016
X5.9016Y-4.2016
X5.9016Y-4.575
X5.9016Y-5.6016
X5.9016Y-5.9
X5.9016Y-6.8974
X5.9016Y-7.7
X5.9266Y-3.325
X5.9516Y-2.4
X5.9516Y-3.625
X5.9516Y-3.925
X5.9516Y-5.975
X5.9516Y-6.925
X5.9516Y-7.3
X5.9516Y-7.45
X5.9766Y-7.6
X6.0016Y-1.075
X6.0016Y-1.925
X6.0016Y-2.45
X6.0016Y-3.325
X6.0016Y-3.7
X6.0016Y-4.0
X6.0016Y-4.55
X6.0016Y-6.025
X6.0016Y-7.4
X6.0016Y-7.45
X6.0516Y-2.275
X6.0516Y-2.45
X6.0516Y-4.8
X6.1016Y-0.975
X6.1016Y-1.6
X6.1016Y-1.925
X6.1016Y-2.275
X6.1016Y-2.35
X6.1016Y-2.8
X6.1016Y-4.025
X6.1016Y-4.15
X6.1016Y-4.3
X6.1016Y-5.13
X6.1016Y-6.275
X6.1016Y-6.5
X6.1516Y-2.8
X6.1516Y-4.65
X6.1516Y-5.4
X6.1766Y-3.3
X6.2016Y-1.725
X6.2016Y-1.875
X6.2016Y-2.175
X6.2016Y-2.825
X6.2016Y-3.325
X6.2016Y-4.2016
X6.2016Y-5.2754
X6.2016Y-5.375
X6.2516Y-2.45
X6.2516Y-4.25
X6.2516Y-7.7
X6.3016Y-1.625
X6.3016Y-1.675
X6.3016Y-1.875
X6.3016Y-2.3
X6.3016Y-2.4
X6.3016Y-3.3921
X6.3016Y-4.3
X6.3016Y-5.35
X6.3016Y-6.075
X6.3016Y-7.15
X6.3266Y-3.275
X6.3266Y-4.55
X6.3266Y-5.275
X6.3516Y-1.925
X6.3516Y-2.475
X6.3516Y-2.825
X6.3516Y-4.6
X6.3516Y-6.5
X6.3516Y-7.45
X6.4016Y-1.0
X6.4016Y-1.65
X6.4016Y-2.25
X6.4016Y-3.3449
X6.4016Y-3.625
X6.4016Y-3.9
X6.4016Y-4.35
X6.4016Y-5.65
X6.4016Y-6.225
X6.4266Y-3.925
X6.4516Y-1.9
X6.4516Y-1.95
X6.4516Y-2.275
X6.4516Y-4.5
X6.4516Y-6.9
X6.4516Y-7.7
X6.5016Y-1.4
X6.5016Y-1.925
X6.5016Y-2.45
X6.5016Y-3.3685
X6.5016Y-3.4
X6.5016Y-4.85
X6.5016Y-6.5
X6.5016Y-6.85
X6.5516Y-1.025
X6.5516Y-7.55
X6.6016Y-1.9
X6.6016Y-2.8
X6.6016Y-3.425
X6.6016Y-4.3
X6.6016Y-6.125
X6.6016Y-7.05
X6.6266Y-1.95
X6.6516Y-1.7
X6.6516Y-2.35
X6.6516Y-4.875
X6.7016Y-1.95
X6.7016Y-2.375
X6.7016Y-4.0
X6.7016Y-5.9
X6.7016Y-7.05
X6.7266Y-2.85
X6.7266Y-5.35
X6.7516Y-1.375
X6.7516Y-3.5
X6.7516Y-5.55
X6.7766Y-2.65
X6.7766Y-6.85
X6.8016Y-1.075
X6.8266Y-3.4
X6.8266Y-5.4
X6.8756Y-1.05
X6.8756Y-4.55
X6.8756Y-7.15
T2
X2.1843Y-7.3
X2.263Y-7.3
T3
X1.7016Y-7.6
X2.0016Y-7.6
T4
X1.2Y-5.05
X1.2Y-5.5
X1.2Y-5.8
X1.2016Y-1.2
X1.3Y-5.05
X1.3016Y-1.2
X1.4Y-5.05
X1.4016Y-1.2
X1.5Y-5.5
X1.5Y-5.8
X1.5016Y-1.2
X1.6016Y-1.2
X1.6016Y-2.2504
X1.6016Y-2.3504
X1.6016Y-2.4504
X1.6016Y-2.5504
X1.6016Y-2.6504
X1.6016Y-2.7504
X1.6016Y-2.8504
X1.6016Y-2.9504
X1.6016Y-3.0504
X1.6016Y-3.1504
X1.6016Y-3.2504
X1.6016Y-3.3504
X1.6016Y-3.4504
X1.6016Y-3.5504
X1.6843Y-7.2
X1.7016Y-1.2
X1.7031Y-2.1
X1.8016Y-1.2
X1.8016Y-2.1
X1.8016Y-6.9016
X1.8016Y-7.0
X1.9016Y-1.2
X1.9016Y-6.8
X1.9016Y-7.1
X1.9843Y-7.2
X2.0016Y-1.2
X2.0016Y-6.8
X2.0016Y-7.1
X2.1016Y-6.8
X2.1016Y-7.1
X2.2016Y-2.2504
X2.2016Y-2.3504
X2.2016Y-2.4504
X2.2016Y-2.5504
X2.2016Y-2.6504
X2.2016Y-2.7504
X2.2016Y-2.8504
X2.2016Y-2.9504
X2.2016Y-3.0504
X2.2016Y-3.1504
X2.2016Y-3.2504
X2.2016Y-3.3504
X2.2016Y-3.4504
X2.2016Y-3.5504
X2.2016Y-6.8
X2.2016Y-7.1
X2.2016Y-7.5016
X2.2016Y-7.6
X2.25Y-5.5
X2.25Y-5.8
X2.2516Y-4.3
X2.2516Y-4.4
X2.2516Y-4.5
X2.2516Y-4.6
X2.2516Y-4.7
X2.3016Y-6.8
X2.3016Y-7.1
X2.4016Y-1.3
X2.4016Y-1.3984
X2.4016Y-1.9016
X2.4016Y-2.0
X2.4016Y-6.8
X2.4016Y-7.1
X2.5016Y-1.2
X2.5016Y-1.5
X2.5016Y-1.8
X2.5016Y-2.1
X2.5016Y-2.4
X2.5016Y-6.8
X2.5016Y-7.1
X2.525Y-7.225
X2.6016Y-1.2
X2.6016Y-1.5
X2.6016Y-1.8
X2.6016Y-2.1
X2.6116Y-5.13
X2.6116Y-5.2284
X2.6343Y-6.8
X2.6343Y-7.1
X2.7Y-2.5
X2.7016Y-1.2
X2.7016Y-1.5
X2.7016Y-1.8
X2.7016Y-2.1
X2.7116Y-5.03
X2.7116Y-5.33
X2.8Y-2.5
X2.8016Y-1.2
X2.8016Y-1.5
X2.8016Y-1.8
X2.8016Y-2.1
X2.8016Y-2.4
X2.8116Y-5.03
X2.8116Y-5.33
X2.825Y-7.225
X2.8343Y-6.7516
X2.8343Y-6.85
X2.8343Y-7.0
X2.8343Y-7.0984
X2.9Y-2.5
X2.9016Y-1.2
X2.9016Y-1.5
X2.9016Y-1.8
X2.9016Y-2.1
X2.9116Y-5.03
X2.9116Y-5.33
X3.0016Y-1.2
X3.0016Y-1.5
X3.0016Y-1.8
X3.0016Y-2.1
X3.0116Y-5.03
X3.0116Y-5.33
X3.025Y-6.65
X3.05Y-6.925
X3.05Y-7.225
X3.1016Y-1.2
X3.1016Y-1.5
X3.1016Y-1.8
X3.1016Y-2.1
X3.1116Y-5.03
X3.1116Y-5.33
X3.125Y-6.25
X3.125Y-6.55
X3.125Y-6.65
X3.15Y-6.925
X3.15Y-7.225
X3.2016Y-1.2
X3.2016Y-1.5
X3.2016Y-1.8
X3.2016Y-2.1
X3.2016Y-7.7
X3.2116Y-5.03
X3.2116Y-5.33
X3.225Y-6.65
X3.3116Y-5.03
X3.3116Y-5.33
X3.4016Y-4.2016
X3.4016Y-4.3
X3.5016Y-3.0
X3.5016Y-4.1
X3.5016Y-4.4
X3.5016Y-7.7
X3.6016Y-1.9016
X3.6016Y-2.0
X3.6016Y-2.5016
X3.6016Y-2.6
X3.6016Y-3.0
X3.6016Y-4.1
X3.6016Y-4.4
X3.6016Y-5.6016
X3.6016Y-5.7
X3.6016Y-6.8
X3.6016Y-7.4
X3.6016Y-7.5
X3.6016Y-7.6
X3.6016Y-7.7
X3.602Y-1.3
X3.602Y-1.3984
X3.7016Y-1.2016
X3.7016Y-1.5016
X3.7016Y-1.8016
X3.7016Y-2.1016
X3.7016Y-2.4016
X3.7016Y-2.7016
X3.7016Y-3.0
X3.7016Y-4.1
X3.7016Y-4.4
X3.7016Y-5.5
X3.7016Y-5.8
X3.7016Y-6.8
X3.7016Y-7.4
X3.7016Y-7.5
X3.7016Y-7.6
X3.7016Y-7.7
X3.8016Y-1.2016
X3.8016Y-1.5016
X3.8016Y-1.8016
X3.8016Y-2.1016
X3.8016Y-2.4016
X3.8016Y-2.7016
X3.8016Y-3.0
X3.8016Y-4.1
X3.8016Y-4.4
X3.8016Y-5.5
X3.8016Y-5.8
X3.8016Y-6.8
X3.8016Y-7.4
X3.8016Y-7.5
X3.8016Y-7.6
X3.8016Y-7.7
X3.9016Y-1.2016
X3.9016Y-1.5016
X3.9016Y-1.8016
X3.9016Y-2.1016
X3.9016Y-2.4016
X3.9016Y-2.7016
X3.9016Y-3.0
X3.9016Y-4.1
X3.9016Y-4.4
X3.9016Y-4.7016
X3.9016Y-5.5
X3.9016Y-5.8
X3.9016Y-6.8
X3.9016Y-7.4
X3.9016Y-7.5
X3.9016Y-7.6
X3.9016Y-7.7
X4.0016Y-1.2016
X4.0016Y-1.5016
X4.0016Y-1.8016
X4.0016Y-2.1016
X4.0016Y-2.4016
X4.0016Y-2.7016
X4.0016Y-3.0
X4.0016Y-4.1
X4.0016Y-4.4
X4.0016Y-4.7016
X4.0016Y-5.5
X4.0016Y-5.8
X4.0016Y-6.8
X4.0016Y-7.4
X4.0016Y-7.5
X4.0016Y-7.6
X4.0016Y-7.7
X4.1016Y-1.2016
X4.1016Y-1.5016
X4.1016Y-1.8016
X4.1016Y-2.1016
X4.1016Y-2.4016
X4.1016Y-2.7016
X4.1016Y-3.0
X4.1016Y-4.1
X4.1016Y-4.4
X4.1016Y-4.7016
X4.1016Y-5.5
X4.1016Y-5.8
X4.1016Y-6.8
X4.1016Y-7.4
X4.1016Y-7.5
X4.1016Y-7.6
X4.1016Y-7.7
X4.2016Y-1.2016
X4.2016Y-1.5016
X4.2016Y-1.8016
X4.2016Y-2.1016
X4.2016Y-2.4016
X4.2016Y-2.7016
X4.2016Y-3.0
X4.2016Y-4.1
X4.2016Y-4.4
X4.2016Y-4.7016
X4.2016Y-5.5
X4.2016Y-5.8
X4.2016Y-6.8
X4.2016Y-7.4
X4.2016Y-7.5
X4.2016Y-7.6
X4.2016Y-7.7
X4.3016Y-1.2016
X4.3016Y-1.5016
X4.3016Y-1.8016
X4.3016Y-2.1016
X4.3016Y-2.4016
X4.3016Y-2.7016
X4.3016Y-3.0
X4.3016Y-4.1
X4.3016Y-4.4
X4.3016Y-4.7016
X4.3016Y-5.5
X4.3016Y-5.8
X4.3016Y-6.8
X4.3016Y-7.4
X4.3016Y-7.5
X4.3016Y-7.6
X4.3016Y-7.7
X4.4016Y-1.2016
X4.4016Y-1.5016
X4.4016Y-1.8016
X4.4016Y-2.1016
X4.4016Y-2.4016
X4.4016Y-2.7016
X4.4016Y-4.1
X4.4016Y-4.4
X4.4016Y-6.8
X4.4016Y-7.4
X4.4016Y-7.5
X4.4016Y-7.6
X4.4016Y-7.7
X4.4516Y-3.0
X4.5016Y-7.4
X4.5016Y-7.5
X4.5016Y-7.6
X4.5016Y-7.7
X4.5516Y-3.0
X4.6016Y-7.4
X4.6016Y-7.5
X4.6016Y-7.6
X4.6016Y-7.7
X4.6516Y-3.0
X4.7016Y-1.3
X4.7016Y-1.3984
X4.7016Y-1.9016
X4.7016Y-2.0
X4.7016Y-2.5
X4.7016Y-2.5984
X4.7016Y-3.6031
X4.7016Y-3.7016
X4.7016Y-4.2
X4.7016Y-4.2984
X4.7016Y-5.6016
X4.7016Y-5.7
X4.7016Y-7.4
X4.7016Y-7.5
X4.7016Y-7.6
X4.7016Y-7.7
X4.7516Y-3.0
X4.8016Y-1.2
X4.8016Y-1.5
X4.8016Y-1.8016
X4.8016Y-2.1016
X4.8016Y-2.4016
X4.8016Y-2.7016
X4.8016Y-3.5016
X4.8016Y-3.8016
X4.8016Y-4.1016
X4.8016Y-4.4016
X4.8016Y-4.7
X4.8016Y-5.3
X4.8016Y-5.5
X4.8016Y-5.8
X4.8016Y-7.4
X4.8016Y-7.5
X4.8016Y-7.6
X4.8016Y-7.7
X4.8516Y-3.0
X4.9016Y-1.2
X4.9016Y-1.5
X4.9016Y-1.8016
X4.9016Y-2.1016
X4.9016Y-2.4016
X4.9016Y-2.7016
X4.9016Y-3.5016
X4.9016Y-3.8016
X4.9016Y-4.1016
X4.9016Y-4.4016
X4.9016Y-4.7
X4.9016Y-5.3
X4.9016Y-5.5
X4.9016Y-5.8
X4.9016Y-7.4
X4.9016Y-7.5
X4.9016Y-7.6
X4.9016Y-7.7
X5.0016Y-1.2
X5.0016Y-1.5
X5.0016Y-1.8016
X5.0016Y-2.1016
X5.0016Y-2.4016
X5.0016Y-2.7016
X5.0016Y-3.5016
X5.0016Y-3.8016
X5.0016Y-4.1016
X5.0016Y-4.4016
X5.0016Y-4.7
X5.0016Y-5.3
X5.0016Y-5.5
X5.0016Y-5.8
X5.0016Y-7.4
X5.0016Y-7.5
X5.0016Y-7.6
X5.0016Y-7.7
X5.0343Y-6.7
X5.0343Y-6.85
X5.1016Y-1.2
X5.1016Y-1.5
X5.1016Y-1.8016
X5.1016Y-2.1016
X5.1016Y-2.4016
X5.1016Y-2.7016
X5.1016Y-3.5016
X5.1016Y-3.8016
X5.1016Y-4.1016
X5.1016Y-4.4016
X5.1016Y-4.7
X5.1016Y-5.3
X5.1016Y-5.5
X5.1016Y-5.8
X5.1016Y-7.4
X5.1016Y-7.5
X5.1016Y-7.6
X5.1016Y-7.7
X5.2016Y-1.2
X5.2016Y-1.5
X5.2016Y-1.8016
X5.2016Y-2.1016
X5.2016Y-2.4016
X5.2016Y-2.7016
X5.2016Y-3.5016
X5.2016Y-3.8016
X5.2016Y-4.1016
X5.2016Y-4.4016
X5.2016Y-4.7
X5.2016Y-5.3
X5.2016Y-5.5
X5.2016Y-5.8
X5.2016Y-7.4
X5.2016Y-7.5
X5.2016Y-7.6
X5.2016Y-7.7
X5.2516Y-3.0
X5.3016Y-1.2
X5.3016Y-1.5
X5.3016Y-1.8016
X5.3016Y-2.1016
X5.3016Y-2.4016
X5.3016Y-2.7016
X5.3016Y-3.5016
X5.3016Y-3.8016
X5.3016Y-4.1016
X5.3016Y-4.4016
X5.3016Y-4.7
X5.3016Y-5.3
X5.3016Y-5.5
X5.3016Y-5.8
X5.3016Y-7.4
X5.3016Y-7.5
X5.3016Y-7.6
X5.3016Y-7.7
X5.3343Y-6.7
X5.3343Y-6.85
X5.3516Y-3.0
X5.4016Y-1.2
X5.4016Y-1.5
X5.4016Y-1.8016
X5.4016Y-2.1016
X5.4016Y-2.4016
X5.4016Y-2.7016
X5.4016Y-3.5016
X5.4016Y-3.8016
X5.4016Y-4.1016
X5.4016Y-4.4016
X5.4016Y-4.7
X5.4016Y-5.3
X5.4016Y-5.5
X5.4016Y-5.8
X5.4016Y-7.4
X5.4016Y-7.5
X5.4016Y-7.6
X5.4016Y-7.7
X5.4516Y-3.0
X5.5016Y-1.2
X5.5016Y-1.5
X5.5016Y-1.8016
X5.5016Y-2.1016
X5.5016Y-2.4016
X5.5016Y-2.7016
X5.5016Y-3.5016
X5.5016Y-3.8016
X5.5016Y-4.1016
X5.5016Y-4.4016
X5.5016Y-4.7
X5.5016Y-5.3
X5.5016Y-7.4
X5.5016Y-7.5
X5.5016Y-7.6
X5.5016Y-7.7
X5.5516Y-3.0
X5.6016Y-4.7
X5.6016Y-5.3
X5.6516Y-3.0
X5.7016Y-4.7
X5.7016Y-5.3
X5.8016Y-1.3016
X5.8016Y-1.4
X5.8016Y-1.9016
X5.8016Y-2.0
X5.8016Y-3.0
X5.8016Y-3.6
X5.8016Y-3.6984
X5.8016Y-4.2
X5.8016Y-4.2984
X5.8016Y-4.7
X5.8016Y-5.3
X5.8016Y-5.6
X5.8016Y-5.6984
X5.8016Y-7.1
X5.8016Y-7.2
X5.8016Y-7.3
X5.8016Y-7.4
X5.8016Y-7.5
X5.8016Y-7.6
X5.8016Y-7.7
X5.9016Y-1.2012
X5.9016Y-1.5012
X5.9016Y-1.8016
X5.9016Y-2.1016
X5.9016Y-3.0
X5.9016Y-3.5
X5.9016Y-3.8
X5.9016Y-4.1
X5.9016Y-4.4
X5.9016Y-4.7
X5.9016Y-5.3
X5.9016Y-5.5
X5.9016Y-5.8
X5.9016Y-6.5
X5.9016Y-6.5984
X5.9016Y-7.0
X6.0Y-7.0
X6.0016Y-1.2012
X6.0016Y-1.5012
X6.0016Y-1.8016
X6.0016Y-2.1016
X6.0016Y-3.0
X6.0016Y-3.5
X6.0016Y-3.8
X6.0016Y-4.1
X6.0016Y-4.4
X6.0016Y-4.7
X6.0016Y-5.3
X6.0016Y-5.5
X6.0016Y-5.8
X6.0016Y-6.4
X6.0016Y-6.7
X6.1016Y-1.2012
X6.1016Y-1.5012
X6.1016Y-1.8016
X6.1016Y-2.1016
X6.1016Y-3.0
X6.1016Y-3.5
X6.1016Y-3.8
X6.1016Y-4.1
X6.1016Y-4.4
X6.1016Y-4.7
X6.1016Y-5.3
X6.1016Y-5.5
X6.1016Y-5.8
X6.1016Y-6.4
X6.1016Y-6.7
X6.1016Y-7.1
X6.1016Y-7.2
X6.1016Y-7.3
X6.1016Y-7.4
X6.1016Y-7.5
X6.1016Y-7.6
X6.1016Y-7.7
X6.2016Y-1.2012
X6.2016Y-1.5012
X6.2016Y-1.8016
X6.2016Y-2.1016
X6.2016Y-3.0
X6.2016Y-3.5
X6.2016Y-3.8
X6.2016Y-4.1
X6.2016Y-4.4
X6.2016Y-5.1258
X6.2016Y-5.2242
X6.2016Y-5.5
X6.2016Y-5.8
X6.2016Y-6.4
X6.2016Y-6.7
X6.3016Y-1.2012
X6.3016Y-1.5012
X6.3016Y-1.8016
X6.3016Y-2.1016
X6.3016Y-3.0
X6.3016Y-3.5
X6.3016Y-3.8
X6.3016Y-4.1
X6.3016Y-4.4
X6.3016Y-5.5
X6.3016Y-5.8
X6.3016Y-6.4
X6.3016Y-6.7
X6.4016Y-1.2012
X6.4016Y-1.5012
X6.4016Y-1.8016
X6.4016Y-2.1016
X6.4016Y-3.0
X6.4016Y-3.5
X6.4016Y-3.8
X6.4016Y-4.1
X6.4016Y-4.4
X6.4016Y-5.5
X6.4016Y-5.8
X6.4016Y-6.4
X6.4016Y-6.7
X6.5016Y-1.2012
X6.5016Y-1.5012
X6.5016Y-1.8016
X6.5016Y-2.1016
X6.5016Y-3.0
X6.5016Y-3.5
X6.5016Y-3.8
X6.5016Y-4.1
X6.5016Y-4.4
X6.5016Y-5.5
X6.5016Y-5.8
X6.5016Y-6.4
X6.5016Y-6.7
X6.6016Y-1.2012
X6.6016Y-1.5012
X6.6016Y-1.8016
X6.6016Y-2.1016
X6.6016Y-3.0
X6.6016Y-3.5
X6.6016Y-3.8
X6.6016Y-4.1
X6.6016Y-4.4
X6.6016Y-5.5
X6.6016Y-5.8
X6.6016Y-6.4
X6.6016Y-6.7
X6.6016Y-7.4
X6.6016Y-7.7
X6.7016Y-1.8016
X6.7016Y-2.1016
X6.7016Y-7.4
X6.7016Y-7.7
X6.8016Y-1.8016
X6.8016Y-2.1016
T5
X1.3016Y-1.3018
X1.3016Y-1.4018
X1.4016Y-1.3
X1.4016Y-1.4
X1.5016Y-1.3
X1.5016Y-1.4
X1.6016Y-1.3
X1.6016Y-1.4
X1.7Y-5.5
X1.7Y-5.8
X1.7016Y-1.3
X1.7016Y-1.4
X1.8Y-5.5
X1.8Y-5.8
X1.8016Y-1.3
X1.8016Y-1.4
X1.9016Y-1.3
X1.9016Y-1.4
X2.0016Y-1.3016
X2.0016Y-1.4016
X3.4016Y-7.35
X3.4016Y-7.45
X3.6016Y-3.1
X3.6016Y-3.2
X3.7016Y-3.1
X3.7016Y-3.2
X3.8016Y-3.1
X3.8016Y-3.2
X3.9016Y-3.1
X3.9016Y-3.2
X3.9016Y-4.8016
X3.9016Y-4.9016
X4.0016Y-3.1
X4.0016Y-3.2
X4.0016Y-4.8
X4.0016Y-4.9
X4.1016Y-3.1
X4.1016Y-3.2
X4.1016Y-4.8
X4.1016Y-4.9
X4.2016Y-3.1
X4.2016Y-3.2
X4.2016Y-4.8
X4.2016Y-4.9
X4.3016Y-3.1
X4.3016Y-3.2
X4.4016Y-3.1
X4.4016Y-3.2
X4.5016Y-3.1
X4.5016Y-3.2
X4.6016Y-3.1
X4.6016Y-3.2
X4.7016Y-3.1
X4.7016Y-3.2
X5.4016Y-3.1
X5.4016Y-3.2
X5.5016Y-3.1
X5.5016Y-3.2
X5.6016Y-3.1
X5.6016Y-3.2
X5.7016Y-3.1
X5.7016Y-3.2
X5.8016Y-3.1
X5.8016Y-3.2
X5.9016Y-3.1
X5.9016Y-3.2
X6.0016Y-3.1
X6.0016Y-3.2
X6.1016Y-3.1
X6.1016Y-3.2
X6.2016Y-3.1
X6.2016Y-3.2
X6.3016Y-3.1
X6.3016Y-3.2
X6.4016Y-3.1
X6.4016Y-3.2
X6.5016Y-3.1
X6.5016Y-3.2
X6.6016Y-7.1502
X6.6016Y-7.2502
X6.7016Y-7.15
X6.7016Y-7.25
T6
X1.3016Y-1.9
X1.3016Y-2.0
X1.3016Y-2.1
X1.3016Y-2.2
X1.3016Y-2.3
X1.3016Y-2.4
X1.3016Y-2.5
X1.3016Y-2.6
X1.3016Y-2.7
X1.3016Y-2.8
X1.3016Y-2.9
X1.3016Y-3.0
X1.3016Y-3.1
X1.3016Y-3.2
X1.3016Y-3.3
X1.3016Y-3.4
X1.3016Y-3.5
X1.3016Y-3.6
X1.3016Y-3.7
X1.3016Y-3.8
X1.4Y-5.2
X1.4016Y-1.9
X1.4016Y-2.0
X1.4016Y-2.1
X1.4016Y-2.2
X1.4016Y-2.3
X1.4016Y-2.4
X1.4016Y-2.5
X1.4016Y-2.6
X1.4016Y-2.7
X1.4016Y-2.8
X1.4016Y-2.9
X1.4016Y-3.0
X1.4016Y-3.1
X1.4016Y-3.2
X1.4016Y-3.3
X1.4016Y-3.4
X1.4016Y-3.5
X1.4016Y-3.6
X1.4016Y-3.7
X1.4016Y-3.8
X2.2516Y-3.9
X2.2516Y-4.0
X2.2516Y-4.1
T7
X1.8016Y-7.4
X2.0024Y-7.4472
T8
X2.5244Y-7.4441
X2.5244Y-7.7
X2.7016Y-7.4441
X2.7016Y-7.7
X2.9244Y-7.4441
X2.9244Y-7.7
X3.1016Y-7.4441
X3.1016Y-7.7
T6
G00X1.3535Y-7.4677
M15
G01X1.3535Y-7.5543
M16
G05
G00X1.5307Y-7.7
M15
G01X1.4441Y-7.7
M16
G05
G00X1.6016Y-7.4598
M15
G01X1.6016Y-7.5622
M16
G05
M30
