M48
; DRILL file {KiCad 8.0.6} date 2025-02-23T11:24:42+0900
; FORMAT={-:-/ absolute / inch / decimal}
; #@! TF.CreationDate,2025-02-23T11:24:42+09:00
; #@! TF.GenerationSoftware,Kicad,Pcbnew,8.0.6
; #@! TF.FileFunction,Plated,1,2,PTH
FMAT,2
INCH
; #@! TA.AperFunction,Plated,PTH,ViaDrill
T1C0.0118
; #@! TA.AperFunction,Plated,PTH,ComponentDrill
T2C0.0236
; #@! TA.AperFunction,Plated,PTH,ComponentDrill
T3C0.0295
; #@! TA.AperFunction,Plated,PTH,ComponentDrill
T4C0.0315
; #@! TA.AperFunction,Plated,PTH,ComponentDrill
T5C0.0354
; #@! TA.AperFunction,Plated,PTH,ComponentDrill
T6C0.0394
; #@! TA.AperFunction,Plated,PTH,ComponentDrill
T7C0.0398
; #@! TA.AperFunction,Plated,PTH,ComponentDrill
T8C0.0433
%
G90
G05
T1
X1.0923Y-1.9
X1.1173Y-3.35
X1.1173Y-3.7
X1.1173Y-5.3
X1.1173Y-5.7
X1.1173Y-7.0
X1.1423Y-3.05
X1.1423Y-3.3
X1.1423Y-3.45
X1.1423Y-3.55
X1.15Y-4.25
X1.1673Y-1.625
X1.1673Y-2.65
X1.1673Y-3.1
X1.1923Y-1.7
X1.1923Y-2.85
X1.1923Y-3.2
X1.2173Y-1.65
X1.2173Y-2.95
X1.2173Y-3.25
X1.2673Y-4.475
X1.2673Y-6.6
X1.3173Y-1.725
X1.3173Y-3.9
X1.3173Y-5.3
X1.3673Y-2.45
X1.4173Y-1.75
X1.4173Y-4.3
X1.4923Y-3.15
X1.4923Y-3.3
X1.5173Y-1.625
X1.5173Y-1.825
X1.5173Y-1.95
X1.5173Y-2.75
X1.5173Y-3.1
X1.5173Y-3.25
X1.5173Y-3.7
X1.5173Y-3.775
X1.5409Y-3.0
X1.5423Y-2.55
X1.6Y-4.2449
X1.6173Y-1.825
X1.6173Y-4.475
X1.6173Y-6.4
X1.6673Y-1.7486
X1.6677Y-2.5
X1.7173Y-1.6
X1.7173Y-1.7
X1.8173Y-1.575
X1.8173Y-1.65
X1.8173Y-2.25
X1.8173Y-2.35
X1.8173Y-2.45
X1.8173Y-2.95
X1.8673Y-1.075
X1.8673Y-1.725
X1.8673Y-2.3
X1.8673Y-2.4
X1.8673Y-2.85
X1.8673Y-3.8
X1.8673Y-5.925
X1.9173Y-3.05
X1.9173Y-6.9
X1.9423Y-4.3
X1.9488Y-3.05
X1.9673Y-5.475
X1.9923Y-1.125
X2.0173Y-3.15
X2.0173Y-6.4
X2.0673Y-3.15
X2.0673Y-4.4
X2.0923Y-1.025
X2.0923Y-4.35
X2.1173Y-3.45
X2.1173Y-4.85
X2.1173Y-5.05
X2.1923Y-0.975
X2.1923Y-1.3
X2.1923Y-1.9
X2.2Y-6.4
X2.2173Y-3.65
X2.2173Y-5.4
X2.2173Y-6.925
X2.2423Y-1.05
X2.2423Y-2.125
X2.3173Y-2.0
X2.3173Y-6.35
X2.3173Y-6.4
X2.3173Y-6.65
X2.3173Y-7.2
X2.3608Y-2.35
X2.3673Y-3.9
X2.3673Y-5.975
X2.3923Y-2.35
X2.3923Y-2.5
X2.3923Y-2.75
X2.3937Y-4.0
X2.4173Y-2.125
X2.4173Y-4.5
X2.4673Y-6.4
X2.4923Y-3.45
X2.4923Y-4.7
X2.5173Y-1.9016
X2.5173Y-3.35
X2.5173Y-4.6
X2.5173Y-6.0
X2.5173Y-6.6
X2.5423Y-3.25
X2.5423Y-4.475
X2.6173Y-1.7
X2.6173Y-2.0
X2.6673Y-2.4
X2.7161Y-5.1654
X2.7173Y-1.05
X2.7173Y-1.65
X2.7173Y-2.0
X2.7173Y-2.25
X2.7173Y-2.6
X2.7173Y-7.2
X2.7673Y-1.7
X2.7673Y-4.525
X2.8173Y-1.1
X2.8173Y-1.6
X2.8173Y-2.0488
X2.8173Y-2.275
X2.8173Y-7.5
X2.8673Y-6.025
X2.9173Y-1.075
X2.9173Y-1.625
X2.9173Y-2.0
X2.9173Y-3.775
X2.9423Y-6.725
X2.9673Y-4.575
X3.0173Y-1.025
X3.0173Y-1.625
X3.0173Y-2.225
X3.0423Y-3.75
X3.0423Y-6.25
X3.0423Y-6.45
X3.0673Y-2.25
X3.0673Y-3.65
X3.0923Y-4.675
X3.1173Y-0.975
X3.1173Y-1.575
X3.1173Y-1.7
X3.1173Y-2.325
X3.1173Y-2.375
X3.1173Y-4.025
X3.1173Y-4.85
X3.1173Y-6.925
X3.1423Y-3.45
X3.1423Y-6.5
X3.1673Y-2.275
X3.1673Y-5.193
X3.1923Y-3.675
X3.2173Y-1.125
X3.2173Y-1.95
X3.2173Y-2.0
X3.2173Y-2.8
X3.2173Y-4.75
X3.2423Y-2.9
X3.2673Y-5.1654
X3.2923Y-2.85
X3.2923Y-4.8
X3.3111Y-4.9814
X3.3173Y-3.4
X3.3173Y-6.7
X3.3173Y-7.1
X3.3358Y-1.625
X3.3423Y-1.05
X3.3423Y-2.875
X3.3423Y-4.95
X3.3673Y-1.625
X3.3673Y-2.225
X3.3844Y-2.8224
X3.3909Y-1.7
X3.4173Y-1.0
X3.4173Y-1.65
X3.4173Y-6.8
X3.4185Y-2.0
X3.4673Y-1.1
X3.4673Y-1.725
X3.4673Y-4.8
X3.4673Y-6.075
X3.5173Y-1.9016
X3.5173Y-3.6
X3.5173Y-4.2016
X3.5173Y-4.2646
X3.5423Y-4.95
X3.5673Y-6.125
X3.5923Y-4.625
X3.5923Y-5.075
X3.6173Y-4.3
X3.6173Y-4.35
X3.6173Y-4.55
X3.6173Y-6.975
X3.6673Y-4.625
X3.6673Y-4.75
X3.6673Y-5.95
X3.6923Y-4.675
X3.6923Y-5.3
X3.7173Y-1.9016
X3.7173Y-2.0
X3.7173Y-4.475
X3.7173Y-6.625
X3.7173Y-7.05
X3.7423Y-2.325
X3.7673Y-5.0
X3.7673Y-7.45
X3.8173Y-1.6
X3.8173Y-1.7
X3.8173Y-2.325
X3.8173Y-2.6354
X3.8173Y-2.825
X3.8173Y-3.425
X3.8173Y-3.775
X3.8173Y-4.5
X3.8173Y-4.625
X3.8173Y-5.05
X3.8173Y-6.25
X3.8173Y-6.925
X3.8173Y-6.9685
X3.8173Y-7.0
X3.8173Y-7.225
X3.8673Y-4.475
X3.9173Y-1.05
X3.9173Y-1.725
X3.9173Y-1.95
X3.9173Y-2.275
X3.9173Y-2.85
X3.9173Y-3.4
X3.9173Y-5.35
X3.9173Y-5.925
X3.9173Y-7.0
X3.9673Y-5.375
X3.9673Y-5.95
X3.9673Y-7.35
X3.9923Y-1.95
X3.9923Y-2.225
X3.9923Y-4.625
X4.0173Y-1.9016
X4.0173Y-2.875
X4.0173Y-3.425
X4.0173Y-3.75
X4.0173Y-4.575
X4.0173Y-5.3
X4.0173Y-5.65
X4.0173Y-5.95
X4.0173Y-6.4
X4.0423Y-4.65
X4.1173Y-2.0
X4.1173Y-2.6
X4.1173Y-2.9
X4.1173Y-7.025
X4.1673Y-1.4
X4.2173Y-1.9016
X4.2173Y-3.5677
X4.2173Y-4.525
X4.2173Y-5.975
X4.2173Y-6.725
X4.2173Y-6.975
X4.2173Y-7.025
X4.2423Y-4.575
X4.3173Y-1.65
X4.3173Y-2.0
X4.3173Y-2.25
X4.3173Y-2.6
X4.3173Y-2.825
X4.3173Y-6.5
X4.3173Y-6.9
X4.3673Y-4.575
X4.4173Y-1.95
X4.4173Y-2.0
X4.4173Y-2.3
X4.4173Y-2.6
X4.4173Y-3.675
X4.4173Y-3.925
X4.4173Y-4.3
X4.4173Y-6.6
X4.4173Y-6.975
X4.4423Y-4.0
X4.4673Y-5.8
X4.4673Y-6.0
X4.5173Y-1.2
X4.5173Y-1.7
X4.5173Y-3.95
X4.5173Y-4.925
X4.5423Y-1.95
X4.5423Y-2.2
X4.5423Y-2.275
X4.5423Y-2.825
X4.5819Y-3.9
X4.5923Y-1.725
X4.5923Y-1.95
X4.6173Y-6.9
X4.6673Y-4.525
X4.6673Y-5.3
X4.6673Y-7.2
X4.7173Y-4.7
X4.7673Y-6.825
X4.8173Y-3.6
X4.8173Y-4.3
X4.8173Y-5.2284
X4.8173Y-5.6016
X4.8173Y-6.225
X4.8173Y-6.8
X4.8673Y-2.55
X4.8673Y-2.8
X4.9173Y-1.0764
X4.9173Y-1.7
X4.9173Y-2.2
X4.9173Y-3.7
X4.9173Y-4.2
X4.9173Y-4.625
X4.9173Y-4.875
X4.9173Y-5.4
X4.9173Y-5.55
X4.9173Y-5.7339
X4.9173Y-5.975
X4.9673Y-1.025
X4.9673Y-2.175
X4.9673Y-2.875
X4.9673Y-3.925
X4.9673Y-5.425
X4.9673Y-7.325
X4.9923Y-2.925
X4.9923Y-3.425
X5.0173Y-1.0
X5.0173Y-1.625
X5.0173Y-1.6565
X5.0173Y-2.25
X5.0173Y-2.8
X5.0173Y-3.325
X5.0173Y-3.975
X5.0173Y-4.5
X5.0173Y-5.193
X5.0173Y-7.05
X5.0423Y-2.9
X5.0423Y-4.625
X5.0673Y-3.5661
X5.0673Y-4.0
X5.0673Y-4.95
X5.0673Y-7.25
X5.0923Y-2.825
X5.0923Y-3.2
X5.1173Y-1.6
X5.1173Y-2.175
X5.1173Y-2.225
X5.1173Y-2.5646
X5.1173Y-2.85
X5.1173Y-3.3
X5.1173Y-3.95
X5.1173Y-4.55
X5.1173Y-5.425
X5.1173Y-5.6016
X5.1423Y-3.925
X5.1423Y-4.525
X5.1673Y-3.15
X5.1673Y-3.7354
X5.1673Y-5.193
X5.1673Y-7.3
X5.2173Y-1.4
X5.2173Y-1.575
X5.2173Y-1.675
X5.2173Y-2.275
X5.2173Y-2.5
X5.2173Y-2.5409
X5.2173Y-3.15
X5.2173Y-3.375
X5.2173Y-3.8935
X5.2173Y-3.925
X5.2173Y-4.625
X5.2173Y-5.075
X5.2173Y-5.375
X5.2173Y-5.6016
X5.2173Y-7.05
X5.2488Y-4.625
X5.2673Y-2.5
X5.2673Y-2.9
X5.2673Y-3.225
X5.2673Y-3.9
X5.2673Y-5.075
X5.3173Y-2.3
X5.3173Y-2.475
X5.3173Y-2.85
X5.3173Y-3.35
X5.3173Y-4.0
X5.3173Y-4.525
X5.3173Y-5.0
X5.3173Y-5.375
X5.3173Y-5.925
X5.3173Y-7.1
X5.3423Y-6.625
X5.3473Y-1.705
X5.3488Y-4.525
X5.3673Y-2.825
X5.3673Y-4.1661
X5.3673Y-4.8
X5.3923Y-5.075
X5.4173Y-1.675
X5.4173Y-2.275
X5.4173Y-2.525
X5.4173Y-2.925
X5.4173Y-3.35
X5.4173Y-4.625
X5.4173Y-5.175
X5.4173Y-5.6984
X5.4173Y-6.875
X5.4423Y-6.7
X5.4423Y-7.05
X5.4673Y-1.05
X5.4673Y-2.875
X5.4673Y-4.1661
X5.4673Y-5.075
X5.5173Y-2.6
X5.5173Y-3.375
X5.5173Y-3.425
X5.5173Y-3.7
X5.5173Y-4.2016
X5.5173Y-4.525
X5.5173Y-4.975
X5.5673Y-2.85
X5.5673Y-4.55
X5.5673Y-4.85
X5.5923Y-1.65
X5.5923Y-2.4
X5.5923Y-5.6984
X5.5923Y-6.6
X5.6173Y-1.2
X5.6173Y-1.7
X5.6173Y-3.3
X5.6173Y-3.375
X5.6173Y-3.975
X5.6173Y-4.025
X5.6173Y-5.05
X5.6173Y-5.0815
X5.6173Y-7.4
X5.6173Y-7.6
X5.6423Y-1.6
X5.6423Y-2.575
X5.6423Y-6.275
X5.6423Y-7.025
X5.6673Y-1.675
X5.6673Y-2.225
X5.6673Y-3.3921
X5.6673Y-3.925
X5.6673Y-7.2
X5.6673Y-7.55
X5.6923Y-1.625
X5.6923Y-2.5
X5.7164Y-1.7325
X5.7173Y-1.7
X5.7173Y-2.525
X5.7173Y-2.7
X5.7173Y-2.9
X5.7173Y-3.325
X5.7173Y-3.9
X5.7173Y-4.55
X5.7173Y-4.65
X5.7173Y-4.925
X5.7173Y-5.6016
X5.7173Y-6.5
X5.7173Y-6.775
X5.7173Y-7.225
X5.7173Y-7.5
X5.7423Y-2.125
X5.7423Y-3.3
X5.7423Y-4.0
X5.7673Y-2.375
X5.7673Y-3.3449
X5.7673Y-3.95
X5.7673Y-4.15
X5.7673Y-5.925
X5.8173Y-3.325
X5.8173Y-4.6
X5.8173Y-4.95
X5.8423Y-2.45
X5.8423Y-2.65
X5.8661Y-5.5
X5.8673Y-2.25
X5.8673Y-4.35
X5.9173Y-1.3646
X5.9173Y-2.65
X5.9173Y-3.275
X5.9173Y-3.6016
X5.9173Y-4.2016
X5.9173Y-4.575
X5.9173Y-5.6016
X5.9173Y-5.9
X5.9173Y-6.8974
X5.9173Y-7.7
X5.9423Y-3.325
X5.9673Y-2.4
X5.9673Y-3.625
X5.9673Y-3.925
X5.9673Y-5.975
X5.9673Y-6.925
X5.9673Y-7.3
X5.9673Y-7.45
X5.9923Y-7.6
X6.0173Y-1.075
X6.0173Y-1.925
X6.0173Y-2.45
X6.0173Y-3.325
X6.0173Y-3.7
X6.0173Y-4.0
X6.0173Y-4.55
X6.0173Y-6.025
X6.0173Y-7.4
X6.0173Y-7.45
X6.0673Y-2.275
X6.0673Y-2.45
X6.0673Y-4.8
X6.1173Y-0.975
X6.1173Y-1.6
X6.1173Y-1.925
X6.1173Y-2.275
X6.1173Y-2.35
X6.1173Y-2.8
X6.1173Y-4.025
X6.1173Y-4.15
X6.1173Y-4.3
X6.1173Y-5.13
X6.1173Y-6.275
X6.1173Y-6.5
X6.1673Y-2.8
X6.1673Y-4.65
X6.1673Y-5.4
X6.1923Y-3.3
X6.2173Y-1.725
X6.2173Y-1.875
X6.2173Y-2.175
X6.2173Y-2.825
X6.2173Y-3.325
X6.2173Y-4.2016
X6.2173Y-5.2754
X6.2173Y-5.375
X6.2673Y-2.45
X6.2673Y-4.25
X6.2673Y-7.7
X6.3173Y-1.625
X6.3173Y-1.675
X6.3173Y-1.875
X6.3173Y-2.3
X6.3173Y-2.4
X6.3173Y-3.3921
X6.3173Y-4.3
X6.3173Y-5.35
X6.3173Y-6.075
X6.3173Y-7.15
X6.3423Y-3.275
X6.3423Y-4.55
X6.3423Y-5.275
X6.3673Y-1.925
X6.3673Y-2.475
X6.3673Y-2.825
X6.3673Y-4.6
X6.3673Y-6.5
X6.3673Y-7.45
X6.4173Y-1.0
X6.4173Y-1.65
X6.4173Y-2.25
X6.4173Y-3.3449
X6.4173Y-3.625
X6.4173Y-3.9
X6.4173Y-4.35
X6.4173Y-5.65
X6.4173Y-6.225
X6.4423Y-3.925
X6.4673Y-1.9
X6.4673Y-1.95
X6.4673Y-2.275
X6.4673Y-4.5
X6.4673Y-6.9
X6.4673Y-7.7
X6.5173Y-1.4
X6.5173Y-1.925
X6.5173Y-2.45
X6.5173Y-3.3685
X6.5173Y-3.4
X6.5173Y-4.85
X6.5173Y-6.5
X6.5173Y-6.85
X6.5673Y-1.025
X6.5673Y-7.55
X6.6173Y-1.9
X6.6173Y-2.8
X6.6173Y-3.425
X6.6173Y-4.3
X6.6173Y-6.125
X6.6173Y-7.05
X6.6423Y-1.95
X6.6673Y-1.7
X6.6673Y-2.35
X6.6673Y-4.875
X6.7173Y-1.95
X6.7173Y-2.375
X6.7173Y-4.0
X6.7173Y-5.9
X6.7173Y-7.05
X6.7423Y-2.85
X6.7423Y-5.35
X6.7673Y-1.375
X6.7673Y-3.5
X6.7673Y-5.55
X6.7923Y-2.65
X6.7923Y-6.85
X6.8173Y-1.075
X6.8423Y-3.4
X6.8423Y-5.4
X6.8913Y-1.05
X6.8913Y-4.55
X6.8913Y-7.15
T2
X2.2Y-7.3
X2.2787Y-7.3
T3
X1.7173Y-7.6
X2.0173Y-7.6
T4
X1.2173Y-1.2
X1.2173Y-5.05
X1.3173Y-1.2
X1.3173Y-5.05
X1.4173Y-1.2
X1.4173Y-5.05
X1.5173Y-1.2
X1.6173Y-1.2
X1.6173Y-2.2504
X1.6173Y-2.3504
X1.6173Y-2.4504
X1.6173Y-2.5504
X1.6173Y-2.6504
X1.6173Y-2.7504
X1.6173Y-2.8504
X1.6173Y-2.9504
X1.6173Y-3.0504
X1.6173Y-3.1504
X1.6173Y-3.2504
X1.6173Y-3.3504
X1.6173Y-3.4504
X1.6173Y-3.5504
X1.7Y-7.2
X1.7173Y-1.2
X1.7189Y-2.1
X1.8173Y-1.2
X1.8173Y-2.1
X1.8173Y-6.9016
X1.8173Y-7.0
X1.9173Y-1.2
X1.9173Y-5.3016
X1.9173Y-5.4
X1.9173Y-6.8
X1.9173Y-7.1
X1.9673Y-5.05
X2.0Y-7.2
X2.0173Y-1.2
X2.0173Y-6.8
X2.0173Y-7.1
X2.1173Y-6.8
X2.1173Y-7.1
X2.2173Y-2.2504
X2.2173Y-2.3504
X2.2173Y-2.4504
X2.2173Y-2.5504
X2.2173Y-2.6504
X2.2173Y-2.7504
X2.2173Y-2.8504
X2.2173Y-2.9504
X2.2173Y-3.0504
X2.2173Y-3.1504
X2.2173Y-3.2504
X2.2173Y-3.3504
X2.2173Y-3.4504
X2.2173Y-3.5504
X2.2173Y-6.8
X2.2173Y-7.1
X2.2173Y-7.5016
X2.2173Y-7.6
X2.2673Y-4.3
X2.2673Y-4.4
X2.2673Y-4.5
X2.2673Y-4.6
X2.2673Y-4.7
X2.2673Y-5.05
X2.3173Y-5.3016
X2.3173Y-5.4
X2.3173Y-6.8
X2.3173Y-7.1
X2.4173Y-1.3
X2.4173Y-1.3984
X2.4173Y-1.9016
X2.4173Y-2.0
X2.4173Y-6.8
X2.4173Y-7.1
X2.5173Y-1.2
X2.5173Y-1.5
X2.5173Y-1.8
X2.5173Y-2.1
X2.5173Y-2.4
X2.5173Y-6.8
X2.5173Y-7.1
X2.5402Y-7.3441
X2.6173Y-1.2
X2.6173Y-1.5
X2.6173Y-1.8
X2.6173Y-2.1
X2.6173Y-2.5
X2.6273Y-5.13
X2.6273Y-5.2284
X2.7173Y-1.2
X2.7173Y-1.5
X2.7173Y-1.8
X2.7173Y-2.1
X2.7173Y-2.5
X2.7273Y-5.03
X2.7273Y-5.33
X2.7673Y-7.0
X2.8173Y-1.2
X2.8173Y-1.5
X2.8173Y-1.8
X2.8173Y-2.1
X2.8173Y-2.4
X2.8173Y-2.5
X2.8273Y-5.03
X2.8273Y-5.33
X2.8402Y-7.3441
X2.9173Y-1.2
X2.9173Y-1.5
X2.9173Y-1.8
X2.9173Y-2.1
X2.9273Y-5.03
X2.9273Y-5.33
X2.9402Y-7.3441
X3.0173Y-1.2
X3.0173Y-1.5
X3.0173Y-1.8
X3.0173Y-2.1
X3.0173Y-6.65
X3.0273Y-5.03
X3.0273Y-5.33
X3.0673Y-7.0
X3.1173Y-1.2
X3.1173Y-1.5
X3.1173Y-1.8
X3.1173Y-2.1
X3.1173Y-6.65
X3.1273Y-5.03
X3.1273Y-5.33
X3.2173Y-1.2
X3.2173Y-1.5
X3.2173Y-1.8
X3.2173Y-2.1
X3.2173Y-6.25
X3.2173Y-6.55
X3.2173Y-6.65
X3.2173Y-7.7
X3.2273Y-5.03
X3.2273Y-5.33
X3.2402Y-7.3441
X3.3273Y-5.03
X3.3273Y-5.33
X3.4173Y-4.2016
X3.4173Y-4.3
X3.5173Y-3.0
X3.5173Y-4.1
X3.5173Y-4.4
X3.5173Y-7.7
X3.6173Y-1.9016
X3.6173Y-2.0
X3.6173Y-2.5016
X3.6173Y-2.6
X3.6173Y-3.0
X3.6173Y-4.1
X3.6173Y-4.4
X3.6173Y-5.6016
X3.6173Y-5.7
X3.6173Y-6.8
X3.6173Y-7.4
X3.6173Y-7.5
X3.6173Y-7.6
X3.6173Y-7.7
X3.6177Y-1.3
X3.6177Y-1.3984
X3.7173Y-1.2016
X3.7173Y-1.5016
X3.7173Y-1.8016
X3.7173Y-2.1016
X3.7173Y-2.4016
X3.7173Y-2.7016
X3.7173Y-3.0
X3.7173Y-4.1
X3.7173Y-4.4
X3.7173Y-5.5
X3.7173Y-5.8
X3.7173Y-6.8
X3.7173Y-7.4
X3.7173Y-7.5
X3.7173Y-7.6
X3.7173Y-7.7
X3.8173Y-1.2016
X3.8173Y-1.5016
X3.8173Y-1.8016
X3.8173Y-2.1016
X3.8173Y-2.4016
X3.8173Y-2.7016
X3.8173Y-3.0
X3.8173Y-4.1
X3.8173Y-4.4
X3.8173Y-5.5
X3.8173Y-5.8
X3.8173Y-6.8
X3.8173Y-7.4
X3.8173Y-7.5
X3.8173Y-7.6
X3.8173Y-7.7
X3.9173Y-1.2016
X3.9173Y-1.5016
X3.9173Y-1.8016
X3.9173Y-2.1016
X3.9173Y-2.4016
X3.9173Y-2.7016
X3.9173Y-3.0
X3.9173Y-4.1
X3.9173Y-4.4
X3.9173Y-4.7016
X3.9173Y-5.5
X3.9173Y-5.8
X3.9173Y-6.8
X3.9173Y-7.4
X3.9173Y-7.5
X3.9173Y-7.6
X3.9173Y-7.7
X4.0173Y-1.2016
X4.0173Y-1.5016
X4.0173Y-1.8016
X4.0173Y-2.1016
X4.0173Y-2.4016
X4.0173Y-2.7016
X4.0173Y-3.0
X4.0173Y-4.1
X4.0173Y-4.4
X4.0173Y-4.7016
X4.0173Y-5.5
X4.0173Y-5.8
X4.0173Y-6.8
X4.0173Y-7.4
X4.0173Y-7.5
X4.0173Y-7.6
X4.0173Y-7.7
X4.1173Y-1.2016
X4.1173Y-1.5016
X4.1173Y-1.8016
X4.1173Y-2.1016
X4.1173Y-2.4016
X4.1173Y-2.7016
X4.1173Y-3.0
X4.1173Y-4.1
X4.1173Y-4.4
X4.1173Y-4.7016
X4.1173Y-5.5
X4.1173Y-5.8
X4.1173Y-6.8
X4.1173Y-7.4
X4.1173Y-7.5
X4.1173Y-7.6
X4.1173Y-7.7
X4.2173Y-1.2016
X4.2173Y-1.5016
X4.2173Y-1.8016
X4.2173Y-2.1016
X4.2173Y-2.4016
X4.2173Y-2.7016
X4.2173Y-3.0
X4.2173Y-4.1
X4.2173Y-4.4
X4.2173Y-4.7016
X4.2173Y-5.5
X4.2173Y-5.8
X4.2173Y-6.8
X4.2173Y-7.4
X4.2173Y-7.5
X4.2173Y-7.6
X4.2173Y-7.7
X4.3173Y-1.2016
X4.3173Y-1.5016
X4.3173Y-1.8016
X4.3173Y-2.1016
X4.3173Y-2.4016
X4.3173Y-2.7016
X4.3173Y-3.0
X4.3173Y-4.1
X4.3173Y-4.4
X4.3173Y-4.7016
X4.3173Y-5.5
X4.3173Y-5.8
X4.3173Y-6.8
X4.3173Y-7.4
X4.3173Y-7.5
X4.3173Y-7.6
X4.3173Y-7.7
X4.4173Y-1.2016
X4.4173Y-1.5016
X4.4173Y-1.8016
X4.4173Y-2.1016
X4.4173Y-2.4016
X4.4173Y-2.7016
X4.4173Y-4.1
X4.4173Y-4.4
X4.4173Y-6.4
X4.4173Y-6.8
X4.4173Y-7.4
X4.4173Y-7.5
X4.4173Y-7.6
X4.4173Y-7.7
X4.4673Y-3.0
X4.5173Y-7.4
X4.5173Y-7.5
X4.5173Y-7.6
X4.5173Y-7.7
X4.5673Y-3.0
X4.6173Y-7.4
X4.6173Y-7.5
X4.6173Y-7.6
X4.6173Y-7.7
X4.6673Y-3.0
X4.7173Y-1.3
X4.7173Y-1.3984
X4.7173Y-1.9016
X4.7173Y-2.0
X4.7173Y-2.5
X4.7173Y-2.5984
X4.7173Y-3.6031
X4.7173Y-3.7016
X4.7173Y-4.2
X4.7173Y-4.2984
X4.7173Y-5.6016
X4.7173Y-5.7
X4.7173Y-6.4
X4.7173Y-7.4
X4.7173Y-7.5
X4.7173Y-7.6
X4.7173Y-7.7
X4.7673Y-3.0
X4.8173Y-1.2
X4.8173Y-1.5
X4.8173Y-1.8016
X4.8173Y-2.1016
X4.8173Y-2.4016
X4.8173Y-2.7016
X4.8173Y-3.5016
X4.8173Y-3.8016
X4.8173Y-4.1016
X4.8173Y-4.4016
X4.8173Y-4.7
X4.8173Y-5.3
X4.8173Y-5.5
X4.8173Y-5.8
X4.8173Y-7.4
X4.8173Y-7.5
X4.8173Y-7.6
X4.8173Y-7.7
X4.8673Y-3.0
X4.9173Y-1.2
X4.9173Y-1.5
X4.9173Y-1.8016
X4.9173Y-2.1016
X4.9173Y-2.4016
X4.9173Y-2.7016
X4.9173Y-3.5016
X4.9173Y-3.8016
X4.9173Y-4.1016
X4.9173Y-4.4016
X4.9173Y-4.7
X4.9173Y-5.3
X4.9173Y-5.5
X4.9173Y-5.8
X4.9173Y-7.4
X4.9173Y-7.5
X4.9173Y-7.6
X4.9173Y-7.7
X5.0173Y-1.2
X5.0173Y-1.5
X5.0173Y-1.8016
X5.0173Y-2.1016
X5.0173Y-2.4016
X5.0173Y-2.7016
X5.0173Y-3.5016
X5.0173Y-3.8016
X5.0173Y-4.1016
X5.0173Y-4.4016
X5.0173Y-4.7
X5.0173Y-5.3
X5.0173Y-5.5
X5.0173Y-5.8
X5.0173Y-7.4
X5.0173Y-7.5
X5.0173Y-7.6
X5.0173Y-7.7
X5.0398Y-6.561
X5.0398Y-6.711
X5.0398Y-6.861
X5.1173Y-1.2
X5.1173Y-1.5
X5.1173Y-1.8016
X5.1173Y-2.1016
X5.1173Y-2.4016
X5.1173Y-2.7016
X5.1173Y-3.5016
X5.1173Y-3.8016
X5.1173Y-4.1016
X5.1173Y-4.4016
X5.1173Y-4.7
X5.1173Y-5.3
X5.1173Y-5.5
X5.1173Y-5.8
X5.1173Y-7.4
X5.1173Y-7.5
X5.1173Y-7.6
X5.1173Y-7.7
X5.2173Y-1.2
X5.2173Y-1.5
X5.2173Y-1.8016
X5.2173Y-2.1016
X5.2173Y-2.4016
X5.2173Y-2.7016
X5.2173Y-3.5016
X5.2173Y-3.8016
X5.2173Y-4.1016
X5.2173Y-4.4016
X5.2173Y-4.7
X5.2173Y-5.3
X5.2173Y-5.5
X5.2173Y-5.8
X5.2173Y-7.4
X5.2173Y-7.5
X5.2173Y-7.6
X5.2173Y-7.7
X5.2673Y-3.0
X5.3173Y-1.2
X5.3173Y-1.5
X5.3173Y-1.8016
X5.3173Y-2.1016
X5.3173Y-2.4016
X5.3173Y-2.7016
X5.3173Y-3.5016
X5.3173Y-3.8016
X5.3173Y-4.1016
X5.3173Y-4.4016
X5.3173Y-4.7
X5.3173Y-5.3
X5.3173Y-5.5
X5.3173Y-5.8
X5.3173Y-7.4
X5.3173Y-7.5
X5.3173Y-7.6
X5.3173Y-7.7
X5.3398Y-6.561
X5.3398Y-6.711
X5.3398Y-6.861
X5.3673Y-3.0
X5.4173Y-1.2
X5.4173Y-1.5
X5.4173Y-1.8016
X5.4173Y-2.1016
X5.4173Y-2.4016
X5.4173Y-2.7016
X5.4173Y-3.5016
X5.4173Y-3.8016
X5.4173Y-4.1016
X5.4173Y-4.4016
X5.4173Y-4.7
X5.4173Y-5.3
X5.4173Y-5.5
X5.4173Y-5.8
X5.4173Y-7.4
X5.4173Y-7.5
X5.4173Y-7.6
X5.4173Y-7.7
X5.4673Y-3.0
X5.5173Y-1.2
X5.5173Y-1.5
X5.5173Y-1.8016
X5.5173Y-2.1016
X5.5173Y-2.4016
X5.5173Y-2.7016
X5.5173Y-3.5016
X5.5173Y-3.8016
X5.5173Y-4.1016
X5.5173Y-4.4016
X5.5173Y-4.7
X5.5173Y-5.3
X5.5173Y-7.4
X5.5173Y-7.5
X5.5173Y-7.6
X5.5173Y-7.7
X5.5673Y-3.0
X5.6173Y-4.7
X5.6173Y-5.3
X5.6673Y-3.0
X5.7173Y-4.7
X5.7173Y-5.3
X5.8173Y-1.3016
X5.8173Y-1.4
X5.8173Y-1.9016
X5.8173Y-2.0
X5.8173Y-3.0
X5.8173Y-3.6
X5.8173Y-3.6984
X5.8173Y-4.2
X5.8173Y-4.2984
X5.8173Y-4.7
X5.8173Y-5.3
X5.8173Y-5.6
X5.8173Y-5.6984
X5.8173Y-7.1
X5.8173Y-7.2
X5.8173Y-7.3
X5.8173Y-7.4
X5.8173Y-7.5
X5.8173Y-7.6
X5.8173Y-7.7
X5.9173Y-1.2012
X5.9173Y-1.5012
X5.9173Y-1.8016
X5.9173Y-2.1016
X5.9173Y-3.0
X5.9173Y-3.5
X5.9173Y-3.8
X5.9173Y-4.1
X5.9173Y-4.4
X5.9173Y-4.7
X5.9173Y-5.3
X5.9173Y-5.5
X5.9173Y-5.8
X5.9173Y-6.5
X5.9173Y-6.5984
X5.9173Y-7.0
X6.0157Y-7.0
X6.0173Y-1.2012
X6.0173Y-1.5012
X6.0173Y-1.8016
X6.0173Y-2.1016
X6.0173Y-3.0
X6.0173Y-3.5
X6.0173Y-3.8
X6.0173Y-4.1
X6.0173Y-4.4
X6.0173Y-4.7
X6.0173Y-5.3
X6.0173Y-5.5
X6.0173Y-5.8
X6.0173Y-6.4
X6.0173Y-6.7
X6.1173Y-1.2012
X6.1173Y-1.5012
X6.1173Y-1.8016
X6.1173Y-2.1016
X6.1173Y-3.0
X6.1173Y-3.5
X6.1173Y-3.8
X6.1173Y-4.1
X6.1173Y-4.4
X6.1173Y-4.7
X6.1173Y-5.3
X6.1173Y-5.5
X6.1173Y-5.8
X6.1173Y-6.4
X6.1173Y-6.7
X6.1173Y-7.1
X6.1173Y-7.2
X6.1173Y-7.3
X6.1173Y-7.4
X6.1173Y-7.5
X6.1173Y-7.6
X6.1173Y-7.7
X6.2173Y-1.2012
X6.2173Y-1.5012
X6.2173Y-1.8016
X6.2173Y-2.1016
X6.2173Y-3.0
X6.2173Y-3.5
X6.2173Y-3.8
X6.2173Y-4.1
X6.2173Y-4.4
X6.2173Y-5.1258
X6.2173Y-5.2242
X6.2173Y-5.5
X6.2173Y-5.8
X6.2173Y-6.4
X6.2173Y-6.7
X6.3173Y-1.2012
X6.3173Y-1.5012
X6.3173Y-1.8016
X6.3173Y-2.1016
X6.3173Y-3.0
X6.3173Y-3.5
X6.3173Y-3.8
X6.3173Y-4.1
X6.3173Y-4.4
X6.3173Y-5.5
X6.3173Y-5.8
X6.3173Y-6.4
X6.3173Y-6.7
X6.4173Y-1.2012
X6.4173Y-1.5012
X6.4173Y-1.8016
X6.4173Y-2.1016
X6.4173Y-3.0
X6.4173Y-3.5
X6.4173Y-3.8
X6.4173Y-4.1
X6.4173Y-4.4
X6.4173Y-5.5
X6.4173Y-5.8
X6.4173Y-6.4
X6.4173Y-6.7
X6.5173Y-1.2012
X6.5173Y-1.5012
X6.5173Y-1.8016
X6.5173Y-2.1016
X6.5173Y-3.0
X6.5173Y-3.5
X6.5173Y-3.8
X6.5173Y-4.1
X6.5173Y-4.4
X6.5173Y-5.5
X6.5173Y-5.8
X6.5173Y-6.4
X6.5173Y-6.7
X6.6173Y-1.2012
X6.6173Y-1.5012
X6.6173Y-1.8016
X6.6173Y-2.1016
X6.6173Y-3.0
X6.6173Y-3.5
X6.6173Y-3.8
X6.6173Y-4.1
X6.6173Y-4.4
X6.6173Y-5.5
X6.6173Y-5.8
X6.6173Y-6.4
X6.6173Y-6.7
X6.6173Y-7.4
X6.6173Y-7.7
X6.7173Y-1.8016
X6.7173Y-2.1016
X6.7173Y-7.4
X6.7173Y-7.7
X6.8173Y-1.8016
X6.8173Y-2.1016
T5
X1.3173Y-1.3018
X1.3173Y-1.4018
X1.4173Y-1.3
X1.4173Y-1.4
X1.5173Y-1.3
X1.5173Y-1.4
X1.6173Y-1.3
X1.6173Y-1.4
X1.7173Y-1.3
X1.7173Y-1.4
X1.8173Y-1.3
X1.8173Y-1.4
X1.9173Y-1.3
X1.9173Y-1.4
X2.0173Y-1.3016
X2.0173Y-1.4016
X3.4173Y-7.35
X3.4173Y-7.45
X3.6173Y-3.1
X3.6173Y-3.2
X3.7173Y-3.1
X3.7173Y-3.2
X3.8173Y-3.1
X3.8173Y-3.2
X3.9173Y-3.1
X3.9173Y-3.2
X3.9173Y-4.8016
X3.9173Y-4.9016
X4.0173Y-3.1
X4.0173Y-3.2
X4.0173Y-4.8
X4.0173Y-4.9
X4.1173Y-3.1
X4.1173Y-3.2
X4.1173Y-4.8
X4.1173Y-4.9
X4.2173Y-3.1
X4.2173Y-3.2
X4.2173Y-4.8
X4.2173Y-4.9
X4.3173Y-3.1
X4.3173Y-3.2
X4.4173Y-3.1
X4.4173Y-3.2
X4.5173Y-3.1
X4.5173Y-3.2
X4.6173Y-3.1
X4.6173Y-3.2
X4.7173Y-3.1
X4.7173Y-3.2
X5.4173Y-3.1
X5.4173Y-3.2
X5.5173Y-3.1
X5.5173Y-3.2
X5.6173Y-3.1
X5.6173Y-3.2
X5.7173Y-3.1
X5.7173Y-3.2
X5.8173Y-3.1
X5.8173Y-3.2
X5.9173Y-3.1
X5.9173Y-3.2
X6.0173Y-3.1
X6.0173Y-3.2
X6.1173Y-3.1
X6.1173Y-3.2
X6.2173Y-3.1
X6.2173Y-3.2
X6.3173Y-3.1
X6.3173Y-3.2
X6.4173Y-3.1
X6.4173Y-3.2
X6.5173Y-3.1
X6.5173Y-3.2
X6.6173Y-7.1502
X6.6173Y-7.2502
X6.7173Y-7.15
X6.7173Y-7.25
T6
X1.2173Y-5.2
X1.3173Y-1.9
X1.3173Y-2.0
X1.3173Y-2.1
X1.3173Y-2.2
X1.3173Y-2.3
X1.3173Y-2.4
X1.3173Y-2.5
X1.3173Y-2.6
X1.3173Y-2.7
X1.3173Y-2.8
X1.3173Y-2.9
X1.3173Y-3.0
X1.3173Y-3.1
X1.3173Y-3.2
X1.3173Y-3.3
X1.3173Y-3.4
X1.3173Y-3.5
X1.3173Y-3.6
X1.3173Y-3.7
X1.3173Y-3.8
X1.4173Y-1.9
X1.4173Y-2.0
X1.4173Y-2.1
X1.4173Y-2.2
X1.4173Y-2.3
X1.4173Y-2.4
X1.4173Y-2.5
X1.4173Y-2.6
X1.4173Y-2.7
X1.4173Y-2.8
X1.4173Y-2.9
X1.4173Y-3.0
X1.4173Y-3.1
X1.4173Y-3.2
X1.4173Y-3.3
X1.4173Y-3.4
X1.4173Y-3.5
X1.4173Y-3.6
X1.4173Y-3.7
X1.4173Y-3.8
X2.2673Y-3.9
X2.2673Y-4.0
X2.2673Y-4.1
T7
X1.8173Y-7.4
X2.0181Y-7.4472
T8
X2.5402Y-7.4441
X2.5402Y-7.7
X2.7173Y-7.4441
X2.7173Y-7.7
X2.9402Y-7.4441
X2.9402Y-7.7
X3.1173Y-7.4441
X3.1173Y-7.7
T6
G00X1.3693Y-7.4677
M15
G01X1.3693Y-7.5543
M16
G05
G00X1.5465Y-7.7
M15
G01X1.4598Y-7.7
M16
G05
G00X1.6173Y-7.4598
M15
G01X1.6173Y-7.5622
M16
G05
M30
