%TF.GenerationSoftware,KiCad,Pcbnew,8.0.6*%
%TF.CreationDate,2025-02-22T13:50:16+09:00*%
%TF.ProjectId,HC4_KiCad,4843345f-4b69-4436-9164-2e6b69636164,rev?*%
%TF.SameCoordinates,Original*%
%TF.FileFunction,Copper,L2,Bot*%
%TF.FilePolarity,Positive*%
%FSLAX46Y46*%
G04 Gerber Fmt 4.6, Leading zero omitted, Abs format (unit mm)*
G04 Created by KiCad (PCBNEW 8.0.6) date 2025-02-22 13:50:16*
%MOMM*%
%LPD*%
G01*
G04 APERTURE LIST*
%TA.AperFunction,ComponentPad*%
%ADD10R,1.800000X1.800000*%
%TD*%
%TA.AperFunction,ComponentPad*%
%ADD11C,1.800000*%
%TD*%
%TA.AperFunction,ComponentPad*%
%ADD12R,1.600000X1.600000*%
%TD*%
%TA.AperFunction,ComponentPad*%
%ADD13O,1.600000X1.600000*%
%TD*%
%TA.AperFunction,ComponentPad*%
%ADD14R,1.600000X1.400000*%
%TD*%
%TA.AperFunction,ComponentPad*%
%ADD15O,1.600000X1.400000*%
%TD*%
%TA.AperFunction,ComponentPad*%
%ADD16R,1.700000X1.700000*%
%TD*%
%TA.AperFunction,ComponentPad*%
%ADD17C,1.600000*%
%TD*%
%TA.AperFunction,ComponentPad*%
%ADD18O,1.700000X1.700000*%
%TD*%
%TA.AperFunction,ComponentPad*%
%ADD19R,2.000000X4.600000*%
%TD*%
%TA.AperFunction,ComponentPad*%
%ADD20O,2.000000X4.200000*%
%TD*%
%TA.AperFunction,ComponentPad*%
%ADD21O,4.200000X2.000000*%
%TD*%
%TA.AperFunction,ComponentPad*%
%ADD22R,1.500000X1.500000*%
%TD*%
%TA.AperFunction,ComponentPad*%
%ADD23C,2.000000*%
%TD*%
%TA.AperFunction,ComponentPad*%
%ADD24C,2.010000*%
%TD*%
%TA.AperFunction,ComponentPad*%
%ADD25O,1.500000X1.500000*%
%TD*%
%TA.AperFunction,ComponentPad*%
%ADD26C,1.200000*%
%TD*%
%TA.AperFunction,ViaPad*%
%ADD27C,0.600000*%
%TD*%
%TA.AperFunction,Conductor*%
%ADD28C,0.800000*%
%TD*%
%TA.AperFunction,Conductor*%
%ADD29C,0.200000*%
%TD*%
G04 APERTURE END LIST*
D10*
%TO.P,LD14,1,K*%
%TO.N,Net-(LD14-K)*%
X180340000Y-78740000D03*
D11*
%TO.P,LD14,2*%
%TO.N,/Program Counter/PC_9*%
X180340000Y-81280000D03*
%TD*%
D12*
%TO.P,IC2,1,VPP*%
%TO.N,VCC*%
X220980000Y-119380000D03*
D13*
%TO.P,IC2,2,A12*%
X218440000Y-119380000D03*
%TO.P,IC2,3,A7*%
%TO.N,/Program Counter/PC_7*%
X215900000Y-119380000D03*
%TO.P,IC2,4,A6*%
%TO.N,/Program Counter/PC_6*%
X213360000Y-119380000D03*
%TO.P,IC2,5,A5*%
%TO.N,/Program Counter/PC_5*%
X210820000Y-119380000D03*
%TO.P,IC2,6,A4*%
%TO.N,/Program Counter/PC_4*%
X208280000Y-119380000D03*
%TO.P,IC2,7,A3*%
%TO.N,/Program Counter/PC_3*%
X205740000Y-119380000D03*
%TO.P,IC2,8,A2*%
%TO.N,/Program Counter/PC_2*%
X203200000Y-119380000D03*
%TO.P,IC2,9,A1*%
%TO.N,/Program Counter/PC_1*%
X200660000Y-119380000D03*
%TO.P,IC2,10,A0*%
%TO.N,/Program Counter/PC_0*%
X198120000Y-119380000D03*
%TO.P,IC2,11,D0*%
%TO.N,/Address BUS/Instruction_0*%
X195580000Y-119380000D03*
%TO.P,IC2,12,D1*%
%TO.N,/Address BUS/Instruction_1*%
X193040000Y-119380000D03*
%TO.P,IC2,13,D2*%
%TO.N,/Address BUS/Instruction_2*%
X190500000Y-119380000D03*
%TO.P,IC2,14,GND*%
%TO.N,GND*%
X187960000Y-119380000D03*
%TO.P,IC2,15,D3*%
%TO.N,/Address BUS/Instruction_3*%
X187960000Y-134620000D03*
%TO.P,IC2,16,D4*%
%TO.N,/Address BUS/Instruction_4*%
X190500000Y-134620000D03*
%TO.P,IC2,17,D5*%
%TO.N,/Address BUS/Instruction_5*%
X193040000Y-134620000D03*
%TO.P,IC2,18,D6*%
%TO.N,/Address BUS/Instruction_6*%
X195580000Y-134620000D03*
%TO.P,IC2,19,D7*%
%TO.N,/Address BUS/Instruction_7*%
X198120000Y-134620000D03*
%TO.P,IC2,20,~{CE}*%
%TO.N,GND*%
X200660000Y-134620000D03*
%TO.P,IC2,21,A10*%
%TO.N,/Program Counter/PC_10*%
X203200000Y-134620000D03*
%TO.P,IC2,22,~{OE}*%
%TO.N,GND*%
X205740000Y-134620000D03*
%TO.P,IC2,23,A11*%
%TO.N,/Program Counter/PC_11*%
X208280000Y-134620000D03*
%TO.P,IC2,24,A9*%
%TO.N,/Program Counter/PC_9*%
X210820000Y-134620000D03*
%TO.P,IC2,25,A8*%
%TO.N,/Program Counter/PC_8*%
X213360000Y-134620000D03*
%TO.P,IC2,26,A13*%
%TO.N,VCC*%
X215900000Y-134620000D03*
%TO.P,IC2,27,A14*%
X218440000Y-134620000D03*
%TO.P,IC2,28,VCC*%
X220980000Y-134620000D03*
%TD*%
D14*
%TO.P,D38,1,K*%
%TO.N,/Data BUS/Level_C_OE*%
X203200000Y-187960000D03*
D15*
%TO.P,D38,2,A*%
%TO.N,unconnected-(D38-A-Pad2)*%
X205740000Y-187960000D03*
%TD*%
D14*
%TO.P,D40,1,K*%
%TO.N,/Data BUS/Level_C_OE*%
X203200000Y-193040000D03*
D15*
%TO.P,D40,2,A*%
%TO.N,/Instruction Decoder/~{i5}*%
X205740000Y-193040000D03*
%TD*%
D14*
%TO.P,D36,1,K*%
%TO.N,/Instruction Decoder/READ*%
X198120000Y-193040000D03*
D15*
%TO.P,D36,2,A*%
%TO.N,/Instruction Decoder/~{i5}*%
X200660000Y-193040000D03*
%TD*%
D12*
%TO.P,IC23,1,I3*%
%TO.N,/Instruction Decoder/~{Carry_Flg}*%
X215900000Y-111760000D03*
D13*
%TO.P,IC23,2,I2*%
%TO.N,/Instruction Decoder/Carry_Flg*%
X218440000Y-111760000D03*
%TO.P,IC23,3,I1*%
%TO.N,GND*%
X220980000Y-111760000D03*
%TO.P,IC23,4,I0*%
%TO.N,VCC*%
X223520000Y-111760000D03*
%TO.P,IC23,5,Z*%
%TO.N,unconnected-(IC23-Z-Pad5)*%
X226060000Y-111760000D03*
%TO.P,IC23,6,~{Z}*%
%TO.N,/Instruction Decoder/~{JMP}*%
X228600000Y-111760000D03*
%TO.P,IC23,7,~{E}*%
%TO.N,/Instruction Decoder/~{is_JP_inst}*%
X231140000Y-111760000D03*
%TO.P,IC23,8,GND*%
%TO.N,GND*%
X233680000Y-111760000D03*
%TO.P,IC23,9,S2*%
%TO.N,/Address BUS/Instruction_2*%
X233680000Y-104140000D03*
%TO.P,IC23,10,S1*%
%TO.N,/Address BUS/Instruction_1*%
X231140000Y-104140000D03*
%TO.P,IC23,11,S0*%
%TO.N,/Address BUS/Instruction_0*%
X228600000Y-104140000D03*
%TO.P,IC23,12,I7*%
%TO.N,GND*%
X226060000Y-104140000D03*
%TO.P,IC23,13,I6*%
X223520000Y-104140000D03*
%TO.P,IC23,14,I5*%
%TO.N,/Instruction Decoder/~{Zero_Flg}*%
X220980000Y-104140000D03*
%TO.P,IC23,15,I4*%
%TO.N,/Instruction Decoder/Zero_Flg*%
X218440000Y-104140000D03*
%TO.P,IC23,16,VCC*%
%TO.N,VCC*%
X215900000Y-104140000D03*
%TD*%
D10*
%TO.P,LD11,1,K*%
%TO.N,Net-(LD11-K)*%
X182880000Y-78740000D03*
D11*
%TO.P,LD11,2*%
%TO.N,/Program Counter/PC_10*%
X182880000Y-81280000D03*
%TD*%
D14*
%TO.P,D18,1,K*%
%TO.N,Net-(D18-K)*%
X177800000Y-187960000D03*
D15*
%TO.P,D18,2,A*%
%TO.N,unconnected-(D18-A-Pad2)*%
X180340000Y-187960000D03*
%TD*%
D14*
%TO.P,D20,1,K*%
%TO.N,Net-(D18-K)*%
X177800000Y-193040000D03*
D15*
%TO.P,D20,2,A*%
%TO.N,/Address BUS/Instruction_5*%
X180340000Y-193040000D03*
%TD*%
D10*
%TO.P,LD2,1,K*%
%TO.N,Net-(LD2-K)*%
X233680000Y-184155000D03*
D11*
%TO.P,LD2,2*%
%TO.N,/Instruction Decoder/Zero_Flg*%
X233680000Y-181615000D03*
%TD*%
D16*
%TO.P,J2,1,Pin_1*%
%TO.N,Net-(J2-Pin_1)*%
X96520000Y-133985000D03*
%TD*%
D14*
%TO.P,D27,1,K*%
%TO.N,Net-(D26-K)*%
X187960000Y-190500000D03*
D15*
%TO.P,D27,2,A*%
%TO.N,/Instruction Decoder/~{i6}*%
X190500000Y-190500000D03*
%TD*%
D17*
%TO.P,CP7,1*%
%TO.N,VCC*%
X185420000Y-48300000D03*
%TO.P,CP7,2*%
%TO.N,GND*%
X185420000Y-50800000D03*
%TD*%
D10*
%TO.P,LD9,1,K*%
%TO.N,Net-(LD9-K)*%
X175260000Y-78740000D03*
D11*
%TO.P,LD9,2*%
%TO.N,/Program Counter/PC_7*%
X175260000Y-81280000D03*
%TD*%
D17*
%TO.P,CP8,1*%
%TO.N,VCC*%
X185420000Y-63500000D03*
%TO.P,CP8,2*%
%TO.N,GND*%
X185420000Y-66000000D03*
%TD*%
D10*
%TO.P,LD6,1,K*%
%TO.N,Net-(LD6-K)*%
X167640000Y-121920000D03*
D11*
%TO.P,LD6,2*%
%TO.N,Net-(IC9-2Y1)*%
X167640000Y-124460000D03*
%TD*%
D12*
%TO.P,IC5,1,Ea*%
%TO.N,GND*%
X160020000Y-53380000D03*
D13*
%TO.P,IC5,2,S1*%
%TO.N,/ALU/ALU_in_B1*%
X162560000Y-53380000D03*
%TO.P,IC5,3,I3a*%
%TO.N,/ALU/I3a*%
X165100000Y-53380000D03*
%TO.P,IC5,4,I2a*%
%TO.N,/ALU/I2a*%
X167640000Y-53380000D03*
%TO.P,IC5,5,I1a*%
%TO.N,/ALU/I1a*%
X170180000Y-53380000D03*
%TO.P,IC5,6,I0a*%
%TO.N,/ALU/I0a*%
X172720000Y-53380000D03*
%TO.P,IC5,7,Za*%
%TO.N,/ALU/Internal_A1*%
X175260000Y-53380000D03*
%TO.P,IC5,8,GND*%
%TO.N,GND*%
X177800000Y-53380000D03*
%TO.P,IC5,9,Zb*%
%TO.N,/ALU/Internal_B1*%
X177800000Y-45760000D03*
%TO.P,IC5,10,I0b*%
%TO.N,GND*%
X175260000Y-45760000D03*
%TO.P,IC5,11,I1b*%
%TO.N,VCC*%
X172720000Y-45760000D03*
%TO.P,IC5,12,I2b*%
%TO.N,GND*%
X170180000Y-45760000D03*
%TO.P,IC5,13,I3b*%
%TO.N,VCC*%
X167640000Y-45760000D03*
%TO.P,IC5,14,S0*%
%TO.N,/ALU/ALU_in_A1*%
X165100000Y-45760000D03*
%TO.P,IC5,15,Eb*%
%TO.N,/Instruction Decoder/ALU_~{Eb}*%
X162560000Y-45760000D03*
%TO.P,IC5,16,VCC*%
%TO.N,VCC*%
X160020000Y-45760000D03*
%TD*%
D12*
%TO.P,C1,1*%
%TO.N,VCC*%
X121920000Y-190540000D03*
D17*
%TO.P,C1,2*%
%TO.N,GND*%
X121920000Y-193040000D03*
%TD*%
D14*
%TO.P,D8,1,K*%
%TO.N,Net-(D6-K)*%
X162560000Y-193040000D03*
D15*
%TO.P,D8,2,A*%
%TO.N,/Address BUS/Instruction_5*%
X165100000Y-193040000D03*
%TD*%
D14*
%TO.P,D2,1,K*%
%TO.N,Net-(D2-K)*%
X157480000Y-187960000D03*
D15*
%TO.P,D2,2,A*%
%TO.N,/Address BUS/Instruction_7*%
X160020000Y-187960000D03*
%TD*%
D16*
%TO.P,JP1,1,A*%
%TO.N,VCC*%
X123190000Y-104140000D03*
D18*
%TO.P,JP1,2,C*%
%TO.N,Net-(IC1-A11)*%
X123190000Y-101600000D03*
%TO.P,JP1,3,B*%
%TO.N,/Data BUS/~{WR}*%
X123190000Y-99060000D03*
%TD*%
D19*
%TO.P,J1,1*%
%TO.N,Net-(F1-Pad1)*%
X106680000Y-190780000D03*
D20*
%TO.P,J1,2*%
%TO.N,GND*%
X100380000Y-190780000D03*
D21*
%TO.P,J1,3*%
%TO.N,N/C*%
X103780000Y-195580000D03*
%TD*%
D12*
%TO.P,IC21,1,Y1*%
%TO.N,/Instruction Decoder/Zero_Flg*%
X215900000Y-147320000D03*
D13*
%TO.P,IC21,2,Y0*%
%TO.N,/Data BUS/BUS_Zero*%
X218440000Y-147320000D03*
%TO.P,IC21,3,Z1*%
%TO.N,unconnected-(IC21-Z1-Pad3)*%
X220980000Y-147320000D03*
%TO.P,IC21,4,Z*%
%TO.N,unconnected-(IC21-Z-Pad4)*%
X223520000Y-147320000D03*
%TO.P,IC21,5,Z0*%
%TO.N,unconnected-(IC21-Z0-Pad5)*%
X226060000Y-147320000D03*
%TO.P,IC21,6,Inh*%
%TO.N,GND*%
X228600000Y-147320000D03*
%TO.P,IC21,7,VEE*%
X231140000Y-147320000D03*
%TO.P,IC21,8,VSS*%
X233680000Y-147320000D03*
%TO.P,IC21,9,C*%
X233680000Y-139700000D03*
%TO.P,IC21,10,B*%
%TO.N,/Address BUS/Instruction_0*%
X231140000Y-139700000D03*
%TO.P,IC21,11,A*%
%TO.N,/Instruction Decoder/ALU_~{Eb}*%
X228600000Y-139700000D03*
%TO.P,IC21,12,X0*%
%TO.N,/ALU/Carry_OUT*%
X226060000Y-139700000D03*
%TO.P,IC21,13,X1*%
%TO.N,/Instruction Decoder/Carry_Flg*%
X223520000Y-139700000D03*
%TO.P,IC21,14,X*%
%TO.N,Net-(IC19B-D)*%
X220980000Y-139700000D03*
%TO.P,IC21,15,Y*%
%TO.N,Net-(IC19A-D)*%
X218440000Y-139700000D03*
%TO.P,IC21,16,VDD*%
%TO.N,VCC*%
X215900000Y-139700000D03*
%TD*%
D12*
%TO.P,IC18,1*%
%TO.N,VCC*%
X218440000Y-170180000D03*
D13*
%TO.P,IC18,2*%
X220980000Y-170180000D03*
%TO.P,IC18,3*%
%TO.N,unconnected-(IC18-Pad3)*%
X223520000Y-170180000D03*
%TO.P,IC18,4*%
%TO.N,/Instruction Decoder/~{i7}*%
X226060000Y-170180000D03*
%TO.P,IC18,5*%
%TO.N,Net-(D6-K)*%
X228600000Y-170180000D03*
%TO.P,IC18,6*%
%TO.N,/Instruction Decoder/~{STACK_LE}*%
X231140000Y-170180000D03*
%TO.P,IC18,7,GND*%
%TO.N,GND*%
X233680000Y-170180000D03*
%TO.P,IC18,8*%
%TO.N,/ALU/I2a*%
X233680000Y-162560000D03*
%TO.P,IC18,9*%
%TO.N,/Instruction Decoder/~{i5}*%
X231140000Y-162560000D03*
%TO.P,IC18,10*%
%TO.N,Net-(D26-K)*%
X228600000Y-162560000D03*
%TO.P,IC18,11*%
%TO.N,/ALU/I3a*%
X226060000Y-162560000D03*
%TO.P,IC18,12*%
%TO.N,/Address BUS/Instruction_4*%
X223520000Y-162560000D03*
%TO.P,IC18,13*%
%TO.N,Net-(D30-K)*%
X220980000Y-162560000D03*
%TO.P,IC18,14,VCC*%
%TO.N,VCC*%
X218440000Y-162560000D03*
%TD*%
D14*
%TO.P,D32,1,K*%
%TO.N,Net-(D30-K)*%
X193040000Y-193040000D03*
D15*
%TO.P,D32,2,A*%
%TO.N,/Address BUS/Instruction_5*%
X195580000Y-193040000D03*
%TD*%
D12*
%TO.P,RN7,1,R1*%
%TO.N,GND*%
X233680000Y-76200000D03*
D13*
%TO.P,RN7,2,R1.2*%
%TO.N,Net-(LD28-K)*%
X231140000Y-76200000D03*
%TO.P,RN7,3,R2.2*%
%TO.N,Net-(LD29-K)*%
X228600000Y-76200000D03*
%TO.P,RN7,4,R3.2*%
%TO.N,Net-(LD30-K)*%
X226060000Y-76200000D03*
%TO.P,RN7,5,R4.2*%
%TO.N,Net-(LD31-K)*%
X223520000Y-76200000D03*
%TO.P,RN7,6,R5.2*%
%TO.N,Net-(LD32-K)*%
X220980000Y-76200000D03*
%TO.P,RN7,7,R6.2*%
%TO.N,Net-(LD33-K)*%
X218440000Y-76200000D03*
%TO.P,RN7,8,R7.2*%
%TO.N,Net-(LD34-K)*%
X215900000Y-76200000D03*
%TO.P,RN7,9,R8.2*%
%TO.N,Net-(LD35-K)*%
X213360000Y-76200000D03*
%TD*%
D14*
%TO.P,D41,1,K*%
%TO.N,/Data BUS/Level_C_OE*%
X203200000Y-195580000D03*
D15*
%TO.P,D41,2,A*%
%TO.N,unconnected-(D41-A-Pad2)*%
X205740000Y-195580000D03*
%TD*%
D10*
%TO.P,LD17,1,K*%
%TO.N,Net-(LD17-K)*%
X177800000Y-78740000D03*
D11*
%TO.P,LD17,2*%
%TO.N,/Program Counter/PC_8*%
X177800000Y-81280000D03*
%TD*%
D10*
%TO.P,LD23,1,K*%
%TO.N,Net-(LD23-K)*%
X106680000Y-33020000D03*
D11*
%TO.P,LD23,2*%
%TO.N,/Address BUS/RAM_A4*%
X106680000Y-35560000D03*
%TD*%
D22*
%TO.P,SW5,1,A*%
%TO.N,Net-(SW5-A)*%
X144780000Y-168910000D03*
D17*
%TO.P,SW5,2,B*%
%TO.N,Net-(SW5-B)*%
X147320000Y-168910000D03*
%TO.P,SW5,3,C*%
%TO.N,Net-(SW5-C)*%
X142240000Y-168910000D03*
%TD*%
D14*
%TO.P,D9,1,K*%
%TO.N,Net-(D6-K)*%
X162560000Y-195580000D03*
D15*
%TO.P,D9,2,A*%
%TO.N,unconnected-(D9-A-Pad2)*%
X165100000Y-195580000D03*
%TD*%
D10*
%TO.P,LD28,1,K*%
%TO.N,Net-(LD28-K)*%
X231140000Y-78740000D03*
D11*
%TO.P,LD28,2*%
%TO.N,/ALU/ALU_in_A0*%
X231140000Y-81280000D03*
%TD*%
D12*
%TO.P,C2,1*%
%TO.N,Net-(C2-Pad1)*%
X124460000Y-137160000D03*
D17*
%TO.P,C2,2*%
%TO.N,GND*%
X124460000Y-134660000D03*
%TD*%
D16*
%TO.P,J3,1,Pin_1*%
%TO.N,/Data BUS/~{RD}*%
X101600000Y-96520000D03*
D18*
%TO.P,J3,2,Pin_2*%
%TO.N,/Data BUS/~{WR}*%
X99060000Y-96520000D03*
%TO.P,J3,3,Pin_3*%
%TO.N,/Data BUS/Stack0*%
X101600000Y-93980000D03*
%TO.P,J3,4,Pin_4*%
%TO.N,/Data BUS/Stack1*%
X99060000Y-93980000D03*
%TO.P,J3,5,Pin_5*%
%TO.N,/Data BUS/Stack2*%
X101600000Y-91440000D03*
%TO.P,J3,6,Pin_6*%
%TO.N,/Data BUS/Stack3*%
X99060000Y-91440000D03*
%TO.P,J3,7,Pin_7*%
%TO.N,unconnected-(J3-Pin_7-Pad7)*%
X101600000Y-88900000D03*
%TO.P,J3,8,Pin_8*%
%TO.N,unconnected-(J3-Pin_8-Pad8)*%
X99060000Y-88900000D03*
%TO.P,J3,9,Pin_9*%
%TO.N,unconnected-(J3-Pin_9-Pad9)*%
X101600000Y-86360000D03*
%TO.P,J3,10,Pin_10*%
%TO.N,unconnected-(J3-Pin_10-Pad10)*%
X99060000Y-86360000D03*
%TO.P,J3,11,Pin_11*%
%TO.N,/Address BUS/RAM_A0*%
X101600000Y-83820000D03*
%TO.P,J3,12,Pin_12*%
%TO.N,/Address BUS/RAM_A1*%
X99060000Y-83820000D03*
%TO.P,J3,13,Pin_13*%
%TO.N,/Address BUS/RAM_A2*%
X101600000Y-81280000D03*
%TO.P,J3,14,Pin_14*%
%TO.N,/Address BUS/RAM_A3*%
X99060000Y-81280000D03*
%TO.P,J3,15,Pin_15*%
%TO.N,/Address BUS/RAM_A4*%
X101600000Y-78740000D03*
%TO.P,J3,16,Pin_16*%
%TO.N,/Address BUS/RAM_A5*%
X99060000Y-78740000D03*
%TO.P,J3,17,Pin_17*%
%TO.N,/Address BUS/RAM_A6*%
X101600000Y-76200000D03*
%TO.P,J3,18,Pin_18*%
%TO.N,/Address BUS/RAM_A7*%
X99060000Y-76200000D03*
%TO.P,J3,19,Pin_19*%
%TO.N,unconnected-(J3-Pin_19-Pad19)*%
X101600000Y-73660000D03*
%TO.P,J3,20,Pin_20*%
%TO.N,unconnected-(J3-Pin_20-Pad20)*%
X99060000Y-73660000D03*
%TO.P,J3,21,Pin_21*%
%TO.N,unconnected-(J3-Pin_21-Pad21)*%
X101600000Y-71120000D03*
%TO.P,J3,22,Pin_22*%
%TO.N,unconnected-(J3-Pin_22-Pad22)*%
X99060000Y-71120000D03*
%TO.P,J3,23,Pin_23*%
%TO.N,unconnected-(J3-Pin_23-Pad23)*%
X101600000Y-68580000D03*
%TO.P,J3,24,Pin_24*%
%TO.N,unconnected-(J3-Pin_24-Pad24)*%
X99060000Y-68580000D03*
%TO.P,J3,25,Pin_25*%
%TO.N,unconnected-(J3-Pin_25-Pad25)*%
X101600000Y-66040000D03*
%TO.P,J3,26,Pin_26*%
%TO.N,unconnected-(J3-Pin_26-Pad26)*%
X99060000Y-66040000D03*
%TO.P,J3,27,Pin_27*%
%TO.N,unconnected-(J3-Pin_27-Pad27)*%
X101600000Y-63500000D03*
%TO.P,J3,28,Pin_28*%
%TO.N,CLK2*%
X99060000Y-63500000D03*
%TO.P,J3,29,Pin_29*%
%TO.N,unconnected-(J3-Pin_29-Pad29)*%
X101600000Y-60960000D03*
%TO.P,J3,30,Pin_30*%
%TO.N,~{RESET}*%
X99060000Y-60960000D03*
%TO.P,J3,31,Pin_31*%
%TO.N,unconnected-(J3-Pin_31-Pad31)*%
X101600000Y-58420000D03*
%TO.P,J3,32,Pin_32*%
%TO.N,unconnected-(J3-Pin_32-Pad32)*%
X99060000Y-58420000D03*
%TO.P,J3,33,Pin_33*%
%TO.N,unconnected-(J3-Pin_33-Pad33)*%
X101600000Y-55880000D03*
%TO.P,J3,34,Pin_34*%
%TO.N,unconnected-(J3-Pin_34-Pad34)*%
X99060000Y-55880000D03*
%TO.P,J3,35,Pin_35*%
%TO.N,unconnected-(J3-Pin_35-Pad35)*%
X101600000Y-53340000D03*
%TO.P,J3,36,Pin_36*%
%TO.N,unconnected-(J3-Pin_36-Pad36)*%
X99060000Y-53340000D03*
%TO.P,J3,37,Pin_37*%
%TO.N,unconnected-(J3-Pin_37-Pad37)*%
X101600000Y-50800000D03*
%TO.P,J3,38,Pin_38*%
%TO.N,unconnected-(J3-Pin_38-Pad38)*%
X99060000Y-50800000D03*
%TO.P,J3,39,Pin_39*%
%TO.N,VCC*%
X101600000Y-48260000D03*
%TO.P,J3,40,Pin_40*%
%TO.N,GND*%
X99060000Y-48260000D03*
%TD*%
D17*
%TO.P,CP11,1*%
%TO.N,VCC*%
X213360000Y-33060000D03*
%TO.P,CP11,2*%
%TO.N,GND*%
X213360000Y-35560000D03*
%TD*%
D12*
%TO.P,RN4,1,R1*%
%TO.N,GND*%
X154940000Y-76200000D03*
D13*
%TO.P,RN4,2,R1.2*%
%TO.N,Net-(LD19-K)*%
X157480000Y-76200000D03*
%TO.P,RN4,3,R2.2*%
%TO.N,Net-(LD16-K)*%
X160020000Y-76200000D03*
%TO.P,RN4,4,R3.2*%
%TO.N,Net-(LD13-K)*%
X162560000Y-76200000D03*
%TO.P,RN4,5,R4.2*%
%TO.N,Net-(LD10-K)*%
X165100000Y-76200000D03*
%TO.P,RN4,6,R5.2*%
%TO.N,Net-(LD18-K)*%
X167640000Y-76200000D03*
%TO.P,RN4,7,R6.2*%
%TO.N,Net-(LD15-K)*%
X170180000Y-76200000D03*
%TO.P,RN4,8,R7.2*%
%TO.N,Net-(LD12-K)*%
X172720000Y-76200000D03*
%TO.P,RN4,9,R8.2*%
%TO.N,Net-(LD9-K)*%
X175260000Y-76200000D03*
%TD*%
D14*
%TO.P,D35,1,K*%
%TO.N,/Instruction Decoder/READ*%
X198120000Y-190500000D03*
D15*
%TO.P,D35,2,A*%
%TO.N,/Instruction Decoder/~{i6}*%
X200660000Y-190500000D03*
%TD*%
D22*
%TO.P,SW2,1,A*%
%TO.N,VCC*%
X134620000Y-63500000D03*
D17*
%TO.P,SW2,2,B*%
%TO.N,Net-(IC16-OE)*%
X137160000Y-63500000D03*
%TO.P,SW2,3,C*%
%TO.N,unconnected-(SW2-C-Pad3)*%
X132080000Y-63500000D03*
%TD*%
D10*
%TO.P,LD7,1,K*%
%TO.N,Net-(LD7-K)*%
X165100000Y-121960000D03*
D11*
%TO.P,LD7,2*%
%TO.N,Net-(IC9-2Y0)*%
X165100000Y-124500000D03*
%TD*%
D10*
%TO.P,LD10,1,K*%
%TO.N,Net-(LD10-K)*%
X165100000Y-78740000D03*
D11*
%TO.P,LD10,2*%
%TO.N,/Program Counter/PC_3*%
X165100000Y-81280000D03*
%TD*%
D12*
%TO.P,IC13,1,/CLR*%
%TO.N,~{RESET}*%
X205740000Y-88940000D03*
D13*
%TO.P,IC13,2,CK*%
%TO.N,CLK*%
X203200000Y-88940000D03*
%TO.P,IC13,3,A*%
%TO.N,/Data BUS/Level_C3*%
X200660000Y-88940000D03*
%TO.P,IC13,4,B*%
%TO.N,/Data BUS/Level_C2*%
X198120000Y-88940000D03*
%TO.P,IC13,5,C*%
%TO.N,/Data BUS/Level_C1*%
X195580000Y-88940000D03*
%TO.P,IC13,6,D*%
%TO.N,/Data BUS/Level_C0*%
X193040000Y-88940000D03*
%TO.P,IC13,7,ENP*%
%TO.N,VCC*%
X190500000Y-88940000D03*
%TO.P,IC13,8,GND*%
%TO.N,GND*%
X187960000Y-88940000D03*
%TO.P,IC13,9,/LOAD*%
%TO.N,/Instruction Decoder/~{JMP}*%
X187960000Y-96560000D03*
%TO.P,IC13,10,ENT*%
%TO.N,Net-(IC13-ENT)*%
X190500000Y-96560000D03*
%TO.P,IC13,11,QD*%
%TO.N,/Program Counter/PC_8*%
X193040000Y-96560000D03*
%TO.P,IC13,12,QC*%
%TO.N,/Program Counter/PC_9*%
X195580000Y-96560000D03*
%TO.P,IC13,13,QB*%
%TO.N,/Program Counter/PC_10*%
X198120000Y-96560000D03*
%TO.P,IC13,14,QA*%
%TO.N,/Program Counter/PC_11*%
X200660000Y-96560000D03*
%TO.P,IC13,15,CO*%
%TO.N,unconnected-(IC13-CO-Pad15)*%
X203200000Y-96560000D03*
%TO.P,IC13,16,VCC*%
%TO.N,VCC*%
X205740000Y-96560000D03*
%TD*%
D17*
%TO.P,CP1,1*%
%TO.N,VCC*%
X111760000Y-53340000D03*
%TO.P,CP1,2*%
%TO.N,GND*%
X109260000Y-53340000D03*
%TD*%
%TO.P,CP20,1*%
%TO.N,VCC*%
X157480000Y-142280000D03*
%TO.P,CP20,2*%
%TO.N,GND*%
X157480000Y-144780000D03*
%TD*%
D12*
%TO.P,IC6,1,Ea*%
%TO.N,GND*%
X160020000Y-68620000D03*
D13*
%TO.P,IC6,2,S1*%
%TO.N,/ALU/ALU_in_B0*%
X162560000Y-68620000D03*
%TO.P,IC6,3,I3a*%
%TO.N,/ALU/I3a*%
X165100000Y-68620000D03*
%TO.P,IC6,4,I2a*%
%TO.N,/ALU/I2a*%
X167640000Y-68620000D03*
%TO.P,IC6,5,I1a*%
%TO.N,/ALU/I1a*%
X170180000Y-68620000D03*
%TO.P,IC6,6,I0a*%
%TO.N,/ALU/I0a*%
X172720000Y-68620000D03*
%TO.P,IC6,7,Za*%
%TO.N,/ALU/Internal_A0*%
X175260000Y-68620000D03*
%TO.P,IC6,8,GND*%
%TO.N,GND*%
X177800000Y-68620000D03*
%TO.P,IC6,9,Zb*%
%TO.N,/ALU/Internal_B0*%
X177800000Y-61000000D03*
%TO.P,IC6,10,I0b*%
%TO.N,GND*%
X175260000Y-61000000D03*
%TO.P,IC6,11,I1b*%
%TO.N,VCC*%
X172720000Y-61000000D03*
%TO.P,IC6,12,I2b*%
%TO.N,GND*%
X170180000Y-61000000D03*
%TO.P,IC6,13,I3b*%
%TO.N,VCC*%
X167640000Y-61000000D03*
%TO.P,IC6,14,S0*%
%TO.N,/ALU/ALU_in_A0*%
X165100000Y-61000000D03*
%TO.P,IC6,15,Eb*%
%TO.N,/Instruction Decoder/ALU_~{Eb}*%
X162560000Y-61000000D03*
%TO.P,IC6,16,VCC*%
%TO.N,VCC*%
X160020000Y-61000000D03*
%TD*%
D10*
%TO.P,LD36,1,K*%
%TO.N,Net-(LD36-K)*%
X210820000Y-78740000D03*
D11*
%TO.P,LD36,2*%
%TO.N,/Data BUS/Level_C0*%
X210820000Y-81280000D03*
%TD*%
D12*
%TO.P,IC10,1*%
%TO.N,/ALU/I1a*%
X134874000Y-135382000D03*
D13*
%TO.P,IC10,2*%
%TO.N,Net-(D18-K)*%
X137414000Y-135382000D03*
%TO.P,IC10,3*%
X139954000Y-135382000D03*
%TO.P,IC10,4*%
%TO.N,Net-(D22-K)*%
X142494000Y-135382000D03*
%TO.P,IC10,5*%
X145034000Y-135382000D03*
%TO.P,IC10,6*%
%TO.N,N/C*%
X147574000Y-135382000D03*
%TO.P,IC10,7,VSS*%
%TO.N,GND*%
X150114000Y-135382000D03*
%TO.P,IC10,8*%
%TO.N,N/C*%
X150114000Y-127762000D03*
%TO.P,IC10,9*%
%TO.N,/Data BUS/Stack3*%
X147574000Y-127762000D03*
%TO.P,IC10,10*%
%TO.N,/Data BUS/Stack2*%
X145034000Y-127762000D03*
%TO.P,IC10,11*%
%TO.N,/Data BUS/Stack1*%
X142494000Y-127762000D03*
%TO.P,IC10,12*%
%TO.N,/Data BUS/Stack0*%
X139954000Y-127762000D03*
%TO.P,IC10,13*%
%TO.N,/Data BUS/BUS_Zero*%
X137414000Y-127762000D03*
%TO.P,IC10,14,VDD*%
%TO.N,VCC*%
X134874000Y-127762000D03*
%TD*%
D17*
%TO.P,CP22,1*%
%TO.N,VCC*%
X218400000Y-177800000D03*
%TO.P,CP22,2*%
%TO.N,GND*%
X215900000Y-177800000D03*
%TD*%
D23*
%TO.P,SW3,1,1*%
%TO.N,GND*%
X134620000Y-189080000D03*
X134620000Y-195580000D03*
%TO.P,SW3,2,2*%
%TO.N,Net-(R7-Pad2)*%
X130120000Y-189080000D03*
X130120000Y-195580000D03*
%TD*%
D10*
%TO.P,LD3,1,K*%
%TO.N,Net-(LD3-K)*%
X236220000Y-184150000D03*
D11*
%TO.P,LD3,2*%
%TO.N,/Instruction Decoder/Carry_Flg*%
X236220000Y-181610000D03*
%TD*%
D17*
%TO.P,CP17,1*%
%TO.N,VCC*%
X127000000Y-33020000D03*
%TO.P,CP17,2*%
%TO.N,GND*%
X127000000Y-35520000D03*
%TD*%
D14*
%TO.P,D39,1,K*%
%TO.N,/Data BUS/Level_C_OE*%
X203200000Y-190500000D03*
D15*
%TO.P,D39,2,A*%
%TO.N,/Instruction Decoder/~{i6}*%
X205740000Y-190500000D03*
%TD*%
D14*
%TO.P,D37,1,K*%
%TO.N,/Instruction Decoder/READ*%
X198120000Y-195580000D03*
D15*
%TO.P,D37,2,A*%
%TO.N,unconnected-(D37-A-Pad2)*%
X200660000Y-195580000D03*
%TD*%
D10*
%TO.P,LD30,1,K*%
%TO.N,Net-(LD30-K)*%
X226060000Y-78740000D03*
D11*
%TO.P,LD30,2*%
%TO.N,/ALU/ALU_in_A2*%
X226060000Y-81280000D03*
%TD*%
D17*
%TO.P,CP19,1*%
%TO.N,VCC*%
X185420000Y-142280000D03*
%TO.P,CP19,2*%
%TO.N,GND*%
X185420000Y-144780000D03*
%TD*%
D14*
%TO.P,D24,1,K*%
%TO.N,Net-(D22-K)*%
X182880000Y-193040000D03*
D15*
%TO.P,D24,2,A*%
%TO.N,/Address BUS/Instruction_5*%
X185420000Y-193040000D03*
%TD*%
D10*
%TO.P,LD27,1,K*%
%TO.N,Net-(LD27-K)*%
X116840000Y-33060000D03*
D11*
%TO.P,LD27,2*%
%TO.N,/Address BUS/RAM_A0*%
X116840000Y-35600000D03*
%TD*%
D10*
%TO.P,LD31,1,K*%
%TO.N,Net-(LD31-K)*%
X223520000Y-78740000D03*
D11*
%TO.P,LD31,2*%
%TO.N,/ALU/ALU_in_A3*%
X223520000Y-81280000D03*
%TD*%
D10*
%TO.P,LD26,1,K*%
%TO.N,Net-(LD26-K)*%
X114300000Y-33020000D03*
D11*
%TO.P,LD26,2*%
%TO.N,/Address BUS/RAM_A1*%
X114300000Y-35560000D03*
%TD*%
D17*
%TO.P,R3,1*%
%TO.N,Net-(LD3-K)*%
X236220000Y-187960000D03*
D13*
%TO.P,R3,2*%
%TO.N,GND*%
X236220000Y-195580000D03*
%TD*%
D10*
%TO.P,LD20,1,K*%
%TO.N,Net-(LD20-K)*%
X99060000Y-33065000D03*
D11*
%TO.P,LD20,2*%
%TO.N,/Address BUS/RAM_A7*%
X99060000Y-35605000D03*
%TD*%
D14*
%TO.P,D13,1,K*%
%TO.N,/Address BUS/MEMMode*%
X167640000Y-195580000D03*
D15*
%TO.P,D13,2,A*%
%TO.N,/Instruction Decoder/~{i4}*%
X170180000Y-195580000D03*
%TD*%
D17*
%TO.P,R12,1*%
%TO.N,Net-(SW5-B)*%
X147320000Y-166370000D03*
D13*
%TO.P,R12,2*%
%TO.N,CLK2*%
X147320000Y-158750000D03*
%TD*%
D10*
%TO.P,LD1,1,K*%
%TO.N,Net-(LD1-K)*%
X152400000Y-189230000D03*
D11*
%TO.P,LD1,2*%
%TO.N,VCC*%
X152400000Y-186690000D03*
%TD*%
D17*
%TO.P,R1,1*%
%TO.N,Net-(LD1-K)*%
X154940000Y-195580000D03*
D13*
%TO.P,R1,2*%
%TO.N,GND*%
X147320000Y-195580000D03*
%TD*%
D12*
%TO.P,RN1,1,common*%
%TO.N,VCC*%
X123190000Y-109220000D03*
D13*
%TO.P,RN1,2,R1*%
%TO.N,Net-(IC1-Q7)*%
X123190000Y-111760000D03*
%TO.P,RN1,3,R2*%
%TO.N,Net-(IC1-Q6)*%
X123190000Y-114300000D03*
%TO.P,RN1,4,R3*%
%TO.N,Net-(IC1-Q5)*%
X123190000Y-116840000D03*
%TO.P,RN1,5,R4*%
%TO.N,Net-(IC1-Q4)*%
X123190000Y-119380000D03*
%TD*%
D17*
%TO.P,R5,1*%
%TO.N,VCC*%
X193610000Y-170460000D03*
D13*
%TO.P,R5,2*%
%TO.N,/Instruction Decoder/READ*%
X201230000Y-170460000D03*
%TD*%
D14*
%TO.P,D15,1,K*%
%TO.N,/ALU/I0a*%
X172720000Y-190500000D03*
D15*
%TO.P,D15,2,A*%
%TO.N,/Address BUS/Instruction_6*%
X175260000Y-190500000D03*
%TD*%
D10*
%TO.P,LD24,1,K*%
%TO.N,Net-(LD24-K)*%
X109220000Y-33020000D03*
D11*
%TO.P,LD24,2*%
%TO.N,/Address BUS/RAM_A3*%
X109220000Y-35560000D03*
%TD*%
D17*
%TO.P,CP2,1*%
%TO.N,VCC*%
X223520000Y-130195000D03*
%TO.P,CP2,2*%
%TO.N,GND*%
X223520000Y-132695000D03*
%TD*%
D10*
%TO.P,LD12,1,K*%
%TO.N,Net-(LD12-K)*%
X172720000Y-78740000D03*
D11*
%TO.P,LD12,2*%
%TO.N,/Program Counter/PC_6*%
X172720000Y-81280000D03*
%TD*%
D10*
%TO.P,LD37,1,K*%
%TO.N,Net-(LD37-K)*%
X208280000Y-78740000D03*
D11*
%TO.P,LD37,2*%
%TO.N,/Data BUS/Level_C1*%
X208280000Y-81280000D03*
%TD*%
D14*
%TO.P,D11,1,K*%
%TO.N,/Address BUS/MEMMode*%
X167640000Y-190500000D03*
D15*
%TO.P,D11,2,A*%
%TO.N,/Instruction Decoder/~{i6}*%
X170180000Y-190500000D03*
%TD*%
D14*
%TO.P,D6,1,K*%
%TO.N,Net-(D6-K)*%
X162560000Y-187960000D03*
D15*
%TO.P,D6,2,A*%
%TO.N,/Address BUS/Instruction_7*%
X165100000Y-187960000D03*
%TD*%
D17*
%TO.P,CP21,1*%
%TO.N,VCC*%
X213360000Y-142240000D03*
%TO.P,CP21,2*%
%TO.N,GND*%
X213360000Y-144740000D03*
%TD*%
D12*
%TO.P,IC16,1,S*%
%TO.N,/Address BUS/MEMMode*%
X129540000Y-53340000D03*
D13*
%TO.P,IC16,2,I0a*%
%TO.N,GND*%
X132080000Y-53340000D03*
%TO.P,IC16,3,I1a*%
%TO.N,/ALU/ALU_in_B3*%
X134620000Y-53340000D03*
%TO.P,IC16,4,Za*%
%TO.N,/Address BUS/RAM_A7*%
X137160000Y-53340000D03*
%TO.P,IC16,5,I0b*%
%TO.N,GND*%
X139700000Y-53340000D03*
%TO.P,IC16,6,I1b*%
%TO.N,/ALU/ALU_in_B2*%
X142240000Y-53340000D03*
%TO.P,IC16,7,Zb*%
%TO.N,/Address BUS/RAM_A6*%
X144780000Y-53340000D03*
%TO.P,IC16,8,GND*%
%TO.N,GND*%
X147320000Y-53340000D03*
%TO.P,IC16,9,Zd*%
%TO.N,/Address BUS/RAM_A4*%
X147320000Y-45720000D03*
%TO.P,IC16,10,I1d*%
%TO.N,/ALU/ALU_in_B0*%
X144780000Y-45720000D03*
%TO.P,IC16,11,I0d*%
%TO.N,GND*%
X142240000Y-45720000D03*
%TO.P,IC16,12,Zc*%
%TO.N,/Address BUS/RAM_A5*%
X139700000Y-45720000D03*
%TO.P,IC16,13,I1c*%
%TO.N,/ALU/ALU_in_B1*%
X137160000Y-45720000D03*
%TO.P,IC16,14,I0c*%
%TO.N,GND*%
X134620000Y-45720000D03*
%TO.P,IC16,15,OE*%
%TO.N,Net-(IC16-OE)*%
X132080000Y-45720000D03*
%TO.P,IC16,16,VCC*%
%TO.N,VCC*%
X129540000Y-45720000D03*
%TD*%
D10*
%TO.P,LD38,1,K*%
%TO.N,Net-(LD38-K)*%
X205740000Y-78740000D03*
D11*
%TO.P,LD38,2*%
%TO.N,/Data BUS/Level_C2*%
X205740000Y-81280000D03*
%TD*%
D14*
%TO.P,D23,1,K*%
%TO.N,Net-(D22-K)*%
X182880000Y-190500000D03*
D15*
%TO.P,D23,2,A*%
%TO.N,/Address BUS/Instruction_6*%
X185420000Y-190500000D03*
%TD*%
D12*
%TO.P,IC4,1,Ea*%
%TO.N,GND*%
X160020000Y-38140000D03*
D13*
%TO.P,IC4,2,S1*%
%TO.N,/ALU/ALU_in_B2*%
X162560000Y-38140000D03*
%TO.P,IC4,3,I3a*%
%TO.N,/ALU/I3a*%
X165100000Y-38140000D03*
%TO.P,IC4,4,I2a*%
%TO.N,/ALU/I2a*%
X167640000Y-38140000D03*
%TO.P,IC4,5,I1a*%
%TO.N,/ALU/I1a*%
X170180000Y-38140000D03*
%TO.P,IC4,6,I0a*%
%TO.N,/ALU/I0a*%
X172720000Y-38140000D03*
%TO.P,IC4,7,Za*%
%TO.N,/ALU/Internal_A2*%
X175260000Y-38140000D03*
%TO.P,IC4,8,GND*%
%TO.N,GND*%
X177800000Y-38140000D03*
%TO.P,IC4,9,Zb*%
%TO.N,/ALU/Internal_B2*%
X177800000Y-30520000D03*
%TO.P,IC4,10,I0b*%
%TO.N,GND*%
X175260000Y-30520000D03*
%TO.P,IC4,11,I1b*%
%TO.N,VCC*%
X172720000Y-30520000D03*
%TO.P,IC4,12,I2b*%
%TO.N,GND*%
X170180000Y-30520000D03*
%TO.P,IC4,13,I3b*%
%TO.N,VCC*%
X167640000Y-30520000D03*
%TO.P,IC4,14,S0*%
%TO.N,/ALU/ALU_in_A2*%
X165100000Y-30520000D03*
%TO.P,IC4,15,Eb*%
%TO.N,/Instruction Decoder/ALU_~{Eb}*%
X162560000Y-30520000D03*
%TO.P,IC4,16,VCC*%
%TO.N,VCC*%
X160020000Y-30520000D03*
%TD*%
D12*
%TO.P,IC15,1,/CLR*%
%TO.N,~{RESET}*%
X205740000Y-104180000D03*
D13*
%TO.P,IC15,2,CK*%
%TO.N,CLK*%
X203200000Y-104180000D03*
%TO.P,IC15,3,A*%
%TO.N,/ALU/ALU_in_A3*%
X200660000Y-104180000D03*
%TO.P,IC15,4,B*%
%TO.N,/ALU/ALU_in_A2*%
X198120000Y-104180000D03*
%TO.P,IC15,5,C*%
%TO.N,/ALU/ALU_in_A1*%
X195580000Y-104180000D03*
%TO.P,IC15,6,D*%
%TO.N,/ALU/ALU_in_A0*%
X193040000Y-104180000D03*
%TO.P,IC15,7,ENP*%
%TO.N,VCC*%
X190500000Y-104180000D03*
%TO.P,IC15,8,GND*%
%TO.N,GND*%
X187960000Y-104180000D03*
%TO.P,IC15,9,/LOAD*%
%TO.N,/Instruction Decoder/~{JMP}*%
X187960000Y-111800000D03*
%TO.P,IC15,10,ENT*%
%TO.N,VCC*%
X190500000Y-111800000D03*
%TO.P,IC15,11,QD*%
%TO.N,/Program Counter/PC_0*%
X193040000Y-111800000D03*
%TO.P,IC15,12,QC*%
%TO.N,/Program Counter/PC_1*%
X195580000Y-111800000D03*
%TO.P,IC15,13,QB*%
%TO.N,/Program Counter/PC_2*%
X198120000Y-111800000D03*
%TO.P,IC15,14,QA*%
%TO.N,/Program Counter/PC_3*%
X200660000Y-111800000D03*
%TO.P,IC15,15,CO*%
%TO.N,Net-(IC14-ENT)*%
X203200000Y-111800000D03*
%TO.P,IC15,16,VCC*%
%TO.N,VCC*%
X205740000Y-111800000D03*
%TD*%
D14*
%TO.P,D30,1,K*%
%TO.N,Net-(D30-K)*%
X193040000Y-187960000D03*
D15*
%TO.P,D30,2,A*%
%TO.N,unconnected-(D30-A-Pad2)*%
X195580000Y-187960000D03*
%TD*%
D10*
%TO.P,LD29,1,K*%
%TO.N,Net-(LD29-K)*%
X228600000Y-78740000D03*
D11*
%TO.P,LD29,2*%
%TO.N,/ALU/ALU_in_A1*%
X228600000Y-81280000D03*
%TD*%
D12*
%TO.P,IC22,1*%
%TO.N,/Address BUS/Instruction_7*%
X213360000Y-180340000D03*
D13*
%TO.P,IC22,2*%
%TO.N,/Instruction Decoder/~{i7}*%
X213360000Y-182880000D03*
%TO.P,IC22,3*%
%TO.N,/Address BUS/Instruction_5*%
X213360000Y-185420000D03*
%TO.P,IC22,4*%
%TO.N,/Instruction Decoder/~{i5}*%
X213360000Y-187960000D03*
%TO.P,IC22,5*%
%TO.N,Net-(D6-K)*%
X213360000Y-190500000D03*
%TO.P,IC22,6*%
%TO.N,/Instruction Decoder/~{is_JP_inst}*%
X213360000Y-193040000D03*
%TO.P,IC22,7,GND*%
%TO.N,GND*%
X213360000Y-195580000D03*
%TO.P,IC22,8*%
%TO.N,/Data BUS/~{Immediate_OE}*%
X220980000Y-195580000D03*
%TO.P,IC22,9*%
%TO.N,Net-(D2-K)*%
X220980000Y-193040000D03*
%TO.P,IC22,10*%
%TO.N,/Instruction Decoder/~{i4}*%
X220980000Y-190500000D03*
%TO.P,IC22,11*%
%TO.N,/Address BUS/Instruction_4*%
X220980000Y-187960000D03*
%TO.P,IC22,12*%
%TO.N,/Instruction Decoder/~{i6}*%
X220980000Y-185420000D03*
%TO.P,IC22,13*%
%TO.N,/Address BUS/Instruction_6*%
X220980000Y-182880000D03*
%TO.P,IC22,14,VCC*%
%TO.N,VCC*%
X220980000Y-180340000D03*
%TD*%
D14*
%TO.P,D14,1,K*%
%TO.N,/ALU/I0a*%
X172720000Y-187960000D03*
D15*
%TO.P,D14,2,A*%
%TO.N,unconnected-(D14-A-Pad2)*%
X175260000Y-187960000D03*
%TD*%
D17*
%TO.P,CP18,1*%
%TO.N,VCC*%
X215900000Y-165100000D03*
%TO.P,CP18,2*%
%TO.N,GND*%
X215900000Y-167600000D03*
%TD*%
D22*
%TO.P,SW1,1,A*%
%TO.N,GND*%
X99060000Y-128270000D03*
D17*
%TO.P,SW1,2,B*%
%TO.N,Net-(IC1-~{CS})*%
X101600000Y-128270000D03*
%TO.P,SW1,3,C*%
%TO.N,Net-(J2-Pin_1)*%
X96520000Y-128270000D03*
%TD*%
D12*
%TO.P,IC14,1,/CLR*%
%TO.N,~{RESET}*%
X233680000Y-88900000D03*
D13*
%TO.P,IC14,2,CK*%
%TO.N,CLK*%
X231140000Y-88900000D03*
%TO.P,IC14,3,A*%
%TO.N,/ALU/ALU_in_B3*%
X228600000Y-88900000D03*
%TO.P,IC14,4,B*%
%TO.N,/ALU/ALU_in_B2*%
X226060000Y-88900000D03*
%TO.P,IC14,5,C*%
%TO.N,/ALU/ALU_in_B1*%
X223520000Y-88900000D03*
%TO.P,IC14,6,D*%
%TO.N,/ALU/ALU_in_B0*%
X220980000Y-88900000D03*
%TO.P,IC14,7,ENP*%
%TO.N,VCC*%
X218440000Y-88900000D03*
%TO.P,IC14,8,GND*%
%TO.N,GND*%
X215900000Y-88900000D03*
%TO.P,IC14,9,/LOAD*%
%TO.N,/Instruction Decoder/~{JMP}*%
X215900000Y-96520000D03*
%TO.P,IC14,10,ENT*%
%TO.N,Net-(IC14-ENT)*%
X218440000Y-96520000D03*
%TO.P,IC14,11,QD*%
%TO.N,/Program Counter/PC_4*%
X220980000Y-96520000D03*
%TO.P,IC14,12,QC*%
%TO.N,/Program Counter/PC_5*%
X223520000Y-96520000D03*
%TO.P,IC14,13,QB*%
%TO.N,/Program Counter/PC_6*%
X226060000Y-96520000D03*
%TO.P,IC14,14,QA*%
%TO.N,/Program Counter/PC_7*%
X228600000Y-96520000D03*
%TO.P,IC14,15,CO*%
%TO.N,Net-(IC13-ENT)*%
X231140000Y-96520000D03*
%TO.P,IC14,16,VCC*%
%TO.N,VCC*%
X233680000Y-96520000D03*
%TD*%
D17*
%TO.P,R2,1*%
%TO.N,Net-(LD2-K)*%
X233680000Y-187960000D03*
D13*
%TO.P,R2,2*%
%TO.N,GND*%
X233680000Y-195580000D03*
%TD*%
D14*
%TO.P,D26,1,K*%
%TO.N,Net-(D26-K)*%
X187960000Y-187960000D03*
D15*
%TO.P,D26,2,A*%
%TO.N,unconnected-(D26-A-Pad2)*%
X190500000Y-187960000D03*
%TD*%
D10*
%TO.P,LD21,1,K*%
%TO.N,Net-(LD21-K)*%
X101600000Y-33020000D03*
D11*
%TO.P,LD21,2*%
%TO.N,/Address BUS/RAM_A6*%
X101600000Y-35560000D03*
%TD*%
D17*
%TO.P,R10,1*%
%TO.N,Net-(R10-Pad1)*%
X143510000Y-177800000D03*
D13*
%TO.P,R10,2*%
%TO.N,Net-(C3-Pad1)*%
X135890000Y-177800000D03*
%TD*%
D12*
%TO.P,IC12,1,~{E}*%
%TO.N,/Instruction Decoder/~{STACK_LE}*%
X215900000Y-53380000D03*
D13*
%TO.P,IC12,2,Q0*%
%TO.N,/ALU/ALU_in_B0*%
X218440000Y-53380000D03*
%TO.P,IC12,3,D0*%
%TO.N,/ALU/ALU_in_A0*%
X220980000Y-53380000D03*
%TO.P,IC12,4,D1*%
%TO.N,/ALU/ALU_in_A1*%
X223520000Y-53380000D03*
%TO.P,IC12,5,Q1*%
%TO.N,/ALU/ALU_in_B1*%
X226060000Y-53380000D03*
%TO.P,IC12,6,Q2*%
%TO.N,/ALU/ALU_in_B2*%
X228600000Y-53380000D03*
%TO.P,IC12,7,D2*%
%TO.N,/ALU/ALU_in_A2*%
X231140000Y-53380000D03*
%TO.P,IC12,8,D3*%
%TO.N,/ALU/ALU_in_A3*%
X233680000Y-53380000D03*
%TO.P,IC12,9,Q3*%
%TO.N,/ALU/ALU_in_B3*%
X236220000Y-53380000D03*
%TO.P,IC12,10,GND*%
%TO.N,GND*%
X238760000Y-53380000D03*
%TO.P,IC12,11,CP*%
%TO.N,CLK*%
X238760000Y-45760000D03*
%TO.P,IC12,12,Q4*%
%TO.N,/Data BUS/Level_C0*%
X236220000Y-45760000D03*
%TO.P,IC12,13,D4*%
%TO.N,/ALU/ALU_in_B3*%
X233680000Y-45760000D03*
%TO.P,IC12,14,D5*%
%TO.N,/ALU/ALU_in_B2*%
X231140000Y-45760000D03*
%TO.P,IC12,15,Q5*%
%TO.N,/Data BUS/Level_C1*%
X228600000Y-45760000D03*
%TO.P,IC12,16,Q6*%
%TO.N,/Data BUS/Level_C2*%
X226060000Y-45760000D03*
%TO.P,IC12,17,D6*%
%TO.N,/ALU/ALU_in_B1*%
X223520000Y-45760000D03*
%TO.P,IC12,18,D7*%
%TO.N,/ALU/ALU_in_B0*%
X220980000Y-45760000D03*
%TO.P,IC12,19,Q7*%
%TO.N,/Data BUS/Level_C3*%
X218440000Y-45760000D03*
%TO.P,IC12,20,VCC*%
%TO.N,VCC*%
X215900000Y-45760000D03*
%TD*%
D10*
%TO.P,LD13,1,K*%
%TO.N,Net-(LD13-K)*%
X162560000Y-78740000D03*
D11*
%TO.P,LD13,2*%
%TO.N,/Program Counter/PC_2*%
X162560000Y-81280000D03*
%TD*%
D12*
%TO.P,IC7,1,S2*%
%TO.N,/ALU/ALU_OUT1*%
X187960000Y-53380000D03*
D13*
%TO.P,IC7,2,B2*%
%TO.N,/ALU/Internal_B1*%
X190500000Y-53380000D03*
%TO.P,IC7,3,A2*%
%TO.N,/ALU/Internal_A1*%
X193040000Y-53380000D03*
%TO.P,IC7,4,S1*%
%TO.N,/ALU/ALU_OUT0*%
X195580000Y-53380000D03*
%TO.P,IC7,5,A1*%
%TO.N,/ALU/Internal_A0*%
X198120000Y-53380000D03*
%TO.P,IC7,6,B1*%
%TO.N,/ALU/Internal_B0*%
X200660000Y-53380000D03*
%TO.P,IC7,7,C0*%
%TO.N,/Instruction Decoder/Carry_Flg*%
X203200000Y-53380000D03*
%TO.P,IC7,8,GND*%
%TO.N,GND*%
X205740000Y-53380000D03*
%TO.P,IC7,9,C4*%
%TO.N,/ALU/Carry_OUT*%
X205740000Y-45760000D03*
%TO.P,IC7,10,S4*%
%TO.N,/ALU/ALU_OUT3*%
X203200000Y-45760000D03*
%TO.P,IC7,11,B4*%
%TO.N,/ALU/Internal_B3*%
X200660000Y-45760000D03*
%TO.P,IC7,12,A4*%
%TO.N,/ALU/Internal_A3*%
X198120000Y-45760000D03*
%TO.P,IC7,13,S3*%
%TO.N,/ALU/ALU_OUT2*%
X195580000Y-45760000D03*
%TO.P,IC7,14,A3*%
%TO.N,/ALU/Internal_A2*%
X193040000Y-45760000D03*
%TO.P,IC7,15,B3*%
%TO.N,/ALU/Internal_B2*%
X190500000Y-45760000D03*
%TO.P,IC7,16,VCC*%
%TO.N,VCC*%
X187960000Y-45760000D03*
%TD*%
D10*
%TO.P,LD32,1,K*%
%TO.N,Net-(LD32-K)*%
X220980000Y-78740000D03*
D11*
%TO.P,LD32,2*%
%TO.N,/ALU/ALU_in_B0*%
X220980000Y-81280000D03*
%TD*%
D14*
%TO.P,D28,1,K*%
%TO.N,Net-(D26-K)*%
X187960000Y-193040000D03*
D15*
%TO.P,D28,2,A*%
%TO.N,unconnected-(D28-A-Pad2)*%
X190500000Y-193040000D03*
%TD*%
D17*
%TO.P,CP16,1*%
%TO.N,VCC*%
X127000000Y-48300000D03*
%TO.P,CP16,2*%
%TO.N,GND*%
X127000000Y-50800000D03*
%TD*%
D10*
%TO.P,LD16,1,K*%
%TO.N,Net-(LD16-K)*%
X160020000Y-78740000D03*
D11*
%TO.P,LD16,2*%
%TO.N,/Program Counter/PC_1*%
X160020000Y-81280000D03*
%TD*%
D17*
%TO.P,CP6,1*%
%TO.N,VCC*%
X185420000Y-33020000D03*
%TO.P,CP6,2*%
%TO.N,GND*%
X185420000Y-35520000D03*
%TD*%
D14*
%TO.P,D12,1,K*%
%TO.N,/Address BUS/MEMMode*%
X167640000Y-193040000D03*
D15*
%TO.P,D12,2,A*%
%TO.N,/Instruction Decoder/~{i5}*%
X170180000Y-193040000D03*
%TD*%
D14*
%TO.P,D17,1,K*%
%TO.N,/ALU/I0a*%
X172720000Y-195580000D03*
D15*
%TO.P,D17,2,A*%
%TO.N,/Instruction Decoder/~{i4}*%
X175260000Y-195580000D03*
%TD*%
D12*
%TO.P,RN3,1,R1*%
%TO.N,GND*%
X189230000Y-76200000D03*
D13*
%TO.P,RN3,2,R1.2*%
%TO.N,Net-(LD8-K)*%
X186690000Y-76200000D03*
%TO.P,RN3,3,R2.2*%
%TO.N,Net-(LD11-K)*%
X184150000Y-76200000D03*
%TO.P,RN3,4,R3.2*%
%TO.N,Net-(LD14-K)*%
X181610000Y-76200000D03*
%TO.P,RN3,5,R4.2*%
%TO.N,Net-(LD17-K)*%
X179070000Y-76200000D03*
%TD*%
D17*
%TO.P,R8,1*%
%TO.N,VCC*%
X147900000Y-186540000D03*
D13*
%TO.P,R8,2*%
%TO.N,Net-(R10-Pad1)*%
X140280000Y-186540000D03*
%TD*%
D12*
%TO.P,IC24,1*%
%TO.N,Net-(C4-Pad1)*%
X114300000Y-180340000D03*
D13*
%TO.P,IC24,2*%
%TO.N,Net-(IC24-Pad2)*%
X116840000Y-180340000D03*
%TO.P,IC24,3*%
X119380000Y-180340000D03*
%TO.P,IC24,4*%
%TO.N,Net-(SW5-A)*%
X121920000Y-180340000D03*
%TO.P,IC24,5*%
%TO.N,Net-(C3-Pad1)*%
X124460000Y-180340000D03*
%TO.P,IC24,6*%
%TO.N,Net-(IC24-Pad6)*%
X127000000Y-180340000D03*
%TO.P,IC24,7,GND*%
%TO.N,GND*%
X129540000Y-180340000D03*
%TO.P,IC24,8*%
%TO.N,~{RESET}*%
X129540000Y-172720000D03*
%TO.P,IC24,9*%
%TO.N,Net-(IC24-Pad6)*%
X127000000Y-172720000D03*
%TO.P,IC24,10*%
%TO.N,Net-(SW5-C)*%
X124460000Y-172720000D03*
%TO.P,IC24,11*%
%TO.N,Net-(C2-Pad1)*%
X121920000Y-172720000D03*
%TO.P,IC24,12*%
%TO.N,Net-(IC24-Pad12)*%
X119380000Y-172720000D03*
%TO.P,IC24,13*%
%TO.N,CLK2*%
X116840000Y-172720000D03*
%TO.P,IC24,14,VCC*%
%TO.N,VCC*%
X114300000Y-172720000D03*
%TD*%
D17*
%TO.P,CP12,1*%
%TO.N,VCC*%
X213360000Y-48300000D03*
%TO.P,CP12,2*%
%TO.N,GND*%
X213360000Y-50800000D03*
%TD*%
D12*
%TO.P,IC20,1*%
%TO.N,/Instruction Decoder/READ*%
X160020000Y-147320000D03*
D13*
%TO.P,IC20,2*%
%TO.N,CLK2*%
X162560000Y-147320000D03*
%TO.P,IC20,3*%
%TO.N,/Data BUS/~{RD}*%
X165100000Y-147320000D03*
%TO.P,IC20,4*%
%TO.N,/Address BUS/Instruction_7*%
X167640000Y-147320000D03*
%TO.P,IC20,5*%
%TO.N,CLK2*%
X170180000Y-147320000D03*
%TO.P,IC20,6*%
%TO.N,/Data BUS/~{WR}*%
X172720000Y-147320000D03*
%TO.P,IC20,7,GND*%
%TO.N,GND*%
X175260000Y-147320000D03*
%TO.P,IC20,8*%
%TO.N,unconnected-(IC20-Pad8)*%
X175260000Y-139700000D03*
%TO.P,IC20,9*%
%TO.N,VCC*%
X172720000Y-139700000D03*
%TO.P,IC20,10*%
X170180000Y-139700000D03*
%TO.P,IC20,11*%
%TO.N,/Instruction Decoder/ALU_~{Eb}*%
X167640000Y-139700000D03*
%TO.P,IC20,12*%
%TO.N,/Address BUS/Instruction_5*%
X165100000Y-139700000D03*
%TO.P,IC20,13*%
%TO.N,/Instruction Decoder/~{i6}*%
X162560000Y-139700000D03*
%TO.P,IC20,14,VCC*%
%TO.N,VCC*%
X160020000Y-139700000D03*
%TD*%
D17*
%TO.P,R11,1*%
%TO.N,Net-(C4-Pad1)*%
X101600000Y-143510000D03*
D13*
%TO.P,R11,2*%
%TO.N,Net-(IC24-Pad2)*%
X101600000Y-151130000D03*
%TD*%
D10*
%TO.P,LD15,1,K*%
%TO.N,Net-(LD15-K)*%
X170180000Y-78740000D03*
D11*
%TO.P,LD15,2*%
%TO.N,/Program Counter/PC_5*%
X170180000Y-81280000D03*
%TD*%
D10*
%TO.P,LD5,1,K*%
%TO.N,Net-(LD5-K)*%
X170180000Y-121920000D03*
D11*
%TO.P,LD5,2*%
%TO.N,Net-(IC9-2Y2)*%
X170180000Y-124460000D03*
%TD*%
D12*
%TO.P,RN5,1,R1*%
%TO.N,GND*%
X96520000Y-30480000D03*
D13*
%TO.P,RN5,2,R1.2*%
%TO.N,Net-(LD20-K)*%
X99060000Y-30480000D03*
%TO.P,RN5,3,R2.2*%
%TO.N,Net-(LD21-K)*%
X101600000Y-30480000D03*
%TO.P,RN5,4,R3.2*%
%TO.N,Net-(LD22-K)*%
X104140000Y-30480000D03*
%TO.P,RN5,5,R4.2*%
%TO.N,Net-(LD23-K)*%
X106680000Y-30480000D03*
%TO.P,RN5,6,R5.2*%
%TO.N,Net-(LD24-K)*%
X109220000Y-30480000D03*
%TO.P,RN5,7,R6.2*%
%TO.N,Net-(LD25-K)*%
X111760000Y-30480000D03*
%TO.P,RN5,8,R7.2*%
%TO.N,Net-(LD26-K)*%
X114300000Y-30480000D03*
%TO.P,RN5,9,R8.2*%
%TO.N,Net-(LD27-K)*%
X116840000Y-30480000D03*
%TD*%
D14*
%TO.P,D10,1,K*%
%TO.N,/Address BUS/MEMMode*%
X167640000Y-187960000D03*
D15*
%TO.P,D10,2,A*%
%TO.N,unconnected-(D10-A-Pad2)*%
X170180000Y-187960000D03*
%TD*%
D17*
%TO.P,R3,1*%
%TO.N,VCC*%
X193610000Y-166650000D03*
D13*
%TO.P,R3,2*%
%TO.N,Net-(D34-K)*%
X201230000Y-166650000D03*
%TD*%
D12*
%TO.P,IC1,1,A14*%
%TO.N,VCC*%
X106680000Y-57160000D03*
D13*
%TO.P,IC1,2,A12*%
X106680000Y-59700000D03*
%TO.P,IC1,3,A7*%
%TO.N,/Address BUS/RAM_A7*%
X106680000Y-62240000D03*
%TO.P,IC1,4,A6*%
%TO.N,/Address BUS/RAM_A6*%
X106680000Y-64780000D03*
%TO.P,IC1,5,A5*%
%TO.N,/Address BUS/RAM_A5*%
X106680000Y-67320000D03*
%TO.P,IC1,6,A4*%
%TO.N,/Address BUS/RAM_A4*%
X106680000Y-69860000D03*
%TO.P,IC1,7,A3*%
%TO.N,/Address BUS/RAM_A3*%
X106680000Y-72400000D03*
%TO.P,IC1,8,A2*%
%TO.N,/Address BUS/RAM_A2*%
X106680000Y-74940000D03*
%TO.P,IC1,9,A1*%
%TO.N,/Address BUS/RAM_A1*%
X106680000Y-77480000D03*
%TO.P,IC1,10,A0*%
%TO.N,/Address BUS/RAM_A0*%
X106680000Y-80020000D03*
%TO.P,IC1,11,Q0*%
%TO.N,/Data BUS/Stack0*%
X106680000Y-82560000D03*
%TO.P,IC1,12,Q1*%
%TO.N,/Data BUS/Stack1*%
X106680000Y-85100000D03*
%TO.P,IC1,13,Q2*%
%TO.N,/Data BUS/Stack2*%
X106680000Y-87640000D03*
%TO.P,IC1,14,GND*%
%TO.N,GND*%
X106680000Y-90180000D03*
%TO.P,IC1,15,Q3*%
%TO.N,/Data BUS/Stack3*%
X121920000Y-90180000D03*
%TO.P,IC1,16,Q4*%
%TO.N,Net-(IC1-Q4)*%
X121920000Y-87640000D03*
%TO.P,IC1,17,Q5*%
%TO.N,Net-(IC1-Q5)*%
X121920000Y-85100000D03*
%TO.P,IC1,18,Q6*%
%TO.N,Net-(IC1-Q6)*%
X121920000Y-82560000D03*
%TO.P,IC1,19,Q7*%
%TO.N,Net-(IC1-Q7)*%
X121920000Y-80020000D03*
%TO.P,IC1,20,~{CS}*%
%TO.N,Net-(IC1-~{CS})*%
X121920000Y-77480000D03*
%TO.P,IC1,21,A10*%
%TO.N,VCC*%
X121920000Y-74940000D03*
%TO.P,IC1,22,~{OE}*%
%TO.N,/Data BUS/~{RD}*%
X121920000Y-72400000D03*
%TO.P,IC1,23,A11*%
%TO.N,Net-(IC1-A11)*%
X121920000Y-69860000D03*
%TO.P,IC1,24,A9*%
%TO.N,VCC*%
X121920000Y-67320000D03*
%TO.P,IC1,25,A8*%
X121920000Y-64780000D03*
%TO.P,IC1,26,A13*%
X121920000Y-62240000D03*
%TO.P,IC1,27,~{WE}*%
%TO.N,/Data BUS/~{WR}*%
X121920000Y-59700000D03*
%TO.P,IC1,28,VCC*%
%TO.N,VCC*%
X121920000Y-57160000D03*
%TD*%
D14*
%TO.P,D25,1,K*%
%TO.N,Net-(D22-K)*%
X182880000Y-195580000D03*
D15*
%TO.P,D25,2,A*%
%TO.N,/Instruction Decoder/~{i4}*%
X185420000Y-195580000D03*
%TD*%
D10*
%TO.P,LD18,1,K*%
%TO.N,Net-(LD18-K)*%
X167640000Y-78740000D03*
D11*
%TO.P,LD18,2*%
%TO.N,/Program Counter/PC_4*%
X167640000Y-81280000D03*
%TD*%
D14*
%TO.P,D29,1,K*%
%TO.N,Net-(D26-K)*%
X187960000Y-195580000D03*
D15*
%TO.P,D29,2,A*%
%TO.N,/Address BUS/Instruction_4*%
X190500000Y-195580000D03*
%TD*%
D17*
%TO.P,R7,1*%
%TO.N,VCC*%
X137740000Y-186540000D03*
D13*
%TO.P,R7,2*%
%TO.N,Net-(R7-Pad2)*%
X130120000Y-186540000D03*
%TD*%
D17*
%TO.P,CP3,1*%
%TO.N,VCC*%
X157480000Y-63540000D03*
%TO.P,CP3,2*%
%TO.N,GND*%
X157480000Y-66040000D03*
%TD*%
D10*
%TO.P,LD4,1,K*%
%TO.N,Net-(LD4-K)*%
X172720000Y-121920000D03*
D11*
%TO.P,LD4,2*%
%TO.N,Net-(IC9-2Y3)*%
X172720000Y-124460000D03*
%TD*%
D17*
%TO.P,R13,1*%
%TO.N,Net-(IC24-Pad12)*%
X123190000Y-128270000D03*
D13*
%TO.P,R13,2*%
%TO.N,CLK*%
X115570000Y-128270000D03*
%TD*%
D14*
%TO.P,D19,1,K*%
%TO.N,Net-(D18-K)*%
X177800000Y-190500000D03*
D15*
%TO.P,D19,2,A*%
%TO.N,/Instruction Decoder/~{i6}*%
X180340000Y-190500000D03*
%TD*%
D12*
%TO.P,IC3,1,Ea*%
%TO.N,GND*%
X187960000Y-38100000D03*
D13*
%TO.P,IC3,2,S1*%
%TO.N,/ALU/ALU_in_B3*%
X190500000Y-38100000D03*
%TO.P,IC3,3,I3a*%
%TO.N,/ALU/I3a*%
X193040000Y-38100000D03*
%TO.P,IC3,4,I2a*%
%TO.N,/ALU/I2a*%
X195580000Y-38100000D03*
%TO.P,IC3,5,I1a*%
%TO.N,/ALU/I1a*%
X198120000Y-38100000D03*
%TO.P,IC3,6,I0a*%
%TO.N,/ALU/I0a*%
X200660000Y-38100000D03*
%TO.P,IC3,7,Za*%
%TO.N,/ALU/Internal_A3*%
X203200000Y-38100000D03*
%TO.P,IC3,8,GND*%
%TO.N,GND*%
X205740000Y-38100000D03*
%TO.P,IC3,9,Zb*%
%TO.N,/ALU/Internal_B3*%
X205740000Y-30480000D03*
%TO.P,IC3,10,I0b*%
%TO.N,GND*%
X203200000Y-30480000D03*
%TO.P,IC3,11,I1b*%
%TO.N,VCC*%
X200660000Y-30480000D03*
%TO.P,IC3,12,I2b*%
%TO.N,GND*%
X198120000Y-30480000D03*
%TO.P,IC3,13,I3b*%
%TO.N,VCC*%
X195580000Y-30480000D03*
%TO.P,IC3,14,S0*%
%TO.N,/ALU/ALU_in_A3*%
X193040000Y-30480000D03*
%TO.P,IC3,15,Eb*%
%TO.N,/Instruction Decoder/ALU_~{Eb}*%
X190500000Y-30480000D03*
%TO.P,IC3,16,VCC*%
%TO.N,VCC*%
X187960000Y-30480000D03*
%TD*%
D17*
%TO.P,CP9,1*%
%TO.N,VCC*%
X152400000Y-106720000D03*
%TO.P,CP9,2*%
%TO.N,GND*%
X152400000Y-109220000D03*
%TD*%
D14*
%TO.P,D7,1,K*%
%TO.N,Net-(D6-K)*%
X162560000Y-190500000D03*
D15*
%TO.P,D7,2,A*%
%TO.N,/Address BUS/Instruction_6*%
X165100000Y-190500000D03*
%TD*%
D10*
%TO.P,LD8,1,K*%
%TO.N,Net-(LD8-K)*%
X185420000Y-78740000D03*
D11*
%TO.P,LD8,2*%
%TO.N,/Program Counter/PC_11*%
X185420000Y-81280000D03*
%TD*%
D17*
%TO.P,CP13,1*%
%TO.N,VCC*%
X185420000Y-94020000D03*
%TO.P,CP13,2*%
%TO.N,GND*%
X185420000Y-91520000D03*
%TD*%
%TO.P,CP23,1*%
%TO.N,VCC*%
X213360000Y-106680000D03*
%TO.P,CP23,2*%
%TO.N,GND*%
X213360000Y-109180000D03*
%TD*%
D12*
%TO.P,IC9,1,1OE*%
%TO.N,/Data BUS/~{Immediate_OE}*%
X154940000Y-111760000D03*
D13*
%TO.P,IC9,2,1A0*%
%TO.N,/Address BUS/Instruction_0*%
X157480000Y-111760000D03*
%TO.P,IC9,3,2Y0*%
%TO.N,Net-(IC9-2Y0)*%
X160020000Y-111760000D03*
%TO.P,IC9,4,1A1*%
%TO.N,/Address BUS/Instruction_1*%
X162560000Y-111760000D03*
%TO.P,IC9,5,2Y1*%
%TO.N,Net-(IC9-2Y1)*%
X165100000Y-111760000D03*
%TO.P,IC9,6,1A2*%
%TO.N,/Address BUS/Instruction_2*%
X167640000Y-111760000D03*
%TO.P,IC9,7,2Y2*%
%TO.N,Net-(IC9-2Y2)*%
X170180000Y-111760000D03*
%TO.P,IC9,8,1A3*%
%TO.N,/Address BUS/Instruction_3*%
X172720000Y-111760000D03*
%TO.P,IC9,9,2Y3*%
%TO.N,Net-(IC9-2Y3)*%
X175260000Y-111760000D03*
%TO.P,IC9,10,GND*%
%TO.N,GND*%
X177800000Y-111760000D03*
%TO.P,IC9,11,2A3*%
%TO.N,/Data BUS/Stack3*%
X177800000Y-104140000D03*
%TO.P,IC9,12,1Y3*%
X175260000Y-104140000D03*
%TO.P,IC9,13,2A2*%
%TO.N,/Data BUS/Stack2*%
X172720000Y-104140000D03*
%TO.P,IC9,14,1Y2*%
X170180000Y-104140000D03*
%TO.P,IC9,15,2A1*%
%TO.N,/Data BUS/Stack1*%
X167640000Y-104140000D03*
%TO.P,IC9,16,1Y1*%
X165100000Y-104140000D03*
%TO.P,IC9,17,2A0*%
%TO.N,/Data BUS/Stack0*%
X162560000Y-104140000D03*
%TO.P,IC9,18,1Y0*%
X160020000Y-104140000D03*
%TO.P,IC9,19,2OE*%
%TO.N,GND*%
X157480000Y-104140000D03*
%TO.P,IC9,20,VCC*%
%TO.N,VCC*%
X154940000Y-104140000D03*
%TD*%
D12*
%TO.P,RN6,1,R1*%
%TO.N,VCC*%
X157480000Y-172720000D03*
D13*
%TO.P,RN6,2,R1.2*%
%TO.N,Net-(D30-K)*%
X160020000Y-172720000D03*
%TO.P,RN6,3,R2.2*%
%TO.N,Net-(D2-K)*%
X162560000Y-172720000D03*
%TO.P,RN6,4,R3.2*%
%TO.N,Net-(D6-K)*%
X165100000Y-172720000D03*
%TO.P,RN6,5,R4.2*%
%TO.N,/Address BUS/MEMMode*%
X167640000Y-172720000D03*
%TO.P,RN6,6,R5.2*%
%TO.N,/ALU/I0a*%
X170180000Y-172720000D03*
%TO.P,RN6,7,R6.2*%
%TO.N,Net-(D18-K)*%
X172720000Y-172720000D03*
%TO.P,RN6,8,R7.2*%
%TO.N,Net-(D22-K)*%
X175260000Y-172720000D03*
%TO.P,RN6,9,R8.2*%
%TO.N,Net-(D26-K)*%
X177800000Y-172720000D03*
%TD*%
D17*
%TO.P,R9,1*%
%TO.N,Net-(R7-Pad2)*%
X177800000Y-162560000D03*
D13*
%TO.P,R9,2*%
%TO.N,Net-(C2-Pad1)*%
X185420000Y-162560000D03*
%TD*%
D17*
%TO.P,R4,1*%
%TO.N,Net-(IC16-OE)*%
X137160000Y-60960000D03*
D13*
%TO.P,R4,2*%
%TO.N,GND*%
X129540000Y-60960000D03*
%TD*%
D14*
%TO.P,D16,1,K*%
%TO.N,/ALU/I0a*%
X172720000Y-193040000D03*
D15*
%TO.P,D16,2,A*%
%TO.N,/Instruction Decoder/~{i5}*%
X175260000Y-193040000D03*
%TD*%
D12*
%TO.P,IC19,1,~{R}*%
%TO.N,~{RESET}*%
X187960000Y-147320000D03*
D13*
%TO.P,IC19,2,D*%
%TO.N,Net-(IC19A-D)*%
X190500000Y-147320000D03*
%TO.P,IC19,3,C*%
%TO.N,CLK*%
X193040000Y-147320000D03*
%TO.P,IC19,4,~{S}*%
%TO.N,VCC*%
X195580000Y-147320000D03*
%TO.P,IC19,5,Q*%
%TO.N,/Instruction Decoder/Zero_Flg*%
X198120000Y-147320000D03*
%TO.P,IC19,6,~{Q}*%
%TO.N,/Instruction Decoder/~{Zero_Flg}*%
X200660000Y-147320000D03*
%TO.P,IC19,7,GND*%
%TO.N,GND*%
X203200000Y-147320000D03*
%TO.P,IC19,8,~{Q}*%
%TO.N,/Instruction Decoder/~{Carry_Flg}*%
X203200000Y-139700000D03*
%TO.P,IC19,9,Q*%
%TO.N,/Instruction Decoder/Carry_Flg*%
X200660000Y-139700000D03*
%TO.P,IC19,10,~{S}*%
%TO.N,VCC*%
X198120000Y-139700000D03*
%TO.P,IC19,11,C*%
%TO.N,CLK*%
X195580000Y-139700000D03*
%TO.P,IC19,12,D*%
%TO.N,Net-(IC19B-D)*%
X193040000Y-139700000D03*
%TO.P,IC19,13,~{R}*%
%TO.N,~{RESET}*%
X190500000Y-139700000D03*
%TO.P,IC19,14,VCC*%
%TO.N,VCC*%
X187960000Y-139700000D03*
%TD*%
D14*
%TO.P,D4,1,K*%
%TO.N,Net-(D2-K)*%
X157480000Y-193040000D03*
D15*
%TO.P,D4,2,A*%
%TO.N,/Address BUS/Instruction_5*%
X160020000Y-193040000D03*
%TD*%
D10*
%TO.P,LD25,1,K*%
%TO.N,Net-(LD25-K)*%
X111760000Y-33020000D03*
D11*
%TO.P,LD25,2*%
%TO.N,/Address BUS/RAM_A2*%
X111760000Y-35560000D03*
%TD*%
D24*
%TO.P,F1,1*%
%TO.N,Net-(F1-Pad1)*%
X111760000Y-187960000D03*
%TO.P,F1,2*%
%TO.N,VCC*%
X116860000Y-189160000D03*
%TD*%
D14*
%TO.P,D22,1,K*%
%TO.N,Net-(D22-K)*%
X182880000Y-187960000D03*
D15*
%TO.P,D22,2,A*%
%TO.N,unconnected-(D22-A-Pad2)*%
X185420000Y-187960000D03*
%TD*%
D17*
%TO.P,CP15,1*%
%TO.N,VCC*%
X185420000Y-106680000D03*
%TO.P,CP15,2*%
%TO.N,GND*%
X185420000Y-109180000D03*
%TD*%
D14*
%TO.P,D3,1,K*%
%TO.N,Net-(D2-K)*%
X157480000Y-190500000D03*
D15*
%TO.P,D3,2,A*%
%TO.N,/Instruction Decoder/~{i6}*%
X160020000Y-190500000D03*
%TD*%
D12*
%TO.P,RN2,1,R1*%
%TO.N,GND*%
X175260000Y-119420000D03*
D13*
%TO.P,RN2,2,R1.2*%
%TO.N,Net-(LD4-K)*%
X172720000Y-119420000D03*
%TO.P,RN2,3,R2.2*%
%TO.N,Net-(LD5-K)*%
X170180000Y-119420000D03*
%TO.P,RN2,4,R3.2*%
%TO.N,Net-(LD6-K)*%
X167640000Y-119420000D03*
%TO.P,RN2,5,R4.2*%
%TO.N,Net-(LD7-K)*%
X165100000Y-119420000D03*
%TD*%
D17*
%TO.P,CP5,1*%
%TO.N,VCC*%
X157490000Y-33020000D03*
%TO.P,CP5,2*%
%TO.N,GND*%
X157490000Y-35520000D03*
%TD*%
D23*
%TO.P,SW4,1,1*%
%TO.N,GND*%
X144780000Y-189080000D03*
X144780000Y-195580000D03*
%TO.P,SW4,2,2*%
%TO.N,Net-(R10-Pad1)*%
X140280000Y-189080000D03*
X140280000Y-195580000D03*
%TD*%
D14*
%TO.P,D33,1,K*%
%TO.N,Net-(D30-K)*%
X193040000Y-195580000D03*
D15*
%TO.P,D33,2,A*%
%TO.N,unconnected-(D33-A-Pad2)*%
X195580000Y-195580000D03*
%TD*%
D17*
%TO.P,CP14,1*%
%TO.N,VCC*%
X213360000Y-93940000D03*
%TO.P,CP14,2*%
%TO.N,GND*%
X213360000Y-91440000D03*
%TD*%
D14*
%TO.P,D5,1,K*%
%TO.N,Net-(D2-K)*%
X157480000Y-195580000D03*
D15*
%TO.P,D5,2,A*%
%TO.N,unconnected-(D5-A-Pad2)*%
X160020000Y-195580000D03*
%TD*%
D14*
%TO.P,D21,1,K*%
%TO.N,Net-(D18-K)*%
X177800000Y-195580000D03*
D15*
%TO.P,D21,2,A*%
%TO.N,/Address BUS/Instruction_4*%
X180340000Y-195580000D03*
%TD*%
D10*
%TO.P,LD35,1,K*%
%TO.N,Net-(LD35-K)*%
X213360000Y-78740000D03*
D11*
%TO.P,LD35,2*%
%TO.N,/ALU/ALU_in_B3*%
X213360000Y-81280000D03*
%TD*%
D10*
%TO.P,LD19,1,K*%
%TO.N,Net-(LD19-K)*%
X157480000Y-78740000D03*
D11*
%TO.P,LD19,2*%
%TO.N,/Program Counter/PC_0*%
X157480000Y-81280000D03*
%TD*%
D10*
%TO.P,LD34,1,K*%
%TO.N,Net-(LD34-K)*%
X215900000Y-78740000D03*
D11*
%TO.P,LD34,2*%
%TO.N,/ALU/ALU_in_B2*%
X215900000Y-81280000D03*
%TD*%
D10*
%TO.P,LD22,1,K*%
%TO.N,Net-(LD22-K)*%
X104140000Y-33020000D03*
D11*
%TO.P,LD22,2*%
%TO.N,/Address BUS/RAM_A5*%
X104140000Y-35560000D03*
%TD*%
D12*
%TO.P,RN8,1,R1*%
%TO.N,GND*%
X209550000Y-76200000D03*
D13*
%TO.P,RN8,2,R1.2*%
%TO.N,Net-(LD36-K)*%
X207010000Y-76200000D03*
%TO.P,RN8,3,R2.2*%
%TO.N,Net-(LD37-K)*%
X204470000Y-76200000D03*
%TO.P,RN8,4,R3.2*%
%TO.N,Net-(LD38-K)*%
X201930000Y-76200000D03*
%TO.P,RN8,5,R4.2*%
%TO.N,Net-(LD39-K)*%
X199390000Y-76200000D03*
%TD*%
D17*
%TO.P,CP10,1*%
%TO.N,VCC*%
X132334000Y-130302000D03*
%TO.P,CP10,2*%
%TO.N,GND*%
X132334000Y-132802000D03*
%TD*%
%TO.P,CP24,1*%
%TO.N,VCC*%
X111760000Y-175300000D03*
%TO.P,CP24,2*%
%TO.N,GND*%
X111760000Y-177800000D03*
%TD*%
D10*
%TO.P,LD39,1,K*%
%TO.N,Net-(LD39-K)*%
X203200000Y-78740000D03*
D11*
%TO.P,LD39,2*%
%TO.N,/Data BUS/Level_C3*%
X203200000Y-81280000D03*
%TD*%
D12*
%TO.P,IC11,1,/CLR*%
%TO.N,~{RESET}*%
X215900000Y-38130000D03*
D13*
%TO.P,IC11,2,CK*%
%TO.N,CLK*%
X218440000Y-38130000D03*
%TO.P,IC11,3,A*%
%TO.N,/Data BUS/Stack0*%
X220980000Y-38130000D03*
%TO.P,IC11,4,B*%
%TO.N,/Data BUS/Stack1*%
X223520000Y-38130000D03*
%TO.P,IC11,5,C*%
%TO.N,/Data BUS/Stack2*%
X226060000Y-38130000D03*
%TO.P,IC11,6,D*%
%TO.N,/Data BUS/Stack3*%
X228600000Y-38130000D03*
%TO.P,IC11,7,ENP*%
%TO.N,GND*%
X231140000Y-38130000D03*
%TO.P,IC11,8,GND*%
X233680000Y-38130000D03*
%TO.P,IC11,9,/LOAD*%
%TO.N,/Instruction Decoder/~{STACK_LE}*%
X233680000Y-30510000D03*
%TO.P,IC11,10,ENT*%
%TO.N,GND*%
X231140000Y-30510000D03*
%TO.P,IC11,11,QD*%
%TO.N,/ALU/ALU_in_A3*%
X228600000Y-30510000D03*
%TO.P,IC11,12,QC*%
%TO.N,/ALU/ALU_in_A2*%
X226060000Y-30510000D03*
%TO.P,IC11,13,QB*%
%TO.N,/ALU/ALU_in_A1*%
X223520000Y-30510000D03*
%TO.P,IC11,14,QA*%
%TO.N,/ALU/ALU_in_A0*%
X220980000Y-30510000D03*
%TO.P,IC11,15,CO*%
%TO.N,unconnected-(IC11-CO-Pad15)*%
X218440000Y-30510000D03*
%TO.P,IC11,16,VCC*%
%TO.N,VCC*%
X215900000Y-30510000D03*
%TD*%
D22*
%TO.P,D1,1,K*%
%TO.N,VCC*%
X116840000Y-193040000D03*
D25*
%TO.P,D1,2,A*%
%TO.N,GND*%
X109220000Y-193040000D03*
%TD*%
D12*
%TO.P,C3,1*%
%TO.N,Net-(C3-Pad1)*%
X114300000Y-137160000D03*
D17*
%TO.P,C3,2*%
%TO.N,GND*%
X114300000Y-134660000D03*
%TD*%
%TO.P,CP4,1*%
%TO.N,VCC*%
X157480000Y-48300000D03*
%TO.P,CP4,2*%
%TO.N,GND*%
X157480000Y-50800000D03*
%TD*%
D14*
%TO.P,D31,1,K*%
%TO.N,Net-(D30-K)*%
X193040000Y-190500000D03*
D15*
%TO.P,D31,2,A*%
%TO.N,/Address BUS/Instruction_6*%
X195580000Y-190500000D03*
%TD*%
D12*
%TO.P,IC17,1,S*%
%TO.N,/Address BUS/MEMMode*%
X129540000Y-38100000D03*
D13*
%TO.P,IC17,2,I0a*%
%TO.N,/Address BUS/Instruction_3*%
X132080000Y-38100000D03*
%TO.P,IC17,3,I1a*%
%TO.N,/ALU/ALU_in_A3*%
X134620000Y-38100000D03*
%TO.P,IC17,4,Za*%
%TO.N,/Address BUS/RAM_A3*%
X137160000Y-38100000D03*
%TO.P,IC17,5,I0b*%
%TO.N,/Address BUS/Instruction_2*%
X139700000Y-38100000D03*
%TO.P,IC17,6,I1b*%
%TO.N,/ALU/ALU_in_A2*%
X142240000Y-38100000D03*
%TO.P,IC17,7,Zb*%
%TO.N,/Address BUS/RAM_A2*%
X144780000Y-38100000D03*
%TO.P,IC17,8,GND*%
%TO.N,GND*%
X147320000Y-38100000D03*
%TO.P,IC17,9,Zd*%
%TO.N,/Address BUS/RAM_A0*%
X147320000Y-30480000D03*
%TO.P,IC17,10,I1d*%
%TO.N,/ALU/ALU_in_A0*%
X144780000Y-30480000D03*
%TO.P,IC17,11,I0d*%
%TO.N,/Address BUS/Instruction_0*%
X142240000Y-30480000D03*
%TO.P,IC17,12,Zc*%
%TO.N,/Address BUS/RAM_A1*%
X139700000Y-30480000D03*
%TO.P,IC17,13,I1c*%
%TO.N,/ALU/ALU_in_A1*%
X137160000Y-30480000D03*
%TO.P,IC17,14,I0c*%
%TO.N,/Address BUS/Instruction_1*%
X134620000Y-30480000D03*
%TO.P,IC17,15,OE*%
%TO.N,Net-(IC16-OE)*%
X132080000Y-30480000D03*
%TO.P,IC17,16,VCC*%
%TO.N,VCC*%
X129540000Y-30480000D03*
%TD*%
D12*
%TO.P,IC8,1,S*%
%TO.N,/Data BUS/Level_C_OE*%
X187960000Y-68620000D03*
D13*
%TO.P,IC8,2,I0a*%
%TO.N,/ALU/ALU_OUT0*%
X190500000Y-68620000D03*
%TO.P,IC8,3,I1a*%
%TO.N,/Data BUS/Level_C0*%
X193040000Y-68620000D03*
%TO.P,IC8,4,Za*%
%TO.N,/Data BUS/Stack0*%
X195580000Y-68620000D03*
%TO.P,IC8,5,I0b*%
%TO.N,/ALU/ALU_OUT1*%
X198120000Y-68620000D03*
%TO.P,IC8,6,I1b*%
%TO.N,/Data BUS/Level_C1*%
X200660000Y-68620000D03*
%TO.P,IC8,7,Zb*%
%TO.N,/Data BUS/Stack1*%
X203200000Y-68620000D03*
%TO.P,IC8,8,GND*%
%TO.N,GND*%
X205740000Y-68620000D03*
%TO.P,IC8,9,Zd*%
%TO.N,/Data BUS/Stack3*%
X205740000Y-61000000D03*
%TO.P,IC8,10,I1d*%
%TO.N,/Data BUS/Level_C3*%
X203200000Y-61000000D03*
%TO.P,IC8,11,I0d*%
%TO.N,/ALU/ALU_OUT3*%
X200660000Y-61000000D03*
%TO.P,IC8,12,Zc*%
%TO.N,/Data BUS/Stack2*%
X198120000Y-61000000D03*
%TO.P,IC8,13,I1c*%
%TO.N,/Data BUS/Level_C2*%
X195580000Y-61000000D03*
%TO.P,IC8,14,I0c*%
%TO.N,/ALU/ALU_OUT2*%
X193040000Y-61000000D03*
%TO.P,IC8,15,OE*%
%TO.N,/Address BUS/Instruction_7*%
X190500000Y-61000000D03*
%TO.P,IC8,16,VCC*%
%TO.N,VCC*%
X187960000Y-61000000D03*
%TD*%
D10*
%TO.P,LD33,1,K*%
%TO.N,Net-(LD33-K)*%
X218440000Y-78740000D03*
D11*
%TO.P,LD33,2*%
%TO.N,/ALU/ALU_in_B1*%
X218440000Y-81280000D03*
%TD*%
D17*
%TO.P,R6,1*%
%TO.N,VCC*%
X193610000Y-174270000D03*
D13*
%TO.P,R6,2*%
%TO.N,/Data BUS/Level_C_OE*%
X201230000Y-174270000D03*
%TD*%
D14*
%TO.P,D34,1,K*%
%TO.N,/Instruction Decoder/READ*%
X198120000Y-187960000D03*
D15*
%TO.P,D34,2,A*%
%TO.N,/Address BUS/Instruction_7*%
X200660000Y-187960000D03*
%TD*%
D26*
%TO.P,C4,1*%
%TO.N,Net-(C4-Pad1)*%
X134620000Y-142240000D03*
%TO.P,C4,2*%
%TO.N,Net-(SW5-A)*%
X136620000Y-142240000D03*
%TD*%
D27*
%TO.N,CLK2*%
X142875000Y-158750000D03*
X142875000Y-167005000D03*
%TO.N,Net-(SW5-C)*%
X124460000Y-168910000D03*
%TO.N,Net-(IC24-Pad2)*%
X115570000Y-151130000D03*
%TO.N,Net-(IC24-Pad12)*%
X119380000Y-128270000D03*
%TO.N,Net-(SW5-A)*%
X144434000Y-142240000D03*
%TO.N,Net-(C4-Pad1)*%
X104140000Y-143510000D03*
%TO.N,GND*%
X93980000Y-177800000D03*
%TO.N,Net-(C4-Pad1)*%
X104140000Y-180340000D03*
%TO.N,VCC*%
X114300000Y-175260000D03*
%TO.N,Net-(SW5-A)*%
X144780000Y-175895000D03*
X121920000Y-175895000D03*
%TO.N,Net-(D6-K)*%
X210820000Y-172085000D03*
%TO.N,/Instruction Decoder/~{i5}*%
X231140000Y-165100000D03*
X227330000Y-189230000D03*
X218440000Y-189230000D03*
X218440000Y-187960000D03*
X227330000Y-165100000D03*
%TO.N,/Instruction Decoder/~{i7}*%
X226060000Y-181610000D03*
%TO.N,Net-(D18-K)*%
X140335000Y-170815000D03*
X172720000Y-170815000D03*
%TO.N,Net-(D22-K)*%
X175260000Y-165100000D03*
X145415000Y-165100000D03*
%TO.N,CLK2*%
X162560000Y-158750000D03*
%TO.N,/Instruction Decoder/READ*%
X201295000Y-168275000D03*
X160020000Y-168275000D03*
%TO.N,/Data BUS/~{WR}*%
X125730000Y-151765000D03*
X172720000Y-151765000D03*
%TO.N,CLK*%
X115570000Y-139065000D03*
%TO.N,/Instruction Decoder/Zero_Flg*%
X236220000Y-179070000D03*
X233680000Y-179070000D03*
%TO.N,/Instruction Decoder/Carry_Flg*%
X240640000Y-181610000D03*
%TO.N,/Data BUS/BUS_Zero*%
X138430000Y-153035000D03*
X218440000Y-153035000D03*
%TO.N,/Address BUS/Instruction_0*%
X207010000Y-115570000D03*
X207010000Y-123190000D03*
X231140000Y-123190000D03*
%TO.N,/Instruction Decoder/Carry_Flg*%
X200660000Y-136525000D03*
X223520000Y-136525000D03*
%TO.N,/Instruction Decoder/ALU_~{Eb}*%
X228600000Y-143510000D03*
X167640000Y-143510000D03*
%TO.N,/Instruction Decoder/Carry_Flg*%
X226695000Y-115570000D03*
X226695000Y-133985000D03*
X223520000Y-133995003D03*
%TO.N,Net-(IC19A-D)*%
X217170000Y-151765000D03*
X190500000Y-151765000D03*
%TO.N,~{RESET}*%
X129540000Y-152400000D03*
X179070000Y-152400000D03*
X179070000Y-147320000D03*
%TO.N,CLK*%
X191770000Y-137795000D03*
%TO.N,/Instruction Decoder/~{i6}*%
X161290000Y-189230000D03*
%TO.N,/Instruction Decoder/~{Zero_Flg}*%
X200660000Y-150495000D03*
X212090000Y-150495000D03*
X212090000Y-105410000D03*
%TO.N,VCC*%
X215900000Y-106720000D03*
%TO.N,/Instruction Decoder/~{Zero_Flg}*%
X220980000Y-105410000D03*
%TO.N,/Instruction Decoder/~{Carry_Flg}*%
X214599997Y-139700000D03*
%TO.N,/Instruction Decoder/Zero_Flg*%
X215900000Y-149860000D03*
X236220000Y-149860000D03*
X218440000Y-101600000D03*
X236220000Y-101600000D03*
%TO.N,/Instruction Decoder/~{is_JP_inst}*%
X232410000Y-191770000D03*
%TO.N,/Address BUS/Instruction_2*%
X190500000Y-123825000D03*
X234950000Y-123825000D03*
%TO.N,/Instruction Decoder/~{JMP}*%
X228600000Y-110490000D03*
X214630000Y-110490000D03*
%TO.N,~{RESET}*%
X190500000Y-145640000D03*
X190500000Y-140970000D03*
%TO.N,VCC*%
X198120000Y-142280000D03*
X187960000Y-142280000D03*
X215900000Y-142280000D03*
%TO.N,~{RESET}*%
X237490000Y-140970000D03*
%TO.N,CLK*%
X195580000Y-137795000D03*
X239395000Y-137160000D03*
%TO.N,Net-(IC14-ENT)*%
X219710000Y-121920000D03*
X201930000Y-121920000D03*
%TO.N,/Address BUS/Instruction_4*%
X222250000Y-137160000D03*
X190500000Y-137160000D03*
%TO.N,/Address BUS/Instruction_5*%
X165100000Y-135890000D03*
%TO.N,/Program Counter/PC_10*%
X199390000Y-99060000D03*
X199390000Y-128905000D03*
X202565000Y-128905000D03*
%TO.N,/Program Counter/PC_11*%
X201930000Y-105820000D03*
X204470000Y-105820000D03*
X204470000Y-128905000D03*
X208280000Y-129070003D03*
%TO.N,/Program Counter/PC_9*%
X180340000Y-125095000D03*
X210820000Y-125095000D03*
%TO.N,/Program Counter/PC_8*%
X194310000Y-125730000D03*
X213360000Y-125730000D03*
%TO.N,GND*%
X203200000Y-144740000D03*
%TO.N,VCC*%
X220980000Y-130302000D03*
%TO.N,/Program Counter/PC_5*%
X222250000Y-118110000D03*
X210820000Y-118110000D03*
%TO.N,/Program Counter/PC_4*%
X220980000Y-102235000D03*
X208280000Y-102235000D03*
%TO.N,/Program Counter/PC_3*%
X205740000Y-114935000D03*
X201460003Y-114935000D03*
%TO.N,/Program Counter/PC_2*%
X198920003Y-117475000D03*
X203200000Y-117475000D03*
%TO.N,/Program Counter/PC_1*%
X200660000Y-114935000D03*
X196215000Y-114935000D03*
%TO.N,/Program Counter/PC_0*%
X193675000Y-117475000D03*
X198120000Y-117475000D03*
%TO.N,/Data BUS/~{Immediate_OE}*%
X224790000Y-195580000D03*
X154940000Y-108320000D03*
X224790000Y-107950000D03*
%TO.N,GND*%
X233680000Y-109220000D03*
X220980000Y-109220000D03*
X177800000Y-109220000D03*
%TO.N,/Program Counter/PC_0*%
X198120000Y-128905000D03*
X156845000Y-128905000D03*
X156845000Y-117475000D03*
X158750000Y-117475000D03*
%TO.N,/Program Counter/PC_1*%
X200660000Y-127000000D03*
X161290000Y-127000000D03*
%TO.N,/Program Counter/PC_2*%
X203200000Y-131445000D03*
X146050000Y-131902000D03*
X162560000Y-86995000D03*
X145415000Y-87630000D03*
%TO.N,/Program Counter/PC_3*%
X205740000Y-126365000D03*
X149702903Y-126528710D03*
X149860000Y-86360000D03*
X165100000Y-86360000D03*
%TO.N,/Program Counter/PC_4*%
X208280000Y-128270000D03*
X162560000Y-117475000D03*
X162560000Y-128270000D03*
X167005000Y-117475000D03*
%TO.N,VCC*%
X205740000Y-93980000D03*
%TO.N,/Program Counter/PC_5*%
X168275000Y-118110000D03*
%TO.N,/Address BUS/Instruction_2*%
X190500000Y-117475000D03*
%TO.N,/Data BUS/Stack2*%
X144780000Y-102235000D03*
%TO.N,VCC*%
X154940000Y-106720000D03*
%TO.N,Net-(C2-Pad1)*%
X124460000Y-161290000D03*
%TO.N,GND*%
X215900000Y-175195000D03*
X229870000Y-175260000D03*
X229870000Y-195580000D03*
%TO.N,/Data BUS/Stack0*%
X139700000Y-95885000D03*
%TO.N,/Program Counter/PC_6*%
X227330000Y-116840000D03*
%TO.N,/Program Counter/PC_7*%
X217170000Y-99695000D03*
X229235000Y-99695000D03*
%TO.N,/Program Counter/PC_6*%
X213360000Y-116840000D03*
X173355000Y-116205000D03*
%TO.N,/Program Counter/PC_7*%
X215900000Y-116205000D03*
X176530000Y-116205000D03*
%TO.N,/Program Counter/PC_8*%
X194310000Y-101600000D03*
X178435000Y-101600000D03*
%TO.N,/Program Counter/PC_9*%
X196215000Y-99695000D03*
X180340000Y-100330000D03*
%TO.N,/Program Counter/PC_10*%
X198120000Y-98894997D03*
X181980000Y-99060000D03*
%TO.N,/Program Counter/PC_11*%
X199390000Y-81915000D03*
%TO.N,/Data BUS/Stack3*%
X146685000Y-93345000D03*
X177800000Y-93345000D03*
%TO.N,Net-(IC9-2Y0)*%
X160020000Y-113665000D03*
X163830000Y-113665000D03*
%TO.N,GND*%
X99060000Y-134620000D03*
X132080000Y-50800000D03*
X134620000Y-50800000D03*
X171450000Y-35560000D03*
X207645000Y-144740000D03*
X210820000Y-73660000D03*
X187960000Y-132802000D03*
X170180000Y-66040000D03*
X109220000Y-90170000D03*
X177800000Y-50800000D03*
X175260000Y-66040000D03*
X205740000Y-66040000D03*
X124460000Y-50800000D03*
X215900000Y-91480000D03*
X175260000Y-50800000D03*
X207645000Y-167640000D03*
X231140000Y-35560000D03*
X160020000Y-50800000D03*
X147320000Y-50800000D03*
X187960000Y-91440000D03*
X177800000Y-66040000D03*
X215900000Y-195580000D03*
X93345000Y-48260000D03*
X152400000Y-132802000D03*
X198120000Y-35560000D03*
X187960000Y-109220000D03*
X226060000Y-109220000D03*
X154940000Y-91440000D03*
X185420000Y-119380000D03*
X152430000Y-50800000D03*
X93980000Y-101600000D03*
X139700000Y-50800000D03*
X210820000Y-68580000D03*
X152400000Y-144780000D03*
X157480000Y-109220000D03*
X170180000Y-50800000D03*
X106680000Y-101600000D03*
%TO.N,VCC*%
X210820000Y-165100000D03*
X121285000Y-33020000D03*
X172720000Y-48300000D03*
X111760000Y-57150000D03*
X220980000Y-165100000D03*
X223520000Y-106720000D03*
X111760000Y-62230000D03*
X154940000Y-48300000D03*
X190500000Y-106680000D03*
X121285000Y-48260000D03*
X218440000Y-93980000D03*
X154940000Y-130302000D03*
X167640000Y-48300000D03*
X152400000Y-172720000D03*
X137160000Y-190500000D03*
X210820000Y-142280000D03*
X160020000Y-48300000D03*
X134620000Y-66040000D03*
X190500000Y-93980000D03*
X111760000Y-59690000D03*
X154940000Y-142240000D03*
X195580000Y-142280000D03*
X223520000Y-119380000D03*
X111760000Y-74930000D03*
X205740000Y-106720000D03*
X121285000Y-24765000D03*
X129540000Y-48300000D03*
%TO.N,Net-(C2-Pad1)*%
X124460000Y-165100000D03*
X121920000Y-165100000D03*
%TO.N,Net-(C3-Pad1)*%
X124460000Y-182880000D03*
X121920000Y-137160000D03*
X134620000Y-182880000D03*
%TO.N,/Instruction Decoder/~{i6}*%
X217170000Y-185420000D03*
X217170000Y-189230000D03*
%TO.N,Net-(D2-K)*%
X217170000Y-175895000D03*
X157480000Y-177165000D03*
X162560000Y-176999997D03*
X217805000Y-193040000D03*
X162560000Y-175895000D03*
%TO.N,/Instruction Decoder/~{i5}*%
X208280000Y-187960000D03*
X208280000Y-193040000D03*
%TO.N,/Instruction Decoder/~{i4}*%
X184150000Y-182880000D03*
X209550000Y-182880000D03*
X209550000Y-191770000D03*
%TO.N,/Address BUS/Instruction_7*%
X166370000Y-151130000D03*
X198120000Y-136525000D03*
X147320000Y-120650000D03*
X166370000Y-186690000D03*
X167640000Y-151130000D03*
X166370000Y-136525000D03*
X189230000Y-71120000D03*
X147320000Y-71120000D03*
X200660000Y-180340000D03*
X158750000Y-120650000D03*
X158750000Y-151130000D03*
%TO.N,Net-(D6-K)*%
X210820000Y-190500000D03*
X162560000Y-177800000D03*
X210820000Y-183515000D03*
X162560000Y-183515000D03*
X165100000Y-177800000D03*
%TO.N,/Address BUS/Instruction_5*%
X196850000Y-131902000D03*
X193040000Y-131902000D03*
X196850000Y-185420000D03*
%TO.N,/Address BUS/Instruction_6*%
X194310000Y-184150000D03*
%TO.N,/Address BUS/MEMMode*%
X167640000Y-163830000D03*
X128270000Y-163830000D03*
%TO.N,/ALU/I0a*%
X170180000Y-178435000D03*
X172720000Y-178435000D03*
%TO.N,Net-(D22-K)*%
X182880000Y-175260000D03*
X175260000Y-175260000D03*
%TO.N,/Address BUS/Instruction_4*%
X191770000Y-186055000D03*
%TO.N,Net-(D26-K)*%
X228600000Y-158115000D03*
X187960000Y-158115000D03*
X187960000Y-172720000D03*
%TO.N,Net-(D30-K)*%
X160020000Y-179070000D03*
X208915000Y-178435000D03*
X220980000Y-159385000D03*
X208915000Y-159385000D03*
X193040000Y-179070000D03*
%TO.N,Net-(D18-K)*%
X172720000Y-177165000D03*
X177800000Y-177165000D03*
%TO.N,Net-(IC1-A11)*%
X126365000Y-69850000D03*
X126400000Y-101600000D03*
%TO.N,Net-(IC1-~{CS})*%
X114935000Y-109220000D03*
X115100003Y-77470000D03*
X101600000Y-109220000D03*
%TO.N,/Address BUS/RAM_A0*%
X116839999Y-80009999D03*
X103505000Y-83820000D03*
X103505000Y-80010000D03*
X116205000Y-28575000D03*
X147320000Y-28575000D03*
%TO.N,Net-(IC1-Q5)*%
X129540000Y-116840000D03*
X129540000Y-85090000D03*
%TO.N,/Data BUS/Stack2*%
X119380000Y-123190000D03*
X210185000Y-63500000D03*
X194310000Y-90580000D03*
X210185000Y-41275000D03*
X198120000Y-63500000D03*
X199390000Y-73660000D03*
X94615000Y-87630000D03*
X193675000Y-73660000D03*
X94615000Y-90170000D03*
X119380000Y-87630000D03*
X199390000Y-63500000D03*
X226060000Y-41275000D03*
X172720000Y-90620000D03*
X144780000Y-123190000D03*
%TO.N,Net-(IC1-Q4)*%
X128905000Y-119380000D03*
X128905000Y-87630000D03*
%TO.N,/Data BUS/Stack0*%
X195580000Y-65140000D03*
X208915000Y-40640000D03*
X104140000Y-82550000D03*
X220980000Y-40640000D03*
X208915000Y-65405000D03*
X196850000Y-94880000D03*
X104140000Y-93980000D03*
X104140000Y-95885000D03*
X162560000Y-95885000D03*
%TO.N,/Address BUS/RAM_A1*%
X114300000Y-77470000D03*
X113030000Y-27305000D03*
X94615000Y-83820000D03*
X139700000Y-27305000D03*
X94615000Y-77470000D03*
%TO.N,Net-(IC1-Q6)*%
X130175000Y-82550000D03*
X130175000Y-113665000D03*
%TO.N,/Address BUS/RAM_A4*%
X147320000Y-49530000D03*
X104140000Y-49530000D03*
X104140000Y-78740000D03*
X104140000Y-69850000D03*
X106680000Y-46355000D03*
X104140000Y-46355000D03*
%TO.N,Net-(IC1-Q7)*%
X118110000Y-80010000D03*
X118110000Y-111760000D03*
%TO.N,/Data BUS/Stack1*%
X210795737Y-44004266D03*
X167640000Y-86995000D03*
X192405000Y-74295000D03*
X167640000Y-95250000D03*
X192405000Y-86995000D03*
X203200000Y-64135000D03*
X223520000Y-43815000D03*
X93980000Y-85090000D03*
X203200000Y-74295000D03*
X93980000Y-93980000D03*
X210820000Y-64135000D03*
X142875000Y-95250000D03*
%TO.N,/Address BUS/RAM_A6*%
X104775000Y-64770000D03*
X126365000Y-59690000D03*
X126365000Y-63500000D03*
X144780000Y-60325000D03*
X104740000Y-76200000D03*
X107960000Y-63500000D03*
X101600000Y-44450000D03*
X107950000Y-44415000D03*
%TO.N,/Data BUS/Stack3*%
X191770000Y-73025000D03*
X228600000Y-41910000D03*
X191770000Y-99695000D03*
X204470000Y-73025000D03*
X177800000Y-99695000D03*
X207645000Y-60960000D03*
X207645000Y-41910000D03*
X121920000Y-92710000D03*
%TO.N,/Address BUS/RAM_A7*%
X99060000Y-43815000D03*
X137160000Y-57785000D03*
X113030000Y-60960000D03*
X113030000Y-58420000D03*
X100330000Y-62230000D03*
X113030000Y-43815000D03*
%TO.N,/Address BUS/RAM_A2*%
X144780000Y-40005000D03*
X96520000Y-82550000D03*
X96520000Y-41910000D03*
X111760000Y-40005000D03*
X96520000Y-74930000D03*
X111760000Y-41910000D03*
%TO.N,/Address BUS/RAM_A3*%
X109220000Y-40640000D03*
X137160000Y-40640000D03*
X109220000Y-43180000D03*
X95885000Y-81280000D03*
X95885000Y-72390000D03*
X95885000Y-43180000D03*
%TO.N,/Address BUS/RAM_A5*%
X95250000Y-67310000D03*
X95250000Y-78740000D03*
X95250000Y-41275000D03*
X104140000Y-41275000D03*
X139700000Y-41275000D03*
%TO.N,/Address BUS/Instruction_2*%
X140970000Y-116205000D03*
X167640000Y-116205000D03*
%TO.N,/Address BUS/Instruction_3*%
X132080000Y-43180000D03*
X184150000Y-114935000D03*
X172720000Y-114935000D03*
X135890000Y-114935000D03*
X184150000Y-134620000D03*
X135890000Y-43180000D03*
%TO.N,/Address BUS/Instruction_1*%
X122555000Y-53975000D03*
X127000000Y-53975000D03*
X122555000Y-26670000D03*
X193040000Y-114300000D03*
X134620000Y-26670000D03*
X229870000Y-114300000D03*
X127000000Y-114300000D03*
X162560000Y-114300000D03*
%TO.N,/Address BUS/Instruction_0*%
X210820000Y-115570000D03*
X157480000Y-110490000D03*
X195580000Y-115570000D03*
X142240000Y-26035000D03*
X118745000Y-110490000D03*
X228600000Y-99060000D03*
X118745000Y-26035000D03*
X210820000Y-99060000D03*
X157480000Y-115570000D03*
%TO.N,/ALU/I1a*%
X198120000Y-40005000D03*
X147955000Y-73660000D03*
X170180000Y-73660000D03*
X148590000Y-131202000D03*
X134589395Y-131202000D03*
%TO.N,/Instruction Decoder/ALU_~{Eb}*%
X144145000Y-118745000D03*
X160655000Y-59055000D03*
X144780000Y-59055000D03*
X159385000Y-134620000D03*
X190500000Y-27340000D03*
X159385000Y-118745000D03*
X167640000Y-134620000D03*
%TO.N,/ALU/I3a*%
X153670000Y-121920000D03*
X193040000Y-41275000D03*
X153670000Y-154305000D03*
X226060000Y-154305000D03*
X149225000Y-121920000D03*
X165100000Y-72390000D03*
X149225000Y-72390000D03*
%TO.N,/ALU/Internal_A3*%
X198120000Y-42545000D03*
X203200000Y-42545000D03*
%TO.N,/ALU/ALU_in_A3*%
X211455000Y-101600000D03*
X228600000Y-25400000D03*
X152400000Y-25400000D03*
X233680000Y-71120000D03*
X222885000Y-83820000D03*
X152400000Y-41910000D03*
X211455000Y-83820000D03*
X193040000Y-25400000D03*
X233680000Y-48260000D03*
X229870000Y-48260000D03*
X200660000Y-101600000D03*
X134620000Y-41910000D03*
X222250000Y-71120000D03*
%TO.N,/ALU/ALU_in_B3*%
X191770000Y-26035000D03*
X216535000Y-84455000D03*
X228600000Y-92075000D03*
X134620000Y-57150000D03*
X143510000Y-57150000D03*
X212090000Y-60325000D03*
X232410000Y-26035000D03*
X143510000Y-92710000D03*
X236220000Y-60325000D03*
X234315000Y-49530000D03*
X217170000Y-92075000D03*
X236220000Y-49530000D03*
X213360000Y-84455000D03*
%TO.N,/ALU/I2a*%
X155575000Y-125730000D03*
X195580000Y-40640000D03*
X167640000Y-73025000D03*
X233680000Y-155575000D03*
X150495000Y-125730000D03*
X156210000Y-155575000D03*
X150495000Y-73025000D03*
%TO.N,/ALU/Internal_B3*%
X208280000Y-43180000D03*
X201421765Y-43306765D03*
X208280000Y-30480000D03*
%TO.N,/ALU/ALU_in_A2*%
X209550000Y-86159997D03*
X165100000Y-26670000D03*
X150329997Y-41275000D03*
X231140000Y-62230000D03*
X142240000Y-41275000D03*
X198120000Y-99695000D03*
X231140000Y-48895000D03*
X209550000Y-99695000D03*
X227330000Y-48895000D03*
X224790000Y-62230000D03*
X150495000Y-26670000D03*
X226060000Y-86159997D03*
%TO.N,/ALU/Internal_A2*%
X193040000Y-42075003D03*
X175260000Y-41910000D03*
%TO.N,/ALU/ALU_in_B2*%
X229870000Y-49530000D03*
X182245000Y-43815000D03*
X151130000Y-41275000D03*
X142240000Y-56515000D03*
X226695000Y-83185000D03*
X151130000Y-56515000D03*
X214630000Y-57150000D03*
X215900000Y-83185000D03*
X162560000Y-40640000D03*
X228600000Y-57150000D03*
X162560000Y-43180000D03*
X182245000Y-49530000D03*
%TO.N,/ALU/Internal_B2*%
X180340000Y-43180000D03*
X180340000Y-30480000D03*
X190500000Y-43180000D03*
%TO.N,/ALU/ALU_in_B1*%
X223520000Y-47625000D03*
X226060000Y-47625000D03*
X137160000Y-52039997D03*
X218440000Y-84455000D03*
X226060000Y-58420000D03*
X217170000Y-60960000D03*
X223520000Y-84455000D03*
X162560000Y-59055000D03*
X226060000Y-60960000D03*
%TO.N,/ALU/ALU_in_A1*%
X223520000Y-55245000D03*
X165100000Y-43815000D03*
X227330000Y-71755000D03*
X153670000Y-27940000D03*
X212090000Y-84959997D03*
X212090000Y-100330000D03*
X153670000Y-43815000D03*
X137160000Y-27940000D03*
X195580000Y-100330000D03*
X167005000Y-49530000D03*
X167005000Y-56515000D03*
X228600000Y-84959997D03*
X165100000Y-49530000D03*
X223520000Y-71755000D03*
%TO.N,/ALU/Internal_A1*%
X175260000Y-57150000D03*
X193040000Y-57150000D03*
%TO.N,/ALU/Internal_B1*%
X180975000Y-55880000D03*
X177800000Y-49530000D03*
X180975000Y-49530000D03*
X190500000Y-55880000D03*
%TO.N,/ALU/ALU_in_A0*%
X208280000Y-100965000D03*
X144780000Y-24765000D03*
X165100000Y-57785000D03*
X220980000Y-24765000D03*
X220980000Y-57785000D03*
X229870000Y-57785000D03*
X231140000Y-85559997D03*
X146050000Y-57785000D03*
X208280000Y-85725000D03*
X193040000Y-100965000D03*
%TO.N,/ALU/ALU_in_B0*%
X220980000Y-48895000D03*
X213995000Y-62230000D03*
X144780000Y-43180000D03*
X162560000Y-71755000D03*
X162560000Y-66940000D03*
X218440000Y-48895000D03*
X213995000Y-67310000D03*
X219710000Y-62230000D03*
X218440000Y-62230000D03*
X151565000Y-71690000D03*
X151730000Y-43180000D03*
%TO.N,/ALU/Internal_B0*%
X177800000Y-58420000D03*
X200660000Y-58420000D03*
%TO.N,/ALU/Internal_A0*%
X198120000Y-57785000D03*
X180975000Y-71755000D03*
X175260000Y-71755000D03*
X180975000Y-57785000D03*
%TO.N,/ALU/ALU_OUT1*%
X198120000Y-64540000D03*
X189230000Y-64770000D03*
%TO.N,/Instruction Decoder/Carry_Flg*%
X240640000Y-115570000D03*
X240640000Y-26670000D03*
X218440000Y-115570000D03*
X204470000Y-26670000D03*
%TO.N,/ALU/ALU_OUT0*%
X195580000Y-55245000D03*
X191770000Y-55245000D03*
%TO.N,/ALU/Carry_OUT*%
X207010000Y-72390000D03*
X236855000Y-72390000D03*
X236855000Y-135890000D03*
X226060000Y-135890000D03*
%TO.N,/Data BUS/Level_C2*%
X198120000Y-80010000D03*
X198120000Y-85725000D03*
X196850000Y-80010000D03*
X205740000Y-85725000D03*
X226060000Y-42545000D03*
X195580000Y-56515000D03*
X209550000Y-42545000D03*
X209550000Y-56515000D03*
%TO.N,/Data BUS/Level_C0*%
X220980000Y-71120000D03*
X220980000Y-59690000D03*
X234950000Y-59690000D03*
X210820000Y-84455000D03*
X193040000Y-71120000D03*
X193040000Y-84455000D03*
%TO.N,/Data BUS/Level_C3*%
X200660000Y-85090000D03*
X203200000Y-57785000D03*
X194945000Y-81280000D03*
X219710000Y-57785000D03*
X201930000Y-71755000D03*
X194945000Y-71755000D03*
X203200000Y-85090000D03*
%TO.N,/Data BUS/Level_C1*%
X200660000Y-62865000D03*
X195580000Y-83820000D03*
X227330000Y-62865000D03*
X200660000Y-72390000D03*
X208280000Y-83820000D03*
X195580000Y-72390000D03*
%TO.N,CLK*%
X218440000Y-27305000D03*
X231140000Y-86360000D03*
X239395000Y-86360000D03*
X238760000Y-27305000D03*
%TO.N,/Instruction Decoder/~{STACK_LE}*%
X210820000Y-43180000D03*
X238125000Y-67310000D03*
X215900000Y-67310000D03*
X238125000Y-173990000D03*
X234950000Y-43180000D03*
X231140000Y-173990000D03*
X211455000Y-53975000D03*
%TO.N,~{RESET}*%
X129540000Y-167640000D03*
X233680000Y-86995000D03*
X237490000Y-88900000D03*
X97790000Y-167640000D03*
X237490000Y-34925000D03*
X215900000Y-34660000D03*
X205740000Y-86995000D03*
%TO.N,Net-(IC16-OE)*%
X133350000Y-60960000D03*
%TO.N,CLK2*%
X116840000Y-167005000D03*
X106680000Y-113665000D03*
X106680000Y-167005000D03*
X97790000Y-113665000D03*
%TO.N,/Data BUS/Level_C_OE*%
X203200000Y-174625000D03*
X186690000Y-173355000D03*
%TO.N,/Instruction Decoder/READ*%
X203835000Y-170180000D03*
X198120000Y-179070000D03*
X203835000Y-179070000D03*
%TO.N,/Data BUS/~{RD}*%
X113030000Y-72390000D03*
X165100000Y-150495000D03*
X113030000Y-150495000D03*
X113030000Y-96520000D03*
%TO.N,/Data BUS/~{WR}*%
X125730000Y-99060000D03*
X99060000Y-99060000D03*
X125564997Y-59690000D03*
%TO.N,Net-(R7-Pad2)*%
X131496116Y-183568909D03*
X149860000Y-170180000D03*
X177800000Y-167640000D03*
X149860000Y-180340000D03*
X144780000Y-180340000D03*
X142240000Y-180340000D03*
%TO.N,Net-(R10-Pad1)*%
X142240000Y-183780000D03*
%TD*%
D28*
%TO.N,VCC*%
X111760000Y-175300000D02*
X92380000Y-175300000D01*
%TO.N,GND*%
X106690000Y-90170000D02*
X106680000Y-90180000D01*
X109220000Y-90170000D02*
X106690000Y-90170000D01*
D29*
%TO.N,/Instruction Decoder/~{i5}*%
X199660000Y-194040000D02*
X200660000Y-193040000D01*
X176260000Y-194040000D02*
X199660000Y-194040000D01*
X175260000Y-193040000D02*
X176260000Y-194040000D01*
%TO.N,CLK2*%
X142875000Y-158750000D02*
X147320000Y-158750000D01*
X116840000Y-167005000D02*
X142875000Y-167005000D01*
%TO.N,Net-(SW5-C)*%
X124460000Y-168910000D02*
X142240000Y-168910000D01*
%TO.N,Net-(IC24-Pad2)*%
X115570000Y-151130000D02*
X101600000Y-151130000D01*
%TO.N,Net-(IC24-Pad12)*%
X123190000Y-128270000D02*
X119380000Y-128270000D01*
%TO.N,Net-(SW5-A)*%
X136620000Y-142240000D02*
X144434000Y-142240000D01*
%TO.N,Net-(C4-Pad1)*%
X133350000Y-143510000D02*
X134620000Y-142240000D01*
X104140000Y-143510000D02*
X133350000Y-143510000D01*
X104140000Y-143510000D02*
X101600000Y-143510000D01*
D28*
%TO.N,GND*%
X111760000Y-177800000D02*
X93980000Y-177800000D01*
D29*
%TO.N,Net-(C4-Pad1)*%
X114300000Y-180340000D02*
X104140000Y-180340000D01*
%TO.N,Net-(IC24-Pad2)*%
X119380000Y-180340000D02*
X116840000Y-180340000D01*
%TO.N,Net-(SW5-A)*%
X121920000Y-175895000D02*
X144780000Y-175895000D01*
X121920000Y-180340000D02*
X121920000Y-179705000D01*
%TO.N,Net-(D6-K)*%
X226695000Y-172085000D02*
X210820000Y-172085000D01*
X228600000Y-170180000D02*
X226695000Y-172085000D01*
%TO.N,/Instruction Decoder/~{i5}*%
X227330000Y-165100000D02*
X231140000Y-165100000D01*
X218440000Y-189230000D02*
X227330000Y-189230000D01*
X213360000Y-187960000D02*
X218440000Y-187960000D01*
%TO.N,/Instruction Decoder/~{i7}*%
X214630000Y-181610000D02*
X226060000Y-181610000D01*
X213360000Y-182880000D02*
X214630000Y-181610000D01*
%TO.N,Net-(D18-K)*%
X140335000Y-170815000D02*
X172720000Y-170815000D01*
%TO.N,Net-(D22-K)*%
X145415000Y-165100000D02*
X175260000Y-165100000D01*
%TO.N,CLK2*%
X162560000Y-158750000D02*
X147320000Y-158750000D01*
%TO.N,/Instruction Decoder/READ*%
X160020000Y-168275000D02*
X201295000Y-168275000D01*
%TO.N,/Data BUS/~{WR}*%
X172720000Y-151765000D02*
X125730000Y-151765000D01*
%TO.N,CLK2*%
X168910000Y-146050000D02*
X163830000Y-146050000D01*
X170180000Y-147320000D02*
X168910000Y-146050000D01*
X163830000Y-146050000D02*
X162560000Y-147320000D01*
%TO.N,CLK*%
X126025000Y-139065000D02*
X115570000Y-139065000D01*
X127295000Y-137795000D02*
X126025000Y-139065000D01*
X191770000Y-137795000D02*
X127295000Y-137795000D01*
%TO.N,/Instruction Decoder/Zero_Flg*%
X236220000Y-179070000D02*
X233680000Y-179070000D01*
%TO.N,/Instruction Decoder/Carry_Flg*%
X240640000Y-181610000D02*
X236220000Y-181610000D01*
%TO.N,/Data BUS/BUS_Zero*%
X198120000Y-153035000D02*
X138430000Y-153035000D01*
X218440000Y-153035000D02*
X198120000Y-153035000D01*
%TO.N,/Address BUS/Instruction_0*%
X207010000Y-115570000D02*
X210820000Y-115570000D01*
X195580000Y-115570000D02*
X207010000Y-115570000D01*
X231140000Y-123190000D02*
X207010000Y-123190000D01*
%TO.N,Net-(IC19B-D)*%
X194140000Y-138600000D02*
X193040000Y-139700000D01*
X219880000Y-138600000D02*
X194140000Y-138600000D01*
X220980000Y-139700000D02*
X219880000Y-138600000D01*
%TO.N,/Instruction Decoder/Carry_Flg*%
X223520000Y-136525000D02*
X200660000Y-136525000D01*
%TO.N,/Instruction Decoder/ALU_~{Eb}*%
X228600000Y-143510000D02*
X167640000Y-143510000D01*
%TO.N,/Instruction Decoder/Carry_Flg*%
X226695000Y-115570000D02*
X218440000Y-115570000D01*
X240640000Y-115570000D02*
X226695000Y-115570000D01*
X226684997Y-133995003D02*
X226695000Y-133985000D01*
X223520000Y-133995003D02*
X226684997Y-133995003D01*
%TO.N,Net-(IC19A-D)*%
X190500000Y-151765000D02*
X217170000Y-151765000D01*
%TO.N,~{RESET}*%
X179070000Y-152400000D02*
X129540000Y-152400000D01*
X187960000Y-147320000D02*
X179070000Y-147320000D01*
%TO.N,CLK*%
X195580000Y-137795000D02*
X191770000Y-137795000D01*
%TO.N,Net-(D18-K)*%
X137414000Y-135382000D02*
X139954000Y-135382000D01*
%TO.N,Net-(D22-K)*%
X142494000Y-135382000D02*
X145034000Y-135382000D01*
%TO.N,/Instruction Decoder/~{i6}*%
X161290000Y-189230000D02*
X160020000Y-190500000D01*
X161560000Y-188960000D02*
X161290000Y-189230000D01*
%TO.N,/Instruction Decoder/~{Zero_Flg}*%
X212090000Y-150495000D02*
X200660000Y-150495000D01*
X220980000Y-105410000D02*
X212090000Y-105410000D01*
%TO.N,/Instruction Decoder/~{Carry_Flg}*%
X214599997Y-139700000D02*
X203200000Y-139700000D01*
%TO.N,/Instruction Decoder/Zero_Flg*%
X236220000Y-149860000D02*
X215900000Y-149860000D01*
X218440000Y-101600000D02*
X236220000Y-101600000D01*
%TO.N,/Instruction Decoder/~{is_JP_inst}*%
X213995000Y-192405000D02*
X213360000Y-193040000D01*
X219640686Y-192405000D02*
X213995000Y-192405000D01*
X220275686Y-191770000D02*
X219640686Y-192405000D01*
X232410000Y-191770000D02*
X220275686Y-191770000D01*
%TO.N,/Address BUS/Instruction_2*%
X234950000Y-123825000D02*
X190500000Y-123825000D01*
%TO.N,/Instruction Decoder/~{JMP}*%
X214630000Y-110490000D02*
X228600000Y-110490000D01*
%TO.N,~{RESET}*%
X190500000Y-145640000D02*
X188370000Y-145640000D01*
X188370000Y-145640000D02*
X187960000Y-146050000D01*
X187960000Y-146050000D02*
X187960000Y-147320000D01*
X200025000Y-140970000D02*
X190500000Y-140970000D01*
X217170000Y-140970000D02*
X200025000Y-140970000D01*
X237490000Y-140970000D02*
X217170000Y-140970000D01*
%TO.N,CLK*%
X238760000Y-137795000D02*
X195580000Y-137795000D01*
X239395000Y-137160000D02*
X238760000Y-137795000D01*
%TO.N,Net-(IC14-ENT)*%
X201930000Y-121920000D02*
X219710000Y-121920000D01*
%TO.N,/Instruction Decoder/Zero_Flg*%
X199220000Y-146220000D02*
X198120000Y-147320000D01*
X214800000Y-146220000D02*
X199220000Y-146220000D01*
X215900000Y-147320000D02*
X214800000Y-146220000D01*
%TO.N,Net-(IC13-ENT)*%
X230000000Y-97660000D02*
X231140000Y-96520000D01*
X191600000Y-97660000D02*
X230000000Y-97660000D01*
X190500000Y-96560000D02*
X191600000Y-97660000D01*
%TO.N,/Address BUS/Instruction_4*%
X190500000Y-137160000D02*
X222250000Y-137160000D01*
%TO.N,/Address BUS/Instruction_5*%
X185855000Y-135925000D02*
X165135000Y-135925000D01*
X186055000Y-136125000D02*
X185855000Y-135925000D01*
X165135000Y-135925000D02*
X165100000Y-135890000D01*
X191535000Y-136125000D02*
X186055000Y-136125000D01*
X193040000Y-134620000D02*
X191535000Y-136125000D01*
%TO.N,/Program Counter/PC_10*%
X198285003Y-99060000D02*
X198120000Y-98894997D01*
X199390000Y-99060000D02*
X198285003Y-99060000D01*
X202565000Y-128905000D02*
X199390000Y-128905000D01*
%TO.N,/Program Counter/PC_11*%
X204470000Y-105820000D02*
X201930000Y-105820000D01*
X208280000Y-129070003D02*
X208114997Y-128905000D01*
X208114997Y-128905000D02*
X204470000Y-128905000D01*
%TO.N,/Program Counter/PC_9*%
X210820000Y-125095000D02*
X180340000Y-125095000D01*
%TO.N,/Program Counter/PC_8*%
X213360000Y-125730000D02*
X194310000Y-125730000D01*
D28*
%TO.N,GND*%
X207645000Y-144740000D02*
X203200000Y-144740000D01*
X203200000Y-144740000D02*
X175260000Y-144740000D01*
%TO.N,VCC*%
X215900000Y-134620000D02*
X218440000Y-134620000D01*
X218440000Y-134620000D02*
X220980000Y-134620000D01*
D29*
%TO.N,/Program Counter/PC_5*%
X210820000Y-118110000D02*
X222250000Y-118110000D01*
%TO.N,/Program Counter/PC_4*%
X208280000Y-102235000D02*
X220980000Y-102235000D01*
%TO.N,/Program Counter/PC_3*%
X205740000Y-114935000D02*
X201460003Y-114935000D01*
%TO.N,/Program Counter/PC_2*%
X203200000Y-117475000D02*
X198920003Y-117475000D01*
%TO.N,/Program Counter/PC_1*%
X200660000Y-114935000D02*
X196215000Y-114935000D01*
%TO.N,/Program Counter/PC_0*%
X198120000Y-117475000D02*
X193675000Y-117475000D01*
%TO.N,/Data BUS/~{Immediate_OE}*%
X224790000Y-195580000D02*
X220980000Y-195580000D01*
X155180000Y-108080000D02*
X224660000Y-108080000D01*
X154940000Y-108320000D02*
X155180000Y-108080000D01*
X224660000Y-108080000D02*
X224790000Y-107950000D01*
%TO.N,/Program Counter/PC_0*%
X156845000Y-128905000D02*
X198120000Y-128905000D01*
X158750000Y-117475000D02*
X156845000Y-117475000D01*
%TO.N,/Program Counter/PC_1*%
X161290000Y-127000000D02*
X200660000Y-127000000D01*
%TO.N,/Program Counter/PC_2*%
X203057000Y-131302000D02*
X203200000Y-131445000D01*
X192370000Y-131302000D02*
X203057000Y-131302000D01*
X191770000Y-131902000D02*
X192370000Y-131302000D01*
X146050000Y-131902000D02*
X191770000Y-131902000D01*
X161925000Y-87630000D02*
X145415000Y-87630000D01*
X162560000Y-86995000D02*
X161925000Y-87630000D01*
%TO.N,/Program Counter/PC_3*%
X149866613Y-126365000D02*
X205740000Y-126365000D01*
X149702903Y-126528710D02*
X149866613Y-126365000D01*
X165100000Y-86360000D02*
X149860000Y-86360000D01*
%TO.N,/Program Counter/PC_4*%
X162560000Y-128270000D02*
X208280000Y-128270000D01*
X167005000Y-117475000D02*
X162560000Y-117475000D01*
%TO.N,/Instruction Decoder/~{JMP}*%
X215900000Y-95250000D02*
X215900000Y-96520000D01*
X197328529Y-95250000D02*
X215900000Y-95250000D01*
X197098529Y-95480000D02*
X197328529Y-95250000D01*
X196581471Y-95460000D02*
X196601471Y-95480000D01*
X189060000Y-95460000D02*
X196581471Y-95460000D01*
X196601471Y-95480000D02*
X197098529Y-95480000D01*
X187960000Y-96560000D02*
X189060000Y-95460000D01*
%TO.N,/Program Counter/PC_5*%
X168275000Y-118110000D02*
X210820000Y-118110000D01*
%TO.N,/Address BUS/Instruction_2*%
X168910000Y-117475000D02*
X190500000Y-117475000D01*
X167640000Y-116205000D02*
X168910000Y-117475000D01*
%TO.N,/Data BUS/Stack2*%
X168275000Y-102235000D02*
X144780000Y-102235000D01*
X170180000Y-104140000D02*
X168275000Y-102235000D01*
%TO.N,Net-(C2-Pad1)*%
X176530000Y-161290000D02*
X124460000Y-161290000D01*
X184320000Y-161460000D02*
X176700000Y-161460000D01*
X176700000Y-161460000D02*
X176530000Y-161290000D01*
X185420000Y-162560000D02*
X184320000Y-161460000D01*
D28*
%TO.N,GND*%
X216100000Y-174995000D02*
X215900000Y-175195000D01*
X233680000Y-195580000D02*
X229870000Y-195580000D01*
X229870000Y-175260000D02*
X229605000Y-174995000D01*
X229605000Y-174995000D02*
X216100000Y-174995000D01*
X236220000Y-195580000D02*
X233680000Y-195580000D01*
D29*
%TO.N,/Data BUS/Stack0*%
X139700000Y-95885000D02*
X162560000Y-95885000D01*
X104140000Y-95885000D02*
X139700000Y-95885000D01*
%TO.N,/Program Counter/PC_6*%
X227330000Y-116840000D02*
X213360000Y-116840000D01*
%TO.N,/Program Counter/PC_7*%
X217170000Y-99695000D02*
X229235000Y-99695000D01*
%TO.N,/Program Counter/PC_6*%
X173990000Y-116840000D02*
X213360000Y-116840000D01*
X173355000Y-116205000D02*
X173990000Y-116840000D01*
%TO.N,/Program Counter/PC_7*%
X176530000Y-116205000D02*
X215900000Y-116205000D01*
%TO.N,/Program Counter/PC_8*%
X178435000Y-101600000D02*
X194310000Y-101600000D01*
%TO.N,/Program Counter/PC_9*%
X195366471Y-99695000D02*
X196215000Y-99695000D01*
X194731471Y-100330000D02*
X195366471Y-99695000D01*
X180340000Y-100330000D02*
X194731471Y-100330000D01*
%TO.N,/Program Counter/PC_10*%
X197954997Y-99060000D02*
X198120000Y-98894997D01*
X181980000Y-99060000D02*
X197954997Y-99060000D01*
%TO.N,/Program Counter/PC_11*%
X186690000Y-81915000D02*
X199390000Y-81915000D01*
X185420000Y-81280000D02*
X186055000Y-81915000D01*
X186055000Y-81915000D02*
X186690000Y-81915000D01*
%TO.N,/Data BUS/Stack3*%
X146685000Y-93345000D02*
X177800000Y-93345000D01*
X122555000Y-93345000D02*
X146685000Y-93345000D01*
X121920000Y-92710000D02*
X122555000Y-93345000D01*
%TO.N,Net-(IC9-2Y0)*%
X163830000Y-113665000D02*
X160020000Y-113665000D01*
D28*
%TO.N,GND*%
X187960000Y-38100000D02*
X187960000Y-35560000D01*
X134620000Y-50800000D02*
X139700000Y-50800000D01*
X154940000Y-132802000D02*
X187960000Y-132802000D01*
X170180000Y-50800000D02*
X175260000Y-50800000D01*
X160020000Y-66040000D02*
X170180000Y-66040000D01*
X139700000Y-50800000D02*
X147320000Y-50800000D01*
X187920000Y-91520000D02*
X187960000Y-91480000D01*
X187960000Y-91480000D02*
X215900000Y-91480000D01*
X205740000Y-50800000D02*
X213360000Y-50800000D01*
X200660000Y-132802000D02*
X205740000Y-132802000D01*
X177800000Y-66040000D02*
X205740000Y-66040000D01*
X205740000Y-38100000D02*
X205740000Y-35560000D01*
X187960000Y-91440000D02*
X188000000Y-91440000D01*
X175260000Y-66040000D02*
X177800000Y-66040000D01*
X205740000Y-132802000D02*
X223413000Y-132802000D01*
X213360000Y-195580000D02*
X215900000Y-195580000D01*
X220980000Y-109220000D02*
X226060000Y-109220000D01*
X136020000Y-47120000D02*
X134620000Y-45720000D01*
X99100000Y-134660000D02*
X99060000Y-134620000D01*
X140840000Y-47120000D02*
X136020000Y-47120000D01*
X226060000Y-109220000D02*
X233680000Y-109220000D01*
X207685000Y-167600000D02*
X207645000Y-167640000D01*
X177800000Y-35560000D02*
X187960000Y-35560000D01*
X187960000Y-35560000D02*
X198120000Y-35560000D01*
X150114000Y-135382000D02*
X150114000Y-133056000D01*
X150114000Y-133056000D02*
X149860000Y-132802000D01*
X210820000Y-144740000D02*
X207645000Y-144740000D01*
X127000000Y-50800000D02*
X132080000Y-50800000D01*
X200660000Y-134620000D02*
X200660000Y-132802000D01*
X132080000Y-50800000D02*
X134620000Y-50800000D01*
X130516000Y-134620000D02*
X129540000Y-134620000D01*
X231140000Y-38130000D02*
X233680000Y-38130000D01*
X160020000Y-68620000D02*
X160020000Y-66040000D01*
X209550000Y-74930000D02*
X210820000Y-73660000D01*
X175260000Y-50800000D02*
X177800000Y-50800000D01*
X187960000Y-91480000D02*
X187960000Y-91440000D01*
X177800000Y-109220000D02*
X187960000Y-109220000D01*
X170180000Y-66040000D02*
X175260000Y-66040000D01*
X147320000Y-38100000D02*
X147320000Y-35560000D01*
X152400000Y-50800000D02*
X154940000Y-50800000D01*
X238760000Y-50800000D02*
X238760000Y-53380000D01*
X149860000Y-132802000D02*
X152400000Y-132802000D01*
X147320000Y-50800000D02*
X152400000Y-50800000D01*
X160020000Y-38140000D02*
X160020000Y-35560000D01*
X233680000Y-170180000D02*
X233680000Y-167640000D01*
X175260000Y-144740000D02*
X157520000Y-144740000D01*
X171450000Y-35560000D02*
X177800000Y-35560000D01*
X210820000Y-73660000D02*
X231140000Y-73660000D01*
X134620000Y-189080000D02*
X134620000Y-195580000D01*
X129500000Y-134660000D02*
X114300000Y-134660000D01*
X127000000Y-50800000D02*
X124460000Y-50800000D01*
X111760000Y-177800000D02*
X129540000Y-177800000D01*
X157480000Y-109220000D02*
X177800000Y-109220000D01*
X157520000Y-144740000D02*
X157480000Y-144780000D01*
X185420000Y-119380000D02*
X185380000Y-119420000D01*
X205740000Y-134620000D02*
X205740000Y-132802000D01*
X187960000Y-119380000D02*
X185420000Y-119380000D01*
X233680000Y-147320000D02*
X228600000Y-147320000D01*
X175260000Y-147320000D02*
X175260000Y-144740000D01*
X205740000Y-68620000D02*
X210780000Y-68620000D01*
X223520000Y-104140000D02*
X226060000Y-104140000D01*
X213360000Y-50800000D02*
X238760000Y-50800000D01*
X154940000Y-50800000D02*
X160020000Y-50800000D01*
X132334000Y-132802000D02*
X130516000Y-134620000D01*
X157560000Y-91520000D02*
X185420000Y-91520000D01*
X129540000Y-177800000D02*
X129540000Y-180340000D01*
X132334000Y-132802000D02*
X149860000Y-132802000D01*
X157480000Y-144780000D02*
X152400000Y-144780000D01*
X127000000Y-35770000D02*
X127170000Y-35600000D01*
X114300000Y-134660000D02*
X99100000Y-134660000D01*
X154940000Y-91440000D02*
X157480000Y-91440000D01*
X228600000Y-147320000D02*
X228600000Y-144740000D01*
X233640000Y-167600000D02*
X233680000Y-167640000D01*
X177800000Y-50800000D02*
X205740000Y-50800000D01*
X99060000Y-48260000D02*
X93345000Y-48260000D01*
X209550000Y-76200000D02*
X209550000Y-74930000D01*
X205740000Y-35560000D02*
X213360000Y-35560000D01*
X177800000Y-38140000D02*
X177800000Y-35560000D01*
X144780000Y-189080000D02*
X144780000Y-195580000D01*
X213360000Y-144740000D02*
X210820000Y-144740000D01*
X215900000Y-167600000D02*
X233640000Y-167600000D01*
X160020000Y-50800000D02*
X170180000Y-50800000D01*
X185420000Y-91520000D02*
X187920000Y-91520000D01*
X147320000Y-195580000D02*
X144780000Y-195580000D01*
X147320000Y-35560000D02*
X160020000Y-35560000D01*
X223413000Y-132802000D02*
X223520000Y-132695000D01*
X106680000Y-101600000D02*
X93980000Y-101600000D01*
X213360000Y-35560000D02*
X231140000Y-35560000D01*
X205740000Y-53380000D02*
X205740000Y-50800000D01*
X188000000Y-91440000D02*
X187960000Y-91480000D01*
X210780000Y-68620000D02*
X210820000Y-68580000D01*
X215900000Y-167600000D02*
X207685000Y-167600000D01*
X187960000Y-109220000D02*
X220980000Y-109220000D01*
X160020000Y-35560000D02*
X171450000Y-35560000D01*
X231140000Y-73660000D02*
X233680000Y-76200000D01*
X152400000Y-109220000D02*
X157480000Y-109220000D01*
X187960000Y-132802000D02*
X200660000Y-132802000D01*
X157480000Y-91440000D02*
X157560000Y-91520000D01*
X213360000Y-144740000D02*
X228600000Y-144740000D01*
X142240000Y-45720000D02*
X140840000Y-47120000D01*
X152400000Y-132802000D02*
X154940000Y-132802000D01*
X127000000Y-35560000D02*
X147320000Y-35560000D01*
X198120000Y-35560000D02*
X205740000Y-35560000D01*
X129540000Y-134620000D02*
X129500000Y-134660000D01*
X185380000Y-119420000D02*
X175260000Y-119420000D01*
X157480000Y-66040000D02*
X160020000Y-66040000D01*
%TO.N,VCC*%
X137160000Y-190500000D02*
X137160000Y-187120000D01*
X92340000Y-23865000D02*
X92340000Y-25400000D01*
X195580000Y-142280000D02*
X198120000Y-142280000D01*
X152400000Y-106720000D02*
X154940000Y-106720000D01*
X106680000Y-59700000D02*
X111750000Y-59700000D01*
X127000000Y-106680000D02*
X129540000Y-106680000D01*
X160020000Y-48300000D02*
X154940000Y-48300000D01*
X167640000Y-48300000D02*
X160020000Y-48300000D01*
X190500000Y-106720000D02*
X205740000Y-106720000D01*
X157480000Y-142280000D02*
X160020000Y-142280000D01*
X223413000Y-130302000D02*
X223520000Y-130195000D01*
X220980000Y-119380000D02*
X223520000Y-119380000D01*
X99060000Y-45720000D02*
X92340000Y-45720000D01*
X111750000Y-59700000D02*
X111760000Y-59690000D01*
X113010000Y-57150000D02*
X111760000Y-57150000D01*
X113010000Y-62230000D02*
X111760000Y-62230000D01*
X160020000Y-63540000D02*
X167640000Y-63540000D01*
X218440000Y-170180000D02*
X220980000Y-170180000D01*
X160020000Y-30520000D02*
X160020000Y-33060000D01*
X213360000Y-48300000D02*
X187960000Y-48300000D01*
X187960000Y-33060000D02*
X172720000Y-33060000D01*
X170180000Y-139700000D02*
X172720000Y-139700000D01*
X113040000Y-74940000D02*
X113030000Y-74930000D01*
X152400000Y-172720000D02*
X157480000Y-172720000D01*
X167640000Y-33060000D02*
X160020000Y-33060000D01*
X121920000Y-62240000D02*
X113020000Y-62240000D01*
X215900000Y-106720000D02*
X223520000Y-106720000D01*
X121285000Y-23760000D02*
X92445000Y-23760000D01*
X109100000Y-187880000D02*
X111760000Y-190540000D01*
X213360000Y-48300000D02*
X215900000Y-48300000D01*
X127000000Y-33020000D02*
X121285000Y-33020000D01*
X121285000Y-24765000D02*
X121285000Y-23760000D01*
X194310000Y-164465000D02*
X194945000Y-165100000D01*
X218440000Y-162560000D02*
X218440000Y-165100000D01*
X129580000Y-106720000D02*
X152400000Y-106720000D01*
X127000000Y-48300000D02*
X127000000Y-48260000D01*
X92200000Y-25400000D02*
X92200000Y-183640000D01*
X213360000Y-33060000D02*
X215900000Y-33060000D01*
X218400000Y-177800000D02*
X218400000Y-180340000D01*
X218440000Y-93980000D02*
X233680000Y-93980000D01*
X170180000Y-139700000D02*
X170180000Y-142280000D01*
X101600000Y-48260000D02*
X99060000Y-45720000D01*
X123190000Y-109220000D02*
X124460000Y-109220000D01*
X233680000Y-96520000D02*
X233680000Y-93980000D01*
X194945000Y-165100000D02*
X210820000Y-165100000D01*
X113020000Y-57160000D02*
X113010000Y-57150000D01*
X193610000Y-166650000D02*
X193610000Y-165165000D01*
X92200000Y-183640000D02*
X96440000Y-187880000D01*
X220980000Y-130302000D02*
X223413000Y-130302000D01*
X185460000Y-93980000D02*
X185420000Y-94020000D01*
X167640000Y-63540000D02*
X172720000Y-63540000D01*
X113040000Y-74940000D02*
X121920000Y-74940000D01*
X195580000Y-30480000D02*
X195580000Y-33060000D01*
X160020000Y-61000000D02*
X160020000Y-63540000D01*
X111760000Y-175300000D02*
X114260000Y-175300000D01*
X134874000Y-127762000D02*
X134874000Y-130048000D01*
X160020000Y-33060000D02*
X129540000Y-33060000D01*
X200660000Y-33060000D02*
X195580000Y-33060000D01*
X132080000Y-66040000D02*
X130820000Y-64780000D01*
X215900000Y-165100000D02*
X218440000Y-165100000D01*
X154940000Y-130302000D02*
X220980000Y-130302000D01*
X127000000Y-48300000D02*
X121325000Y-48300000D01*
X167640000Y-30520000D02*
X167640000Y-33060000D01*
X154940000Y-106720000D02*
X190500000Y-106720000D01*
X187960000Y-142280000D02*
X195580000Y-142280000D01*
X160020000Y-142280000D02*
X170180000Y-142280000D01*
X220980000Y-180340000D02*
X218400000Y-180340000D01*
X213360000Y-33060000D02*
X200660000Y-33060000D01*
X172720000Y-48300000D02*
X167640000Y-48300000D01*
X121920000Y-57160000D02*
X113020000Y-57160000D01*
X170180000Y-142280000D02*
X187960000Y-142280000D01*
X157480000Y-63540000D02*
X160020000Y-63540000D01*
X137160000Y-187120000D02*
X137740000Y-186540000D01*
X190500000Y-106680000D02*
X190500000Y-106720000D01*
X187960000Y-30520000D02*
X187960000Y-33060000D01*
X96440000Y-187880000D02*
X109100000Y-187880000D01*
X123190000Y-104140000D02*
X92340000Y-104140000D01*
X132334000Y-130302000D02*
X134620000Y-130302000D01*
X190500000Y-93980000D02*
X185460000Y-93980000D01*
X92445000Y-23760000D02*
X92340000Y-23865000D01*
X160020000Y-139700000D02*
X160020000Y-142280000D01*
X154980000Y-142280000D02*
X154940000Y-142240000D01*
X215900000Y-30510000D02*
X215900000Y-33060000D01*
X205740000Y-106720000D02*
X215900000Y-106720000D01*
X187960000Y-45760000D02*
X187960000Y-48300000D01*
X129540000Y-30480000D02*
X129540000Y-33060000D01*
X195580000Y-33060000D02*
X187960000Y-33060000D01*
X121325000Y-48300000D02*
X121285000Y-48260000D01*
X190500000Y-93980000D02*
X205740000Y-93980000D01*
X200660000Y-30480000D02*
X200660000Y-33060000D01*
X130820000Y-64780000D02*
X121920000Y-64780000D01*
X215900000Y-45760000D02*
X215900000Y-48300000D01*
X167640000Y-61000000D02*
X167640000Y-63540000D01*
X172720000Y-33060000D02*
X167640000Y-33060000D01*
X111760000Y-190540000D02*
X121920000Y-190540000D01*
X129540000Y-106680000D02*
X129580000Y-106720000D01*
X220980000Y-119380000D02*
X218440000Y-119380000D01*
X154940000Y-48300000D02*
X129540000Y-48300000D01*
X205740000Y-93980000D02*
X218440000Y-93980000D01*
X124460000Y-109220000D02*
X127000000Y-106680000D01*
X134620000Y-130302000D02*
X154940000Y-130302000D01*
X198120000Y-142280000D02*
X210820000Y-142280000D01*
X210820000Y-165100000D02*
X215900000Y-165100000D01*
X113030000Y-74930000D02*
X111760000Y-74930000D01*
X134874000Y-130048000D02*
X134620000Y-130302000D01*
X187960000Y-48300000D02*
X172720000Y-48300000D01*
X187960000Y-61000000D02*
X187960000Y-63540000D01*
X157480000Y-142280000D02*
X154980000Y-142280000D01*
X113020000Y-62240000D02*
X113010000Y-62230000D01*
X193610000Y-165165000D02*
X194310000Y-164465000D01*
X172720000Y-63540000D02*
X187960000Y-63540000D01*
X134620000Y-66040000D02*
X132080000Y-66040000D01*
X218440000Y-165100000D02*
X220980000Y-165100000D01*
X210820000Y-142280000D02*
X215900000Y-142280000D01*
X129540000Y-48300000D02*
X127000000Y-48300000D01*
X129540000Y-33100000D02*
X127000000Y-33100000D01*
X172720000Y-30520000D02*
X172720000Y-33060000D01*
X172720000Y-61000000D02*
X172720000Y-63540000D01*
D29*
%TO.N,Net-(C2-Pad1)*%
X124460000Y-165100000D02*
X121920000Y-165100000D01*
%TO.N,Net-(C3-Pad1)*%
X134620000Y-182880000D02*
X124460000Y-182880000D01*
X121920000Y-137160000D02*
X114300000Y-137160000D01*
%TO.N,/Instruction Decoder/~{i6}*%
X217170000Y-185420000D02*
X220980000Y-185420000D01*
X206840000Y-189400000D02*
X217000000Y-189400000D01*
X205740000Y-190500000D02*
X206840000Y-189400000D01*
X171450000Y-189230000D02*
X170180000Y-190500000D01*
X190500000Y-190500000D02*
X189230000Y-189230000D01*
X204470000Y-189230000D02*
X201930000Y-189230000D01*
X217000000Y-189400000D02*
X217170000Y-189230000D01*
X180340000Y-190500000D02*
X179070000Y-189230000D01*
X189230000Y-189230000D02*
X181610000Y-189230000D01*
X201930000Y-189230000D02*
X200660000Y-190500000D01*
X181610000Y-189230000D02*
X180340000Y-190500000D01*
X191770000Y-189230000D02*
X190500000Y-190500000D01*
X170180000Y-190500000D02*
X168640000Y-188960000D01*
X200660000Y-190500000D02*
X199390000Y-189230000D01*
X199390000Y-189230000D02*
X191770000Y-189230000D01*
X168640000Y-188960000D02*
X161560000Y-188960000D01*
X179070000Y-189230000D02*
X171450000Y-189230000D01*
X205740000Y-190500000D02*
X204470000Y-189230000D01*
%TO.N,Net-(D2-K)*%
X162394997Y-177165000D02*
X162560000Y-176999997D01*
X162560000Y-175895000D02*
X217170000Y-175895000D01*
X157480000Y-177165000D02*
X162394997Y-177165000D01*
X217805000Y-193040000D02*
X220980000Y-193040000D01*
%TO.N,/Instruction Decoder/~{i5}*%
X173990000Y-194310000D02*
X175260000Y-193040000D01*
X204740000Y-192040000D02*
X205740000Y-193040000D01*
X201660000Y-192040000D02*
X204740000Y-192040000D01*
X208280000Y-187960000D02*
X213360000Y-187960000D01*
X170180000Y-193040000D02*
X171450000Y-194310000D01*
X205740000Y-193040000D02*
X208280000Y-193040000D01*
X171450000Y-194310000D02*
X173990000Y-194310000D01*
X200660000Y-193040000D02*
X201660000Y-192040000D01*
%TO.N,/Instruction Decoder/~{i4}*%
X175260000Y-195580000D02*
X176530000Y-196850000D01*
X170180000Y-195580000D02*
X171180000Y-196580000D01*
X219710000Y-191770000D02*
X220980000Y-190500000D01*
X209550000Y-191770000D02*
X219710000Y-191770000D01*
X171180000Y-196580000D02*
X174260000Y-196580000D01*
X184150000Y-196850000D02*
X185420000Y-195580000D01*
X176530000Y-196850000D02*
X184150000Y-196850000D01*
X184150000Y-182880000D02*
X209550000Y-182880000D01*
X174260000Y-196580000D02*
X175260000Y-195580000D01*
%TO.N,/Address BUS/Instruction_7*%
X200660000Y-187960000D02*
X199660000Y-186960000D01*
X166370000Y-136525000D02*
X198120000Y-136525000D01*
X166100000Y-186960000D02*
X165100000Y-187960000D01*
X161020000Y-186960000D02*
X164100000Y-186960000D01*
X164100000Y-186960000D02*
X165100000Y-187960000D01*
X158750000Y-151130000D02*
X166370000Y-151130000D01*
X147350000Y-71090000D02*
X147320000Y-71120000D01*
X160020000Y-187960000D02*
X161020000Y-186960000D01*
X166370000Y-186690000D02*
X166100000Y-186960000D01*
X166370000Y-151130000D02*
X167640000Y-151130000D01*
X200660000Y-180340000D02*
X213360000Y-180340000D01*
X189200000Y-71090000D02*
X147350000Y-71090000D01*
X199660000Y-186960000D02*
X166370000Y-186690000D01*
X189230000Y-71120000D02*
X189200000Y-71090000D01*
X147320000Y-120650000D02*
X158750000Y-120650000D01*
%TO.N,Net-(D6-K)*%
X162560000Y-177800000D02*
X165100000Y-177800000D01*
X162560000Y-183515000D02*
X210820000Y-183515000D01*
X210820000Y-190500000D02*
X213360000Y-190500000D01*
%TO.N,/Address BUS/Instruction_5*%
X165100000Y-193040000D02*
X166240000Y-191900000D01*
X196850000Y-131902000D02*
X193040000Y-131902000D01*
X186420000Y-192040000D02*
X194580000Y-192040000D01*
X180340000Y-193040000D02*
X181340000Y-192040000D01*
X160020000Y-193040000D02*
X161020000Y-194040000D01*
X181340000Y-192040000D02*
X184420000Y-192040000D01*
X185420000Y-193040000D02*
X186420000Y-192040000D01*
X164100000Y-194040000D02*
X165100000Y-193040000D01*
X161020000Y-194040000D02*
X164100000Y-194040000D01*
X179200000Y-191900000D02*
X180340000Y-193040000D01*
X196850000Y-185420000D02*
X213360000Y-185420000D01*
X194580000Y-192040000D02*
X195580000Y-193040000D01*
X166240000Y-191900000D02*
X179200000Y-191900000D01*
X184420000Y-192040000D02*
X185420000Y-193040000D01*
%TO.N,/Address BUS/Instruction_6*%
X173990000Y-191330000D02*
X173990000Y-191135000D01*
X173820000Y-191500000D02*
X173990000Y-191330000D01*
X194580000Y-191500000D02*
X195580000Y-190500000D01*
X219710000Y-184150000D02*
X220980000Y-182880000D01*
X185420000Y-190500000D02*
X186420000Y-191500000D01*
X176260000Y-191500000D02*
X184420000Y-191500000D01*
X184420000Y-191500000D02*
X185420000Y-190500000D01*
X175260000Y-190500000D02*
X176260000Y-191500000D01*
X165100000Y-190500000D02*
X166100000Y-191500000D01*
X166100000Y-191500000D02*
X173820000Y-191500000D01*
X174625000Y-191135000D02*
X175260000Y-190500000D01*
X173990000Y-191135000D02*
X174625000Y-191135000D01*
X186420000Y-191500000D02*
X194580000Y-191500000D01*
X194310000Y-184150000D02*
X219710000Y-184150000D01*
%TO.N,/Address BUS/MEMMode*%
X128270000Y-163830000D02*
X167640000Y-163830000D01*
%TO.N,/ALU/I0a*%
X172720000Y-178435000D02*
X170180000Y-178435000D01*
X199520000Y-39240000D02*
X200660000Y-38100000D01*
X173820000Y-39240000D02*
X199520000Y-39240000D01*
X172720000Y-38140000D02*
X173820000Y-39240000D01*
%TO.N,Net-(D22-K)*%
X182880000Y-175260000D02*
X175260000Y-175260000D01*
%TO.N,/Address BUS/Instruction_4*%
X181340000Y-194580000D02*
X180340000Y-195580000D01*
X204030000Y-186690000D02*
X219710000Y-186690000D01*
X219710000Y-186690000D02*
X220980000Y-187960000D01*
X203395000Y-186055000D02*
X204030000Y-186690000D01*
X190500000Y-195580000D02*
X189500000Y-194580000D01*
X191770000Y-186055000D02*
X203395000Y-186055000D01*
X189500000Y-194580000D02*
X181340000Y-194580000D01*
%TO.N,Net-(D26-K)*%
X187960000Y-172720000D02*
X177800000Y-172720000D01*
X187960000Y-158115000D02*
X228600000Y-158115000D01*
%TO.N,Net-(D30-K)*%
X193040000Y-179070000D02*
X193675000Y-178435000D01*
X208915000Y-159385000D02*
X220980000Y-159385000D01*
X193675000Y-178435000D02*
X208915000Y-178435000D01*
X193040000Y-179070000D02*
X160020000Y-179070000D01*
%TO.N,Net-(D18-K)*%
X177800000Y-177165000D02*
X172720000Y-177165000D01*
%TO.N,Net-(IC1-A11)*%
X126400000Y-101600000D02*
X123190000Y-101600000D01*
X121920000Y-69860000D02*
X126355000Y-69860000D01*
X126355000Y-69860000D02*
X126365000Y-69850000D01*
%TO.N,Net-(IC1-~{CS})*%
X115110003Y-77480000D02*
X115100003Y-77470000D01*
X114935000Y-109220000D02*
X101600000Y-109220000D01*
X121920000Y-77480000D02*
X115110003Y-77480000D01*
%TO.N,/Address BUS/RAM_A0*%
X103505000Y-83820000D02*
X101600000Y-83820000D01*
X103515000Y-80020000D02*
X103505000Y-80010000D01*
X116829998Y-80020000D02*
X106680000Y-80020000D01*
X116205000Y-28575000D02*
X147320000Y-28575000D01*
X116839999Y-80009999D02*
X116829998Y-80020000D01*
X106680000Y-80020000D02*
X103515000Y-80020000D01*
%TO.N,Net-(IC1-Q5)*%
X121920000Y-85100000D02*
X129530000Y-85100000D01*
X129540000Y-116840000D02*
X123190000Y-116840000D01*
X129530000Y-85100000D02*
X129540000Y-85090000D01*
%TO.N,/Data BUS/Stack2*%
X198120000Y-63500000D02*
X199390000Y-63500000D01*
X106680000Y-87640000D02*
X119370000Y-87640000D01*
X94615000Y-90170000D02*
X100330000Y-90170000D01*
X94625000Y-87640000D02*
X94615000Y-87630000D01*
X100330000Y-90170000D02*
X101600000Y-91440000D01*
X210185000Y-41275000D02*
X226060000Y-41275000D01*
X119380000Y-123190000D02*
X144780000Y-123190000D01*
X189230000Y-90780000D02*
X188870000Y-90420000D01*
X194310000Y-90580000D02*
X194110000Y-90780000D01*
X119370000Y-87640000D02*
X119380000Y-87630000D01*
X106680000Y-87640000D02*
X94625000Y-87640000D01*
X170180000Y-104140000D02*
X172720000Y-104140000D01*
X199390000Y-73660000D02*
X193675000Y-73660000D01*
X188870000Y-90420000D02*
X172920000Y-90420000D01*
X194110000Y-90780000D02*
X189230000Y-90780000D01*
X199390000Y-63500000D02*
X210185000Y-63500000D01*
X172920000Y-90420000D02*
X172720000Y-90620000D01*
%TO.N,Net-(IC1-Q4)*%
X128905000Y-119380000D02*
X123190000Y-119380000D01*
X121920000Y-87640000D02*
X128895000Y-87640000D01*
X128895000Y-87640000D02*
X128905000Y-87630000D01*
%TO.N,/Data BUS/Stack0*%
X160020000Y-104140000D02*
X162560000Y-104140000D01*
X208650000Y-65140000D02*
X208915000Y-65405000D01*
X195580000Y-65140000D02*
X208650000Y-65140000D01*
X185110635Y-95885000D02*
X162560000Y-95885000D01*
X186115635Y-94880000D02*
X185110635Y-95885000D01*
X106680000Y-82560000D02*
X104150000Y-82560000D01*
X208915000Y-40640000D02*
X220980000Y-40640000D01*
X104150000Y-82560000D02*
X104140000Y-82550000D01*
X104140000Y-93980000D02*
X101600000Y-93980000D01*
X196850000Y-94880000D02*
X186115635Y-94880000D01*
%TO.N,/Address BUS/RAM_A1*%
X94625000Y-77480000D02*
X94615000Y-77470000D01*
X135825000Y-27370000D02*
X135890000Y-27305000D01*
X94615000Y-83820000D02*
X99060000Y-83820000D01*
X113095000Y-27370000D02*
X135825000Y-27370000D01*
X114290000Y-77480000D02*
X106680000Y-77480000D01*
X106680000Y-77480000D02*
X94625000Y-77480000D01*
X135890000Y-27305000D02*
X139700000Y-27305000D01*
X114300000Y-77470000D02*
X114290000Y-77480000D01*
X113030000Y-27305000D02*
X113095000Y-27370000D01*
%TO.N,Net-(IC1-Q6)*%
X130175000Y-113665000D02*
X123825000Y-113665000D01*
X123825000Y-113665000D02*
X123190000Y-114300000D01*
X130165000Y-82560000D02*
X130175000Y-82550000D01*
X121920000Y-82560000D02*
X130165000Y-82560000D01*
%TO.N,/Address BUS/RAM_A4*%
X106680000Y-46355000D02*
X104140000Y-46355000D01*
X104140000Y-69850000D02*
X104150000Y-69860000D01*
X147320000Y-49530000D02*
X104140000Y-49530000D01*
X104140000Y-78740000D02*
X101600000Y-78740000D01*
X104150000Y-69860000D02*
X106680000Y-69860000D01*
%TO.N,Net-(IC1-Q7)*%
X118110000Y-111760000D02*
X123190000Y-111760000D01*
X121910000Y-80010000D02*
X118110000Y-80010000D01*
X121920000Y-80020000D02*
X121910000Y-80010000D01*
%TO.N,/Data BUS/Stack1*%
X93980000Y-93980000D02*
X99060000Y-93980000D01*
X192405000Y-86995000D02*
X167640000Y-86995000D01*
X210985003Y-43815000D02*
X210795737Y-44004266D01*
X100330000Y-95250000D02*
X142875000Y-95250000D01*
X142875000Y-95250000D02*
X167640000Y-95250000D01*
X223520000Y-43815000D02*
X210985003Y-43815000D01*
X203200000Y-74295000D02*
X192405000Y-74295000D01*
X99060000Y-93980000D02*
X100330000Y-95250000D01*
X165100000Y-104140000D02*
X167640000Y-104140000D01*
X210820000Y-64135000D02*
X203200000Y-64135000D01*
X93990000Y-85100000D02*
X93980000Y-85090000D01*
X106680000Y-85100000D02*
X93990000Y-85100000D01*
%TO.N,/Address BUS/RAM_A6*%
X126365000Y-63500000D02*
X107960000Y-63500000D01*
X104740000Y-76200000D02*
X101600000Y-76200000D01*
X106680000Y-64780000D02*
X104785000Y-64780000D01*
X107915000Y-44450000D02*
X107950000Y-44415000D01*
X144145000Y-59690000D02*
X126365000Y-59690000D01*
X107960000Y-63500000D02*
X106680000Y-64780000D01*
X104785000Y-64780000D02*
X104775000Y-64770000D01*
X144780000Y-60325000D02*
X144145000Y-59690000D01*
X101600000Y-44450000D02*
X107915000Y-44450000D01*
%TO.N,/Data BUS/Stack3*%
X204470000Y-73025000D02*
X191770000Y-73025000D01*
X100330000Y-92710000D02*
X99060000Y-91440000D01*
X121920000Y-92710000D02*
X100330000Y-92710000D01*
X207605000Y-61000000D02*
X207645000Y-60960000D01*
X191770000Y-99695000D02*
X177800000Y-99695000D01*
X205740000Y-61000000D02*
X207605000Y-61000000D01*
X207645000Y-41910000D02*
X228600000Y-41910000D01*
X175260000Y-104140000D02*
X177800000Y-104140000D01*
%TO.N,/Address BUS/RAM_A7*%
X107960000Y-60960000D02*
X106680000Y-62240000D01*
X137160000Y-57785000D02*
X136525000Y-58420000D01*
X100330000Y-62230000D02*
X100340000Y-62240000D01*
X99060000Y-43815000D02*
X113030000Y-43815000D01*
X113030000Y-60960000D02*
X107960000Y-60960000D01*
X136525000Y-58420000D02*
X113030000Y-58420000D01*
X100340000Y-62240000D02*
X106680000Y-62240000D01*
%TO.N,/Address BUS/RAM_A2*%
X96520000Y-41910000D02*
X111760000Y-41910000D01*
X106680000Y-74940000D02*
X96530000Y-74940000D01*
X111760000Y-40005000D02*
X144780000Y-40005000D01*
X96520000Y-82550000D02*
X100330000Y-82550000D01*
X100330000Y-82550000D02*
X101600000Y-81280000D01*
X96530000Y-74940000D02*
X96520000Y-74930000D01*
%TO.N,/Address BUS/RAM_A3*%
X95895000Y-72400000D02*
X95885000Y-72390000D01*
X109220000Y-40640000D02*
X137160000Y-40640000D01*
X106680000Y-72400000D02*
X95895000Y-72400000D01*
X95885000Y-43180000D02*
X109220000Y-43180000D01*
X95885000Y-81280000D02*
X99060000Y-81280000D01*
%TO.N,/Address BUS/RAM_A5*%
X95250000Y-78740000D02*
X99060000Y-78740000D01*
X104140000Y-41275000D02*
X139700000Y-41275000D01*
X106670000Y-67310000D02*
X95250000Y-67310000D01*
X95250000Y-41275000D02*
X104140000Y-41275000D01*
X106680000Y-67320000D02*
X106670000Y-67310000D01*
%TO.N,/Address BUS/Instruction_2*%
X140970000Y-116205000D02*
X167640000Y-116205000D01*
%TO.N,/Address BUS/Instruction_3*%
X172720000Y-114935000D02*
X184150000Y-114935000D01*
X135890000Y-114935000D02*
X172720000Y-114935000D01*
X132080000Y-43180000D02*
X135890000Y-43180000D01*
X184150000Y-134620000D02*
X187960000Y-134620000D01*
%TO.N,/Address BUS/Instruction_1*%
X122555000Y-53975000D02*
X127000000Y-53975000D01*
X162560000Y-114300000D02*
X193040000Y-114300000D01*
X127000000Y-114300000D02*
X162560000Y-114300000D01*
X193040000Y-114300000D02*
X229870000Y-114300000D01*
X134620000Y-26670000D02*
X122555000Y-26670000D01*
%TO.N,/Address BUS/Instruction_0*%
X157480000Y-115570000D02*
X195580000Y-115570000D01*
X210820000Y-99060000D02*
X228600000Y-99060000D01*
X142240000Y-26035000D02*
X118745000Y-26035000D01*
X118745000Y-110490000D02*
X157480000Y-110490000D01*
%TO.N,/ALU/I1a*%
X170180000Y-73660000D02*
X147955000Y-73660000D01*
X148590000Y-131202000D02*
X134589395Y-131202000D01*
X198120000Y-38140000D02*
X197554315Y-38140000D01*
X198120000Y-40005000D02*
X172045000Y-40005000D01*
X172045000Y-40005000D02*
X170180000Y-38140000D01*
%TO.N,/Instruction Decoder/ALU_~{Eb}*%
X159385000Y-134620000D02*
X167640000Y-134620000D01*
X165740000Y-27340000D02*
X190500000Y-27340000D01*
X160655000Y-59055000D02*
X144780000Y-59055000D01*
X144145000Y-118745000D02*
X159385000Y-118745000D01*
X162560000Y-30520000D02*
X165740000Y-27340000D01*
%TO.N,/ALU/I3a*%
X206375000Y-154305000D02*
X226060000Y-154305000D01*
X165100000Y-38140000D02*
X168235000Y-41275000D01*
X168235000Y-41275000D02*
X193040000Y-41275000D01*
X165100000Y-72390000D02*
X149225000Y-72390000D01*
X153670000Y-154305000D02*
X206375000Y-154305000D01*
X149225000Y-121920000D02*
X153670000Y-121920000D01*
%TO.N,/ALU/Internal_A3*%
X198120000Y-42545000D02*
X203200000Y-42545000D01*
%TO.N,/ALU/ALU_in_A3*%
X222885000Y-83820000D02*
X211455000Y-83820000D01*
X134620000Y-41910000D02*
X152400000Y-41910000D01*
X229870000Y-48260000D02*
X233680000Y-48260000D01*
X211455000Y-101600000D02*
X200660000Y-101600000D01*
X152400000Y-25400000D02*
X193040000Y-25400000D01*
X193040000Y-25400000D02*
X228600000Y-25400000D01*
X222250000Y-71120000D02*
X233680000Y-71120000D01*
%TO.N,/ALU/ALU_in_B3*%
X143510000Y-57150000D02*
X134620000Y-57150000D01*
X217170000Y-92075000D02*
X228600000Y-92075000D01*
X217170000Y-92075000D02*
X216625000Y-92620000D01*
X143600000Y-92620000D02*
X143510000Y-92710000D01*
X212090000Y-60325000D02*
X236220000Y-60325000D01*
X216625000Y-92620000D02*
X143600000Y-92620000D01*
X234315000Y-49530000D02*
X236220000Y-49530000D01*
X213360000Y-84455000D02*
X216535000Y-84455000D01*
X232410000Y-26035000D02*
X191770000Y-26035000D01*
%TO.N,/ALU/I2a*%
X170140000Y-40640000D02*
X195580000Y-40640000D01*
X150495000Y-125730000D02*
X155575000Y-125730000D01*
X167640000Y-38140000D02*
X170140000Y-40640000D01*
X156210000Y-155575000D02*
X233680000Y-155575000D01*
X167640000Y-73025000D02*
X150495000Y-73025000D01*
%TO.N,/ALU/Internal_B3*%
X208280000Y-43180000D02*
X201548530Y-43180000D01*
X205740000Y-30480000D02*
X208280000Y-30480000D01*
X201548530Y-43180000D02*
X201421765Y-43306765D01*
%TO.N,/ALU/ALU_in_A2*%
X165100000Y-30520000D02*
X167680000Y-27940000D01*
X223520000Y-27940000D02*
X223520000Y-27970000D01*
X165100000Y-26670000D02*
X150495000Y-26670000D01*
X227330000Y-48895000D02*
X231140000Y-48895000D01*
X226060000Y-86159997D02*
X209550000Y-86159997D01*
X209550000Y-99695000D02*
X198120000Y-99695000D01*
X223520000Y-27970000D02*
X226060000Y-30510000D01*
X150329997Y-41275000D02*
X142240000Y-41275000D01*
X167680000Y-27940000D02*
X223520000Y-27940000D01*
X224790000Y-62230000D02*
X231140000Y-62230000D01*
%TO.N,/ALU/Internal_A2*%
X175260000Y-41910000D02*
X192874997Y-41910000D01*
X192874997Y-41910000D02*
X193040000Y-42075003D01*
%TO.N,/ALU/ALU_in_B2*%
X182245000Y-43815000D02*
X165948529Y-43815000D01*
X165948529Y-43815000D02*
X165313529Y-43180000D01*
X162560000Y-38140000D02*
X162560000Y-40640000D01*
X161925000Y-41275000D02*
X151130000Y-41275000D01*
X151130000Y-56515000D02*
X142240000Y-56515000D01*
X215900000Y-83185000D02*
X226695000Y-83185000D01*
X229870000Y-49530000D02*
X182245000Y-49530000D01*
X162560000Y-40640000D02*
X161925000Y-41275000D01*
X214630000Y-57150000D02*
X228600000Y-57150000D01*
X165313529Y-43180000D02*
X162560000Y-43180000D01*
%TO.N,/ALU/Internal_B2*%
X180340000Y-43180000D02*
X190500000Y-43180000D01*
X177800000Y-30520000D02*
X180300000Y-30520000D01*
X180300000Y-30520000D02*
X180340000Y-30480000D01*
%TO.N,/ALU/ALU_in_B1*%
X161250000Y-52070000D02*
X162560000Y-53380000D01*
X226060000Y-58420000D02*
X201508529Y-58420000D01*
X200873529Y-59055000D02*
X162560000Y-59055000D01*
X218440000Y-84455000D02*
X223520000Y-84455000D01*
X201508529Y-58420000D02*
X200873529Y-59055000D01*
X156510000Y-52070000D02*
X161250000Y-52070000D01*
X137160000Y-52039997D02*
X156479997Y-52039997D01*
X217170000Y-60960000D02*
X226060000Y-60960000D01*
X156479997Y-52039997D02*
X156510000Y-52070000D01*
X223520000Y-47625000D02*
X226060000Y-47625000D01*
%TO.N,/ALU/ALU_in_A1*%
X191348529Y-55880000D02*
X190713529Y-56515000D01*
X228600000Y-84959997D02*
X228504997Y-85055000D01*
X167005000Y-49530000D02*
X165100000Y-49530000D01*
X212185003Y-85055000D02*
X212090000Y-84959997D01*
X153670000Y-27940000D02*
X137160000Y-27940000D01*
X227330000Y-71755000D02*
X223520000Y-71755000D01*
X190713529Y-56515000D02*
X167005000Y-56515000D01*
X223520000Y-55245000D02*
X222885000Y-55880000D01*
X228504997Y-85055000D02*
X212185003Y-85055000D01*
X222885000Y-55880000D02*
X191348529Y-55880000D01*
X212090000Y-100330000D02*
X195580000Y-100330000D01*
X165100000Y-43815000D02*
X153670000Y-43815000D01*
%TO.N,/ALU/Internal_A1*%
X175260000Y-57150000D02*
X193040000Y-57150000D01*
%TO.N,/ALU/Internal_B1*%
X177800000Y-49530000D02*
X180975000Y-49530000D01*
X180975000Y-55880000D02*
X190500000Y-55880000D01*
%TO.N,/ALU/ALU_in_A0*%
X144780000Y-24765000D02*
X220980000Y-24765000D01*
X208280000Y-100965000D02*
X193040000Y-100965000D01*
X229870000Y-57785000D02*
X220980000Y-57785000D01*
X208445003Y-85559997D02*
X208280000Y-85725000D01*
X231140000Y-85559997D02*
X208445003Y-85559997D01*
X146050000Y-57785000D02*
X165100000Y-57785000D01*
%TO.N,/ALU/ALU_in_B0*%
X151630000Y-71755000D02*
X151565000Y-71690000D01*
X219710000Y-62230000D02*
X218440000Y-62230000D01*
X220980000Y-48895000D02*
X218440000Y-48895000D01*
X162760000Y-66740000D02*
X175895000Y-66740000D01*
X151730000Y-43180000D02*
X144780000Y-43180000D01*
X175895000Y-66740000D02*
X184215000Y-66740000D01*
X184215000Y-66740000D02*
X184785000Y-67310000D01*
X184785000Y-67310000D02*
X205040000Y-67310000D01*
X162560000Y-66940000D02*
X162760000Y-66740000D01*
X162560000Y-71755000D02*
X151630000Y-71755000D01*
X213995000Y-62230000D02*
X218440000Y-62230000D01*
X205040000Y-67310000D02*
X213995000Y-67310000D01*
%TO.N,/ALU/Internal_B0*%
X177800000Y-58420000D02*
X200660000Y-58420000D01*
%TO.N,/ALU/Internal_A0*%
X175260000Y-71755000D02*
X180975000Y-71755000D01*
X180975000Y-57785000D02*
X198120000Y-57785000D01*
%TO.N,/ALU/ALU_OUT1*%
X189460000Y-64540000D02*
X189230000Y-64770000D01*
X198120000Y-64540000D02*
X189460000Y-64540000D01*
%TO.N,/Instruction Decoder/Carry_Flg*%
X204470000Y-26670000D02*
X240640000Y-26670000D01*
%TO.N,/ALU/ALU_OUT0*%
X191770000Y-55245000D02*
X195580000Y-55245000D01*
%TO.N,/ALU/Carry_OUT*%
X236855000Y-135890000D02*
X226060000Y-135890000D01*
X207010000Y-72390000D02*
X236855000Y-72390000D01*
%TO.N,/Data BUS/Level_C2*%
X195580000Y-56515000D02*
X209550000Y-56515000D01*
X209550000Y-42545000D02*
X226060000Y-42545000D01*
X205740000Y-85725000D02*
X198120000Y-85725000D01*
X196850000Y-80010000D02*
X198120000Y-80010000D01*
%TO.N,/Data BUS/Level_C0*%
X210820000Y-84455000D02*
X193040000Y-84455000D01*
X193040000Y-71120000D02*
X220980000Y-71120000D01*
X220980000Y-59690000D02*
X234950000Y-59690000D01*
%TO.N,/Data BUS/Level_C3*%
X194945000Y-81280000D02*
X203200000Y-81280000D01*
X203200000Y-85090000D02*
X200660000Y-85090000D01*
X201930000Y-71755000D02*
X194945000Y-71755000D01*
X219710000Y-57785000D02*
X203200000Y-57785000D01*
%TO.N,/Data BUS/Level_C1*%
X200660000Y-72390000D02*
X195580000Y-72390000D01*
X227330000Y-62865000D02*
X200660000Y-62865000D01*
X195580000Y-83820000D02*
X208280000Y-83820000D01*
%TO.N,CLK*%
X231140000Y-88900000D02*
X229870000Y-87630000D01*
X229870000Y-87630000D02*
X204510000Y-87630000D01*
X218440000Y-27305000D02*
X238760000Y-27305000D01*
X204510000Y-87630000D02*
X203200000Y-88940000D01*
X239395000Y-86360000D02*
X231140000Y-86360000D01*
%TO.N,/Instruction Decoder/~{STACK_LE}*%
X234950000Y-43180000D02*
X210820000Y-43180000D01*
X211455000Y-53975000D02*
X212050000Y-53380000D01*
X212050000Y-53380000D02*
X215900000Y-53380000D01*
X215900000Y-67310000D02*
X238125000Y-67310000D01*
X238125000Y-173990000D02*
X231140000Y-173990000D01*
%TO.N,~{RESET}*%
X205740000Y-86995000D02*
X233680000Y-86995000D01*
X237490000Y-88900000D02*
X233680000Y-88900000D01*
X237225000Y-34660000D02*
X237490000Y-34925000D01*
X215900000Y-34660000D02*
X237225000Y-34660000D01*
X97790000Y-167640000D02*
X129540000Y-167640000D01*
%TO.N,Net-(IC16-OE)*%
X137160000Y-60960000D02*
X133350000Y-60960000D01*
%TO.N,CLK2*%
X97790000Y-113665000D02*
X106680000Y-113665000D01*
X106680000Y-167005000D02*
X116840000Y-167005000D01*
%TO.N,/Data BUS/Level_C_OE*%
X186690000Y-173355000D02*
X192969365Y-173355000D01*
X203200000Y-174625000D02*
X202845000Y-174270000D01*
X192969365Y-173355000D02*
X193154365Y-173170000D01*
X202845000Y-174270000D02*
X201230000Y-174270000D01*
X200130000Y-173170000D02*
X201230000Y-174270000D01*
X193154365Y-173170000D02*
X200130000Y-173170000D01*
%TO.N,/Instruction Decoder/READ*%
X203555000Y-170460000D02*
X201230000Y-170460000D01*
X198120000Y-179070000D02*
X203835000Y-179070000D01*
X203835000Y-170180000D02*
X203555000Y-170460000D01*
%TO.N,/Data BUS/~{RD}*%
X113030000Y-150495000D02*
X165100000Y-150495000D01*
X113040000Y-72400000D02*
X113030000Y-72390000D01*
X113030000Y-96520000D02*
X101600000Y-96520000D01*
X121920000Y-72400000D02*
X113040000Y-72400000D01*
%TO.N,/Data BUS/~{WR}*%
X125730000Y-99060000D02*
X123190000Y-99060000D01*
X99060000Y-99060000D02*
X123190000Y-99060000D01*
X121920000Y-59700000D02*
X125554997Y-59700000D01*
X125554997Y-59700000D02*
X125564997Y-59690000D01*
%TO.N,Net-(R7-Pad2)*%
X130120000Y-189080000D02*
X130120000Y-195580000D01*
X137160000Y-180340000D02*
X142240000Y-180340000D01*
X131496116Y-183568909D02*
X134779620Y-183568909D01*
X137160000Y-181188529D02*
X137160000Y-180340000D01*
X149860000Y-170180000D02*
X152400000Y-167640000D01*
X130120000Y-186540000D02*
X130120000Y-189080000D01*
X134779620Y-183568909D02*
X137160000Y-181188529D01*
X144780000Y-180340000D02*
X149860000Y-180340000D01*
X152400000Y-167640000D02*
X177800000Y-167640000D01*
%TO.N,Net-(R10-Pad1)*%
X142240000Y-183780000D02*
X143510000Y-182510000D01*
X140280000Y-186540000D02*
X140280000Y-195580000D01*
X143510000Y-182510000D02*
X143510000Y-177800000D01*
%TD*%
M02*
